<svg width="86" height="52" xmlns="http://www.w3.org/2000/svg" xmlns:xlink="http://www.w3.org/1999/xlink" xml:space="preserve" overflow="hidden"><defs><clipPath id="clip0"><rect x="320" y="509" width="86" height="52"/></clipPath><clipPath id="clip1"><path d="M361.918 483.879C391.036 483.879 414.641 506.043 414.641 533.385 414.641 560.726 391.036 582.891 361.918 582.891 332.8 582.891 309.195 560.726 309.195 533.385 309.195 506.043 332.8 483.879 361.918 483.879Z" fill-rule="evenodd" clip-rule="evenodd"/></clipPath></defs><g clip-path="url(#clip0)" transform="translate(-320 -509)"><path d="M334.507 17.5048C361.848 17.5048 384.013 39.6694 384.013 67.0107 384.013 94.3522 361.848 116.517 334.507 116.517 307.165 116.517 285.001 94.3522 285.001 67.0107 285.001 39.6694 307.165 17.5048 334.507 17.5048Z" fill="#F2F2F2" fill-rule="evenodd" transform="matrix(1.06499 0 0 1 5.67231 466.374)"/><g clip-path="url(#clip1)"><path d="M284.987 17.4906C317.99 17.4906 350.994 17.4906 383.998 17.4906 383.998 50.4946 383.998 83.4981 383.998 116.502 350.994 116.502 317.99 116.502 284.987 116.502 284.987 83.4981 284.987 50.4946 284.987 17.4906Z" fill="#FEFEFE" fill-rule="evenodd" transform="matrix(1.06499 0 0 1 5.67231 466.374)"/><path d="M309.225 54.9056C308.282 54.9247 307.339 54.9439 306.395 54.963 306.367 55.5773 306.357 56.1966 306.367 56.8207 306.081 56.8207 305.795 56.8207 305.509 56.8207 305.497 56.8005 305.478 56.7863 305.452 56.7781 304.801 56.638 304.143 56.5757 303.48 56.5921 303.48 56.0396 303.48 55.4871 303.48 54.9346 303.356 54.9346 303.232 54.9346 303.108 54.9346 302.274 54.9439 301.445 54.9346 300.622 54.9056 301.459 54.2784 302.287 53.6402 303.108 52.9907 303.127 52.9907 303.137 52.9813 303.137 52.9622 303.229 52.9021 303.315 52.8353 303.394 52.7621 303.413 52.7621 303.422 52.7527 303.422 52.7335 303.926 52.3585 304.427 51.9775 304.923 51.5902 306.353 52.7015 307.788 53.8068 309.225 54.9056Z" fill="#010101" fill-rule="evenodd" transform="matrix(1.06499 0 0 1 5.67231 466.374)"/><path d="M303.422 52.7335C303.422 52.7527 303.413 52.7621 303.394 52.7621 303.308 52.7621 303.222 52.7621 303.137 52.7621 303.137 52.8287 303.137 52.8955 303.137 52.9622 303.137 52.9813 303.127 52.9907 303.108 52.9907 303.108 52.905 303.108 52.8192 303.108 52.7335 303.213 52.7335 303.318 52.7335 303.422 52.7335Z" fill="#A7B6AC" fill-rule="evenodd" transform="matrix(1.06499 0 0 1 5.67231 466.374)"/><path d="M317.686 52.7621C320.787 52.7286 323.893 52.7241 327.004 52.7478 327.29 52.7644 327.575 52.7835 327.861 52.805 327.981 52.8201 328.096 52.8438 328.204 52.8764 327.786 52.8335 327.367 52.8004 326.946 52.7763 323.898 52.7621 320.849 52.7572 317.8 52.7621 317.791 52.7621 317.781 52.7621 317.771 52.7621 317.742 52.7621 317.714 52.7621 317.686 52.7621Z" fill="#8D8D8D" fill-rule="evenodd" transform="matrix(1.06499 0 0 1 5.67231 466.374)"/><path d="M317.8 52.7621C320.849 52.7572 323.898 52.7621 326.946 52.7763 327.367 52.8004 327.786 52.8335 328.204 52.8764 328.223 52.8764 328.242 52.8764 328.261 52.8764 328.36 52.9104 328.465 52.9293 328.576 52.9336 330.725 53.252 332.397 54.3096 333.592 56.1063 333.932 56.6807 334.184 57.2901 334.35 57.9356 334.347 58.0116 334.366 58.0783 334.407 58.1358 334.407 58.1549 334.407 58.1735 334.407 58.1927 334.397 58.2709 334.416 58.3376 334.464 58.3929 334.464 58.412 334.464 58.4312 334.464 58.4503 334.493 58.7408 334.531 59.0269 334.578 59.3075 334.578 59.6505 334.578 59.9935 334.578 60.3365 334.548 60.5318 334.529 60.7314 334.521 60.9371 334.521 60.9847 334.521 61.0323 334.521 61.0799 334.462 61.2527 334.424 61.4338 334.407 61.6231 333.938 63.8828 332.632 65.4359 330.491 66.2821 330.272 66.3417 330.063 66.4183 329.862 66.5108 329.807 66.5026 329.76 66.5118 329.719 66.5392 329.643 66.5365 329.576 66.5556 329.519 66.5961 328.664 66.7996 327.797 66.9139 326.918 66.9391 324.903 66.9298 322.892 66.9391 320.887 66.9681 320.858 68.0014 320.849 69.0402 320.858 70.0834 320.643 70.3509 320.496 70.6556 320.415 70.998 320.352 71.6134 320.276 72.2234 320.187 72.8273 319.761 73.4246 319.314 74.0056 318.843 74.5712 318.829 74.598 318.824 74.6264 318.829 74.6565 318.697 74.7867 318.578 74.9295 318.472 75.0854 318.318 75.1625 318.18 75.2626 318.057 75.3857 318.035 75.4694 317.988 75.5312 317.914 75.5712 317.876 75.5712 317.838 75.5712 317.8 75.5712 317.8 67.968 317.8 60.3649 317.8 52.7621Z" fill-rule="evenodd" transform="matrix(1.06499 0 0 1 5.67231 466.374)"/><path d="M303.394 52.7621C303.315 52.8353 303.229 52.9021 303.137 52.9622 303.137 52.8955 303.137 52.8287 303.137 52.7621 303.222 52.7621 303.308 52.7621 303.394 52.7621Z" fill="#526957" fill-rule="evenodd" transform="matrix(1.06499 0 0 1 5.67231 466.374)"/><path d="M328.261 52.8764C328.348 52.8719 328.434 52.8764 328.518 52.8907 328.545 52.8987 328.564 52.913 328.576 52.9336 328.465 52.9293 328.36 52.9104 328.261 52.8764Z" fill="#9B9B9B" fill-rule="evenodd" transform="matrix(1.06499 0 0 1 5.67231 466.374)"/><path d="M317.686 52.7621C317.714 52.7621 317.742 52.7621 317.771 52.7621 317.771 60.3939 317.771 68.0255 317.771 75.657 317.771 75.6762 317.771 75.6953 317.771 75.7145 317.75 75.6751 317.731 75.6319 317.714 75.5859 317.752 73.906 317.752 72.2245 317.714 70.5407 317.688 70.5084 317.664 70.5084 317.643 70.5407 317.639 70.6446 317.615 70.7398 317.571 70.8268 317.607 70.5035 317.64 70.1791 317.671 69.8547 317.686 64.1574 317.691 58.4596 317.686 52.7621Z" fill="#58765F" fill-rule="evenodd" transform="matrix(1.06499 0 0 1 5.67231 466.374)"/><path d="M317.771 52.7621C317.781 52.7621 317.791 52.7621 317.8 52.7621 317.8 60.3649 317.8 67.968 317.8 75.5712 317.838 75.5712 317.876 75.5712 317.914 75.5712 317.891 75.6538 317.843 75.6822 317.771 75.657 317.771 68.0255 317.771 60.3939 317.771 52.7621Z" fill="#07140E" fill-rule="evenodd" transform="matrix(1.06499 0 0 1 5.67231 466.374)"/><path d="M300.622 54.9056C301.445 54.9346 302.274 54.9439 303.108 54.9346 303.108 54.9439 303.108 54.9537 303.108 54.963 303.089 54.963 303.07 54.963 303.051 54.963 302.232 54.9723 301.412 54.963 300.593 54.9346 300.597 54.9171 300.606 54.9078 300.622 54.9056Z" fill="#7F7F7F" fill-rule="evenodd" transform="matrix(1.06499 0 0 1 5.67231 466.374)"/><path d="M309.225 54.9056C309.241 54.9078 309.25 54.9171 309.254 54.9346 308.311 54.963 307.367 54.9723 306.424 54.963 306.433 55.5965 306.424 56.2256 306.395 56.8497 306.395 56.2206 306.395 55.5916 306.395 54.963 307.339 54.9439 308.282 54.9247 309.225 54.9056Z" fill="#8F8F8F" fill-rule="evenodd" transform="matrix(1.06499 0 0 1 5.67231 466.374)"/><path d="M303.051 54.963C303.07 54.963 303.089 54.963 303.108 54.963 303.104 59.965 303.108 64.967 303.123 69.9691 303.129 70.0139 303.143 70.0517 303.165 70.0834 303.165 70.236 303.165 70.3886 303.165 70.5407 303.099 70.5101 303.089 70.4625 303.137 70.3979 303.115 70.2847 303.1 70.1704 303.094 70.0549 303.089 65.0223 303.075 59.9918 303.051 54.963Z" fill="#F5FEF7" fill-rule="evenodd" transform="matrix(1.06499 0 0 1 5.67231 466.374)"/><path d="M303.108 54.963C303.222 54.963 303.337 54.963 303.451 54.963 303.451 55.5254 303.451 56.0872 303.451 56.6495 303.451 56.7157 303.451 56.783 303.451 56.8497 303.422 56.2354 303.413 55.6156 303.422 54.9915 303.337 54.9915 303.251 54.9915 303.165 54.9915 303.165 60.0219 303.165 65.0529 303.165 70.0834 303.143 70.0517 303.129 70.0139 303.123 69.9691 303.108 64.967 303.104 59.965 303.108 54.963Z" fill="#6E8A77" fill-rule="evenodd" transform="matrix(1.06499 0 0 1 5.67231 466.374)"/><path d="M326.889 55.306C327.041 55.3153 327.194 55.3252 327.347 55.3345 327.448 55.3607 327.553 55.3706 327.661 55.3629 327.739 55.4034 327.825 55.4225 327.918 55.4203 329.175 55.6315 330.132 56.2792 330.791 57.3639 331.584 58.7709 331.709 60.238 331.163 61.7659 330.776 62.8522 330.047 63.605 328.976 64.024 328.836 64.0612 328.703 64.1082 328.576 64.1667 328.28 64.2269 327.985 64.2887 327.69 64.3527 327.376 64.3899 327.062 64.4135 326.747 64.4239 324.812 64.4239 322.878 64.4239 320.944 64.4239 320.944 61.3846 320.944 58.3453 320.944 55.306 322.926 55.306 324.907 55.306 326.889 55.306Z" fill="#FEFEFE" fill-rule="evenodd" transform="matrix(1.06499 0 0 1 5.67231 466.374)"/><path d="M326.889 55.306C326.889 55.2967 326.889 55.2869 326.889 55.2776 327.05 55.2677 327.202 55.2863 327.347 55.3345 327.194 55.3252 327.041 55.3153 326.889 55.306Z" fill="#616161" fill-rule="evenodd" transform="matrix(1.06499 0 0 1 5.67231 466.374)"/><path d="M320.915 55.2776C322.907 55.2776 324.898 55.2776 326.889 55.2776 326.889 55.2869 326.889 55.2967 326.889 55.306 324.907 55.306 322.926 55.306 320.944 55.306 320.944 58.3453 320.944 61.3846 320.944 64.4239 320.915 61.3797 320.906 58.3311 320.915 55.2776Z" fill="#C3CAC4" fill-rule="evenodd" transform="matrix(1.06499 0 0 1 5.67231 466.374)"/><path d="M327.661 55.3629C327.755 55.3607 327.841 55.3799 327.918 55.4203 327.825 55.4225 327.739 55.4034 327.661 55.3629Z" fill="#7E7E7E" fill-rule="evenodd" transform="matrix(1.06499 0 0 1 5.67231 466.374)"/><path d="M320.915 55.2776C320.906 58.3311 320.915 61.3797 320.944 64.4239 322.878 64.4239 324.812 64.4239 326.747 64.4239 324.791 64.4621 322.833 64.4621 320.873 64.4239 320.853 61.3846 320.853 58.3453 320.873 55.306 320.884 55.2901 320.898 55.2803 320.915 55.2776Z" fill="#5C665E" fill-rule="evenodd" transform="matrix(1.06499 0 0 1 5.67231 466.374)"/><path d="M303.108 54.963C303.108 54.9537 303.108 54.9439 303.108 54.9346 303.232 54.9346 303.356 54.9346 303.48 54.9346 303.48 55.4871 303.48 56.0396 303.48 56.5921 304.143 56.5757 304.801 56.638 305.452 56.7781 305.478 56.7863 305.497 56.8005 305.509 56.8207 304.851 56.8158 304.193 56.7824 303.537 56.7206 303.503 56.7009 303.474 56.6769 303.451 56.6495 303.451 56.0872 303.451 55.5254 303.451 54.963 303.337 54.963 303.222 54.963 303.108 54.963Z" fill="#0C140E" fill-rule="evenodd" transform="matrix(1.06499 0 0 1 5.67231 466.374)"/><path d="M306.395 54.963C306.395 55.5916 306.395 56.2206 306.395 56.8497 306.376 56.8497 306.357 56.8497 306.338 56.8497 305.376 56.8497 304.414 56.8497 303.451 56.8497 303.451 56.783 303.451 56.7157 303.451 56.6495 303.474 56.6769 303.503 56.7009 303.537 56.7206 304.193 56.7824 304.851 56.8158 305.509 56.8207 305.795 56.8207 306.081 56.8207 306.367 56.8207 306.357 56.1966 306.367 55.5773 306.395 54.963Z" fill="#1B271D" fill-rule="evenodd" transform="matrix(1.06499 0 0 1 5.67231 466.374)"/><path d="M303.451 56.8497C304.075 56.8732 304.704 56.8875 305.338 56.8924 305.456 56.9247 305.58 56.9394 305.709 56.9351 305.839 56.934 305.968 56.9241 306.095 56.9066 306.129 56.9356 306.162 56.9641 306.195 56.9925 306.23 56.9712 306.269 56.9613 306.31 56.9641 306.3 61.1608 306.31 65.3527 306.338 69.5402 306.329 69.6507 306.339 69.7557 306.367 69.8547 306.463 72.7135 307.911 74.4093 310.711 74.9426 310.837 74.9847 310.971 75.0039 311.111 74.9995 311.377 75.0181 311.644 75.0274 311.912 75.0285 312.279 75.0334 312.641 75.0143 312.998 74.9711 314.144 74.8551 315.163 74.441 316.056 73.7277 316.914 72.9411 317.419 71.9745 317.571 70.8268 317.615 70.7398 317.639 70.6446 317.643 70.5407 317.664 70.5084 317.688 70.5084 317.714 70.5407 317.752 72.2245 317.752 73.906 317.714 75.5859 317.731 75.6319 317.75 75.6751 317.771 75.7145 317.771 75.7714 317.771 75.8288 317.771 75.8857 317.959 75.7271 318.15 75.5651 318.343 75.3999 318.368 75.3764 318.378 75.348 318.372 75.3141 318.497 75.2408 318.602 75.1406 318.686 75.0137 318.875 74.8578 319.061 74.7008 319.244 74.5422 319.339 74.4076 319.449 74.284 319.572 74.1708 319.649 74.063 319.716 73.9487 319.772 73.8278 319.796 73.8026 319.824 73.7928 319.858 73.7993 319.77 73.9257 319.693 74.0592 319.629 74.1992 318.602 75.5236 317.297 76.4716 315.713 77.0432 315.239 77.2254 314.752 77.3638 314.256 77.4579 314.062 77.4808 313.866 77.4808 313.67 77.4579 313.648 77.4759 313.624 77.4901 313.598 77.5005 313.356 77.5142 313.118 77.5481 312.884 77.6006 312.214 77.5979 311.551 77.5979 310.897 77.6006 310.719 77.5891 310.552 77.5415 310.397 77.4579 310.247 77.4923 310.099 77.4825 309.954 77.4294 309.866 77.4611 309.776 77.4661 309.682 77.4436 309.522 77.419 309.369 77.372 309.225 77.3009 309.07 77.2855 308.918 77.262 308.767 77.2292 307.351 76.8189 306.118 76.0947 305.066 75.057 304.455 74.394 303.992 73.6413 303.68 72.7988 303.614 72.5735 303.538 72.3541 303.451 72.1413 303.328 71.6096 303.233 71.0757 303.165 70.5407 303.165 70.3886 303.165 70.236 303.165 70.0834 303.165 65.0529 303.165 60.0219 303.165 54.9915 303.251 54.9915 303.337 54.9915 303.422 54.9915 303.413 55.6156 303.422 56.2354 303.451 56.8497Z" fill="#4D7558" fill-rule="evenodd" transform="matrix(1.06499 0 0 1 5.67231 466.374)"/><path d="M306.338 56.8497C306.357 56.8497 306.376 56.8497 306.395 56.8497 306.367 61.1827 306.357 65.5174 306.367 69.8547 306.339 69.7557 306.329 69.6507 306.338 69.5402 306.338 65.31 306.338 61.0799 306.338 56.8497Z" fill="#B3C4B4" fill-rule="evenodd" transform="matrix(1.06499 0 0 1 5.67231 466.374)"/><path d="M303.451 56.8497C304.414 56.8497 305.376 56.8497 306.338 56.8497 306.338 61.0799 306.338 65.31 306.338 69.5402 306.31 65.3527 306.3 61.1608 306.31 56.9641 306.269 56.9613 306.23 56.9712 306.195 56.9925 306.162 56.9641 306.129 56.9356 306.095 56.9066 305.968 56.9241 305.839 56.934 305.709 56.9351 305.58 56.9394 305.456 56.9247 305.338 56.8924 304.704 56.8875 304.075 56.8732 303.451 56.8497Z" fill="#517059" fill-rule="evenodd" transform="matrix(1.06499 0 0 1 5.67231 466.374)"/><path d="M334.35 57.9356C334.39 57.993 334.409 58.0597 334.407 58.1358 334.366 58.0783 334.347 58.0116 334.35 57.9356Z" fill="#686868" fill-rule="evenodd" transform="matrix(1.06499 0 0 1 5.67231 466.374)"/><path d="M334.407 58.1927C334.447 58.2501 334.466 58.3174 334.464 58.3929 334.416 58.3376 334.397 58.2709 334.407 58.1927Z" fill="#707070" fill-rule="evenodd" transform="matrix(1.06499 0 0 1 5.67231 466.374)"/><path d="M334.464 58.4503C334.536 58.7277 334.574 59.0132 334.578 59.3075 334.531 59.0269 334.493 58.7408 334.464 58.4503Z" fill="#777777" fill-rule="evenodd" transform="matrix(1.06499 0 0 1 5.67231 466.374)"/><path d="M362.361 59.965C362.466 60.0219 362.571 60.0794 362.675 60.1363 362.722 60.1642 362.76 60.2024 362.79 60.2506 362.701 60.2035 362.606 60.1707 362.504 60.151 362.443 60.0537 362.352 60.011 362.232 60.0219 361.98 60.0558 361.727 60.0843 361.475 60.1078 361.766 60.0471 362.061 59.9995 362.361 59.965Z" fill="#636364" fill-rule="evenodd" transform="matrix(1.06499 0 0 1 5.67231 466.374)"/><path d="M362.361 59.965C362.061 59.9995 361.766 60.0471 361.475 60.1078 361.456 60.1078 361.437 60.1078 361.418 60.1078 361.218 60.1324 361.018 60.1516 360.818 60.1653 361.269 60.0553 361.732 59.9793 362.204 59.9366 362.262 59.9366 362.314 59.9459 362.361 59.965Z" fill="#D1D1D1" fill-rule="evenodd" transform="matrix(1.06499 0 0 1 5.67231 466.374)"/><path d="M362.79 60.2506C362.978 60.3862 363.178 60.505 363.39 60.6083 363.502 60.709 363.621 60.7993 363.747 60.8797 363.893 60.9765 364.05 61.0574 364.219 61.1225 364.269 61.2073 364.345 61.25 364.448 61.2511 364.548 61.3156 364.653 61.3731 364.762 61.4229 364.79 61.4601 364.819 61.4984 364.848 61.5372 365.085 61.6461 365.304 61.7845 365.505 61.9513 365.652 62.018 365.795 62.0891 365.934 62.1657 366.007 62.2527 366.102 62.3052 366.219 62.3233 366.289 62.4267 366.385 62.489 366.506 62.5087 366.506 62.547 366.506 62.5853 366.506 62.623 366.63 62.6849 366.763 62.7324 366.905 62.7664 366.957 62.8096 367.015 62.8473 367.077 62.8807 367.249 62.995 367.421 63.1143 367.591 63.2379 367.639 63.2554 367.687 63.2696 367.735 63.2806 367.921 63.4266 368.121 63.5503 368.335 63.652 368.344 63.6706 368.353 63.6897 368.363 63.7094 368.163 63.7472 367.963 63.7855 367.763 63.8238 367.217 63.8839 366.675 63.9605 366.134 64.0524 366.046 64.3117 365.979 64.5787 365.934 64.8527 365.938 64.8965 365.957 64.9249 365.991 64.9386 366.06 65.042 366.084 65.1563 366.062 65.2816 365.932 65.391 365.879 65.5343 365.905 65.7105 365.905 65.7198 365.905 65.7296 365.905 65.7389 365.872 65.8182 365.853 65.9036 365.848 65.996 365.82 65.996 365.791 65.996 365.762 65.996 365.741 66.2334 365.732 66.4719 365.734 66.7104 365.734 66.7203 365.734 66.7296 365.734 66.7394 365.683 66.8248 365.65 66.9205 365.634 67.025 365.619 67.2055 365.614 67.3871 365.619 67.5682 365.596 67.7481 365.587 67.9292 365.591 68.1114 365.599 68.1655 365.589 68.2137 365.562 68.2541 365.542 68.2662 365.527 68.2848 365.519 68.311 365.484 68.5173 365.451 68.7218 365.419 68.9259 365.352 68.9494 365.286 68.9735 365.219 68.9975 365.095 68.9751 364.972 68.956 364.848 68.9401 364.81 68.9117 364.771 68.8827 364.733 68.8542 364.763 68.6338 364.801 68.415 364.848 68.1967 364.867 68.0922 364.886 67.9872 364.905 67.8827 364.932 67.8089 364.975 67.7421 365.033 67.6825 365.057 67.6076 365.071 67.5315 365.076 67.4538 365.094 67.4506 365.108 67.4413 365.119 67.4254 365.169 67.1825 365.231 66.9445 365.305 66.7104 365.529 66.2033 365.614 65.67 365.562 65.1098 365.585 65.0053 365.647 64.9293 365.748 64.8812 365.803 64.6257 365.846 64.3686 365.876 64.1093 365.508 64.1591 365.146 64.2258 364.791 64.3095 364.564 64.315 364.345 64.3434 364.133 64.3954 363.716 64.4665 363.297 64.5283 362.875 64.5814 362.749 64.6197 362.625 64.6531 362.504 64.681 362.396 64.7182 362.282 64.7373 362.161 64.7384 361.884 64.769 361.607 64.8068 361.332 64.8527 361.235 64.8046 361.14 64.757 361.046 64.7099 360.989 64.5715 360.884 64.495 360.732 64.4813 360.732 64.4523 360.732 64.4239 360.732 64.3954 360.674 64.3954 360.617 64.3954 360.56 64.3954 360.423 64.2674 360.271 64.1629 360.103 64.0809 360.093 64.0809 360.083 64.0809 360.074 64.0809 360.062 64.0535 360.042 64.03 360.017 64.0098 359.887 63.9304 359.753 63.8593 359.617 63.7953 359.42 63.6941 359.23 63.5798 359.045 63.4523 359.008 63.4239 358.97 63.3954 358.931 63.3664 358.865 63.2817 358.78 63.2346 358.674 63.2237 358.661 63.1958 358.641 63.1723 358.616 63.152 358.487 63.0749 358.354 63.0038 358.216 62.9376 358.103 62.855 357.98 62.7882 357.845 62.7374 357.731 62.6591 357.617 62.5782 357.501 62.4945 357.475 62.4808 357.446 62.4759 357.416 62.4803 357.394 62.4436 357.365 62.4102 357.33 62.3802 357.141 62.2932 356.96 62.1931 356.787 62.0804 356.651 61.9546 356.499 61.8495 356.33 61.7659 356.22 61.68 356.105 61.599 355.987 61.523 355.95 61.5088 355.912 61.5038 355.872 61.5088 355.828 61.5022 355.79 61.483 355.758 61.4513 355.621 61.3534 355.478 61.2675 355.329 61.1942 355.329 61.1658 355.329 61.1368 355.329 61.1083 355.836 61.0536 356.332 60.9677 356.815 60.8512 357.065 60.8332 357.313 60.8047 357.559 60.7653 357.571 60.7828 357.59 60.7927 357.616 60.7938 357.925 60.7506 358.23 60.6931 358.531 60.6226 358.575 60.6275 358.617 60.6368 358.66 60.651 358.815 60.5996 358.972 60.552 359.131 60.5082 359.169 60.5175 359.207 60.5274 359.245 60.5367 359.65 60.4563 360.051 60.3704 360.446 60.2796 360.446 60.2697 360.446 60.2604 360.446 60.2506 360.777 60.2265 361.101 60.1784 361.418 60.1078 361.437 60.1078 361.456 60.1078 361.475 60.1078 361.727 60.0843 361.98 60.0558 362.232 60.0219 362.352 60.011 362.443 60.0537 362.504 60.151 362.606 60.1707 362.701 60.2035 362.79 60.2506Z" fill="#313133" fill-rule="evenodd" transform="matrix(1.06499 0 0 1 5.67231 466.374)"/><path d="M361.418 60.1078C361.101 60.1784 360.777 60.2265 360.446 60.2506 360.512 60.2314 360.579 60.2128 360.646 60.1937 360.71 60.2019 360.767 60.1926 360.818 60.1653 361.018 60.1516 361.218 60.1324 361.418 60.1078Z" fill="#909090" fill-rule="evenodd" transform="matrix(1.06499 0 0 1 5.67231 466.374)"/><path d="M360.646 60.1937C360.579 60.2128 360.512 60.2314 360.446 60.2506 360.446 60.2604 360.446 60.2697 360.446 60.2796 360.179 60.308 359.912 60.3365 359.645 60.3649 359.969 60.2686 360.302 60.2112 360.646 60.1937Z" fill="#D3D3D4" fill-rule="evenodd" transform="matrix(1.06499 0 0 1 5.67231 466.374)"/><path d="M359.645 60.3649C359.246 60.471 358.837 60.5383 358.417 60.5651 358.819 60.4765 359.229 60.4098 359.645 60.3649Z" fill="#C2C2C3" fill-rule="evenodd" transform="matrix(1.06499 0 0 1 5.67231 466.374)"/><path d="M360.446 60.2796C360.051 60.3704 359.65 60.4563 359.245 60.5367 359.207 60.5274 359.169 60.5175 359.131 60.5082 358.972 60.552 358.815 60.5996 358.66 60.651 358.617 60.6368 358.575 60.6275 358.531 60.6226 358.23 60.6931 357.925 60.7506 357.616 60.7938 357.59 60.7927 357.571 60.7828 357.559 60.7653 357.596 60.7725 357.625 60.7626 357.645 60.7369 357.868 60.6898 358.097 60.6516 358.331 60.6226 358.375 60.6182 358.403 60.599 358.417 60.5651 358.837 60.5383 359.246 60.471 359.645 60.3649 359.912 60.3365 360.179 60.308 360.446 60.2796Z" fill="#565658" fill-rule="evenodd" transform="matrix(1.06499 0 0 1 5.67231 466.374)"/><path d="M358.417 60.5651C358.403 60.599 358.375 60.6182 358.331 60.6226 358.097 60.6516 357.868 60.6898 357.645 60.7369 357.368 60.7626 357.092 60.7916 356.815 60.8228 356.896 60.7993 356.977 60.7708 357.059 60.7369 357.094 60.7407 357.127 60.7506 357.159 60.7653 357.285 60.7106 357.418 60.6778 357.559 60.6652 357.844 60.6275 358.131 60.5936 358.417 60.5651Z" fill="#D2D2D3" fill-rule="evenodd" transform="matrix(1.06499 0 0 1 5.67231 466.374)"/><path d="M357.645 60.7369C357.625 60.7626 357.596 60.7725 357.559 60.7653 357.313 60.8047 357.065 60.8332 356.815 60.8512 356.815 60.8419 356.815 60.8321 356.815 60.8228 357.092 60.7916 357.368 60.7626 357.645 60.7369Z" fill="#8B8B8C" fill-rule="evenodd" transform="matrix(1.06499 0 0 1 5.67231 466.374)"/><path d="M334.578 60.3365C334.587 60.5438 334.568 60.7435 334.521 60.9371 334.529 60.7314 334.548 60.5318 334.578 60.3365Z" fill="#848484" fill-rule="evenodd" transform="matrix(1.06499 0 0 1 5.67231 466.374)"/><path d="M362.675 60.1363C362.918 60.203 363.117 60.3315 363.275 60.5225 363.344 60.5279 363.411 60.5422 363.476 60.5651 363.59 60.6778 363.714 60.7779 363.847 60.8654 363.945 60.8906 364.041 60.924 364.133 60.9655 364.155 60.9978 364.174 61.0306 364.19 61.0657 364.28 61.1286 364.366 61.1909 364.448 61.2511 364.345 61.25 364.269 61.2073 364.219 61.1225 364.05 61.0574 363.893 60.9765 363.747 60.8797 363.621 60.7993 363.502 60.709 363.39 60.6083 363.178 60.505 362.978 60.3862 362.79 60.2506 362.76 60.2024 362.722 60.1642 362.675 60.1363Z" fill="#BCBCBC" fill-rule="evenodd" transform="matrix(1.06499 0 0 1 5.67231 466.374)"/><path d="M356.815 60.8512C356.332 60.9677 355.836 61.0536 355.329 61.1083 355.329 61.1368 355.329 61.1658 355.329 61.1942 355.478 61.2675 355.621 61.3534 355.758 61.4513 355.714 61.4508 355.671 61.4415 355.63 61.4229 355.519 61.3621 355.409 61.2954 355.301 61.2227 355.25 61.1849 355.241 61.1422 355.272 61.0941 355.778 60.9759 356.293 60.895 356.815 60.8512Z" fill="#B3B3B3" fill-rule="evenodd" transform="matrix(1.06499 0 0 1 5.67231 466.374)"/><path d="M334.521 61.0799C334.503 61.2423 334.479 61.4043 334.45 61.5656 334.442 61.5919 334.427 61.611 334.407 61.6231 334.424 61.4338 334.462 61.2527 334.521 61.0799Z" fill="#6A6A6A" fill-rule="evenodd" transform="matrix(1.06499 0 0 1 5.67231 466.374)"/><path d="M364.762 61.4229C364.897 61.5022 365.04 61.5689 365.19 61.6231 365.216 61.6461 365.225 61.675 365.219 61.7084 365.348 61.7358 365.453 61.8074 365.533 61.9228 365.582 61.9321 365.629 61.942 365.677 61.9513 365.77 62.0153 365.856 62.087 365.934 62.1657 365.795 62.0891 365.652 62.018 365.505 61.9513 365.304 61.7845 365.085 61.6461 364.848 61.5372 364.819 61.4984 364.79 61.4601 364.762 61.4229Z" fill="#BFBFC0" fill-rule="evenodd" transform="matrix(1.06499 0 0 1 5.67231 466.374)"/><path d="M355.872 61.5088C355.912 61.5038 355.95 61.5088 355.987 61.523 356.105 61.599 356.22 61.68 356.33 61.7659 356.197 61.7489 356.074 61.7106 355.958 61.6515 355.958 61.6132 355.958 61.5749 355.958 61.5372 355.922 61.5438 355.893 61.5345 355.872 61.5088Z" fill="#A6A6A6" fill-rule="evenodd" transform="matrix(1.06499 0 0 1 5.67231 466.374)"/><path d="M356.33 61.7659C356.499 61.8495 356.651 61.9546 356.787 62.0804 356.727 62.0886 356.67 62.0793 356.616 62.0514 356.539 61.9748 356.453 61.9081 356.358 61.8517 356.341 61.8249 356.331 61.7965 356.33 61.7659Z" fill="#C1C1C1" fill-rule="evenodd" transform="matrix(1.06499 0 0 1 5.67231 466.374)"/><path d="M356.787 62.0804C356.96 62.1931 357.141 62.2932 357.33 62.3802 357.365 62.4102 357.394 62.4436 357.416 62.4803 357.28 62.4163 357.146 62.3446 357.016 62.2658 356.93 62.2111 356.854 62.1493 356.787 62.0804Z" fill="#AEAEAF" fill-rule="evenodd" transform="matrix(1.06499 0 0 1 5.67231 466.374)"/><path d="M366.506 62.5087C366.617 62.5979 366.741 62.6646 366.877 62.7089 366.9 62.7221 366.909 62.7412 366.905 62.7664 366.763 62.7324 366.63 62.6849 366.506 62.623 366.506 62.5853 366.506 62.547 366.506 62.5087Z" fill="#656567" fill-rule="evenodd" transform="matrix(1.06499 0 0 1 5.67231 466.374)"/><path d="M357.845 62.7374C357.98 62.7882 358.103 62.855 358.216 62.9376 358.162 62.9398 358.11 62.9299 358.059 62.9091 358.007 62.8572 357.946 62.8238 357.873 62.809 357.852 62.7899 357.842 62.7664 357.845 62.7374Z" fill="#B4B4B5" fill-rule="evenodd" transform="matrix(1.06499 0 0 1 5.67231 466.374)"/><path d="M358.216 62.9376C358.354 63.0038 358.487 63.0749 358.616 63.152 358.641 63.1723 358.661 63.1958 358.674 63.2237 358.518 63.1843 358.375 63.1176 358.245 63.0235 358.22 62.9999 358.21 62.9715 358.216 62.9376Z" fill="#ADADAD" fill-rule="evenodd" transform="matrix(1.06499 0 0 1 5.67231 466.374)"/><path d="M367.077 62.8807C367.128 62.8763 367.175 62.8862 367.22 62.9091 367.396 63.0333 367.568 63.1569 367.735 63.2806 367.687 63.2696 367.639 63.2554 367.591 63.2379 367.421 63.1143 367.249 62.995 367.077 62.8807Z" fill="#9E9E9F" fill-rule="evenodd" transform="matrix(1.06499 0 0 1 5.67231 466.374)"/><path d="M358.674 63.2237C358.78 63.2346 358.865 63.2817 358.931 63.3664 358.816 63.3648 358.73 63.3172 358.674 63.2237Z" fill="#7E7E80" fill-rule="evenodd" transform="matrix(1.06499 0 0 1 5.67231 466.374)"/><path d="M367.735 63.2806C367.816 63.2981 367.897 63.3172 367.978 63.338 368.086 63.3993 368.187 63.4709 368.277 63.5524 368.315 63.5754 368.334 63.6088 368.335 63.652 368.121 63.5503 367.921 63.4266 367.735 63.2806Z" fill="#C4C4C4" fill-rule="evenodd" transform="matrix(1.06499 0 0 1 5.67231 466.374)"/><path d="M358.674 63.5667C358.507 63.5054 358.355 63.4195 358.216 63.309 358.199 63.315 358.185 63.3249 358.173 63.338 358.168 63.4321 358.144 63.518 358.102 63.5951 358.12 63.4912 358.129 63.3861 358.131 63.2806 358.259 63.2986 358.373 63.3511 358.474 63.4381 358.531 63.4573 358.588 63.4759 358.645 63.495 358.667 63.5141 358.677 63.5377 358.674 63.5667Z" fill="#9F9F9F" fill-rule="evenodd" transform="matrix(1.06499 0 0 1 5.67231 466.374)"/><path d="M358.674 63.5667C358.703 63.6 358.741 63.6192 358.788 63.6236 358.861 63.6859 358.937 63.7477 359.017 63.8095 359.103 63.8249 359.179 63.8582 359.245 63.9096 359.285 63.949 359.333 63.978 359.388 63.995 359.471 64.0825 359.566 64.1536 359.674 64.2094 359.73 64.2329 359.787 64.2472 359.845 64.2526 359.847 64.3123 359.876 64.3549 359.931 64.3812 360.021 64.4375 360.116 64.4807 360.217 64.5097 360.251 64.5338 360.289 64.553 360.331 64.5666 360.385 64.6416 360.452 64.7034 360.531 64.7526 360.617 64.7499 360.674 64.7882 360.703 64.8669 360.789 64.8823 360.865 64.9156 360.932 64.967 361.025 65.0409 361.12 65.1126 361.217 65.1815 361.313 65.1864 361.408 65.1815 361.504 65.1673 361.516 65.1848 361.534 65.1946 361.56 65.1957 361.98 65.1005 362.4 65.0245 362.818 64.967 362.942 64.9359 363.065 64.9074 363.19 64.8812 363.374 64.8374 363.565 64.809 363.762 64.7953 364.127 64.769 364.489 64.7214 364.848 64.6525 364.831 64.8648 364.802 65.0743 364.762 65.2816 364.698 65.4238 364.669 65.5764 364.676 65.7389 364.676 65.7482 364.676 65.758 364.676 65.7673 364.634 65.8757 364.6 65.99 364.576 66.1103 364.565 66.1262 364.551 66.136 364.533 66.1388 364.488 66.2367 364.436 66.3319 364.376 66.4249 364.303 66.4451 364.27 66.4933 364.276 66.5676 364.093 66.6781 363.921 66.8018 363.762 66.9391 363.589 67.0162 363.417 67.0922 363.247 67.1677 362.929 67.2481 362.605 67.2957 362.275 67.3111 361.951 67.316 361.627 67.3111 361.303 67.2968 360.96 67.223 360.617 67.1519 360.274 67.0824 360.275 67.0534 360.261 67.0348 360.232 67.025 360.068 66.991 359.91 66.9435 359.76 66.8822 359.639 66.8379 359.525 66.7804 359.417 66.7104 359.342 66.6535 359.265 66.5961 359.188 66.5392 359.134 66.5113 359.077 66.502 359.017 66.5108 358.926 66.3817 358.812 66.2865 358.674 66.2247 358.626 66.1579 358.569 66.101 358.502 66.0534 358.375 65.9358 358.27 65.8024 358.188 65.653 358.178 65.653 358.169 65.653 358.159 65.653 358.148 65.5288 358.1 65.4244 358.016 65.3385 357.997 65.2909 357.978 65.2433 357.959 65.1957 357.913 64.8883 357.923 64.5836 357.988 64.2811 357.988 64.2428 357.988 64.2045 357.988 64.1667 358.071 63.9994 358.109 63.8177 358.102 63.6236 358.102 63.6143 358.102 63.6044 358.102 63.5951 358.144 63.518 358.168 63.4321 358.173 63.338 358.185 63.3249 358.199 63.315 358.216 63.309 358.355 63.4195 358.507 63.5054 358.674 63.5667Z" fill="#313133" fill-rule="evenodd" transform="matrix(1.06499 0 0 1 5.67231 466.374)"/><path d="M358.788 63.6236C358.92 63.6569 359.045 63.7089 359.16 63.7811 359.185 63.827 359.214 63.8697 359.245 63.9096 359.179 63.8582 359.103 63.8249 359.017 63.8095 358.937 63.7477 358.861 63.6859 358.788 63.6236Z" fill="#CCCCCD" fill-rule="evenodd" transform="matrix(1.06499 0 0 1 5.67231 466.374)"/><path d="M359.045 63.4523C359.23 63.5798 359.42 63.6941 359.617 63.7953 359.701 63.8522 359.777 63.9184 359.845 63.995 359.655 63.8823 359.455 63.7822 359.245 63.6952 359.152 63.6356 359.086 63.5541 359.045 63.4523Z" fill="#CFCFCF" fill-rule="evenodd" transform="matrix(1.06499 0 0 1 5.67231 466.374)"/><path d="M368.335 63.652C368.411 63.6575 368.43 63.6908 368.392 63.7521 368.131 63.8292 367.864 63.8719 367.591 63.8807 367.649 63.8615 367.706 63.8429 367.763 63.8238 367.963 63.7855 368.163 63.7472 368.363 63.7094 368.353 63.6897 368.344 63.6706 368.335 63.652Z" fill="#CDCDCD" fill-rule="evenodd" transform="matrix(1.06499 0 0 1 5.67231 466.374)"/><path d="M358.102 63.6236C358.109 63.8177 358.071 63.9994 357.988 64.1667 358.007 64.0043 358.032 63.8424 358.059 63.681 358.067 63.6547 358.081 63.6356 358.102 63.6236Z" fill="#909092" fill-rule="evenodd" transform="matrix(1.06499 0 0 1 5.67231 466.374)"/><path d="M359.617 63.7953C359.753 63.8593 359.887 63.9304 360.017 64.0098 360.042 64.03 360.062 64.0535 360.074 64.0809 360.004 64.0415 359.928 64.013 359.845 63.995 359.777 63.9184 359.701 63.8522 359.617 63.7953Z" fill="#818182" fill-rule="evenodd" transform="matrix(1.06499 0 0 1 5.67231 466.374)"/><path d="M328.976 64.024C328.858 64.1044 328.724 64.152 328.576 64.1667 328.703 64.1082 328.836 64.0612 328.976 64.024Z" fill="#404040" fill-rule="evenodd" transform="matrix(1.06499 0 0 1 5.67231 466.374)"/><path d="M359.388 63.995C359.492 64.0037 359.587 64.0371 359.674 64.0951 359.849 64.2483 360.03 64.3867 360.217 64.5097 360.116 64.4807 360.021 64.4375 359.931 64.3812 359.876 64.3549 359.847 64.3123 359.845 64.2526 359.787 64.2472 359.73 64.2329 359.674 64.2094 359.566 64.1536 359.471 64.0825 359.388 63.995Z" fill="#C7C7C7" fill-rule="evenodd" transform="matrix(1.06499 0 0 1 5.67231 466.374)"/><path d="M365.562 65.1098C365.553 65.1098 365.543 65.1098 365.533 65.1098 365.544 64.99 365.606 64.9041 365.719 64.8527 365.741 64.6552 365.774 64.46 365.82 64.2669 365.81 64.2335 365.8 64.2001 365.791 64.1667 365.577 64.2007 365.368 64.2433 365.162 64.2953 365.038 64.3095 364.915 64.3144 364.791 64.3095 365.146 64.2258 365.508 64.1591 365.876 64.1093 365.846 64.3686 365.803 64.6257 365.748 64.8812 365.647 64.9293 365.585 65.0053 365.562 65.1098Z" fill="#939394" fill-rule="evenodd" transform="matrix(1.06499 0 0 1 5.67231 466.374)"/><path d="M360.103 64.0809C360.271 64.1629 360.423 64.2674 360.56 64.3954 360.376 64.3347 360.224 64.2297 360.103 64.0809Z" fill="#909091" fill-rule="evenodd" transform="matrix(1.06499 0 0 1 5.67231 466.374)"/><path d="M364.791 64.3095C364.787 64.3276 364.778 64.3418 364.762 64.3527 364.556 64.3774 364.356 64.4102 364.162 64.4523 364.038 64.4649 363.914 64.4742 363.79 64.4813 363.903 64.4474 364.018 64.4189 364.133 64.3954 364.345 64.3434 364.564 64.315 364.791 64.3095Z" fill="#9C9C9D" fill-rule="evenodd" transform="matrix(1.06499 0 0 1 5.67231 466.374)"/><path d="M367.763 63.8238C367.706 63.8429 367.649 63.8615 367.591 63.8807 367.129 63.9583 366.662 64.0294 366.191 64.0951 366.152 64.1405 366.133 64.193 366.134 64.2526 366.05 64.4704 366.003 64.699 365.991 64.9386 365.957 64.9249 365.938 64.8965 365.934 64.8527 365.979 64.5787 366.046 64.3117 366.134 64.0524 366.675 63.9605 367.217 63.8839 367.763 63.8238Z" fill="#787878" fill-rule="evenodd" transform="matrix(1.06499 0 0 1 5.67231 466.374)"/><path d="M364.133 64.3954C364.018 64.4189 363.903 64.4474 363.79 64.4813 363.536 64.5283 363.279 64.5661 363.018 64.5956 362.933 64.6098 362.857 64.6383 362.79 64.681 362.694 64.681 362.599 64.681 362.504 64.681 362.625 64.6531 362.749 64.6197 362.875 64.5814 363.297 64.5283 363.716 64.4665 364.133 64.3954Z" fill="#777778" fill-rule="evenodd" transform="matrix(1.06499 0 0 1 5.67231 466.374)"/><path d="M360.56 64.3954C360.617 64.3954 360.674 64.3954 360.732 64.3954 360.732 64.4239 360.732 64.4523 360.732 64.4813 360.884 64.495 360.989 64.5715 361.046 64.7099 360.889 64.5978 360.727 64.4933 360.56 64.3954Z" fill="#6D6C6F" fill-rule="evenodd" transform="matrix(1.06499 0 0 1 5.67231 466.374)"/><path d="M364.162 64.4523C364.082 64.4895 363.996 64.5185 363.904 64.5382 363.533 64.5885 363.161 64.6361 362.79 64.681 362.857 64.6383 362.933 64.6098 363.018 64.5956 363.279 64.5661 363.536 64.5283 363.79 64.4813 363.914 64.4742 364.038 64.4649 364.162 64.4523Z" fill="#D6D6D6" fill-rule="evenodd" transform="matrix(1.06499 0 0 1 5.67231 466.374)"/><path d="M364.848 65.0245C364.81 65.1076 364.781 65.193 364.762 65.2816 364.802 65.0743 364.831 64.8648 364.848 64.6525 364.489 64.7214 364.127 64.769 363.762 64.7953 363.762 64.786 363.762 64.7761 363.762 64.7668 364.117 64.746 364.46 64.6886 364.791 64.5956 364.821 64.5688 364.859 64.559 364.905 64.5666 364.896 64.722 364.877 64.8741 364.848 65.0245Z" fill="#727273" fill-rule="evenodd" transform="matrix(1.06499 0 0 1 5.67231 466.374)"/><path d="M360.331 64.5666C360.409 64.5814 360.481 64.6098 360.546 64.6525 360.65 64.7362 360.76 64.8128 360.874 64.8812 360.894 64.9107 360.913 64.9391 360.932 64.967 360.865 64.9156 360.789 64.8823 360.703 64.8669 360.674 64.7882 360.617 64.7499 360.531 64.7526 360.452 64.7034 360.385 64.6416 360.331 64.5666Z" fill="#B4B4B5" fill-rule="evenodd" transform="matrix(1.06499 0 0 1 5.67231 466.374)"/><path d="M364.791 64.5956C364.46 64.6886 364.117 64.746 363.762 64.7668 363.762 64.7575 363.762 64.7477 363.762 64.7384 364.101 64.6695 364.444 64.6219 364.791 64.5956Z" fill="#A4A4A5" fill-rule="evenodd" transform="matrix(1.06499 0 0 1 5.67231 466.374)"/><path d="M362.161 64.7384C362.158 64.7559 362.148 64.7707 362.132 64.7811 361.9 64.8194 361.666 64.8527 361.432 64.8812 361.392 64.8812 361.359 64.8713 361.332 64.8527 361.607 64.8068 361.884 64.769 362.161 64.7384Z" fill="#979798" fill-rule="evenodd" transform="matrix(1.06499 0 0 1 5.67231 466.374)"/><path d="M363.762 64.7384C363.762 64.7477 363.762 64.7575 363.762 64.7668 363.762 64.7761 363.762 64.786 363.762 64.7953 363.565 64.809 363.374 64.8374 363.19 64.8812 362.98 64.8954 362.77 64.9145 362.561 64.9386 362.947 64.8248 363.348 64.7581 363.762 64.7384Z" fill="#D6D6D7" fill-rule="evenodd" transform="matrix(1.06499 0 0 1 5.67231 466.374)"/><path d="M366.134 64.2526C366.114 64.4643 366.076 64.6738 366.02 64.8812 366.096 65.0141 366.12 65.1569 366.091 65.31 366.064 65.3658 366.026 65.4134 365.977 65.4528 365.965 65.5458 365.941 65.6311 365.905 65.7105 365.879 65.5343 365.932 65.391 366.062 65.2816 366.084 65.1563 366.06 65.042 365.991 64.9386 366.003 64.699 366.05 64.4704 366.134 64.2526Z" fill="#9B9B9B" fill-rule="evenodd" transform="matrix(1.06499 0 0 1 5.67231 466.374)"/><path d="M355.101 75.1138C352.985 75.1231 350.87 75.1133 348.755 75.0854 348.174 74.9093 347.74 74.5471 347.455 73.9995 347.37 73.8179 347.327 73.6276 347.326 73.4279 347.321 71.9794 347.326 70.5314 347.34 69.0829 347.414 68.91 347.457 68.729 347.469 68.5397 347.783 67.9451 348.269 67.5687 348.927 67.4112 350.318 67.3964 351.709 67.392 353.1 67.3964 353.129 66.5726 353.138 65.7438 353.129 64.9102 353.783 64.9003 354.436 64.9102 355.086 64.9386 355.101 68.3302 355.105 71.7223 355.101 75.1138Z" fill="#4D7658" fill-rule="evenodd" transform="matrix(1.06499 0 0 1 5.67231 466.374)"/><path d="M357.988 64.2811C357.923 64.5836 357.913 64.8883 357.959 65.1957 357.887 65.0825 357.858 64.9539 357.873 64.8101 357.857 64.618 357.895 64.4419 357.988 64.2811Z" fill="#B0B0B0" fill-rule="evenodd" transform="matrix(1.06499 0 0 1 5.67231 466.374)"/><path d="M363.19 64.8812C363.065 64.9074 362.942 64.9359 362.818 64.967 362.599 64.9835 362.38 65.0026 362.161 65.0245 362.293 64.9911 362.426 64.9627 362.561 64.9386 362.77 64.9145 362.98 64.8954 363.19 64.8812Z" fill="#9E9E9F" fill-rule="evenodd" transform="matrix(1.06499 0 0 1 5.67231 466.374)"/><path d="M353.129 64.8812C353.795 64.8812 354.463 64.8812 355.13 64.8812 355.139 68.2968 355.13 71.7081 355.101 75.1138 355.105 71.7223 355.101 68.3302 355.086 64.9386 354.436 64.9102 353.783 64.9003 353.129 64.9102 353.138 65.7438 353.129 66.5726 353.1 67.3964 353.091 66.5534 353.1 65.7148 353.129 64.8812Z" fill="#5E7965" fill-rule="evenodd" transform="matrix(1.06499 0 0 1 5.67231 466.374)"/><path d="M360.932 64.967C360.971 64.9627 361.009 64.9676 361.046 64.9813 361.128 65.0497 361.218 65.1022 361.318 65.1388 361.464 65.1049 361.611 65.0858 361.761 65.0814 361.677 65.1093 361.592 65.1377 361.504 65.1673 361.408 65.1815 361.313 65.1864 361.217 65.1815 361.12 65.1126 361.025 65.0409 360.932 64.967Z" fill="#AFAFB0" fill-rule="evenodd" transform="matrix(1.06499 0 0 1 5.67231 466.374)"/><path d="M362.818 64.967C362.4 65.0245 361.98 65.1005 361.56 65.1957 361.534 65.1946 361.516 65.1848 361.504 65.1673 361.592 65.1377 361.677 65.1093 361.761 65.0814 361.901 65.0803 362.034 65.0611 362.161 65.0245 362.38 65.0026 362.599 64.9835 362.818 64.967Z" fill="#6C6C6D" fill-rule="evenodd" transform="matrix(1.06499 0 0 1 5.67231 466.374)"/><path d="M365.533 65.1098C365.543 65.1098 365.553 65.1098 365.562 65.1098 365.614 65.67 365.529 66.2033 365.305 66.7104 365.296 66.6322 365.305 66.5562 365.334 66.4818 365.374 66.368 365.416 66.2537 365.462 66.1388 365.477 66.025 365.482 65.9107 365.477 65.7958 365.557 65.5753 365.576 65.3467 365.533 65.1098Z" fill="#5A5A5B" fill-rule="evenodd" transform="matrix(1.06499 0 0 1 5.67231 466.374)"/><path d="M365.533 65.1098C365.576 65.3467 365.557 65.5753 365.477 65.7958 365.5 65.6098 365.5 65.4238 365.477 65.2384 365.477 65.1848 365.496 65.1421 365.533 65.1098Z" fill="#B1B1B1" fill-rule="evenodd" transform="matrix(1.06499 0 0 1 5.67231 466.374)"/><path d="M358.016 65.3385C358.1 65.4244 358.148 65.5288 358.159 65.653 358.12 65.5863 358.077 65.5201 358.03 65.4528 358.017 65.4162 358.012 65.3779 358.016 65.3385Z" fill="#909092" fill-rule="evenodd" transform="matrix(1.06499 0 0 1 5.67231 466.374)"/><path d="M364.848 65.0245C364.815 65.2707 364.757 65.5086 364.676 65.7389 364.669 65.5764 364.698 65.4238 364.762 65.2816 364.781 65.193 364.81 65.1076 364.848 65.0245Z" fill="#A0A0A0" fill-rule="evenodd" transform="matrix(1.06499 0 0 1 5.67231 466.374)"/><path d="M358.188 65.653C358.27 65.8024 358.375 65.9358 358.502 66.0534 358.332 65.9692 358.227 65.8357 358.188 65.653Z" fill="#A8A8A8" fill-rule="evenodd" transform="matrix(1.06499 0 0 1 5.67231 466.374)"/><path d="M365.905 65.7389C365.927 65.8713 365.894 65.9856 365.805 66.0819 365.777 66.2952 365.754 66.5047 365.734 66.7104 365.732 66.4719 365.741 66.2334 365.762 65.996 365.791 65.996 365.82 65.996 365.848 65.996 365.853 65.9036 365.872 65.8182 365.905 65.7389Z" fill="#A0A0A1" fill-rule="evenodd" transform="matrix(1.06499 0 0 1 5.67231 466.374)"/><path d="M365.477 65.7958C365.482 65.9107 365.477 66.025 365.462 66.1388 365.416 66.2537 365.374 66.368 365.334 66.4818 365.305 66.5562 365.296 66.6322 365.305 66.7104 365.286 66.7104 365.267 66.7104 365.248 66.7104 365.261 66.4943 365.323 66.2941 365.433 66.1103 365.45 66.0425 365.445 65.9758 365.419 65.9101 365.424 65.8625 365.443 65.8248 365.477 65.7958Z" fill="#C1C1C2" fill-rule="evenodd" transform="matrix(1.06499 0 0 1 5.67231 466.374)"/><path d="M358.674 66.2247C358.812 66.2865 358.926 66.3817 359.017 66.5108 359.017 66.5201 359.017 66.5299 359.017 66.5392 358.944 66.479 358.858 66.4413 358.76 66.4249 358.731 66.3587 358.703 66.2919 358.674 66.2247Z" fill="#C6C6C6" fill-rule="evenodd" transform="matrix(1.06499 0 0 1 5.67231 466.374)"/><path d="M330.491 66.2821C330.488 66.2996 330.478 66.3138 330.462 66.3248 330.264 66.3959 330.064 66.4577 329.862 66.5108 330.063 66.4183 330.272 66.3417 330.491 66.2821Z" fill="#A3A3A3" fill-rule="evenodd" transform="matrix(1.06499 0 0 1 5.67231 466.374)"/><path d="M364.676 65.7673C364.686 66.0879 364.571 66.3456 364.333 66.5392 364.388 66.4675 364.441 66.391 364.49 66.3105 364.523 66.2575 364.537 66.2006 364.533 66.1388 364.551 66.136 364.565 66.1262 364.576 66.1103 364.6 65.99 364.634 65.8757 364.676 65.7673Z" fill="#C5C5C5" fill-rule="evenodd" transform="matrix(1.06499 0 0 1 5.67231 466.374)"/><path d="M364.533 66.1388C364.537 66.2006 364.523 66.2575 364.49 66.3105 364.441 66.391 364.388 66.4675 364.333 66.5392 364.314 66.5485 364.295 66.5583 364.276 66.5676 364.27 66.4933 364.303 66.4451 364.376 66.4249 364.436 66.3319 364.488 66.2367 364.533 66.1388Z" fill="#767677" fill-rule="evenodd" transform="matrix(1.06499 0 0 1 5.67231 466.374)"/><path d="M359.017 66.5392C359.017 66.5299 359.017 66.5201 359.017 66.5108 359.077 66.502 359.134 66.5113 359.188 66.5392 359.265 66.5961 359.342 66.6535 359.417 66.7104 359.278 66.6667 359.144 66.6092 359.017 66.5392Z" fill="#7E7E7F" fill-rule="evenodd" transform="matrix(1.06499 0 0 1 5.67231 466.374)"/><path d="M329.719 66.5392C329.662 66.5797 329.595 66.5988 329.519 66.5961 329.576 66.5556 329.643 66.5365 329.719 66.5392Z" fill="#939393" fill-rule="evenodd" transform="matrix(1.06499 0 0 1 5.67231 466.374)"/><path d="M364.276 66.5676C364.187 66.6716 364.092 66.7717 363.99 66.868 363.929 66.8866 363.872 66.9106 363.819 66.9391 363.799 66.9391 363.781 66.9391 363.762 66.9391 363.921 66.8018 364.093 66.6781 364.276 66.5676Z" fill="#818182" fill-rule="evenodd" transform="matrix(1.06499 0 0 1 5.67231 466.374)"/><path d="M326.918 66.9391C324.922 66.9681 322.921 66.9774 320.915 66.9681 320.925 67.9828 320.915 68.9926 320.887 69.9975 320.887 68.9877 320.887 67.9779 320.887 66.9681 322.892 66.9391 324.903 66.9298 326.918 66.9391Z" fill="#848684" fill-rule="evenodd" transform="matrix(1.06499 0 0 1 5.67231 466.374)"/><path d="M359.76 66.8822C359.91 66.9435 360.068 66.991 360.232 67.025 360.261 67.0348 360.275 67.0534 360.274 67.0824 360.087 67.0485 359.915 66.9818 359.76 66.8822Z" fill="#8F8F90" fill-rule="evenodd" transform="matrix(1.06499 0 0 1 5.67231 466.374)"/><path d="M365.248 66.7394C365.19 66.9418 365.133 67.142 365.076 67.3395 365.096 67.1562 365.129 66.9752 365.176 66.7963 365.188 66.7602 365.212 66.7416 365.248 66.7394Z" fill="#CBCBCB" fill-rule="evenodd" transform="matrix(1.06499 0 0 1 5.67231 466.374)"/><path d="M360.274 67.0824C360.617 67.1519 360.96 67.223 361.303 67.2968 361.627 67.3111 361.951 67.316 362.275 67.3111 361.975 67.339 361.67 67.3488 361.361 67.3395 361.036 67.2832 360.712 67.2213 360.389 67.1535 360.337 67.148 360.298 67.124 360.274 67.0824Z" fill="#7E7D7E" fill-rule="evenodd" transform="matrix(1.06499 0 0 1 5.67231 466.374)"/><path d="M363.762 66.9391C363.781 66.9391 363.799 66.9391 363.819 66.9391 363.791 66.9867 363.752 67.0244 363.704 67.0534 363.426 67.2142 363.121 67.2996 362.79 67.3111 362.95 67.2897 363.103 67.2421 363.247 67.1677 363.417 67.0922 363.589 67.0162 363.762 66.9391Z" fill="#DCDCDC" fill-rule="evenodd" transform="matrix(1.06499 0 0 1 5.67231 466.374)"/><path d="M365.248 66.7104C365.267 66.7104 365.286 66.7104 365.305 66.7104 365.231 66.9445 365.169 67.1825 365.119 67.4254 365.108 67.4413 365.094 67.4506 365.076 67.4538 365.076 67.4155 365.076 67.3773 365.076 67.3395 365.133 67.142 365.19 66.9418 365.248 66.7394 365.248 66.7296 365.248 66.7203 365.248 66.7104Z" fill="#686869" fill-rule="evenodd" transform="matrix(1.06499 0 0 1 5.67231 466.374)"/><path d="M365.734 66.7394C365.684 66.9637 365.665 67.1924 365.677 67.4254 365.657 67.473 365.639 67.5206 365.619 67.5682 365.614 67.3871 365.619 67.2055 365.634 67.025 365.65 66.9205 365.683 66.8248 365.734 66.7394Z" fill="#787878" fill-rule="evenodd" transform="matrix(1.06499 0 0 1 5.67231 466.374)"/><path d="M363.247 67.1677C363.103 67.2421 362.95 67.2897 362.79 67.3111 362.31 67.368 361.833 67.3773 361.361 67.3395 361.67 67.3488 361.975 67.339 362.275 67.3111 362.605 67.2957 362.929 67.2481 363.247 67.1677Z" fill="#AEAEAE" fill-rule="evenodd" transform="matrix(1.06499 0 0 1 5.67231 466.374)"/><path d="M328.29 67.4254C326.755 67.4166 325.221 67.4259 323.688 67.4538 323.739 67.4309 323.796 67.4161 323.859 67.4112 325.341 67.3871 326.818 67.392 328.29 67.4254Z" fill="#9BAEA1" fill-rule="evenodd" transform="matrix(1.06499 0 0 1 5.67231 466.374)"/><path d="M332.778 67.4254C334.287 67.3964 335.803 67.3871 337.322 67.3964 337.322 68.0824 337.322 68.7683 337.322 69.4549 335.931 69.4549 334.54 69.4549 333.149 69.4549 334.525 69.4259 335.907 69.4166 337.294 69.4259 337.294 68.759 337.294 68.0922 337.294 67.4254 335.788 67.4254 334.283 67.4254 332.778 67.4254Z" fill="#90A497" fill-rule="evenodd" transform="matrix(1.06499 0 0 1 5.67231 466.374)"/><path d="M362.361 67.4254C360.903 67.4205 359.446 67.4254 357.988 67.4396 357.802 67.4681 357.621 67.5107 357.445 67.5682 357.593 67.485 357.755 67.4325 357.93 67.4112 359.412 67.3871 360.889 67.392 362.361 67.4254Z" fill="#97AA9D" fill-rule="evenodd" transform="matrix(1.06499 0 0 1 5.67231 466.374)"/><path d="M328.29 67.4254C328.987 67.5217 329.491 67.8838 329.805 68.5112 329.844 68.7492 329.897 68.9877 329.962 69.2262 329.976 71.6648 329.981 74.104 329.976 76.5432 329.862 77.244 329.481 77.7439 328.833 78.0437 328.757 78.0705 328.681 78.0946 328.604 78.1154 328.442 78.1285 328.28 78.1427 328.118 78.1581 326.546 78.1723 324.974 78.1772 323.402 78.1723 323.402 77.4961 323.402 76.8195 323.402 76.1428 324.927 76.1428 326.451 76.1428 327.975 76.1428 327.975 75.8097 327.975 75.476 327.975 75.1428 326.603 75.1428 325.231 75.1428 323.859 75.1428 322.926 74.9563 322.368 74.3945 322.187 73.4564 322.159 71.9214 322.169 70.3875 322.216 68.8542 322.418 68.2421 322.813 67.799 323.402 67.5255 323.494 67.4867 323.589 67.4626 323.688 67.4538 325.221 67.4259 326.755 67.4166 328.29 67.4254Z" fill="#4D7658" fill-rule="evenodd" transform="matrix(1.06499 0 0 1 5.67231 466.374)"/><path d="M333.035 75.1138C332.406 75.1138 331.777 75.1138 331.148 75.1138 331.144 73.2085 331.148 71.3033 331.163 69.3974 331.172 69.2071 331.182 69.0167 331.191 68.8258 331.291 68.637 331.381 68.4467 331.462 68.2541 331.627 68.0129 331.837 67.8225 332.092 67.6825 332.172 67.6655 332.253 67.6464 332.334 67.6251 332.356 67.6294 332.375 67.6387 332.391 67.654 332.456 67.5895 332.528 67.5321 332.606 67.4823 332.671 67.5025 332.738 67.4976 332.806 67.4681 334.283 67.4489 335.759 67.4489 337.236 67.4681 337.249 67.4795 337.259 67.4943 337.265 67.5107 337.234 67.5589 337.214 67.6114 337.208 67.6683 337.236 68.2082 337.245 68.747 337.236 69.2831 337.218 69.3159 337.194 69.3444 337.165 69.369 335.87 69.3701 334.565 69.3608 333.249 69.3405 333.172 69.3471 333.105 69.3755 333.049 69.4259 333.046 69.4718 333.06 69.515 333.092 69.5544 333.088 69.585 333.074 69.6086 333.049 69.6261 333.035 71.4553 333.03 73.2846 333.035 75.1138Z" fill="#4C7557" fill-rule="evenodd" transform="matrix(1.06499 0 0 1 5.67231 466.374)"/><path d="M362.361 67.4254C363.137 67.5397 363.675 67.9587 363.976 68.683 364.041 68.8384 364.075 69.0008 364.076 69.1688 364.076 70.207 364.076 71.2458 364.076 72.2841 362.146 72.2748 360.222 72.2841 358.302 72.3131 358.278 72.4985 358.264 72.6889 358.259 72.8847 358.241 72.9268 358.217 72.9646 358.188 72.999 358.213 73.063 358.222 73.1298 358.216 73.1987 358.878 73.2457 359.546 73.2359 360.217 73.1703 360.37 73.1894 360.522 73.2085 360.674 73.2277 361.664 73.1692 362.656 73.1549 363.647 73.1845 362.885 73.1943 362.123 73.2036 361.361 73.2135 362.132 73.2326 362.904 73.2326 363.676 73.2135 363.736 73.1697 363.803 73.1604 363.876 73.1845 363.9 73.2135 363.909 73.2468 363.904 73.2846 363.933 73.2846 363.961 73.2846 363.99 73.2846 363.998 73.8951 363.989 74.505 363.961 75.1138 361.913 75.1138 359.865 75.1138 357.816 75.1138 356.937 74.871 356.418 74.2993 356.259 73.3989 356.23 71.9116 356.24 70.4253 356.287 68.9401 356.452 68.2935 356.838 67.8362 357.445 67.5682 357.621 67.5107 357.802 67.4681 357.988 67.4396 359.446 67.4254 360.903 67.4205 362.361 67.4254Z" fill="#4D7658" fill-rule="evenodd" transform="matrix(1.06499 0 0 1 5.67231 466.374)"/><path d="M345.44 67.7968C345.857 68.0917 346.115 68.4915 346.211 68.9975 346.211 71.0363 346.211 73.0751 346.211 75.1138 344.173 75.1138 342.133 75.1138 340.095 75.1138 340.02 75.0974 339.944 75.0876 339.866 75.0854 339.207 74.8912 338.754 74.4722 338.508 73.8278 338.462 73.6883 338.438 73.5455 338.437 73.3989 338.432 72.3793 338.437 71.3602 338.451 70.3405 338.466 70.3263 338.48 70.312 338.494 70.2978 340.371 70.2743 342.248 70.2787 344.125 70.312 344.275 70.2787 344.337 70.1835 344.31 70.0265 344.301 70.0456 344.291 70.0642 344.282 70.0834 344.267 69.8821 344.267 69.6819 344.282 69.4833 344.241 69.3925 344.169 69.3449 344.068 69.3405 342.212 69.3684 340.354 69.3733 338.494 69.3548 338.48 69.3405 338.466 69.3258 338.451 69.3115 338.446 69.0594 338.441 68.8066 338.437 68.5545 338.438 68.2875 338.457 68.0255 338.494 67.7684 338.426 67.6694 338.426 67.5742 338.494 67.4823 340.475 67.5206 342.457 67.5206 344.439 67.4823 344.555 67.5009 344.669 67.5244 344.782 67.5539 344.763 67.5632 344.744 67.5731 344.725 67.5824 344.849 67.5917 344.973 67.6015 345.097 67.6108 345.181 67.7246 345.295 67.7864 345.44 67.7968Z" fill="#4C7558" fill-rule="evenodd" transform="matrix(1.06499 0 0 1 5.67231 466.374)"/><path d="M365.076 67.4538C365.071 67.5315 365.057 67.6076 365.033 67.6825 364.975 67.7421 364.932 67.8089 364.905 67.8827 364.903 67.828 364.913 67.776 364.933 67.7252 364.992 67.6376 365.039 67.5474 365.076 67.4538Z" fill="#9C9C9C" fill-rule="evenodd" transform="matrix(1.06499 0 0 1 5.67231 466.374)"/><path d="M365.677 67.4254C365.665 67.6251 365.65 67.8253 365.634 68.0255 365.627 68.061 365.613 68.0895 365.591 68.1114 365.587 67.9292 365.596 67.7481 365.619 67.5682 365.639 67.5206 365.657 67.473 365.677 67.4254Z" fill="#BDBDBD" fill-rule="evenodd" transform="matrix(1.06499 0 0 1 5.67231 466.374)"/><path d="M364.905 67.8827C364.886 67.9872 364.867 68.0922 364.848 68.1967 364.797 68.3668 364.74 68.5386 364.676 68.7114 364.681 68.7492 364.686 68.7875 364.69 68.8258 364.701 68.8416 364.716 68.8509 364.733 68.8542 364.771 68.8827 364.81 68.9117 364.848 68.9401 364.867 68.9592 364.886 68.9779 364.905 68.9975 364.849 69.0041 364.796 68.9948 364.747 68.9686 364.73 68.9226 364.701 68.8843 364.662 68.8542 364.644 68.6278 364.672 68.4084 364.747 68.1967 364.804 68.0933 364.857 67.9888 364.905 67.8827Z" fill="#D0D0D0" fill-rule="evenodd" transform="matrix(1.06499 0 0 1 5.67231 466.374)"/><path d="M364.848 68.1967C364.801 68.415 364.763 68.6338 364.733 68.8542 364.716 68.8509 364.701 68.8416 364.69 68.8258 364.686 68.7875 364.681 68.7492 364.676 68.7114 364.74 68.5386 364.797 68.3668 364.848 68.1967Z" fill="#767677" fill-rule="evenodd" transform="matrix(1.06499 0 0 1 5.67231 466.374)"/><path d="M365.562 68.3685C365.567 68.5495 365.562 68.7311 365.548 68.9117 365.507 68.9675 365.454 69.0057 365.391 69.026 365.418 68.9839 365.451 68.9461 365.491 68.9117 365.495 68.7235 365.519 68.543 365.562 68.3685Z" fill="#BBBBBC" fill-rule="evenodd" transform="matrix(1.06499 0 0 1 5.67231 466.374)"/><path d="M365.562 68.2541C365.562 68.2919 365.562 68.3302 365.562 68.3685 365.519 68.543 365.495 68.7235 365.491 68.9117 365.451 68.9461 365.418 68.9839 365.391 69.026 365.228 69.0249 365.066 69.015 364.905 68.9975 364.886 68.9779 364.867 68.9592 364.848 68.9401 364.972 68.956 365.095 68.9751 365.219 68.9975 365.286 68.9735 365.352 68.9494 365.419 68.9259 365.451 68.7218 365.484 68.5173 365.519 68.311 365.527 68.2848 365.542 68.2662 365.562 68.2541Z" fill="#5B5B5D" fill-rule="evenodd" transform="matrix(1.06499 0 0 1 5.67231 466.374)"/><path d="M364.905 68.9975C365.066 69.015 365.228 69.0249 365.391 69.026 365.387 69.0435 365.378 69.0577 365.362 69.0687 365.218 69.0922 365.076 69.0878 364.933 69.0544 364.923 69.0347 364.913 69.0156 364.905 68.9975Z" fill="#CCCCCD" fill-rule="evenodd" transform="matrix(1.06499 0 0 1 5.67231 466.374)"/><path d="M345.44 67.7968C345.295 67.7864 345.181 67.7246 345.097 67.6108 344.973 67.6015 344.849 67.5917 344.725 67.5824 344.744 67.5731 344.763 67.5632 344.782 67.5539 344.669 67.5244 344.555 67.5009 344.439 67.4823 342.457 67.5206 340.475 67.5206 338.494 67.4823 338.426 67.5742 338.426 67.6694 338.494 67.7684 338.457 68.0255 338.438 68.2875 338.437 68.5545 338.441 68.8066 338.446 69.0594 338.451 69.3115 338.466 69.3258 338.48 69.3405 338.494 69.3548 340.354 69.3733 342.212 69.3684 344.068 69.3405 344.169 69.3449 344.241 69.3925 344.282 69.4833 344.267 69.6819 344.267 69.8821 344.282 70.0834 344.291 70.0642 344.301 70.0456 344.31 70.0265 344.337 70.1835 344.275 70.2787 344.125 70.312 342.248 70.2787 340.371 70.2743 338.494 70.2978 338.48 70.312 338.466 70.3263 338.451 70.3405 338.437 71.3602 338.432 72.3793 338.437 73.3989 338.408 72.3557 338.399 71.3082 338.408 70.2552 340.342 70.2552 342.277 70.2552 344.21 70.2552 344.22 69.9833 344.21 69.7163 344.182 69.4549 342.258 69.4549 340.333 69.4549 338.408 69.4549 338.408 68.7683 338.408 68.0824 338.408 67.3964 340.447 67.392 342.486 67.3964 344.525 67.4112 344.728 67.45 344.929 67.5069 345.125 67.5824 345.242 67.6404 345.347 67.712 345.44 67.7968Z" fill="#5C7B65" fill-rule="evenodd" transform="matrix(1.06499 0 0 1 5.67231 466.374)"/><path d="M358.302 69.4549C359.55 69.4549 360.798 69.4549 362.047 69.4549 362.047 69.8071 362.047 70.16 362.047 70.5123 360.798 70.5123 359.55 70.5123 358.302 70.5123 358.302 70.16 358.302 69.8071 358.302 69.4549Z" fill="#ECF7EF" fill-rule="evenodd" transform="matrix(1.06499 0 0 1 5.67231 466.374)"/><path d="M324.202 69.4549C325.46 69.4549 326.718 69.4549 327.975 69.4549 327.975 70.6643 327.975 71.8749 327.975 73.0844 326.718 73.0844 325.46 73.0844 324.202 73.0844 324.202 71.8749 324.202 70.6643 324.202 69.4549Z" fill="#FDFEFD" fill-rule="evenodd" transform="matrix(1.06499 0 0 1 5.67231 466.374)"/><path d="M353.129 64.8812C353.81 64.8527 354.496 64.8434 355.186 64.8527 355.196 68.2875 355.186 71.7174 355.158 75.1428 355.167 71.7174 355.158 68.2968 355.13 64.8812 354.463 64.8812 353.795 64.8812 353.129 64.8812Z" fill="#E0EBE1" fill-rule="evenodd" transform="matrix(1.06499 0 0 1 5.67231 466.374)"/><path d="M358.959 69.4833C358.959 69.5117 358.973 69.5309 359.003 69.5402 359.957 69.8733 360.924 70.0544 361.903 70.0834 361.942 70.0642 361.981 70.0451 362.018 70.0265 362.018 70.1786 362.018 70.3312 362.018 70.4838 360.798 70.4964 359.578 70.4822 358.359 70.4406 358.396 70.4034 358.392 70.3706 358.345 70.3405 358.332 70.0785 358.328 69.8214 358.331 69.5692 358.366 69.5194 358.413 69.4904 358.474 69.4833 358.633 69.4915 358.795 69.4915 358.959 69.4833Z" fill="#FDFEFD" fill-rule="evenodd" transform="matrix(1.06499 0 0 1 5.67231 466.374)"/><path d="M358.959 69.4833C359.971 69.4877 360.981 69.497 361.989 69.5117 362.017 69.6813 362.026 69.8531 362.018 70.0265 361.981 70.0451 361.942 70.0642 361.903 70.0834 360.924 70.0544 359.957 69.8733 359.003 69.5402 358.973 69.5309 358.959 69.5117 358.959 69.4833Z" fill="#F5F5F5" fill-rule="evenodd" transform="matrix(1.06499 0 0 1 5.67231 466.374)"/><path d="M329.805 68.5112C329.897 68.6589 329.959 68.8208 329.99 68.9975 330.014 71.5177 330.01 74.0329 329.976 76.5432 329.981 74.104 329.976 71.6648 329.962 69.2262 329.897 68.9877 329.844 68.7492 329.805 68.5112Z" fill="#67816E" fill-rule="evenodd" transform="matrix(1.06499 0 0 1 5.67231 466.374)"/><path d="M331.462 68.2541C331.381 68.4467 331.291 68.637 331.191 68.8258 331.182 69.0167 331.172 69.2071 331.163 69.3974 331.148 71.3033 331.144 73.2085 331.148 75.1138 331.119 73.0992 331.11 71.0795 331.119 69.0544 331.157 68.7525 331.271 68.4855 331.462 68.2541Z" fill="#56735F" fill-rule="evenodd" transform="matrix(1.06499 0 0 1 5.67231 466.374)"/><path d="M332.778 67.4254C334.283 67.4254 335.788 67.4254 337.294 67.4254 337.294 68.0922 337.294 68.759 337.294 69.4259 335.907 69.4166 334.525 69.4259 333.149 69.4549 333.121 71.3361 333.111 73.2228 333.121 75.1138 333.092 75.1138 333.063 75.1138 333.035 75.1138 333.03 73.2846 333.035 71.4553 333.049 69.6261 333.074 69.6086 333.088 69.585 333.092 69.5544 333.06 69.515 333.046 69.4718 333.049 69.4259 333.105 69.3755 333.172 69.3471 333.249 69.3405 334.565 69.3608 335.87 69.3701 337.165 69.369 337.194 69.3444 337.218 69.3159 337.236 69.2831 337.245 68.747 337.236 68.2082 337.208 67.6683 337.214 67.6114 337.234 67.5589 337.265 67.5107 337.259 67.4943 337.249 67.4795 337.236 67.4681 335.759 67.4489 334.283 67.4489 332.806 67.4681 332.738 67.4976 332.671 67.5025 332.606 67.4823 332.528 67.5321 332.456 67.5895 332.391 67.654 332.375 67.6387 332.356 67.6294 332.334 67.6251 332.253 67.6464 332.172 67.6655 332.092 67.6825 332.292 67.5293 332.521 67.444 332.778 67.4254Z" fill="#4F745A" fill-rule="evenodd" transform="matrix(1.06499 0 0 1 5.67231 466.374)"/><path d="M331.119 69.0544C331.11 71.0795 331.119 73.0992 331.148 75.1138 331.777 75.1138 332.406 75.1138 333.035 75.1138 333.063 75.1138 333.092 75.1138 333.121 75.1138 333.111 73.2228 333.121 71.3361 333.149 69.4549 333.149 71.3503 333.149 73.2468 333.149 75.1428 332.463 75.1428 331.777 75.1428 331.091 75.1428 331.082 73.1084 331.091 71.079 331.119 69.0544Z" fill="#8DA091" fill-rule="evenodd" transform="matrix(1.06499 0 0 1 5.67231 466.374)"/><path d="M333.149 69.4549C334.54 69.4549 335.931 69.4549 337.322 69.4549 337.264 69.4822 337.202 69.5107 337.136 69.5402 336.528 69.5024 335.914 69.4833 335.293 69.4833 334.637 69.4937 333.985 69.4937 333.335 69.4833 333.238 69.4795 333.205 69.5172 333.235 69.5976 333.211 71.283 333.197 72.9689 333.192 74.6565 333.187 74.8239 333.172 74.9858 333.149 75.1428 333.149 73.2468 333.149 71.3503 333.149 69.4549Z" fill="#F5FBF4" fill-rule="evenodd" transform="matrix(1.06499 0 0 1 5.67231 466.374)"/><path d="M347.469 68.5397C347.457 68.729 347.414 68.91 347.34 69.0829 347.326 70.5314 347.321 71.9794 347.326 73.4279 347.293 71.9559 347.288 70.4789 347.312 68.9975 347.348 68.8362 347.4 68.6835 347.469 68.5397Z" fill="#778E7E" fill-rule="evenodd" transform="matrix(1.06499 0 0 1 5.67231 466.374)"/><path d="M344.182 69.4549C344.21 69.7163 344.22 69.9833 344.21 70.2552 342.277 70.2552 340.342 70.2552 338.408 70.2552 340.328 70.2262 342.253 70.2169 344.182 70.2262 344.182 69.9691 344.182 69.712 344.182 69.4549Z" fill="#D1E1D4" fill-rule="evenodd" transform="matrix(1.06499 0 0 1 5.67231 466.374)"/><path d="M320.887 70.3695C320.829 70.8678 320.753 71.3629 320.658 71.8558 320.625 71.9209 320.597 71.9876 320.572 72.0554 320.585 71.6999 320.619 71.3476 320.672 70.998 320.776 70.823 320.838 70.6326 320.858 70.4264 320.853 70.3979 320.863 70.3788 320.887 70.3695Z" fill="#53725A" fill-rule="evenodd" transform="matrix(1.06499 0 0 1 5.67231 466.374)"/><path d="M320.858 70.4264C320.838 70.6326 320.776 70.823 320.672 70.998 320.619 71.3476 320.585 71.6999 320.572 72.0554 320.56 72.1681 320.532 72.2726 320.487 72.37 320.421 71.7157 320.521 71.0866 320.787 70.4838 320.807 70.4586 320.831 70.4395 320.858 70.4264Z" fill="#354F3B" fill-rule="evenodd" transform="matrix(1.06499 0 0 1 5.67231 466.374)"/><path d="M340.466 72.0554C340.466 72.0461 340.466 72.0363 340.466 72.027 341.714 72.027 342.963 72.027 344.21 72.027 344.21 72.3793 344.21 72.7321 344.21 73.0844 344.201 73.0844 344.191 73.0844 344.182 73.0844 344.182 72.7414 344.182 72.3984 344.182 72.0554 342.943 72.0554 341.705 72.0554 340.466 72.0554Z" fill="#CEDDD0" fill-rule="evenodd" transform="matrix(1.06499 0 0 1 5.67231 466.374)"/><path d="M340.466 72.0554C341.705 72.0554 342.943 72.0554 344.182 72.0554 344.182 72.3984 344.182 72.7414 344.182 73.0844 342.943 73.0844 341.705 73.0844 340.466 73.0844 340.466 72.7414 340.466 72.3984 340.466 72.0554Z" fill="#FDFEFD" fill-rule="evenodd" transform="matrix(1.06499 0 0 1 5.67231 466.374)"/><path d="M303.451 72.1413C303.538 72.3541 303.614 72.5735 303.68 72.7988 303.571 72.5948 303.494 72.376 303.451 72.1413Z" fill="#C5D5C9" fill-rule="evenodd" transform="matrix(1.06499 0 0 1 5.67231 466.374)"/><path d="M364.076 69.1688C364.114 70.2169 364.114 71.265 364.076 72.3131 362.151 72.3131 360.227 72.3131 358.302 72.3131 360.222 72.2841 362.146 72.2748 364.076 72.2841 364.076 71.2458 364.076 70.207 364.076 69.1688Z" fill="#8BA693" fill-rule="evenodd" transform="matrix(1.06499 0 0 1 5.67231 466.374)"/><path d="M358.302 72.3131C360.227 72.3131 362.151 72.3131 364.076 72.3131 364.047 72.3464 364.009 72.365 363.961 72.37 362.086 72.3415 360.208 72.3322 358.331 72.3415 358.336 72.5445 358.336 72.7447 358.331 72.9416 358.331 72.9854 358.35 73.0187 358.388 73.0417 360.303 73.0373 362.209 73.0609 364.105 73.1134 364.095 73.1134 364.086 73.1134 364.076 73.1134 362.151 73.1134 360.227 73.1134 358.302 73.1134 358.302 72.8464 358.302 72.5795 358.302 72.3131Z" fill="#E3EFE7" fill-rule="evenodd" transform="matrix(1.06499 0 0 1 5.67231 466.374)"/><path d="M320.887 66.9681C320.887 67.9779 320.887 68.9877 320.887 69.9975 320.887 70.1217 320.887 70.2453 320.887 70.3695 320.863 70.3788 320.853 70.3979 320.858 70.4264 320.831 70.4395 320.807 70.4586 320.787 70.4838 320.521 71.0866 320.421 71.7157 320.487 72.37 320.487 72.3891 320.487 72.4083 320.487 72.4274 320.405 72.6331 320.329 72.8426 320.258 73.0559 320.208 73.0893 320.18 73.1369 320.172 73.1987 320.029 73.3333 319.886 73.4668 319.744 73.5991 319.856 73.4192 319.971 73.2381 320.086 73.0559 320.11 73.0308 320.138 73.0209 320.172 73.0275 320.241 72.9049 320.284 72.772 320.301 72.6271 320.346 72.1118 320.398 71.5976 320.458 71.0839 320.548 70.9247 320.6 70.7535 320.616 70.5692 320.727 70.4176 320.808 70.2557 320.858 70.0834 320.849 69.0402 320.858 68.0014 320.887 66.9681Z" fill="#1E2B22" fill-rule="evenodd" transform="matrix(1.06499 0 0 1 5.67231 466.374)"/><path d="M320.487 72.4274C320.454 72.6555 320.378 72.865 320.258 73.0559 320.329 72.8426 320.405 72.6331 320.487 72.4274Z" fill="#959C97" fill-rule="evenodd" transform="matrix(1.06499 0 0 1 5.67231 466.374)"/><path d="M320.858 70.0834C320.808 70.2557 320.727 70.4176 320.616 70.5692 320.6 70.7535 320.548 70.9247 320.458 71.0839 320.398 71.5976 320.346 72.1118 320.301 72.6271 320.284 72.772 320.241 72.9049 320.172 73.0275 320.138 73.0209 320.11 73.0308 320.086 73.0559 319.971 73.2381 319.856 73.4192 319.744 73.5991 319.648 73.7293 319.539 73.8535 319.415 73.9706 319.349 74.0936 319.263 74.1981 319.158 74.2851 319.13 74.3393 319.111 74.3961 319.1 74.4569 319.029 74.5077 318.967 74.5695 318.915 74.6423 318.887 74.656 318.859 74.6609 318.829 74.6565 318.824 74.6264 318.829 74.598 318.843 74.5712 319.314 74.0056 319.761 73.4246 320.187 72.8273 320.276 72.2234 320.352 71.6134 320.415 70.998 320.496 70.6556 320.643 70.3509 320.858 70.0834Z" fill="#080E0A" fill-rule="evenodd" transform="matrix(1.06499 0 0 1 5.67231 466.374)"/><path d="M320.658 71.8558C320.619 72.0603 320.595 72.2699 320.586 72.4843 320.526 72.6643 320.479 72.8459 320.444 73.0275 320.401 73.1112 320.363 73.1971 320.329 73.2846 320.32 73.2753 320.31 73.2654 320.301 73.2561 320.263 73.3655 320.201 73.4558 320.115 73.5275 320.149 73.5592 320.149 73.5931 320.115 73.6276 320.071 73.6549 320.024 73.6648 319.972 73.6566 319.955 73.894 319.841 74.0745 319.629 74.1992 319.693 74.0592 319.77 73.9257 319.858 73.7993 319.97 73.6035 320.075 73.4038 320.172 73.1987 320.18 73.1369 320.208 73.0893 320.258 73.0559 320.378 72.865 320.454 72.6555 320.487 72.4274 320.487 72.4083 320.487 72.3891 320.487 72.37 320.532 72.2726 320.56 72.1681 320.572 72.0554 320.597 71.9876 320.625 71.9209 320.658 71.8558Z" fill="#E3E7E3" fill-rule="evenodd" transform="matrix(1.06499 0 0 1 5.67231 466.374)"/><path d="M324.202 69.4549C324.202 70.6643 324.202 71.8749 324.202 73.0844 325.46 73.0844 326.718 73.0844 327.975 73.0844 326.713 73.1134 325.446 73.1227 324.174 73.1134 324.165 71.8886 324.174 70.6693 324.202 69.4549Z" fill="#9FB5A6" fill-rule="evenodd" transform="matrix(1.06499 0 0 1 5.67231 466.374)"/><path d="M340.466 72.027C340.466 72.0363 340.466 72.0461 340.466 72.0554 340.466 72.3984 340.466 72.7414 340.466 73.0844 341.705 73.0844 342.943 73.0844 344.182 73.0844 344.191 73.0844 344.201 73.0844 344.21 73.0844 342.958 73.1134 341.7 73.1227 340.438 73.1134 340.428 72.7463 340.438 72.3842 340.466 72.027Z" fill="#AFC2B5" fill-rule="evenodd" transform="matrix(1.06499 0 0 1 5.67231 466.374)"/><path d="M349.356 69.4549C349.356 70.6643 349.356 71.8749 349.356 73.0844 350.604 73.0844 351.852 73.0844 353.1 73.0844 353.1 71.8749 353.1 70.6643 353.1 69.4549 353.129 70.6693 353.138 71.8886 353.129 73.1134 351.862 73.1134 350.594 73.1134 349.327 73.1134 349.317 71.8886 349.327 70.6693 349.356 69.4549Z" fill="#9CB1A3" fill-rule="evenodd" transform="matrix(1.06499 0 0 1 5.67231 466.374)"/><path d="M349.356 69.4549C350.604 69.4549 351.852 69.4549 353.1 69.4549 353.1 70.6643 353.1 71.8749 353.1 73.0844 351.852 73.0844 350.604 73.0844 349.356 73.0844 349.356 71.8749 349.356 70.6643 349.356 69.4549Z" fill="#EFFAF1" fill-rule="evenodd" transform="matrix(1.06499 0 0 1 5.67231 466.374)"/><path d="M349.442 69.4833C350.642 69.474 351.842 69.4833 353.043 69.5117 353.043 70.661 353.043 71.8186 353.043 72.9848 353.031 73.0116 353.012 73.0308 352.986 73.0417 351.785 73.0559 350.585 73.0609 349.384 73.0559 349.379 71.8935 349.384 70.7316 349.398 69.5692 349.413 69.5396 349.427 69.5107 349.442 69.4833Z" fill="#FEFEFE" fill-rule="evenodd" transform="matrix(1.06499 0 0 1 5.67231 466.374)"/><path d="M358.302 72.3131C358.302 72.5795 358.302 72.8464 358.302 73.1134 360.227 73.1134 362.151 73.1134 364.076 73.1134 364.076 73.7802 364.076 74.447 364.076 75.1138 364.038 75.1138 364 75.1138 363.961 75.1138 363.989 74.505 363.998 73.8951 363.99 73.2846 363.961 73.2846 363.933 73.2846 363.904 73.2846 363.909 73.2468 363.9 73.2135 363.876 73.1845 363.803 73.1604 363.736 73.1697 363.676 73.2135 362.904 73.2326 362.132 73.2326 361.361 73.2135 362.123 73.2036 362.885 73.1943 363.647 73.1845 362.656 73.1549 361.664 73.1692 360.674 73.2277 360.522 73.2085 360.37 73.1894 360.217 73.1703 359.546 73.2359 358.878 73.2457 358.216 73.1987 358.222 73.1298 358.213 73.063 358.188 72.999 358.217 72.9646 358.241 72.9268 358.259 72.8847 358.264 72.6889 358.278 72.4985 358.302 72.3131Z" fill="#4F745A" fill-rule="evenodd" transform="matrix(1.06499 0 0 1 5.67231 466.374)"/><path d="M320.172 73.1987C320.075 73.4038 319.97 73.6035 319.858 73.7993 319.824 73.7928 319.796 73.8026 319.772 73.8278 319.716 73.9487 319.649 74.063 319.572 74.1708 319.449 74.284 319.339 74.4076 319.244 74.5422 319.061 74.7008 318.875 74.8578 318.686 75.0137 318.602 75.1406 318.497 75.2408 318.372 75.3141 318.378 75.348 318.368 75.3764 318.343 75.3999 318.15 75.5651 317.959 75.7271 317.771 75.8857 317.771 75.8288 317.771 75.7714 317.771 75.7145 317.815 75.7369 317.863 75.7468 317.914 75.7429 317.909 75.7052 317.919 75.6718 317.943 75.6428 318.292 75.3026 318.649 74.9738 319.015 74.6565 319.252 74.3551 319.485 74.0499 319.715 73.7419 319.742 73.6976 319.752 73.6506 319.744 73.5991 319.886 73.4668 320.029 73.3333 320.172 73.1987Z" fill="#395641" fill-rule="evenodd" transform="matrix(1.06499 0 0 1 5.67231 466.374)"/><path d="M319.744 73.5991C319.752 73.6506 319.742 73.6976 319.715 73.7419 319.485 74.0499 319.252 74.3551 319.015 74.6565 318.649 74.9738 318.292 75.3026 317.943 75.6428 317.919 75.6718 317.909 75.7052 317.914 75.7429 317.863 75.7468 317.815 75.7369 317.771 75.7145 317.771 75.6953 317.771 75.6762 317.771 75.657 317.843 75.6822 317.891 75.6538 317.914 75.5712 317.988 75.5312 318.035 75.4694 318.057 75.3857 318.18 75.2626 318.318 75.1625 318.472 75.0854 318.578 74.9295 318.697 74.7867 318.829 74.6565 318.859 74.6609 318.887 74.656 318.915 74.6423 318.967 74.5695 319.029 74.5077 319.1 74.4569 319.111 74.3961 319.13 74.3393 319.158 74.2851 319.263 74.1981 319.349 74.0936 319.415 73.9706 319.539 73.8535 319.648 73.7293 319.744 73.5991Z" fill="#1D2C20" fill-rule="evenodd" transform="matrix(1.06499 0 0 1 5.67231 466.374)"/><path d="M310.711 74.9426C310.845 74.9475 310.979 74.9568 311.111 74.9711 311.111 74.9804 311.111 74.9902 311.111 74.9995 310.971 75.0039 310.837 74.9847 310.711 74.9426Z" fill="#9DB1A4" fill-rule="evenodd" transform="matrix(1.06499 0 0 1 5.67231 466.374)"/><path d="M311.111 74.9995C311.111 74.9902 311.111 74.9804 311.111 74.9711 311.741 75.0012 312.369 75.0012 312.998 74.9711 312.641 75.0143 312.279 75.0334 311.912 75.0285 311.644 75.0274 311.377 75.0181 311.111 74.9995Z" fill="#D9E7DC" fill-rule="evenodd" transform="matrix(1.06499 0 0 1 5.67231 466.374)"/><path d="M346.211 68.9975C346.24 71.0407 346.25 73.0893 346.24 75.1428 344.187 75.1521 342.138 75.1428 340.095 75.1138 342.133 75.1138 344.173 75.1138 346.211 75.1138 346.211 73.0751 346.211 71.0363 346.211 68.9975Z" fill="#829284" fill-rule="evenodd" transform="matrix(1.06499 0 0 1 5.67231 466.374)"/><path d="M355.13 64.8812C355.158 68.2968 355.167 71.7174 355.158 75.1428 353.062 75.1478 350.966 75.1428 348.869 75.1281 348.825 75.1226 348.787 75.1078 348.755 75.0854 350.87 75.1133 352.985 75.1231 355.101 75.1138 355.13 71.7081 355.139 68.2968 355.13 64.8812Z" fill="#93A194" fill-rule="evenodd" transform="matrix(1.06499 0 0 1 5.67231 466.374)"/><path d="M364.076 73.1134C364.086 73.1134 364.095 73.1134 364.105 73.1134 364.105 73.79 364.105 74.4662 364.105 75.1428 362.004 75.1521 359.907 75.1428 357.816 75.1138 359.865 75.1138 361.913 75.1138 363.961 75.1138 364 75.1138 364.038 75.1138 364.076 75.1138 364.076 74.447 364.076 73.7802 364.076 73.1134Z" fill="#92A194" fill-rule="evenodd" transform="matrix(1.06499 0 0 1 5.67231 466.374)"/><path d="M339.866 75.0854C339.944 75.0876 340.02 75.0974 340.095 75.1138 342.138 75.1428 344.187 75.1521 346.24 75.1428 344.187 75.1762 342.129 75.1806 340.066 75.1571 339.992 75.1456 339.925 75.122 339.866 75.0854Z" fill="#D9E5DB" fill-rule="evenodd" transform="matrix(1.06499 0 0 1 5.67231 466.374)"/><path d="M323.859 75.1428C325.231 75.1428 326.603 75.1428 327.975 75.1428 327.975 75.476 327.975 75.8097 327.975 76.1428 326.451 76.1428 324.927 76.1428 323.402 76.1428 323.393 76.1428 323.383 76.1428 323.374 76.1428 324.893 76.1144 326.418 76.1051 327.947 76.1144 327.947 75.7998 327.947 75.4858 327.947 75.1713 326.579 75.1806 325.217 75.1713 323.859 75.1428Z" fill="#D6E4D9" fill-rule="evenodd" transform="matrix(1.06499 0 0 1 5.67231 466.374)"/><path d="M308.767 77.2292C308.918 77.262 309.07 77.2855 309.225 77.3009 309.369 77.372 309.522 77.419 309.682 77.4436 309.776 77.4661 309.866 77.4611 309.954 77.4294 310.099 77.4825 310.247 77.4923 310.397 77.4579 310.552 77.5415 310.719 77.5891 310.897 77.6006 311.551 77.5979 312.214 77.5979 312.884 77.6006 313.118 77.5481 313.356 77.5142 313.598 77.5005 313.624 77.4901 313.648 77.4759 313.67 77.4579 313.866 77.4808 314.062 77.4808 314.256 77.4579 314.088 77.5005 313.917 77.5388 313.741 77.5722 313.133 77.634 312.523 77.6723 311.912 77.6865 311.53 77.6805 311.149 77.6613 310.768 77.6296 310.079 77.5935 309.412 77.46 308.767 77.2292Z" fill="#597A64" fill-rule="evenodd" transform="matrix(1.06499 0 0 1 5.67231 466.374)"/><path d="M313.741 77.5722C313.615 77.6165 313.482 77.64 313.341 77.6438 312.637 77.7078 311.932 77.7264 311.226 77.7007 311.067 77.6936 310.915 77.6701 310.768 77.6296 311.149 77.6613 311.53 77.6805 311.912 77.6865 312.523 77.6723 313.133 77.634 313.741 77.5722Z" fill="#C9D7CD" fill-rule="evenodd" transform="matrix(1.06499 0 0 1 5.67231 466.374)"/><path d="M334.835 77.8293C334.835 77.8391 334.835 77.8484 334.835 77.8583 334.845 78.5634 334.835 79.2685 334.807 79.9731 334.79 79.9698 334.78 79.9599 334.778 79.9446 334.797 79.2395 334.816 78.5344 334.835 77.8293Z" fill="#585858" fill-rule="evenodd" transform="matrix(1.06499 0 0 1 5.67231 466.374)"/><path d="M334.835 77.8583C334.959 77.8583 335.083 77.8583 335.207 77.8583 335.198 79.3686 335.207 80.8735 335.235 82.374 335.247 82.5359 335.257 82.6978 335.264 82.8603 335.131 82.8603 334.997 82.8603 334.864 82.8603 334.872 82.8143 334.862 82.776 334.835 82.746 334.845 82.5922 334.835 82.4396 334.807 82.2886 334.351 82.9123 333.761 83.0884 333.035 82.8171 332.499 82.5031 332.212 82.0315 332.177 81.4025 332.174 81.1065 332.183 80.8111 332.206 80.5163 332.246 80.4588 332.266 80.3921 332.263 80.3161 332.648 79.3692 333.325 79.0688 334.292 79.4157 334.51 79.5431 334.672 79.7193 334.778 79.9446 334.78 79.9599 334.79 79.9698 334.807 79.9731 334.835 79.2685 334.845 78.5634 334.835 77.8583Z" fill="#060606" fill-rule="evenodd" transform="matrix(1.06499 0 0 1 5.67231 466.374)"/><path d="M334.835 77.8583C334.835 77.8484 334.835 77.8391 334.835 77.8293 334.969 77.8293 335.102 77.8293 335.235 77.8293 335.235 79.3445 335.235 80.8593 335.235 82.374 335.207 80.8735 335.198 79.3686 335.207 77.8583 335.083 77.8583 334.959 77.8583 334.835 77.8583Z" fill="#313131" fill-rule="evenodd" transform="matrix(1.06499 0 0 1 5.67231 466.374)"/><path d="M323.374 76.1428C323.383 76.1428 323.393 76.1428 323.402 76.1428 323.402 76.8195 323.402 77.4961 323.402 78.1723 324.974 78.1772 326.546 78.1723 328.118 78.1581 328.28 78.1427 328.442 78.1285 328.604 78.1154 328.507 78.1564 328.402 78.1799 328.29 78.1865 326.651 78.2013 325.012 78.2056 323.374 78.2013 323.374 77.5153 323.374 76.8288 323.374 76.1428Z" fill="#7D9184" fill-rule="evenodd" transform="matrix(1.06499 0 0 1 5.67231 466.374)"/><path d="M319.058 79.3445C318.753 79.3074 318.448 79.3074 318.143 79.3445 318.175 79.3216 318.212 79.3074 318.257 79.3013 318.495 79.2822 318.734 79.2822 318.972 79.3013 319.007 79.3079 319.036 79.3221 319.058 79.3445Z" fill="#525252" fill-rule="evenodd" transform="matrix(1.06499 0 0 1 5.67231 466.374)"/><path d="M341.981 79.3156C341.732 79.3095 341.485 79.3194 341.238 79.3445 341.26 79.3221 341.288 79.3079 341.324 79.3013 341.548 79.2778 341.767 79.2827 341.981 79.3156Z" fill="#4C4C4C" fill-rule="evenodd" transform="matrix(1.06499 0 0 1 5.67231 466.374)"/><path d="M311.197 79.3156C311.257 79.3473 311.324 79.3664 311.397 79.373 311.734 79.4857 311.948 79.7143 312.04 80.059 312.068 80.9933 312.101 81.9265 312.14 82.8603 312.017 82.8603 311.893 82.8603 311.769 82.8603 311.754 82.6967 311.731 82.5348 311.697 82.374 311.392 82.7782 310.982 82.9686 310.468 82.9456 309.584 82.8811 309.212 82.4139 309.353 81.5452 309.517 81.1558 309.808 80.9271 310.225 80.8593 310.301 80.862 310.368 80.8428 310.426 80.8018 310.833 80.7515 311.243 80.7324 311.655 80.7449 311.73 79.7679 311.291 79.4107 310.34 79.6733 310.137 79.7789 310.022 79.9457 309.997 80.1733 309.872 80.2263 309.739 80.2449 309.597 80.2302 309.597 80.164 309.597 80.0967 309.597 80.0305 309.642 79.9846 309.661 79.9277 309.654 79.8587 309.75 79.6569 309.903 79.5141 310.111 79.4299 310.223 79.4025 310.327 79.3642 310.426 79.3156 310.682 79.2784 310.939 79.2784 311.197 79.3156Z" fill="#090909" fill-rule="evenodd" transform="matrix(1.06499 0 0 1 5.67231 466.374)"/><path d="M311.197 79.3156C311.275 79.3063 311.342 79.3254 311.397 79.373 311.324 79.3664 311.257 79.3473 311.197 79.3156Z" fill="#858585" fill-rule="evenodd" transform="matrix(1.06499 0 0 1 5.67231 466.374)"/><path d="M319.058 79.3445C319.634 79.4922 319.939 79.8637 319.972 80.4588 319.839 80.4588 319.706 80.4588 319.572 80.4588 319.55 80.0863 319.369 79.8237 319.029 79.6733 318.432 79.4939 317.961 79.6607 317.614 80.1733 317.547 80.2794 317.504 80.3937 317.485 80.5163 317.445 80.5737 317.426 80.6404 317.429 80.7165 317.321 81.2799 317.431 81.7941 317.757 82.2597 318.174 82.671 318.646 82.7421 319.172 82.4741 319.428 82.2996 319.562 82.0567 319.572 81.7454 319.706 81.7454 319.839 81.7454 319.972 81.7454 319.949 82.2345 319.721 82.5868 319.286 82.8028 319.159 82.8422 319.036 82.88 318.915 82.9172 317.9 83.0654 317.266 82.6459 317.014 81.6596 316.878 81.037 316.973 80.4556 317.299 79.9162 317.512 79.6224 317.792 79.4315 318.143 79.3445 318.448 79.3074 318.753 79.3074 319.058 79.3445Z" fill="#080808" fill-rule="evenodd" transform="matrix(1.06499 0 0 1 5.67231 466.374)"/><path d="M326.975 82.746C326.982 82.6174 326.963 82.4938 326.918 82.374 326.9 82.3778 326.891 82.3871 326.889 82.403 326.741 82.6087 326.55 82.7613 326.318 82.8603 326.053 82.9079 325.787 82.927 325.517 82.9172 324.765 82.8176 324.436 82.3887 324.531 81.6311 324.715 81.1503 325.063 80.879 325.574 80.8166 326 80.7537 326.429 80.7296 326.861 80.7449 326.861 80.5639 326.861 80.3828 326.861 80.2017 326.867 80.1334 326.848 80.0759 326.803 80.0305 326.711 79.7833 326.53 79.6449 326.26 79.6159 325.865 79.5163 325.536 79.6164 325.275 79.9162 325.261 79.943 325.256 79.972 325.26 80.0015 325.215 80.0475 325.196 80.1049 325.203 80.1733 325.203 80.1924 325.203 80.211 325.203 80.2302 325.069 80.2302 324.936 80.2302 324.803 80.2302 324.803 80.1826 324.803 80.135 324.803 80.0874 324.87 79.7253 325.079 79.4868 325.431 79.373 325.508 79.3757 325.574 79.3566 325.632 79.3156 326.115 79.2133 326.563 79.2942 326.975 79.559 327.163 79.7647 327.263 80.0075 327.275 80.2876 327.277 81.1459 327.3 82.0036 327.347 82.8603 327.223 82.8603 327.099 82.8603 326.975 82.8603 326.975 82.822 326.975 82.7837 326.975 82.746Z" fill="#080808" fill-rule="evenodd" transform="matrix(1.06499 0 0 1 5.67231 466.374)"/><path d="M341.981 79.3156C342.109 79.3331 342.233 79.3713 342.353 79.4299 342.635 79.6077 342.835 79.8555 342.953 80.1733 342.951 80.2488 342.97 80.3161 343.01 80.3735 343.007 80.449 343.027 80.5157 343.067 80.5732 343.067 80.6022 343.067 80.6306 343.067 80.659 343.081 80.8303 343.09 81.002 343.096 81.1738 342.229 81.1738 341.362 81.1738 340.495 81.1738 340.486 81.2936 340.496 81.4079 340.523 81.5168 340.591 82.0556 340.877 82.4227 341.381 82.6169 342.078 82.7356 342.507 82.4549 342.667 81.7739 342.791 81.7739 342.915 81.7739 343.039 81.7739 343.039 81.8122 343.039 81.8505 343.039 81.8882 342.947 82.3127 342.709 82.6174 342.324 82.8028 341.952 82.9484 341.57 82.9768 341.181 82.8887 340.679 82.7438 340.35 82.4199 340.195 81.9167 340.073 81.4336 340.063 80.9473 340.166 80.4588 340.312 79.9512 340.621 79.5847 341.095 79.3588 341.142 79.3445 341.189 79.3396 341.238 79.3445 341.485 79.3194 341.732 79.3095 341.981 79.3156Z" fill="#060606" fill-rule="evenodd" transform="matrix(1.06499 0 0 1 5.67231 466.374)"/><path d="M341.981 79.3156C342.129 79.2915 342.253 79.3303 342.353 79.4299 342.233 79.3713 342.109 79.3331 341.981 79.3156Z" fill="#A9A9A9" fill-rule="evenodd" transform="matrix(1.06499 0 0 1 5.67231 466.374)"/><path d="M310.426 79.3156C310.327 79.3642 310.223 79.4025 310.111 79.4299 310.2 79.3588 310.305 79.321 310.426 79.3156Z" fill="#595959" fill-rule="evenodd" transform="matrix(1.06499 0 0 1 5.67231 466.374)"/><path d="M325.632 79.3156C325.574 79.3566 325.508 79.3757 325.431 79.373 325.489 79.3325 325.556 79.3134 325.632 79.3156Z" fill="#686868" fill-rule="evenodd" transform="matrix(1.06499 0 0 1 5.67231 466.374)"/><path d="M349.213 79.3445C349.843 79.2401 350.3 79.4687 350.585 80.0305 351.006 79.3648 351.597 79.1602 352.357 79.4157 352.764 79.652 352.968 80.0097 352.972 80.4878 352.986 81.2783 352.991 82.0693 352.986 82.8603 352.852 82.8603 352.719 82.8603 352.585 82.8603 352.59 82.06 352.585 81.2591 352.571 80.4588 352.566 80.4052 352.551 80.3576 352.528 80.3161 352.412 79.8713 352.121 79.6618 351.657 79.6875 351.215 79.6771 350.915 79.8773 350.756 80.2876 350.716 80.3451 350.696 80.4118 350.699 80.4878 350.671 81.2761 350.661 82.0671 350.67 82.8603 350.537 82.8603 350.404 82.8603 350.27 82.8603 350.275 82.0977 350.27 81.3352 350.256 80.5732 350.245 79.9955 349.955 79.7007 349.384 79.6875 348.9 79.699 348.581 79.937 348.427 80.4019 348.404 80.4867 348.385 80.5726 348.369 80.659 348.355 81.3926 348.35 82.1262 348.355 82.8603 348.222 82.8603 348.088 82.8603 347.955 82.8603 347.955 81.8023 347.955 80.7449 347.955 79.6875 347.955 79.5825 347.955 79.478 347.955 79.373 348.079 79.373 348.203 79.373 348.327 79.373 348.346 79.559 348.365 79.7499 348.384 79.9446 348.525 79.6832 348.735 79.5026 349.013 79.4014 349.088 79.4042 349.155 79.385 349.213 79.3445Z" fill="#040404" fill-rule="evenodd" transform="matrix(1.06499 0 0 1 5.67231 466.374)"/><path d="M358.131 79.373C357.963 79.3637 357.801 79.373 357.645 79.4014 357.629 79.3998 357.62 79.3905 357.616 79.373 357.792 79.3352 357.963 79.3352 358.131 79.373Z" fill="#757575" fill-rule="evenodd" transform="matrix(1.06499 0 0 1 5.67231 466.374)"/><path d="M360.475 79.373C360.612 79.3445 360.755 79.3352 360.903 79.3445 360.91 79.3812 360.9 79.4096 360.874 79.4299 360.754 79.3746 360.621 79.356 360.475 79.373Z" fill="#727272" fill-rule="evenodd" transform="matrix(1.06499 0 0 1 5.67231 466.374)"/><path d="M349.213 79.3445C349.155 79.385 349.088 79.4042 349.013 79.4014 349.07 79.361 349.137 79.3418 349.213 79.3445Z" fill="#6E6E6E" fill-rule="evenodd" transform="matrix(1.06499 0 0 1 5.67231 466.374)"/><path d="M357.645 79.4014C357.801 79.373 357.963 79.3637 358.131 79.373 358.509 80.3396 358.905 81.3018 359.317 82.2597 359.715 81.3024 360.102 80.3407 360.475 79.373 360.621 79.356 360.754 79.3746 360.874 79.4299 360.224 81.0108 359.595 82.6021 358.988 84.2032 358.845 84.2032 358.702 84.2032 358.559 84.2032 358.732 83.7536 358.913 83.3061 359.103 82.8603 358.633 81.7 358.147 80.5469 357.645 79.4014Z" fill="#080808" fill-rule="evenodd" transform="matrix(1.06499 0 0 1 5.67231 466.374)"/><path d="M333.835 79.6301C333.672 79.629 333.511 79.6383 333.349 79.6585 333.441 79.6175 333.541 79.5984 333.649 79.6016 333.717 79.6016 333.779 79.6115 333.835 79.6301Z" fill="#A2A2A2" fill-rule="evenodd" transform="matrix(1.06499 0 0 1 5.67231 466.374)"/><path d="M341.981 79.6585C341.862 79.6487 341.743 79.6388 341.624 79.6301 341.471 79.6383 341.324 79.6667 341.181 79.716 341.248 79.6695 341.324 79.6361 341.41 79.6159 341.562 79.5967 341.714 79.5967 341.867 79.6159 341.911 79.6219 341.95 79.6361 341.981 79.6585Z" fill="#BDBDBD" fill-rule="evenodd" transform="matrix(1.06499 0 0 1 5.67231 466.374)"/><path d="M341.981 79.6585C342.361 79.8177 342.585 80.1038 342.653 80.5163 342.667 80.6301 342.672 80.7444 342.667 80.8593 341.962 80.8593 341.257 80.8593 340.552 80.8593 340.552 80.7827 340.552 80.7066 340.552 80.6306 340.607 80.5239 340.645 80.4096 340.666 80.2876 340.767 80.0343 340.939 79.8434 341.181 79.716 341.324 79.6667 341.471 79.6383 341.624 79.6301 341.743 79.6388 341.862 79.6487 341.981 79.6585Z" fill="#FCFCFC" fill-rule="evenodd" transform="matrix(1.06499 0 0 1 5.67231 466.374)"/><path d="M348.327 79.373C348.203 79.373 348.079 79.373 347.955 79.373 347.955 79.478 347.955 79.5825 347.955 79.6875 347.927 79.5787 347.917 79.4643 347.926 79.3445 348.065 79.3352 348.199 79.3445 348.327 79.373Z" fill="#646464" fill-rule="evenodd" transform="matrix(1.06499 0 0 1 5.67231 466.374)"/><path d="M333.835 79.6301C334.28 79.7083 334.571 79.9654 334.707 80.4019 334.829 80.8565 334.839 81.3138 334.735 81.7739 334.546 82.4303 334.112 82.7017 333.435 82.5884 332.974 82.4052 332.707 82.0671 332.635 81.5737 332.61 81.3653 332.601 81.1558 332.606 80.9452 332.599 80.4714 332.77 80.0759 333.121 79.7586 333.194 79.7176 333.27 79.6837 333.349 79.6585 333.511 79.6383 333.672 79.629 333.835 79.6301Z" fill="#FCFCFC" fill-rule="evenodd" transform="matrix(1.06499 0 0 1 5.67231 466.374)"/><path d="M309.654 79.8587C309.661 79.9277 309.642 79.9846 309.597 80.0305 309.59 79.9616 309.609 79.9047 309.654 79.8587Z" fill="#5A5A5A" fill-rule="evenodd" transform="matrix(1.06499 0 0 1 5.67231 466.374)"/><path d="M325.26 80.0015C325.267 80.0704 325.248 80.1273 325.203 80.1733 325.196 80.1049 325.215 80.0475 325.26 80.0015Z" fill="#939393" fill-rule="evenodd" transform="matrix(1.06499 0 0 1 5.67231 466.374)"/><path d="M326.803 80.0305C326.848 80.0759 326.867 80.1334 326.861 80.2017 326.816 80.1563 326.797 80.0989 326.803 80.0305Z" fill="#787878" fill-rule="evenodd" transform="matrix(1.06499 0 0 1 5.67231 466.374)"/><path d="M309.597 80.0305C309.597 80.0967 309.597 80.164 309.597 80.2302 309.739 80.2449 309.872 80.2263 309.997 80.1733 309.997 80.2017 309.997 80.2302 309.997 80.2592 309.854 80.2592 309.711 80.2592 309.568 80.2592 309.559 80.1766 309.569 80.1005 309.597 80.0305Z" fill="#858585" fill-rule="evenodd" transform="matrix(1.06499 0 0 1 5.67231 466.374)"/><path d="M324.803 80.0874C324.803 80.135 324.803 80.1826 324.803 80.2302 324.936 80.2302 325.069 80.2302 325.203 80.2302 325.065 80.2559 324.922 80.275 324.774 80.2876 324.766 80.2143 324.775 80.1476 324.803 80.0874Z" fill="#B4B4B4" fill-rule="evenodd" transform="matrix(1.06499 0 0 1 5.67231 466.374)"/><path d="M342.953 80.1733C342.994 80.2307 343.013 80.2975 343.01 80.3735 342.97 80.3161 342.951 80.2488 342.953 80.1733Z" fill="#5A5A5A" fill-rule="evenodd" transform="matrix(1.06499 0 0 1 5.67231 466.374)"/><path d="M340.666 80.2876C340.645 80.4096 340.607 80.5239 340.552 80.6306 340.562 80.5042 340.601 80.3899 340.666 80.2876Z" fill="#9C9C9C" fill-rule="evenodd" transform="matrix(1.06499 0 0 1 5.67231 466.374)"/><path d="M332.263 80.3161C332.266 80.3921 332.246 80.4588 332.206 80.5163 332.203 80.4402 332.222 80.3735 332.263 80.3161Z" fill="#545454" fill-rule="evenodd" transform="matrix(1.06499 0 0 1 5.67231 466.374)"/><path d="M350.756 80.2876C350.759 80.3631 350.74 80.4304 350.699 80.4878 350.696 80.4118 350.716 80.3451 350.756 80.2876Z" fill="#606060" fill-rule="evenodd" transform="matrix(1.06499 0 0 1 5.67231 466.374)"/><path d="M343.01 80.3735C343.051 80.4309 343.07 80.4977 343.067 80.5732 343.027 80.5157 343.007 80.449 343.01 80.3735Z" fill="#909090" fill-rule="evenodd" transform="matrix(1.06499 0 0 1 5.67231 466.374)"/><path d="M317.485 80.5163C317.488 80.5918 317.469 80.659 317.429 80.7165 317.426 80.6404 317.445 80.5737 317.485 80.5163Z" fill="#707070" fill-rule="evenodd" transform="matrix(1.06499 0 0 1 5.67231 466.374)"/><path d="M352.528 80.3161C352.551 80.3576 352.566 80.4052 352.571 80.4588 352.585 81.2591 352.59 82.06 352.585 82.8603 352.565 82.0168 352.545 81.1683 352.528 80.3161Z" fill="#5C5C5C" fill-rule="evenodd" transform="matrix(1.06499 0 0 1 5.67231 466.374)"/><path d="M310.426 80.8018C310.368 80.8428 310.301 80.862 310.225 80.8593 310.283 80.8188 310.349 80.7996 310.426 80.8018Z" fill="#606060" fill-rule="evenodd" transform="matrix(1.06499 0 0 1 5.67231 466.374)"/><path d="M340.552 80.6306C340.552 80.7066 340.552 80.7827 340.552 80.8593 341.257 80.8593 341.962 80.8593 342.667 80.8593 341.957 80.8877 341.243 80.897 340.523 80.8877 340.515 80.7964 340.524 80.7105 340.552 80.6306Z" fill="#8E8E8E" fill-rule="evenodd" transform="matrix(1.06499 0 0 1 5.67231 466.374)"/><path d="M332.206 80.5163C332.183 80.8111 332.174 81.1065 332.177 81.4025 332.158 81.2881 332.148 81.1694 332.148 81.0453 332.144 80.862 332.163 80.6859 332.206 80.5163Z" fill="#2F2F2F" fill-rule="evenodd" transform="matrix(1.06499 0 0 1 5.67231 466.374)"/><path d="M343.067 80.659C343.125 80.8286 343.134 81.0004 343.096 81.1738 343.09 81.002 343.081 80.8303 343.067 80.659Z" fill="#B3B3B3" fill-rule="evenodd" transform="matrix(1.06499 0 0 1 5.67231 466.374)"/><path d="M311.655 81.0595C311.283 81.0546 310.911 81.0644 310.54 81.0879 310.581 81.0649 310.629 81.0507 310.683 81.0453 311.011 81.0212 311.336 81.0261 311.655 81.0595Z" fill="#929292" fill-rule="evenodd" transform="matrix(1.06499 0 0 1 5.67231 466.374)"/><path d="M311.655 81.0595C311.708 81.4829 311.636 81.8833 311.44 82.2597 311.314 82.4331 311.147 82.5523 310.94 82.6169 310.479 82.7399 310.102 82.6207 309.811 82.2597 309.772 82.188 309.749 82.1114 309.74 82.031 309.734 81.8658 309.753 81.7039 309.796 81.5452 309.886 81.3789 310.02 81.2646 310.197 81.2022 310.319 81.1804 310.433 81.1426 310.54 81.0879 310.911 81.0644 311.283 81.0546 311.655 81.0595Z" fill="#FBFBFB" fill-rule="evenodd" transform="matrix(1.06499 0 0 1 5.67231 466.374)"/><path d="M326.861 81.6596C326.861 81.4594 326.861 81.2591 326.861 81.0595 326.488 81.0546 326.117 81.0644 325.746 81.0879 325.797 81.0649 325.854 81.0507 325.917 81.0453 326.241 81.0305 326.565 81.0261 326.889 81.0305 326.899 81.2455 326.889 81.455 326.861 81.6596Z" fill="#888888" fill-rule="evenodd" transform="matrix(1.06499 0 0 1 5.67231 466.374)"/><path d="M326.861 81.6596C326.841 82.0277 326.679 82.3182 326.375 82.5315 326.306 82.5802 326.23 82.6037 326.146 82.6026 325.885 82.6163 325.628 82.5972 325.375 82.5457 325.092 82.4156 324.949 82.1913 324.946 81.874 324.94 81.7487 324.964 81.6295 325.017 81.5168 325.137 81.3636 325.284 81.2493 325.46 81.1738 325.565 81.1672 325.66 81.1388 325.746 81.0879 326.117 81.0644 326.488 81.0546 326.861 81.0595 326.861 81.2591 326.861 81.4594 326.861 81.6596Z" fill="#FCFCFC" fill-rule="evenodd" transform="matrix(1.06499 0 0 1 5.67231 466.374)"/><path d="M325.746 81.0879C325.66 81.1388 325.565 81.1672 325.46 81.1738 325.546 81.1229 325.642 81.0939 325.746 81.0879Z" fill="#9B9B9B" fill-rule="evenodd" transform="matrix(1.06499 0 0 1 5.67231 466.374)"/><path d="M310.54 81.0879C310.433 81.1426 310.319 81.1804 310.197 81.2022 310.299 81.1361 310.413 81.0983 310.54 81.0879Z" fill="#B5B5B5" fill-rule="evenodd" transform="matrix(1.06499 0 0 1 5.67231 466.374)"/><path d="M343.096 81.1738C342.243 81.2022 341.386 81.2115 340.523 81.2022 340.523 81.3073 340.523 81.4118 340.523 81.5168 340.496 81.4079 340.486 81.2936 340.495 81.1738 341.362 81.1738 342.229 81.1738 343.096 81.1738Z" fill="#A8A8A8" fill-rule="evenodd" transform="matrix(1.06499 0 0 1 5.67231 466.374)"/><path d="M332.606 80.9452C332.601 81.1558 332.61 81.3653 332.635 81.5737 332.612 81.5523 332.598 81.5234 332.592 81.4883 332.568 81.3018 332.573 81.1207 332.606 80.9452Z" fill="#555555" fill-rule="evenodd" transform="matrix(1.06499 0 0 1 5.67231 466.374)"/><path d="M342.667 81.7739C342.795 81.7454 342.928 81.7362 343.067 81.7454 343.075 81.8001 343.066 81.8477 343.039 81.8882 343.039 81.8505 343.039 81.8122 343.039 81.7739 342.915 81.7739 342.791 81.7739 342.667 81.7739Z" fill="#7D7D7D" fill-rule="evenodd" transform="matrix(1.06499 0 0 1 5.67231 466.374)"/><path d="M309.796 81.5452C309.753 81.7039 309.734 81.8658 309.74 82.031 309.694 81.8625 309.712 81.7006 309.796 81.5452Z" fill="#6E6E6E" fill-rule="evenodd" transform="matrix(1.06499 0 0 1 5.67231 466.374)"/><path d="M325.375 82.5457C325.628 82.5972 325.885 82.6163 326.146 82.6026 326.125 82.6251 326.096 82.6393 326.061 82.6459 325.917 82.665 325.774 82.665 325.632 82.6459 325.535 82.6311 325.45 82.5977 325.375 82.5457Z" fill="#B2B2B2" fill-rule="evenodd" transform="matrix(1.06499 0 0 1 5.67231 466.374)"/><path d="M326.889 82.403C326.891 82.3871 326.9 82.3778 326.918 82.374 326.963 82.4938 326.982 82.6174 326.975 82.746 326.941 82.6327 326.913 82.5184 326.889 82.403Z" fill="#626262" fill-rule="evenodd" transform="matrix(1.06499 0 0 1 5.67231 466.374)"/><path d="M319.286 82.8028C319.18 82.886 319.056 82.9243 318.915 82.9172 319.036 82.88 319.159 82.8422 319.286 82.8028Z" fill="#AAAAAA" fill-rule="evenodd" transform="matrix(1.06499 0 0 1 5.67231 466.374)"/><path d="M334.835 82.746C334.862 82.776 334.872 82.8143 334.864 82.8603 334.997 82.8603 335.131 82.8603 335.264 82.8603 335.126 82.8882 334.984 82.898 334.835 82.8887 334.835 82.8411 334.835 82.7935 334.835 82.746Z" fill="#A9A9A9" fill-rule="evenodd" transform="matrix(1.06499 0 0 1 5.67231 466.374)"/><path d="M326.318 82.8603C326.274 82.886 326.226 82.9101 326.175 82.9314 325.951 82.9549 325.731 82.9505 325.517 82.9172 325.787 82.927 326.053 82.9079 326.318 82.8603Z" fill="#999999" fill-rule="evenodd" transform="matrix(1.06499 0 0 1 5.67231 466.374)"/><path d="M342.324 82.8028C342.18 82.8969 342.018 82.9494 341.838 82.9598 341.695 82.979 341.552 82.979 341.41 82.9598 341.323 82.9571 341.247 82.9336 341.181 82.8887 341.57 82.9768 341.952 82.9484 342.324 82.8028Z" fill="#BFBFBF" fill-rule="evenodd" transform="matrix(1.06499 0 0 1 5.67231 466.374)"/></g></g></svg>