<?xml version="1.0" encoding="UTF-8"?>
<!DOCTYPE svg PUBLIC "-//W3C//DTD SVG 1.1//EN" "http://www.w3.org/Graphics/SVG/1.1/DTD/svg11.dtd">
<svg xmlns="http://www.w3.org/2000/svg" version="1.1" width="3464px" height="3464px" style="shape-rendering:geometricPrecision; text-rendering:geometricPrecision; image-rendering:optimizeQuality; fill-rule:evenodd; clip-rule:evenodd" xmlns:xlink="http://www.w3.org/1999/xlink">
<g><path style="opacity:1" fill="#fefefe" d="M -0.5,-0.5 C 1154.17,-0.5 2308.83,-0.5 3463.5,-0.5C 3463.5,1154.17 3463.5,2308.83 3463.5,3463.5C 2308.83,3463.5 1154.17,3463.5 -0.5,3463.5C -0.5,2308.83 -0.5,1154.17 -0.5,-0.5 Z"/></g>
<g><path style="opacity:1" fill="#010101" d="M 847.5,1308.5 C 814.5,1309.17 781.5,1309.83 748.5,1310.5C 747.503,1331.99 747.169,1353.66 747.5,1375.5C 737.5,1375.5 727.5,1375.5 717.5,1375.5C 717.082,1374.78 716.416,1374.28 715.5,1374C 692.716,1369.1 669.716,1366.93 646.5,1367.5C 646.5,1348.17 646.5,1328.83 646.5,1309.5C 642.167,1309.5 637.833,1309.5 633.5,1309.5C 604.329,1309.83 575.329,1309.5 546.5,1308.5C 575.785,1286.55 604.785,1264.22 633.5,1241.5C 634.167,1241.5 634.5,1241.17 634.5,1240.5C 637.72,1238.4 640.72,1236.06 643.5,1233.5C 644.167,1233.5 644.5,1233.17 644.5,1232.5C 662.124,1219.38 679.624,1206.05 697,1192.5C 747.043,1231.38 797.209,1270.05 847.5,1308.5 Z"/></g>
<g><path style="opacity:1" fill="#a7b6ac" d="M 644.5,1232.5 C 644.5,1233.17 644.167,1233.5 643.5,1233.5C 640.5,1233.5 637.5,1233.5 634.5,1233.5C 634.5,1235.83 634.5,1238.17 634.5,1240.5C 634.5,1241.17 634.167,1241.5 633.5,1241.5C 633.5,1238.5 633.5,1235.5 633.5,1232.5C 637.167,1232.5 640.833,1232.5 644.5,1232.5 Z"/></g>
<g><path style="opacity:1" fill="#8d8d8d" d="M 1143.5,1233.5 C 1252,1232.33 1360.67,1232.17 1469.5,1233C 1479.51,1233.58 1489.51,1234.25 1499.5,1235C 1503.7,1235.53 1507.7,1236.36 1511.5,1237.5C 1496.87,1236 1482.21,1234.84 1467.5,1234C 1360.83,1233.5 1254.17,1233.33 1147.5,1233.5C 1147.17,1233.5 1146.83,1233.5 1146.5,1233.5C 1145.5,1233.5 1144.5,1233.5 1143.5,1233.5 Z"/></g>
<g><path style="opacity:1" fill="#000000" d="M 1147.5,1233.5 C 1254.17,1233.33 1360.83,1233.5 1467.5,1234C 1482.21,1234.84 1496.87,1236 1511.5,1237.5C 1512.17,1237.5 1512.83,1237.5 1513.5,1237.5C 1516.95,1238.69 1520.61,1239.35 1524.5,1239.5C 1599.68,1250.64 1658.18,1287.64 1700,1350.5C 1711.88,1370.59 1720.71,1391.92 1726.5,1414.5C 1726.41,1417.15 1727.08,1419.49 1728.5,1421.5C 1728.5,1422.17 1728.5,1422.83 1728.5,1423.5C 1728.17,1426.23 1728.84,1428.56 1730.5,1430.5C 1730.5,1431.17 1730.5,1431.83 1730.5,1432.5C 1731.52,1442.67 1732.85,1452.67 1734.5,1462.5C 1734.5,1474.5 1734.5,1486.5 1734.5,1498.5C 1733.43,1505.32 1732.77,1512.32 1732.5,1519.5C 1732.5,1521.17 1732.5,1522.83 1732.5,1524.5C 1730.43,1530.55 1729.1,1536.88 1728.5,1543.5C 1712.09,1622.57 1666.42,1676.9 1591.5,1706.5C 1583.86,1708.6 1576.53,1711.27 1569.5,1714.5C 1567.59,1714.22 1565.92,1714.55 1564.5,1715.5C 1561.85,1715.41 1559.51,1716.08 1557.5,1717.5C 1527.58,1724.62 1497.25,1728.62 1466.5,1729.5C 1396,1729.17 1325.66,1729.5 1255.5,1730.5C 1254.5,1766.66 1254.17,1803 1254.5,1839.5C 1246.97,1848.85 1241.81,1859.51 1239,1871.5C 1236.8,1893.03 1234.14,1914.36 1231,1935.5C 1216.12,1956.39 1200.45,1976.72 1184,1996.5C 1183.52,1997.45 1183.35,1998.45 1183.5,1999.5C 1178.88,2004.04 1174.71,2009.04 1171,2014.5C 1165.63,2017.2 1160.8,2020.7 1156.5,2025C 1155.73,2027.93 1154.06,2030.09 1151.5,2031.5C 1150.17,2031.5 1148.83,2031.5 1147.5,2031.5C 1147.5,1765.5 1147.5,1499.5 1147.5,1233.5 Z"/></g>
<g><path style="opacity:1" fill="#526957" d="M 643.5,1233.5 C 640.72,1236.06 637.72,1238.4 634.5,1240.5C 634.5,1238.17 634.5,1235.83 634.5,1233.5C 637.5,1233.5 640.5,1233.5 643.5,1233.5 Z"/></g>
<g><path style="opacity:1" fill="#9b9b9b" d="M 1513.5,1237.5 C 1516.52,1237.34 1519.52,1237.5 1522.5,1238C 1523.42,1238.28 1524.08,1238.78 1524.5,1239.5C 1520.61,1239.35 1516.95,1238.69 1513.5,1237.5 Z"/></g>
<g><path style="opacity:1" fill="#58765f" d="M 1143.5,1233.5 C 1144.5,1233.5 1145.5,1233.5 1146.5,1233.5C 1146.5,1500.5 1146.5,1767.5 1146.5,2034.5C 1146.5,2035.17 1146.5,2035.83 1146.5,2036.5C 1145.77,2035.12 1145.1,2033.62 1144.5,2032C 1145.83,1973.23 1145.83,1914.4 1144.5,1855.5C 1143.57,1854.36 1142.74,1854.36 1142,1855.5C 1141.85,1859.13 1141.02,1862.47 1139.5,1865.5C 1140.74,1854.19 1141.91,1842.85 1143,1831.5C 1143.5,1632.17 1143.67,1432.83 1143.5,1233.5 Z"/></g>
<g><path style="opacity:1" fill="#07140e" d="M 1146.5,1233.5 C 1146.83,1233.5 1147.17,1233.5 1147.5,1233.5C 1147.5,1499.5 1147.5,1765.5 1147.5,2031.5C 1148.83,2031.5 1150.17,2031.5 1151.5,2031.5C 1150.68,2034.38 1149.01,2035.38 1146.5,2034.5C 1146.5,1767.5 1146.5,1500.5 1146.5,1233.5 Z"/></g>
<g><path style="opacity:1" fill="#7f7f7f" d="M 546.5,1308.5 C 575.329,1309.5 604.329,1309.83 633.5,1309.5C 633.5,1309.83 633.5,1310.17 633.5,1310.5C 632.833,1310.5 632.167,1310.5 631.5,1310.5C 602.826,1310.83 574.159,1310.5 545.5,1309.5C 545.624,1308.89 545.957,1308.56 546.5,1308.5 Z"/></g>
<g><path style="opacity:1" fill="#8f8f8f" d="M 847.5,1308.5 C 848.043,1308.56 848.376,1308.89 848.5,1309.5C 815.507,1310.5 782.507,1310.83 749.5,1310.5C 749.831,1332.67 749.497,1354.67 748.5,1376.5C 748.5,1354.5 748.5,1332.5 748.5,1310.5C 781.5,1309.83 814.5,1309.17 847.5,1308.5 Z"/></g>
<g><path style="opacity:1" fill="#f5fef7" d="M 631.5,1310.5 C 632.167,1310.5 632.833,1310.5 633.5,1310.5C 633.333,1485.5 633.5,1660.5 634,1835.5C 634.21,1837.06 634.71,1838.39 635.5,1839.5C 635.5,1844.83 635.5,1850.17 635.5,1855.5C 633.16,1854.43 632.827,1852.76 634.5,1850.5C 633.732,1846.55 633.232,1842.55 633,1838.5C 632.832,1662.43 632.332,1486.43 631.5,1310.5 Z"/></g>
<g><path style="opacity:1" fill="#6e8a77" d="M 633.5,1310.5 C 637.5,1310.5 641.5,1310.5 645.5,1310.5C 645.5,1330.17 645.5,1349.83 645.5,1369.5C 645.5,1371.83 645.5,1374.17 645.5,1376.5C 644.503,1355.01 644.169,1333.34 644.5,1311.5C 641.5,1311.5 638.5,1311.5 635.5,1311.5C 635.5,1487.5 635.5,1663.5 635.5,1839.5C 634.71,1838.39 634.21,1837.06 634,1835.5C 633.5,1660.5 633.333,1485.5 633.5,1310.5 Z"/></g>
<g><path style="opacity:1" fill="#fefefe" d="M 1465.5,1322.5 C 1470.83,1322.83 1476.17,1323.17 1481.5,1323.5C 1485.06,1324.42 1488.73,1324.76 1492.5,1324.5C 1495.22,1325.91 1498.22,1326.58 1501.5,1326.5C 1545.46,1333.88 1578.96,1356.55 1602,1394.5C 1629.77,1443.72 1634.1,1495.05 1615,1548.5C 1601.48,1586.52 1575.98,1612.85 1538.5,1627.5C 1533.61,1628.8 1528.94,1630.46 1524.5,1632.5C 1514.16,1634.6 1503.83,1636.77 1493.5,1639C 1482.53,1640.31 1471.53,1641.14 1460.5,1641.5C 1392.83,1641.5 1325.17,1641.5 1257.5,1641.5C 1257.5,1535.17 1257.5,1428.83 1257.5,1322.5C 1326.83,1322.5 1396.17,1322.5 1465.5,1322.5 Z"/></g>
<g><path style="opacity:1" fill="#616161" d="M 1465.5,1322.5 C 1465.5,1322.17 1465.5,1321.83 1465.5,1321.5C 1471.1,1321.16 1476.43,1321.82 1481.5,1323.5C 1476.17,1323.17 1470.83,1322.83 1465.5,1322.5 Z"/></g>
<g><path style="opacity:1" fill="#c3cac4" d="M 1256.5,1321.5 C 1326.17,1321.5 1395.83,1321.5 1465.5,1321.5C 1465.5,1321.83 1465.5,1322.17 1465.5,1322.5C 1396.17,1322.5 1326.83,1322.5 1257.5,1322.5C 1257.5,1428.83 1257.5,1535.17 1257.5,1641.5C 1256.5,1535 1256.17,1428.33 1256.5,1321.5 Z"/></g>
<g><path style="opacity:1" fill="#7e7e7e" d="M 1492.5,1324.5 C 1495.78,1324.42 1498.78,1325.09 1501.5,1326.5C 1498.22,1326.58 1495.22,1325.91 1492.5,1324.5 Z"/></g>
<g><path style="opacity:1" fill="#5c665e" d="M 1256.5,1321.5 C 1256.17,1428.33 1256.5,1535 1257.5,1641.5C 1325.17,1641.5 1392.83,1641.5 1460.5,1641.5C 1392.1,1642.83 1323.6,1642.83 1255,1641.5C 1254.33,1535.17 1254.33,1428.83 1255,1322.5C 1255.38,1321.94 1255.88,1321.61 1256.5,1321.5 Z"/></g>
<g><path style="opacity:1" fill="#0c140e" d="M 633.5,1310.5 C 633.5,1310.17 633.5,1309.83 633.5,1309.5C 637.833,1309.5 642.167,1309.5 646.5,1309.5C 646.5,1328.83 646.5,1348.17 646.5,1367.5C 669.716,1366.93 692.716,1369.1 715.5,1374C 716.416,1374.28 717.082,1374.78 717.5,1375.5C 694.457,1375.32 671.457,1374.15 648.5,1372C 647.309,1371.3 646.309,1370.47 645.5,1369.5C 645.5,1349.83 645.5,1330.17 645.5,1310.5C 641.5,1310.5 637.5,1310.5 633.5,1310.5 Z"/></g>
<g><path style="opacity:1" fill="#1b271d" d="M 748.5,1310.5 C 748.5,1332.5 748.5,1354.5 748.5,1376.5C 747.833,1376.5 747.167,1376.5 746.5,1376.5C 712.833,1376.5 679.167,1376.5 645.5,1376.5C 645.5,1374.17 645.5,1371.83 645.5,1369.5C 646.309,1370.47 647.309,1371.3 648.5,1372C 671.457,1374.15 694.457,1375.32 717.5,1375.5C 727.5,1375.5 737.5,1375.5 747.5,1375.5C 747.169,1353.66 747.503,1331.99 748.5,1310.5 Z"/></g>
<g><path style="opacity:1" fill="#4d7558" d="M 645.5,1376.5 C 667.33,1377.33 689.33,1377.83 711.5,1378C 715.658,1379.14 719.991,1379.64 724.5,1379.5C 729.037,1379.46 733.537,1379.12 738,1378.5C 739.168,1379.51 740.335,1380.51 741.5,1381.5C 742.736,1380.75 744.07,1380.42 745.5,1380.5C 745.167,1527.33 745.5,1674 746.5,1820.5C 746.185,1824.37 746.518,1828.04 747.5,1831.5C 750.869,1931.52 801.536,1990.85 899.5,2009.5C 903.919,2010.97 908.586,2011.64 913.5,2011.5C 922.789,2012.14 932.122,2012.47 941.5,2012.5C 954.369,2012.68 967.036,2012.01 979.5,2010.5C 1019.58,2006.45 1055.24,1991.95 1086.5,1967C 1116.51,1939.48 1134.17,1905.65 1139.5,1865.5C 1141.02,1862.47 1141.85,1859.13 1142,1855.5C 1142.74,1854.36 1143.57,1854.36 1144.5,1855.5C 1145.83,1914.4 1145.83,1973.23 1144.5,2032C 1145.1,2033.62 1145.77,2035.12 1146.5,2036.5C 1146.5,2038.5 1146.5,2040.5 1146.5,2042.5C 1153.06,2036.95 1159.73,2031.29 1166.5,2025.5C 1167.39,2024.68 1167.72,2023.68 1167.5,2022.5C 1171.89,2019.94 1175.56,2016.44 1178.5,2012C 1185.12,2006.54 1191.62,2001.04 1198,1995.5C 1201.36,1990.79 1205.2,1986.46 1209.5,1982.5C 1212.2,1978.72 1214.54,1974.72 1216.5,1970.5C 1217.32,1969.61 1218.32,1969.28 1219.5,1969.5C 1216.41,1973.93 1213.74,1978.59 1211.5,1983.5C 1175.58,2029.82 1129.92,2062.99 1074.5,2083C 1057.89,2089.37 1040.89,2094.2 1023.5,2097.5C 1016.72,2098.31 1009.89,2098.31 1003,2097.5C 1002.25,2098.13 1001.42,2098.63 1000.5,2099C 992.028,2099.48 983.694,2100.65 975.5,2102.5C 952.061,2102.4 928.894,2102.4 906,2102.5C 899.774,2102.09 893.941,2100.42 888.5,2097.5C 883.241,2098.7 878.075,2098.36 873,2096.5C 869.927,2097.62 866.76,2097.78 863.5,2097C 857.888,2096.15 852.555,2094.49 847.5,2092C 842.095,2091.47 836.762,2090.64 831.5,2089.5C 781.946,2075.14 738.78,2049.8 702,2013.5C 680.611,1990.3 664.445,1963.97 653.5,1934.5C 651.204,1926.61 648.537,1918.94 645.5,1911.5C 641.18,1892.89 637.847,1874.22 635.5,1855.5C 635.5,1850.17 635.5,1844.83 635.5,1839.5C 635.5,1663.5 635.5,1487.5 635.5,1311.5C 638.5,1311.5 641.5,1311.5 644.5,1311.5C 644.169,1333.34 644.503,1355.01 645.5,1376.5 Z"/></g>
<g><path style="opacity:1" fill="#b3c4b4" d="M 746.5,1376.5 C 747.167,1376.5 747.833,1376.5 748.5,1376.5C 747.502,1528.1 747.168,1679.76 747.5,1831.5C 746.518,1828.04 746.185,1824.37 746.5,1820.5C 746.5,1672.5 746.5,1524.5 746.5,1376.5 Z"/></g>
<g><path style="opacity:1" fill="#517059" d="M 645.5,1376.5 C 679.167,1376.5 712.833,1376.5 746.5,1376.5C 746.5,1524.5 746.5,1672.5 746.5,1820.5C 745.5,1674 745.167,1527.33 745.5,1380.5C 744.07,1380.42 742.736,1380.75 741.5,1381.5C 740.335,1380.51 739.168,1379.51 738,1378.5C 733.537,1379.12 729.037,1379.46 724.5,1379.5C 719.991,1379.64 715.658,1379.14 711.5,1378C 689.33,1377.83 667.33,1377.33 645.5,1376.5 Z"/></g>
<g><path style="opacity:1" fill="#686868" d="M 1726.5,1414.5 C 1727.92,1416.51 1728.59,1418.85 1728.5,1421.5C 1727.08,1419.49 1726.41,1417.15 1726.5,1414.5 Z"/></g>
<g><path style="opacity:1" fill="#707070" d="M 1728.5,1423.5 C 1729.92,1425.51 1730.59,1427.85 1730.5,1430.5C 1728.84,1428.56 1728.17,1426.23 1728.5,1423.5 Z"/></g>
<g><path style="opacity:1" fill="#777777" d="M 1730.5,1432.5 C 1733.03,1442.21 1734.36,1452.21 1734.5,1462.5C 1732.85,1452.67 1731.52,1442.67 1730.5,1432.5 Z"/></g>
<g><path style="opacity:1" fill="#636364" d="M 2706.5,1485.5 C 2710.17,1487.5 2713.84,1489.5 2717.5,1491.5C 2719.14,1492.47 2720.47,1493.81 2721.5,1495.5C 2718.4,1493.85 2715.07,1492.69 2711.5,1492C 2709.36,1488.61 2706.19,1487.11 2702,1487.5C 2693.17,1488.67 2684.34,1489.67 2675.5,1490.5C 2685.67,1488.38 2696.01,1486.71 2706.5,1485.5 Z"/></g>
<g><path style="opacity:1" fill="#d1d1d1" d="M 2706.5,1485.5 C 2696.01,1486.71 2685.67,1488.38 2675.5,1490.5C 2674.83,1490.5 2674.17,1490.5 2673.5,1490.5C 2666.52,1491.35 2659.52,1492.02 2652.5,1492.5C 2668.32,1488.66 2684.48,1486 2701,1484.5C 2703.03,1484.51 2704.87,1484.84 2706.5,1485.5 Z"/></g>
<g><path style="opacity:1" fill="#313133" d="M 2721.5,1495.5 C 2728.08,1500.23 2735.08,1504.39 2742.5,1508C 2746.42,1511.52 2750.59,1514.69 2755,1517.5C 2760.12,1520.89 2765.62,1523.72 2771.5,1526C 2773.24,1528.96 2775.91,1530.46 2779.5,1530.5C 2783.01,1532.76 2786.68,1534.76 2790.5,1536.5C 2791.48,1537.81 2792.48,1539.15 2793.5,1540.5C 2801.81,1544.31 2809.48,1549.15 2816.5,1555C 2821.64,1557.32 2826.64,1559.82 2831.5,1562.5C 2834.06,1565.54 2837.39,1567.37 2841.5,1568C 2843.95,1571.63 2847.28,1573.8 2851.5,1574.5C 2851.5,1575.83 2851.5,1577.17 2851.5,1578.5C 2855.85,1580.66 2860.52,1582.32 2865.5,1583.5C 2867.32,1585.01 2869.32,1586.34 2871.5,1587.5C 2877.52,1591.5 2883.52,1595.67 2889.5,1600C 2891.15,1600.61 2892.82,1601.11 2894.5,1601.5C 2901.03,1606.6 2908.03,1610.93 2915.5,1614.5C 2915.8,1615.15 2916.14,1615.82 2916.5,1616.5C 2909.49,1617.83 2902.49,1619.17 2895.5,1620.5C 2876.41,1622.61 2857.41,1625.28 2838.5,1628.5C 2835.41,1637.58 2833.08,1646.91 2831.5,1656.5C 2831.64,1658.03 2832.31,1659.03 2833.5,1659.5C 2835.9,1663.12 2836.74,1667.12 2836,1671.5C 2831.43,1675.34 2829.59,1680.34 2830.5,1686.5C 2830.5,1686.83 2830.5,1687.17 2830.5,1687.5C 2829.34,1690.27 2828.68,1693.27 2828.5,1696.5C 2827.5,1696.5 2826.5,1696.5 2825.5,1696.5C 2824.76,1704.81 2824.43,1713.15 2824.5,1721.5C 2824.5,1721.83 2824.5,1722.17 2824.5,1722.5C 2822.74,1725.5 2821.57,1728.84 2821,1732.5C 2820.5,1738.82 2820.33,1745.16 2820.5,1751.5C 2819.68,1757.8 2819.35,1764.13 2819.5,1770.5C 2819.78,1772.41 2819.45,1774.08 2818.5,1775.5C 2817.78,1775.92 2817.28,1776.58 2817,1777.5C 2815.77,1784.71 2814.6,1791.87 2813.5,1799C 2811.17,1799.83 2808.84,1800.66 2806.5,1801.5C 2802.17,1800.72 2797.84,1800.06 2793.5,1799.5C 2792.17,1798.5 2790.83,1797.5 2789.5,1796.5C 2790.52,1788.79 2791.86,1781.12 2793.5,1773.5C 2794.17,1769.83 2794.83,1766.17 2795.5,1762.5C 2796.46,1759.93 2797.96,1757.59 2800,1755.5C 2800.82,1752.88 2801.32,1750.22 2801.5,1747.5C 2802.12,1747.39 2802.62,1747.06 2803,1746.5C 2804.74,1738.01 2806.91,1729.68 2809.5,1721.5C 2817.32,1703.76 2820.32,1685.1 2818.5,1665.5C 2819.31,1661.84 2821.48,1659.17 2825,1657.5C 2826.93,1648.56 2828.43,1639.56 2829.5,1630.5C 2816.61,1632.24 2803.94,1634.57 2791.5,1637.5C 2783.59,1637.68 2775.93,1638.68 2768.5,1640.5C 2753.92,1642.99 2739.25,1645.16 2724.5,1647C 2720.08,1648.35 2715.75,1649.52 2711.5,1650.5C 2707.73,1651.79 2703.73,1652.46 2699.5,1652.5C 2689.81,1653.57 2680.15,1654.9 2670.5,1656.5C 2667.13,1654.81 2663.79,1653.15 2660.5,1651.5C 2658.5,1646.66 2654.83,1643.99 2649.5,1643.5C 2649.5,1642.5 2649.5,1641.5 2649.5,1640.5C 2647.5,1640.5 2645.5,1640.5 2643.5,1640.5C 2638.7,1636.03 2633.37,1632.36 2627.5,1629.5C 2627.17,1629.5 2626.83,1629.5 2626.5,1629.5C 2626.05,1628.54 2625.38,1627.71 2624.5,1627C 2619.93,1624.24 2615.26,1621.74 2610.5,1619.5C 2603.62,1615.97 2596.95,1611.97 2590.5,1607.5C 2589.2,1606.51 2587.87,1605.51 2586.5,1604.5C 2584.21,1601.54 2581.21,1599.88 2577.5,1599.5C 2577.05,1598.54 2576.38,1597.71 2575.5,1597C 2570.97,1594.31 2566.3,1591.81 2561.5,1589.5C 2557.55,1586.61 2553.22,1584.28 2548.5,1582.5C 2544.53,1579.76 2540.53,1576.93 2536.5,1574C 2535.55,1573.52 2534.55,1573.35 2533.5,1573.5C 2532.71,1572.21 2531.71,1571.04 2530.5,1570C 2523.88,1566.96 2517.54,1563.46 2511.5,1559.5C 2506.75,1555.1 2501.41,1551.43 2495.5,1548.5C 2491.65,1545.49 2487.65,1542.66 2483.5,1540C 2482.21,1539.51 2480.87,1539.34 2479.5,1539.5C 2477.94,1539.27 2476.6,1538.6 2475.5,1537.5C 2470.7,1534.07 2465.7,1531.07 2460.5,1528.5C 2460.5,1527.5 2460.5,1526.5 2460.5,1525.5C 2478.23,1523.59 2495.57,1520.59 2512.5,1516.5C 2521.21,1515.87 2529.88,1514.87 2538.5,1513.5C 2538.92,1514.12 2539.58,1514.46 2540.5,1514.5C 2551.31,1512.98 2561.98,1510.98 2572.5,1508.5C 2574.04,1508.67 2575.54,1509.01 2577,1509.5C 2582.44,1507.7 2587.94,1506.03 2593.5,1504.5C 2594.83,1504.83 2596.17,1505.17 2597.5,1505.5C 2611.67,1502.68 2625.67,1499.68 2639.5,1496.5C 2639.5,1496.17 2639.5,1495.83 2639.5,1495.5C 2651.09,1494.64 2662.42,1492.97 2673.5,1490.5C 2674.17,1490.5 2674.83,1490.5 2675.5,1490.5C 2684.34,1489.67 2693.17,1488.67 2702,1487.5C 2706.19,1487.11 2709.36,1488.61 2711.5,1492C 2715.07,1492.69 2718.4,1493.85 2721.5,1495.5 Z"/></g>
<g><path style="opacity:1" fill="#909090" d="M 2673.5,1490.5 C 2662.42,1492.97 2651.09,1494.64 2639.5,1495.5C 2641.83,1494.83 2644.17,1494.17 2646.5,1493.5C 2648.74,1493.79 2650.74,1493.46 2652.5,1492.5C 2659.52,1492.02 2666.52,1491.35 2673.5,1490.5 Z"/></g>
<g><path style="opacity:1" fill="#d3d3d4" d="M 2646.5,1493.5 C 2644.17,1494.17 2641.83,1494.83 2639.5,1495.5C 2639.5,1495.83 2639.5,1496.17 2639.5,1496.5C 2630.17,1497.5 2620.83,1498.5 2611.5,1499.5C 2622.8,1496.12 2634.46,1494.12 2646.5,1493.5 Z"/></g>
<g><path style="opacity:1" fill="#c2c2c3" d="M 2611.5,1499.5 C 2597.53,1503.21 2583.2,1505.55 2568.5,1506.5C 2582.59,1503.39 2596.92,1501.06 2611.5,1499.5 Z"/></g>
<g><path style="opacity:1" fill="#565658" d="M 2639.5,1496.5 C 2625.67,1499.68 2611.67,1502.68 2597.5,1505.5C 2596.17,1505.17 2594.83,1504.83 2593.5,1504.5C 2587.94,1506.03 2582.44,1507.7 2577,1509.5C 2575.54,1509.01 2574.04,1508.67 2572.5,1508.5C 2561.98,1510.98 2551.31,1512.98 2540.5,1514.5C 2539.58,1514.46 2538.92,1514.12 2538.5,1513.5C 2539.79,1513.74 2540.79,1513.4 2541.5,1512.5C 2549.31,1510.85 2557.31,1509.52 2565.5,1508.5C 2567.03,1508.36 2568.03,1507.69 2568.5,1506.5C 2583.2,1505.55 2597.53,1503.21 2611.5,1499.5C 2620.83,1498.5 2630.17,1497.5 2639.5,1496.5 Z"/></g>
<g><path style="opacity:1" fill="#d2d2d3" d="M 2568.5,1506.5 C 2568.03,1507.69 2567.03,1508.36 2565.5,1508.5C 2557.31,1509.52 2549.31,1510.85 2541.5,1512.5C 2531.82,1513.41 2522.16,1514.41 2512.5,1515.5C 2515.33,1514.69 2518.16,1513.69 2521,1512.5C 2522.23,1512.64 2523.39,1512.98 2524.5,1513.5C 2528.91,1511.59 2533.57,1510.43 2538.5,1510C 2548.49,1508.67 2558.49,1507.5 2568.5,1506.5 Z"/></g>
<g><path style="opacity:1" fill="#8b8b8c" d="M 2541.5,1512.5 C 2540.79,1513.4 2539.79,1513.74 2538.5,1513.5C 2529.88,1514.87 2521.21,1515.87 2512.5,1516.5C 2512.5,1516.17 2512.5,1515.83 2512.5,1515.5C 2522.16,1514.41 2531.82,1513.41 2541.5,1512.5 Z"/></g>
<g><path style="opacity:1" fill="#848484" d="M 1734.5,1498.5 C 1734.82,1505.74 1734.15,1512.74 1732.5,1519.5C 1732.77,1512.32 1733.43,1505.32 1734.5,1498.5 Z"/></g>
<g><path style="opacity:1" fill="#bcbcbc" d="M 2717.5,1491.5 C 2725.97,1493.82 2732.97,1498.32 2738.5,1505C 2740.9,1505.19 2743.23,1505.69 2745.5,1506.5C 2749.49,1510.44 2753.82,1513.94 2758.5,1517C 2761.93,1517.88 2765.27,1519.05 2768.5,1520.5C 2769.26,1521.63 2769.93,1522.79 2770.5,1524C 2773.64,1526.21 2776.64,1528.38 2779.5,1530.5C 2775.91,1530.46 2773.24,1528.96 2771.5,1526C 2765.62,1523.72 2760.12,1520.89 2755,1517.5C 2750.59,1514.69 2746.42,1511.52 2742.5,1508C 2735.08,1504.39 2728.08,1500.23 2721.5,1495.5C 2720.47,1493.81 2719.14,1492.47 2717.5,1491.5 Z"/></g>
<g><path style="opacity:1" fill="#b3b3b3" d="M 2512.5,1516.5 C 2495.57,1520.59 2478.23,1523.59 2460.5,1525.5C 2460.5,1526.5 2460.5,1527.5 2460.5,1528.5C 2465.7,1531.07 2470.7,1534.07 2475.5,1537.5C 2473.94,1537.48 2472.44,1537.15 2471,1536.5C 2467.11,1534.38 2463.28,1532.05 2459.5,1529.5C 2457.73,1528.18 2457.4,1526.68 2458.5,1525C 2476.21,1520.87 2494.21,1518.03 2512.5,1516.5 Z"/></g>
<g><path style="opacity:1" fill="#6a6a6a" d="M 1732.5,1524.5 C 1731.89,1530.19 1731.05,1535.86 1730,1541.5C 1729.72,1542.42 1729.22,1543.08 1728.5,1543.5C 1729.1,1536.88 1730.43,1530.55 1732.5,1524.5 Z"/></g>
<g><path style="opacity:1" fill="#bfbfc0" d="M 2790.5,1536.5 C 2795.24,1539.28 2800.24,1541.61 2805.5,1543.5C 2806.39,1544.32 2806.72,1545.32 2806.5,1546.5C 2811,1547.45 2814.67,1549.95 2817.5,1554C 2819.17,1554.33 2820.83,1554.67 2822.5,1555C 2825.78,1557.24 2828.78,1559.74 2831.5,1562.5C 2826.64,1559.82 2821.64,1557.32 2816.5,1555C 2809.48,1549.15 2801.81,1544.31 2793.5,1540.5C 2792.48,1539.15 2791.48,1537.81 2790.5,1536.5 Z"/></g>
<g><path style="opacity:1" fill="#a6a6a6" d="M 2479.5,1539.5 C 2480.87,1539.34 2482.21,1539.51 2483.5,1540C 2487.65,1542.66 2491.65,1545.49 2495.5,1548.5C 2490.87,1547.91 2486.54,1546.58 2482.5,1544.5C 2482.5,1543.17 2482.5,1541.83 2482.5,1540.5C 2481.21,1540.74 2480.21,1540.4 2479.5,1539.5 Z"/></g>
<g><path style="opacity:1" fill="#c1c1c1" d="M 2495.5,1548.5 C 2501.41,1551.43 2506.75,1555.1 2511.5,1559.5C 2509.4,1559.8 2507.4,1559.47 2505.5,1558.5C 2502.8,1555.81 2499.8,1553.47 2496.5,1551.5C 2495.87,1550.58 2495.54,1549.58 2495.5,1548.5 Z"/></g>
<g><path style="opacity:1" fill="#aeaeaf" d="M 2511.5,1559.5 C 2517.54,1563.46 2523.88,1566.96 2530.5,1570C 2531.71,1571.04 2532.71,1572.21 2533.5,1573.5C 2528.74,1571.26 2524.07,1568.76 2519.5,1566C 2516.5,1564.09 2513.83,1561.92 2511.5,1559.5 Z"/></g>
<g><path style="opacity:1" fill="#656567" d="M 2851.5,1574.5 C 2855.4,1577.62 2859.74,1579.95 2864.5,1581.5C 2865.3,1581.96 2865.63,1582.62 2865.5,1583.5C 2860.52,1582.32 2855.85,1580.66 2851.5,1578.5C 2851.5,1577.17 2851.5,1575.83 2851.5,1574.5 Z"/></g>
<g><path style="opacity:1" fill="#b4b4b5" d="M 2548.5,1582.5 C 2553.22,1584.28 2557.55,1586.61 2561.5,1589.5C 2559.6,1589.57 2557.77,1589.23 2556,1588.5C 2554.19,1586.68 2552.03,1585.51 2549.5,1585C 2548.75,1584.33 2548.41,1583.5 2548.5,1582.5 Z"/></g>
<g><path style="opacity:1" fill="#adadad" d="M 2561.5,1589.5 C 2566.3,1591.81 2570.97,1594.31 2575.5,1597C 2576.38,1597.71 2577.05,1598.54 2577.5,1599.5C 2572.05,1598.13 2567.05,1595.79 2562.5,1592.5C 2561.61,1591.68 2561.28,1590.68 2561.5,1589.5 Z"/></g>
<g><path style="opacity:1" fill="#9e9e9f" d="M 2871.5,1587.5 C 2873.26,1587.36 2874.93,1587.69 2876.5,1588.5C 2882.66,1592.84 2888.66,1597.18 2894.5,1601.5C 2892.82,1601.11 2891.15,1600.61 2889.5,1600C 2883.52,1595.67 2877.52,1591.5 2871.5,1587.5 Z"/></g>
<g><path style="opacity:1" fill="#7e7e80" d="M 2577.5,1599.5 C 2581.21,1599.88 2584.21,1601.54 2586.5,1604.5C 2582.48,1604.44 2579.48,1602.77 2577.5,1599.5 Z"/></g>
<g><path style="opacity:1" fill="#c4c4c4" d="M 2894.5,1601.5 C 2897.33,1602.1 2900.17,1602.77 2903,1603.5C 2906.81,1605.65 2910.31,1608.15 2913.5,1611C 2914.82,1611.82 2915.49,1612.98 2915.5,1614.5C 2908.03,1610.93 2901.03,1606.6 2894.5,1601.5 Z"/></g>
<g><path style="opacity:1" fill="#9f9f9f" d="M 2577.5,1611.5 C 2571.69,1609.36 2566.36,1606.36 2561.5,1602.5C 2560.91,1602.71 2560.41,1603.04 2560,1603.5C 2559.8,1606.8 2558.96,1609.8 2557.5,1612.5C 2558.11,1608.86 2558.45,1605.2 2558.5,1601.5C 2562.99,1602.13 2566.99,1603.97 2570.5,1607C 2572.5,1607.67 2574.5,1608.33 2576.5,1609C 2577.25,1609.67 2577.59,1610.5 2577.5,1611.5 Z"/></g>
<g><path style="opacity:1" fill="#313133" d="M 2577.5,1611.5 C 2578.51,1612.67 2579.85,1613.34 2581.5,1613.5C 2584.04,1615.68 2586.7,1617.84 2589.5,1620C 2592.51,1620.53 2595.17,1621.7 2597.5,1623.5C 2598.9,1624.89 2600.57,1625.89 2602.5,1626.5C 2605.39,1629.55 2608.72,1632.05 2612.5,1634C 2614.44,1634.81 2616.44,1635.31 2618.5,1635.5C 2618.56,1637.59 2619.56,1639.09 2621.5,1640C 2624.62,1641.98 2627.95,1643.48 2631.5,1644.5C 2632.67,1645.34 2634,1646.01 2635.5,1646.5C 2637.38,1649.11 2639.71,1651.28 2642.5,1653C 2645.5,1652.91 2647.5,1654.24 2648.5,1657C 2651.51,1657.53 2654.17,1658.7 2656.5,1660.5C 2659.75,1663.09 2663.08,1665.59 2666.5,1668C 2669.83,1668.17 2673.16,1668.01 2676.5,1667.5C 2676.92,1668.12 2677.58,1668.46 2678.5,1668.5C 2693.18,1665.17 2707.85,1662.51 2722.5,1660.5C 2726.82,1659.41 2731.15,1658.41 2735.5,1657.5C 2741.95,1655.96 2748.62,1654.96 2755.5,1654.5C 2768.29,1653.58 2780.96,1651.91 2793.5,1649.5C 2792.91,1656.92 2791.91,1664.25 2790.5,1671.5C 2788.26,1676.48 2787.26,1681.82 2787.5,1687.5C 2787.5,1687.83 2787.5,1688.17 2787.5,1688.5C 2786.02,1692.29 2784.85,1696.29 2784,1700.5C 2783.62,1701.06 2783.12,1701.39 2782.5,1701.5C 2780.93,1704.92 2779.1,1708.25 2777,1711.5C 2774.44,1712.22 2773.28,1713.89 2773.5,1716.5C 2767.1,1720.36 2761.1,1724.69 2755.5,1729.5C 2749.45,1732.2 2743.45,1734.86 2737.5,1737.5C 2726.37,1740.31 2715.04,1741.98 2703.5,1742.5C 2692.16,1742.67 2680.83,1742.5 2669.5,1742C 2657.5,1739.43 2645.5,1736.93 2633.5,1734.5C 2633.53,1733.5 2633.03,1732.84 2632,1732.5C 2626.26,1731.31 2620.76,1729.64 2615.5,1727.5C 2611.28,1725.95 2607.28,1723.95 2603.5,1721.5C 2600.87,1719.5 2598.2,1717.5 2595.5,1715.5C 2593.6,1714.53 2591.6,1714.2 2589.5,1714.5C 2586.34,1709.99 2582.34,1706.66 2577.5,1704.5C 2575.83,1702.17 2573.83,1700.17 2571.5,1698.5C 2567.04,1694.39 2563.38,1689.72 2560.5,1684.5C 2560.17,1684.5 2559.83,1684.5 2559.5,1684.5C 2559.11,1680.15 2557.44,1676.49 2554.5,1673.5C 2553.83,1671.83 2553.17,1670.17 2552.5,1668.5C 2550.9,1657.75 2551.24,1647.08 2553.5,1636.5C 2553.5,1635.17 2553.5,1633.83 2553.5,1632.5C 2556.43,1626.64 2557.76,1620.3 2557.5,1613.5C 2557.5,1613.17 2557.5,1612.83 2557.5,1612.5C 2558.96,1609.8 2559.8,1606.8 2560,1603.5C 2560.41,1603.04 2560.91,1602.71 2561.5,1602.5C 2566.36,1606.36 2571.69,1609.36 2577.5,1611.5 Z"/></g>
<g><path style="opacity:1" fill="#cccccd" d="M 2581.5,1613.5 C 2586.14,1614.66 2590.48,1616.49 2594.5,1619C 2595.39,1620.61 2596.39,1622.11 2597.5,1623.5C 2595.17,1621.7 2592.51,1620.53 2589.5,1620C 2586.7,1617.84 2584.04,1615.68 2581.5,1613.5 Z"/></g>
<g><path style="opacity:1" fill="#cfcfcf" d="M 2590.5,1607.5 C 2596.95,1611.97 2603.62,1615.97 2610.5,1619.5C 2613.42,1621.49 2616.09,1623.82 2618.5,1626.5C 2611.84,1622.54 2604.84,1619.04 2597.5,1616C 2594.24,1613.91 2591.91,1611.07 2590.5,1607.5 Z"/></g>
<g><path style="opacity:1" fill="#cdcdcd" d="M 2915.5,1614.5 C 2918.17,1614.68 2918.84,1615.85 2917.5,1618C 2908.37,1620.69 2899.03,1622.19 2889.5,1622.5C 2891.5,1621.83 2893.5,1621.17 2895.5,1620.5C 2902.49,1619.17 2909.49,1617.83 2916.5,1616.5C 2916.14,1615.82 2915.8,1615.15 2915.5,1614.5 Z"/></g>
<g><path style="opacity:1" fill="#909092" d="M 2557.5,1613.5 C 2557.76,1620.3 2556.43,1626.64 2553.5,1632.5C 2554.19,1626.82 2555.03,1621.16 2556,1615.5C 2556.28,1614.58 2556.78,1613.92 2557.5,1613.5 Z"/></g>
<g><path style="opacity:1" fill="#818182" d="M 2610.5,1619.5 C 2615.26,1621.74 2619.93,1624.24 2624.5,1627C 2625.38,1627.71 2626.05,1628.54 2626.5,1629.5C 2624.02,1628.12 2621.36,1627.12 2618.5,1626.5C 2616.09,1623.82 2613.42,1621.49 2610.5,1619.5 Z"/></g>
<g><path style="opacity:1" fill="#404040" d="M 1538.5,1627.5 C 1534.37,1630.32 1529.7,1631.99 1524.5,1632.5C 1528.94,1630.46 1533.61,1628.8 1538.5,1627.5 Z"/></g>
<g><path style="opacity:1" fill="#c7c7c7" d="M 2602.5,1626.5 C 2606.11,1626.8 2609.44,1627.97 2612.5,1630C 2618.63,1635.36 2624.96,1640.2 2631.5,1644.5C 2627.95,1643.48 2624.62,1641.98 2621.5,1640C 2619.56,1639.09 2618.56,1637.59 2618.5,1635.5C 2616.44,1635.31 2614.44,1634.81 2612.5,1634C 2608.72,1632.05 2605.39,1629.55 2602.5,1626.5 Z"/></g>
<g><path style="opacity:1" fill="#939394" d="M 2818.5,1665.5 C 2818.17,1665.5 2817.83,1665.5 2817.5,1665.5C 2817.85,1661.3 2820.02,1658.3 2824,1656.5C 2824.75,1649.6 2825.91,1642.76 2827.5,1636C 2827.17,1634.83 2826.83,1633.67 2826.5,1632.5C 2819.03,1633.68 2811.7,1635.18 2804.5,1637C 2800.18,1637.5 2795.85,1637.67 2791.5,1637.5C 2803.94,1634.57 2816.61,1632.24 2829.5,1630.5C 2828.43,1639.56 2826.93,1648.56 2825,1657.5C 2821.48,1659.17 2819.31,1661.84 2818.5,1665.5 Z"/></g>
<g><path style="opacity:1" fill="#909091" d="M 2627.5,1629.5 C 2633.37,1632.36 2638.7,1636.03 2643.5,1640.5C 2637.05,1638.38 2631.72,1634.71 2627.5,1629.5 Z"/></g>
<g><path style="opacity:1" fill="#9c9c9d" d="M 2791.5,1637.5 C 2791.39,1638.12 2791.06,1638.62 2790.5,1639C 2783.31,1639.86 2776.31,1641.02 2769.5,1642.5C 2765.18,1642.93 2760.84,1643.26 2756.5,1643.5C 2760.46,1642.32 2764.46,1641.32 2768.5,1640.5C 2775.93,1638.68 2783.59,1637.68 2791.5,1637.5 Z"/></g>
<g><path style="opacity:1" fill="#787878" d="M 2895.5,1620.5 C 2893.5,1621.17 2891.5,1621.83 2889.5,1622.5C 2873.3,1625.2 2856.97,1627.7 2840.5,1630C 2839.14,1631.58 2838.47,1633.42 2838.5,1635.5C 2835.57,1643.12 2833.91,1651.12 2833.5,1659.5C 2832.31,1659.03 2831.64,1658.03 2831.5,1656.5C 2833.08,1646.91 2835.41,1637.58 2838.5,1628.5C 2857.41,1625.28 2876.41,1622.61 2895.5,1620.5 Z"/></g>
<g><path style="opacity:1" fill="#777778" d="M 2768.5,1640.5 C 2764.46,1641.32 2760.46,1642.32 2756.5,1643.5C 2747.6,1645.15 2738.6,1646.48 2729.5,1647.5C 2726.53,1648 2723.86,1649 2721.5,1650.5C 2718.17,1650.5 2714.83,1650.5 2711.5,1650.5C 2715.75,1649.52 2720.08,1648.35 2724.5,1647C 2739.25,1645.16 2753.92,1642.99 2768.5,1640.5 Z"/></g>
<g><path style="opacity:1" fill="#6d6c6f" d="M 2643.5,1640.5 C 2645.5,1640.5 2647.5,1640.5 2649.5,1640.5C 2649.5,1641.5 2649.5,1642.5 2649.5,1643.5C 2654.83,1643.99 2658.5,1646.66 2660.5,1651.5C 2655,1647.58 2649.33,1643.92 2643.5,1640.5 Z"/></g>
<g><path style="opacity:1" fill="#d6d6d6" d="M 2769.5,1642.5 C 2766.72,1643.8 2763.72,1644.8 2760.5,1645.5C 2747.5,1647.26 2734.5,1648.93 2721.5,1650.5C 2723.86,1649 2726.53,1648 2729.5,1647.5C 2738.6,1646.48 2747.6,1645.15 2756.5,1643.5C 2760.84,1643.26 2765.18,1642.93 2769.5,1642.5 Z"/></g>
<g><path style="opacity:1" fill="#727273" d="M 2793.5,1662.5 C 2792.18,1665.41 2791.18,1668.41 2790.5,1671.5C 2791.91,1664.25 2792.91,1656.92 2793.5,1649.5C 2780.96,1651.91 2768.29,1653.58 2755.5,1654.5C 2755.5,1654.17 2755.5,1653.83 2755.5,1653.5C 2767.92,1652.76 2779.92,1650.76 2791.5,1647.5C 2792.57,1646.57 2793.9,1646.23 2795.5,1646.5C 2795.19,1651.92 2794.53,1657.25 2793.5,1662.5 Z"/></g>
<g><path style="opacity:1" fill="#b4b4b5" d="M 2635.5,1646.5 C 2638.21,1647.01 2640.71,1648.01 2643,1649.5C 2646.64,1652.43 2650.47,1655.1 2654.5,1657.5C 2655.19,1658.52 2655.86,1659.52 2656.5,1660.5C 2654.17,1658.7 2651.51,1657.53 2648.5,1657C 2647.5,1654.24 2645.5,1652.91 2642.5,1653C 2639.71,1651.28 2637.38,1649.11 2635.5,1646.5 Z"/></g>
<g><path style="opacity:1" fill="#a4a4a5" d="M 2791.5,1647.5 C 2779.92,1650.76 2767.92,1652.76 2755.5,1653.5C 2755.5,1653.17 2755.5,1652.83 2755.5,1652.5C 2767.37,1650.09 2779.37,1648.42 2791.5,1647.5 Z"/></g>
<g><path style="opacity:1" fill="#979798" d="M 2699.5,1652.5 C 2699.39,1653.12 2699.06,1653.62 2698.5,1654C 2690.36,1655.33 2682.19,1656.5 2674,1657.5C 2672.62,1657.49 2671.45,1657.15 2670.5,1656.5C 2680.15,1654.9 2689.81,1653.57 2699.5,1652.5 Z"/></g>
<g><path style="opacity:1" fill="#d6d6d7" d="M 2755.5,1652.5 C 2755.5,1652.83 2755.5,1653.17 2755.5,1653.5C 2755.5,1653.83 2755.5,1654.17 2755.5,1654.5C 2748.62,1654.96 2741.95,1655.96 2735.5,1657.5C 2728.15,1658 2720.82,1658.67 2713.5,1659.5C 2727.01,1655.52 2741.01,1653.18 2755.5,1652.5 Z"/></g>
<g><path style="opacity:1" fill="#9b9b9b" d="M 2838.5,1635.5 C 2837.81,1642.92 2836.48,1650.25 2834.5,1657.5C 2837.19,1662.14 2838.02,1667.14 2837,1672.5C 2836.05,1674.46 2834.71,1676.12 2833,1677.5C 2832.59,1680.74 2831.76,1683.74 2830.5,1686.5C 2829.59,1680.34 2831.43,1675.34 2836,1671.5C 2836.74,1667.12 2835.9,1663.12 2833.5,1659.5C 2833.91,1651.12 2835.57,1643.12 2838.5,1635.5 Z"/></g>
<g><path style="opacity:1" fill="#4d7658" d="M 2452.5,2015.5 C 2378.48,2015.82 2304.48,2015.48 2230.5,2014.5C 2210.15,2008.34 2194.98,1995.67 2185,1976.5C 2182.03,1970.16 2180.53,1963.5 2180.5,1956.5C 2180.33,1905.83 2180.5,1855.17 2181,1804.5C 2183.57,1798.44 2185.07,1792.11 2185.5,1785.5C 2196.49,1764.69 2213.49,1751.53 2236.5,1746C 2285.17,1745.5 2333.83,1745.33 2382.5,1745.5C 2383.5,1716.67 2383.83,1687.67 2383.5,1658.5C 2406.41,1658.17 2429.24,1658.51 2452,1659.5C 2452.5,1778.17 2452.67,1896.83 2452.5,2015.5 Z"/></g>
<g><path style="opacity:1" fill="#b0b0b0" d="M 2553.5,1636.5 C 2551.24,1647.08 2550.9,1657.75 2552.5,1668.5C 2549.97,1664.54 2548.97,1660.04 2549.5,1655C 2548.92,1648.29 2550.25,1642.13 2553.5,1636.5 Z"/></g>
<g><path style="opacity:1" fill="#9e9e9f" d="M 2735.5,1657.5 C 2731.15,1658.41 2726.82,1659.41 2722.5,1660.5C 2714.83,1661.08 2707.16,1661.75 2699.5,1662.5C 2704.14,1661.34 2708.8,1660.34 2713.5,1659.5C 2720.82,1658.67 2728.15,1658 2735.5,1657.5 Z"/></g>
<g><path style="opacity:1" fill="#5e7965" d="M 2383.5,1657.5 C 2406.83,1657.5 2430.17,1657.5 2453.5,1657.5C 2453.83,1777 2453.5,1896.33 2452.5,2015.5C 2452.67,1896.83 2452.5,1778.17 2452,1659.5C 2429.24,1658.51 2406.41,1658.17 2383.5,1658.5C 2383.83,1687.67 2383.5,1716.67 2382.5,1745.5C 2382.17,1716 2382.5,1686.66 2383.5,1657.5 Z"/></g>
<g><path style="opacity:1" fill="#afafb0" d="M 2656.5,1660.5 C 2657.87,1660.34 2659.21,1660.51 2660.5,1661C 2663.35,1663.39 2666.52,1665.23 2670,1666.5C 2675.1,1665.32 2680.27,1664.65 2685.5,1664.5C 2682.58,1665.47 2679.58,1666.47 2676.5,1667.5C 2673.16,1668.01 2669.83,1668.17 2666.5,1668C 2663.08,1665.59 2659.75,1663.09 2656.5,1660.5 Z"/></g>
<g><path style="opacity:1" fill="#6c6c6d" d="M 2722.5,1660.5 C 2707.85,1662.51 2693.18,1665.17 2678.5,1668.5C 2677.58,1668.46 2676.92,1668.12 2676.5,1667.5C 2679.58,1666.47 2682.58,1665.47 2685.5,1664.5C 2690.39,1664.47 2695.06,1663.8 2699.5,1662.5C 2707.16,1661.75 2714.83,1661.08 2722.5,1660.5 Z"/></g>
<g><path style="opacity:1" fill="#5a5a5b" d="M 2817.5,1665.5 C 2817.83,1665.5 2818.17,1665.5 2818.5,1665.5C 2820.32,1685.1 2817.32,1703.76 2809.5,1721.5C 2809.19,1718.75 2809.52,1716.09 2810.5,1713.5C 2811.9,1709.51 2813.4,1705.51 2815,1701.5C 2815.5,1697.51 2815.67,1693.51 2815.5,1689.5C 2818.31,1681.79 2818.98,1673.79 2817.5,1665.5 Z"/></g>
<g><path style="opacity:1" fill="#b1b1b1" d="M 2817.5,1665.5 C 2818.98,1673.79 2818.31,1681.79 2815.5,1689.5C 2816.3,1682.98 2816.3,1676.48 2815.5,1670C 2815.52,1668.12 2816.19,1666.62 2817.5,1665.5 Z"/></g>
<g><path style="opacity:1" fill="#909092" d="M 2554.5,1673.5 C 2557.44,1676.49 2559.11,1680.15 2559.5,1684.5C 2558.14,1682.17 2556.64,1679.84 2555,1677.5C 2554.51,1676.21 2554.34,1674.87 2554.5,1673.5 Z"/></g>
<g><path style="opacity:1" fill="#a0a0a0" d="M 2793.5,1662.5 C 2792.34,1671.12 2790.34,1679.45 2787.5,1687.5C 2787.26,1681.82 2788.26,1676.48 2790.5,1671.5C 2791.18,1668.41 2792.18,1665.41 2793.5,1662.5 Z"/></g>
<g><path style="opacity:1" fill="#a8a8a8" d="M 2560.5,1684.5 C 2563.38,1689.72 2567.04,1694.39 2571.5,1698.5C 2565.56,1695.56 2561.89,1690.9 2560.5,1684.5 Z"/></g>
<g><path style="opacity:1" fill="#a0a0a1" d="M 2830.5,1687.5 C 2831.26,1692.14 2830.1,1696.14 2827,1699.5C 2826.03,1706.96 2825.2,1714.3 2824.5,1721.5C 2824.43,1713.15 2824.76,1704.81 2825.5,1696.5C 2826.5,1696.5 2827.5,1696.5 2828.5,1696.5C 2828.68,1693.27 2829.34,1690.27 2830.5,1687.5 Z"/></g>
<g><path style="opacity:1" fill="#c1c1c2" d="M 2815.5,1689.5 C 2815.67,1693.51 2815.5,1697.51 2815,1701.5C 2813.4,1705.51 2811.9,1709.51 2810.5,1713.5C 2809.52,1716.09 2809.19,1718.75 2809.5,1721.5C 2808.83,1721.5 2808.17,1721.5 2807.5,1721.5C 2807.97,1713.93 2810.14,1706.93 2814,1700.5C 2814.56,1698.13 2814.4,1695.8 2813.5,1693.5C 2813.67,1691.83 2814.33,1690.5 2815.5,1689.5 Z"/></g>
<g><path style="opacity:1" fill="#c6c6c6" d="M 2577.5,1704.5 C 2582.34,1706.66 2586.34,1709.99 2589.5,1714.5C 2589.5,1714.83 2589.5,1715.17 2589.5,1715.5C 2586.96,1713.4 2583.96,1712.07 2580.5,1711.5C 2579.52,1709.18 2578.52,1706.85 2577.5,1704.5 Z"/></g>
<g><path style="opacity:1" fill="#a3a3a3" d="M 1591.5,1706.5 C 1591.39,1707.12 1591.06,1707.62 1590.5,1708C 1583.56,1710.48 1576.56,1712.65 1569.5,1714.5C 1576.53,1711.27 1583.86,1708.6 1591.5,1706.5 Z"/></g>
<g><path style="opacity:1" fill="#c5c5c5" d="M 2787.5,1688.5 C 2787.83,1699.72 2783.83,1708.72 2775.5,1715.5C 2777.42,1712.99 2779.25,1710.32 2781,1707.5C 2782.13,1705.65 2782.63,1703.65 2782.5,1701.5C 2783.12,1701.39 2783.62,1701.06 2784,1700.5C 2784.85,1696.29 2786.02,1692.29 2787.5,1688.5 Z"/></g>
<g><path style="opacity:1" fill="#767677" d="M 2782.5,1701.5 C 2782.63,1703.65 2782.13,1705.65 2781,1707.5C 2779.25,1710.32 2777.42,1712.99 2775.5,1715.5C 2774.83,1715.83 2774.17,1716.17 2773.5,1716.5C 2773.28,1713.89 2774.44,1712.22 2777,1711.5C 2779.1,1708.25 2780.93,1704.92 2782.5,1701.5 Z"/></g>
<g><path style="opacity:1" fill="#7e7e7f" d="M 2589.5,1715.5 C 2589.5,1715.17 2589.5,1714.83 2589.5,1714.5C 2591.6,1714.2 2593.6,1714.53 2595.5,1715.5C 2598.2,1717.5 2600.87,1719.5 2603.5,1721.5C 2598.63,1719.96 2593.96,1717.96 2589.5,1715.5 Z"/></g>
<g><path style="opacity:1" fill="#939393" d="M 1564.5,1715.5 C 1562.49,1716.92 1560.15,1717.59 1557.5,1717.5C 1559.51,1716.08 1561.85,1715.41 1564.5,1715.5 Z"/></g>
<g><path style="opacity:1" fill="#818182" d="M 2773.5,1716.5 C 2770.37,1720.13 2767.04,1723.63 2763.5,1727C 2761.37,1727.66 2759.37,1728.49 2757.5,1729.5C 2756.83,1729.5 2756.17,1729.5 2755.5,1729.5C 2761.1,1724.69 2767.1,1720.36 2773.5,1716.5 Z"/></g>
<g><path style="opacity:1" fill="#848684" d="M 1466.5,1729.5 C 1396.67,1730.5 1326.67,1730.83 1256.5,1730.5C 1256.83,1766 1256.5,1801.34 1255.5,1836.5C 1255.5,1801.17 1255.5,1765.83 1255.5,1730.5C 1325.66,1729.5 1396,1729.17 1466.5,1729.5 Z"/></g>
<g><path style="opacity:1" fill="#8f8f90" d="M 2615.5,1727.5 C 2620.76,1729.64 2626.26,1731.31 2632,1732.5C 2633.03,1732.84 2633.53,1733.5 2633.5,1734.5C 2626.93,1733.32 2620.93,1730.98 2615.5,1727.5 Z"/></g>
<g><path style="opacity:1" fill="#cbcbcb" d="M 2807.5,1722.5 C 2805.47,1729.59 2803.47,1736.59 2801.5,1743.5C 2802.19,1737.09 2803.35,1730.75 2805,1724.5C 2805.42,1723.24 2806.25,1722.58 2807.5,1722.5 Z"/></g>
<g><path style="opacity:1" fill="#7e7d7e" d="M 2633.5,1734.5 C 2645.5,1736.93 2657.5,1739.43 2669.5,1742C 2680.83,1742.5 2692.16,1742.67 2703.5,1742.5C 2693.01,1743.49 2682.35,1743.83 2671.5,1743.5C 2660.15,1741.53 2648.81,1739.36 2637.5,1737C 2635.68,1736.8 2634.35,1735.97 2633.5,1734.5 Z"/></g>
<g><path style="opacity:1" fill="#dcdcdc" d="M 2755.5,1729.5 C 2756.17,1729.5 2756.83,1729.5 2757.5,1729.5C 2756.52,1731.15 2755.19,1732.48 2753.5,1733.5C 2743.77,1739.11 2733.1,1742.11 2721.5,1742.5C 2727.1,1741.76 2732.44,1740.1 2737.5,1737.5C 2743.45,1734.86 2749.45,1732.2 2755.5,1729.5 Z"/></g>
<g><path style="opacity:1" fill="#686869" d="M 2807.5,1721.5 C 2808.17,1721.5 2808.83,1721.5 2809.5,1721.5C 2806.91,1729.68 2804.74,1738.01 2803,1746.5C 2802.62,1747.06 2802.12,1747.39 2801.5,1747.5C 2801.5,1746.17 2801.5,1744.83 2801.5,1743.5C 2803.47,1736.59 2805.47,1729.59 2807.5,1722.5C 2807.5,1722.17 2807.5,1721.83 2807.5,1721.5 Z"/></g>
<g><path style="opacity:1" fill="#787878" d="M 2824.5,1722.5 C 2822.78,1730.36 2822.11,1738.36 2822.5,1746.5C 2821.83,1748.17 2821.17,1749.83 2820.5,1751.5C 2820.33,1745.16 2820.5,1738.82 2821,1732.5C 2821.57,1728.84 2822.74,1725.5 2824.5,1722.5 Z"/></g>
<g><path style="opacity:1" fill="#aeaeae" d="M 2737.5,1737.5 C 2732.44,1740.1 2727.1,1741.76 2721.5,1742.5C 2704.71,1744.5 2688.04,1744.83 2671.5,1743.5C 2682.35,1743.83 2693.01,1743.49 2703.5,1742.5C 2715.04,1741.98 2726.37,1740.31 2737.5,1737.5 Z"/></g>
<g><path style="opacity:1" fill="#9baea1" d="M 1514.5,1746.5 C 1460.82,1746.2 1407.15,1746.53 1353.5,1747.5C 1355.29,1746.69 1357.29,1746.19 1359.5,1746C 1411.33,1745.17 1463,1745.33 1514.5,1746.5 Z"/></g>
<g><path style="opacity:1" fill="#90a497" d="M 1671.5,1746.5 C 1724.33,1745.5 1777.33,1745.17 1830.5,1745.5C 1830.5,1769.5 1830.5,1793.5 1830.5,1817.5C 1781.83,1817.5 1733.17,1817.5 1684.5,1817.5C 1732.66,1816.5 1781,1816.17 1829.5,1816.5C 1829.5,1793.17 1829.5,1769.83 1829.5,1746.5C 1776.83,1746.5 1724.17,1746.5 1671.5,1746.5 Z"/></g>
<g><path style="opacity:1" fill="#97aa9d" d="M 2706.5,1746.5 C 2655.5,1746.33 2604.5,1746.5 2553.5,1747C 2547.02,1748 2540.68,1749.5 2534.5,1751.5C 2539.71,1748.6 2545.38,1746.76 2551.5,1746C 2603.33,1745.17 2655,1745.33 2706.5,1746.5 Z"/></g>
<g><path style="opacity:1" fill="#4d7658" d="M 1514.5,1746.5 C 1538.87,1749.87 1556.53,1762.54 1567.5,1784.5C 1568.89,1792.83 1570.73,1801.17 1573,1809.5C 1573.5,1894.83 1573.67,1980.17 1573.5,2065.5C 1569.5,2090.01 1556.17,2107.51 1533.5,2118C 1530.85,2118.94 1528.18,2119.77 1525.5,2120.5C 1519.84,2120.97 1514.17,2121.47 1508.5,2122C 1453.5,2122.5 1398.5,2122.67 1343.5,2122.5C 1343.5,2098.83 1343.5,2075.17 1343.5,2051.5C 1396.83,2051.5 1450.17,2051.5 1503.5,2051.5C 1503.5,2039.83 1503.5,2028.17 1503.5,2016.5C 1455.5,2016.5 1407.5,2016.5 1359.5,2016.5C 1326.83,2009.99 1307.33,1990.33 1301,1957.5C 1300.02,1903.8 1300.35,1850.13 1302,1796.5C 1309.08,1775.08 1322.91,1759.58 1343.5,1750C 1346.72,1748.65 1350.05,1747.81 1353.5,1747.5C 1407.15,1746.53 1460.82,1746.2 1514.5,1746.5 Z"/></g>
<g><path style="opacity:1" fill="#4c7557" d="M 1680.5,2015.5 C 1658.5,2015.5 1636.5,2015.5 1614.5,2015.5C 1614.33,1948.83 1614.5,1882.17 1615,1815.5C 1615.33,1808.83 1615.67,1802.17 1616,1795.5C 1619.48,1788.89 1622.64,1782.23 1625.5,1775.5C 1631.26,1767.07 1638.59,1760.41 1647.5,1755.5C 1650.33,1754.9 1653.17,1754.23 1656,1753.5C 1656.77,1753.64 1657.44,1753.98 1658,1754.5C 1660.27,1752.24 1662.77,1750.24 1665.5,1748.5C 1667.78,1749.2 1670.11,1749.03 1672.5,1748C 1724.17,1747.33 1775.83,1747.33 1827.5,1748C 1827.96,1748.41 1828.29,1748.91 1828.5,1749.5C 1827.41,1751.18 1826.74,1753.02 1826.5,1755C 1827.48,1773.9 1827.81,1792.74 1827.5,1811.5C 1826.86,1812.65 1826.02,1813.65 1825,1814.5C 1779.69,1814.55 1734.02,1814.22 1688,1813.5C 1685.3,1813.73 1682.97,1814.73 1681,1816.5C 1680.88,1818.11 1681.38,1819.61 1682.5,1821C 1682.37,1822.06 1681.87,1822.89 1681,1823.5C 1680.5,1887.5 1680.33,1951.5 1680.5,2015.5 Z"/></g>
<g><path style="opacity:1" fill="#4d7658" d="M 2706.5,1746.5 C 2733.66,1750.5 2752.49,1765.16 2763,1790.5C 2765.28,1795.95 2766.45,1801.62 2766.5,1807.5C 2766.5,1843.83 2766.5,1880.17 2766.5,1916.5C 2699,1916.17 2631.66,1916.5 2564.5,1917.5C 2563.67,1923.99 2563.17,1930.65 2563,1937.5C 2562.36,1938.97 2561.53,1940.3 2560.5,1941.5C 2561.37,1943.75 2561.71,1946.08 2561.5,1948.5C 2584.67,1950.13 2608,1949.8 2631.5,1947.5C 2636.83,1948.17 2642.17,1948.83 2647.5,1949.5C 2682.13,1947.45 2716.8,1946.95 2751.5,1948C 2724.83,1948.33 2698.17,1948.67 2671.5,1949C 2698.5,1949.67 2725.5,1949.67 2752.5,1949C 2754.61,1947.48 2756.95,1947.15 2759.5,1948C 2760.34,1949.01 2760.67,1950.18 2760.5,1951.5C 2761.5,1951.5 2762.5,1951.5 2763.5,1951.5C 2763.78,1972.86 2763.44,1994.19 2762.5,2015.5C 2690.83,2015.5 2619.17,2015.5 2547.5,2015.5C 2516.74,2007 2498.57,1987 2493,1955.5C 2492.02,1903.46 2492.36,1851.46 2494,1799.5C 2499.79,1776.87 2513.29,1760.87 2534.5,1751.5C 2540.68,1749.5 2547.02,1748 2553.5,1747C 2604.5,1746.5 2655.5,1746.33 2706.5,1746.5 Z"/></g>
<g><path style="opacity:1" fill="#4c7558" d="M 2114.5,1759.5 C 2129.12,1769.81 2138.12,1783.81 2141.5,1801.5C 2141.5,1872.83 2141.5,1944.17 2141.5,2015.5C 2070.17,2015.5 1998.83,2015.5 1927.5,2015.5C 1924.87,2014.91 1922.21,2014.58 1919.5,2014.5C 1896.43,2007.7 1880.6,1993.04 1872,1970.5C 1870.36,1965.62 1869.53,1960.62 1869.5,1955.5C 1869.33,1919.83 1869.5,1884.17 1870,1848.5C 1870.5,1848 1871,1847.5 1871.5,1847C 1937.18,1846.18 2002.85,1846.34 2068.5,1847.5C 2073.75,1846.34 2075.92,1843 2075,1837.5C 2074.67,1838.17 2074.33,1838.83 2074,1839.5C 2073.49,1832.46 2073.49,1825.46 2074,1818.5C 2072.56,1815.33 2070.06,1813.67 2066.5,1813.5C 2001.56,1814.49 1936.56,1814.66 1871.5,1814C 1871,1813.5 1870.5,1813 1870,1812.5C 1869.83,1803.67 1869.67,1794.83 1869.5,1786C 1869.53,1776.67 1870.19,1767.51 1871.5,1758.5C 1869.12,1755.05 1869.12,1751.72 1871.5,1748.5C 1940.81,1749.83 2010.14,1749.83 2079.5,1748.5C 2083.54,1749.14 2087.54,1749.97 2091.5,1751C 2090.83,1751.33 2090.17,1751.67 2089.5,1752C 2093.83,1752.33 2098.17,1752.67 2102.5,1753C 2105.44,1756.97 2109.44,1759.14 2114.5,1759.5 Z"/></g>
<g><path style="opacity:1" fill="#9c9c9c" d="M 2801.5,1747.5 C 2801.32,1750.22 2800.82,1752.88 2800,1755.5C 2797.96,1757.59 2796.46,1759.93 2795.5,1762.5C 2795.43,1760.6 2795.77,1758.77 2796.5,1757C 2798.54,1753.94 2800.2,1750.77 2801.5,1747.5 Z"/></g>
<g><path style="opacity:1" fill="#bdbdbd" d="M 2822.5,1746.5 C 2822.08,1753.5 2821.58,1760.5 2821,1767.5C 2820.77,1768.74 2820.27,1769.74 2819.5,1770.5C 2819.35,1764.13 2819.68,1757.8 2820.5,1751.5C 2821.17,1749.83 2821.83,1748.17 2822.5,1746.5 Z"/></g>
<g><path style="opacity:1" fill="#d0d0d0" d="M 2795.5,1762.5 C 2794.83,1766.17 2794.17,1769.83 2793.5,1773.5C 2791.74,1779.45 2789.74,1785.45 2787.5,1791.5C 2787.67,1792.83 2787.83,1794.17 2788,1795.5C 2788.38,1796.06 2788.88,1796.39 2789.5,1796.5C 2790.83,1797.5 2792.17,1798.5 2793.5,1799.5C 2794.17,1800.17 2794.83,1800.83 2795.5,1801.5C 2793.53,1801.74 2791.7,1801.41 2790,1800.5C 2789.38,1798.88 2788.38,1797.55 2787,1796.5C 2786.38,1788.57 2787.38,1780.9 2790,1773.5C 2791.98,1769.87 2793.82,1766.21 2795.5,1762.5 Z"/></g>
<g><path style="opacity:1" fill="#767677" d="M 2793.5,1773.5 C 2791.86,1781.12 2790.52,1788.79 2789.5,1796.5C 2788.88,1796.39 2788.38,1796.06 2788,1795.5C 2787.83,1794.17 2787.67,1792.83 2787.5,1791.5C 2789.74,1785.45 2791.74,1779.45 2793.5,1773.5 Z"/></g>
<g><path style="opacity:1" fill="#bbbbbc" d="M 2818.5,1779.5 C 2818.67,1785.84 2818.5,1792.18 2818,1798.5C 2816.55,1800.46 2814.72,1801.8 2812.5,1802.5C 2813.46,1801.04 2814.62,1799.71 2816,1798.5C 2816.15,1791.93 2816.98,1785.6 2818.5,1779.5 Z"/></g>
<g><path style="opacity:1" fill="#5b5b5d" d="M 2818.5,1775.5 C 2818.5,1776.83 2818.5,1778.17 2818.5,1779.5C 2816.98,1785.6 2816.15,1791.93 2816,1798.5C 2814.62,1799.71 2813.46,1801.04 2812.5,1802.5C 2806.81,1802.47 2801.14,1802.13 2795.5,1801.5C 2794.83,1800.83 2794.17,1800.17 2793.5,1799.5C 2797.84,1800.06 2802.17,1800.72 2806.5,1801.5C 2808.84,1800.66 2811.17,1799.83 2813.5,1799C 2814.6,1791.87 2815.77,1784.71 2817,1777.5C 2817.28,1776.58 2817.78,1775.92 2818.5,1775.5 Z"/></g>
<g><path style="opacity:1" fill="#cccccd" d="M 2795.5,1801.5 C 2801.14,1802.13 2806.81,1802.47 2812.5,1802.5C 2812.39,1803.12 2812.06,1803.62 2811.5,1804C 2806.47,1804.83 2801.47,1804.66 2796.5,1803.5C 2796.14,1802.82 2795.8,1802.15 2795.5,1801.5 Z"/></g>
<g><path style="opacity:1" fill="#5c7b65" d="M 2114.5,1759.5 C 2109.44,1759.14 2105.44,1756.97 2102.5,1753C 2098.17,1752.67 2093.83,1752.33 2089.5,1752C 2090.17,1751.67 2090.83,1751.33 2091.5,1751C 2087.54,1749.97 2083.54,1749.14 2079.5,1748.5C 2010.14,1749.83 1940.81,1749.83 1871.5,1748.5C 1869.12,1751.72 1869.12,1755.05 1871.5,1758.5C 1870.19,1767.51 1869.53,1776.67 1869.5,1786C 1869.67,1794.83 1869.83,1803.67 1870,1812.5C 1870.5,1813 1871,1813.5 1871.5,1814C 1936.56,1814.66 2001.56,1814.49 2066.5,1813.5C 2070.06,1813.67 2072.56,1815.33 2074,1818.5C 2073.49,1825.46 2073.49,1832.46 2074,1839.5C 2074.33,1838.83 2074.67,1838.17 2075,1837.5C 2075.92,1843 2073.75,1846.34 2068.5,1847.5C 2002.85,1846.34 1937.18,1846.18 1871.5,1847C 1871,1847.5 1870.5,1848 1870,1848.5C 1869.5,1884.17 1869.33,1919.83 1869.5,1955.5C 1868.5,1919 1868.17,1882.34 1868.5,1845.5C 1936.17,1845.5 2003.83,1845.5 2071.5,1845.5C 2071.83,1835.99 2071.49,1826.65 2070.5,1817.5C 2003.17,1817.5 1935.83,1817.5 1868.5,1817.5C 1868.5,1793.5 1868.5,1769.5 1868.5,1745.5C 1939.83,1745.33 2011.17,1745.5 2082.5,1746C 2089.61,1747.36 2096.61,1749.36 2103.5,1752C 2107.58,1754.03 2111.25,1756.53 2114.5,1759.5 Z"/></g>
<g><path style="opacity:1" fill="#ecf7ef" d="M 2564.5,1817.5 C 2608.17,1817.5 2651.83,1817.5 2695.5,1817.5C 2695.5,1829.83 2695.5,1842.17 2695.5,1854.5C 2651.83,1854.5 2608.17,1854.5 2564.5,1854.5C 2564.5,1842.17 2564.5,1829.83 2564.5,1817.5 Z"/></g>
<g><path style="opacity:1" fill="#fdfefd" d="M 1371.5,1817.5 C 1415.5,1817.5 1459.5,1817.5 1503.5,1817.5C 1503.5,1859.83 1503.5,1902.17 1503.5,1944.5C 1459.5,1944.5 1415.5,1944.5 1371.5,1944.5C 1371.5,1902.17 1371.5,1859.83 1371.5,1817.5 Z"/></g>
<g><path style="opacity:1" fill="#e0ebe1" d="M 2383.5,1657.5 C 2407.33,1656.5 2431.33,1656.17 2455.5,1656.5C 2455.83,1776.67 2455.5,1896.67 2454.5,2016.5C 2454.83,1896.67 2454.5,1777 2453.5,1657.5C 2430.17,1657.5 2406.83,1657.5 2383.5,1657.5 Z"/></g>
<g><path style="opacity:1" fill="#fdfefd" d="M 2587.5,1818.5 C 2587.47,1819.5 2587.97,1820.16 2589,1820.5C 2622.38,1832.15 2656.22,1838.48 2690.5,1839.5C 2691.86,1838.82 2693.19,1838.15 2694.5,1837.5C 2694.5,1842.83 2694.5,1848.17 2694.5,1853.5C 2651.81,1853.95 2609.14,1853.45 2566.5,1852C 2567.78,1850.7 2567.62,1849.54 2566,1848.5C 2565.57,1839.33 2565.4,1830.33 2565.5,1821.5C 2566.72,1819.76 2568.38,1818.76 2570.5,1818.5C 2576.07,1818.79 2581.74,1818.79 2587.5,1818.5 Z"/></g>
<g><path style="opacity:1" fill="#f5f5f5" d="M 2587.5,1818.5 C 2622.9,1818.66 2658.23,1818.99 2693.5,1819.5C 2694.46,1825.44 2694.79,1831.44 2694.5,1837.5C 2693.19,1838.15 2691.86,1838.82 2690.5,1839.5C 2656.22,1838.48 2622.38,1832.15 2589,1820.5C 2587.97,1820.16 2587.47,1819.5 2587.5,1818.5 Z"/></g>
<g><path style="opacity:1" fill="#67816e" d="M 1567.5,1784.5 C 1570.73,1789.66 1572.9,1795.32 1574,1801.5C 1574.83,1889.67 1574.67,1977.67 1573.5,2065.5C 1573.67,1980.17 1573.5,1894.83 1573,1809.5C 1570.73,1801.17 1568.89,1792.83 1567.5,1784.5 Z"/></g>
<g><path style="opacity:1" fill="#56735f" d="M 1625.5,1775.5 C 1622.64,1782.23 1619.48,1788.89 1616,1795.5C 1615.67,1802.17 1615.33,1808.83 1615,1815.5C 1614.5,1882.17 1614.33,1948.83 1614.5,2015.5C 1613.5,1945 1613.17,1874.34 1613.5,1803.5C 1614.79,1792.93 1618.79,1783.59 1625.5,1775.5 Z"/></g>
<g><path style="opacity:1" fill="#4f745a" d="M 1671.5,1746.5 C 1724.17,1746.5 1776.83,1746.5 1829.5,1746.5C 1829.5,1769.83 1829.5,1793.17 1829.5,1816.5C 1781,1816.17 1732.66,1816.5 1684.5,1817.5C 1683.5,1883.33 1683.17,1949.33 1683.5,2015.5C 1682.5,2015.5 1681.5,2015.5 1680.5,2015.5C 1680.33,1951.5 1680.5,1887.5 1681,1823.5C 1681.87,1822.89 1682.37,1822.06 1682.5,1821C 1681.38,1819.61 1680.88,1818.11 1681,1816.5C 1682.97,1814.73 1685.3,1813.73 1688,1813.5C 1734.02,1814.22 1779.69,1814.55 1825,1814.5C 1826.02,1813.65 1826.86,1812.65 1827.5,1811.5C 1827.81,1792.74 1827.48,1773.9 1826.5,1755C 1826.74,1753.02 1827.41,1751.18 1828.5,1749.5C 1828.29,1748.91 1827.96,1748.41 1827.5,1748C 1775.83,1747.33 1724.17,1747.33 1672.5,1748C 1670.11,1749.03 1667.78,1749.2 1665.5,1748.5C 1662.77,1750.24 1660.27,1752.24 1658,1754.5C 1657.44,1753.98 1656.77,1753.64 1656,1753.5C 1653.17,1754.23 1650.33,1754.9 1647.5,1755.5C 1654.53,1750.15 1662.53,1747.15 1671.5,1746.5 Z"/></g>
<g><path style="opacity:1" fill="#8da091" d="M 1613.5,1803.5 C 1613.17,1874.34 1613.5,1945 1614.5,2015.5C 1636.5,2015.5 1658.5,2015.5 1680.5,2015.5C 1681.5,2015.5 1682.5,2015.5 1683.5,2015.5C 1683.17,1949.33 1683.5,1883.33 1684.5,1817.5C 1684.5,1883.83 1684.5,1950.17 1684.5,2016.5C 1660.5,2016.5 1636.5,2016.5 1612.5,2016.5C 1612.17,1945.33 1612.5,1874.33 1613.5,1803.5 Z"/></g>
<g><path style="opacity:1" fill="#f5fbf4" d="M 1684.5,1817.5 C 1733.17,1817.5 1781.83,1817.5 1830.5,1817.5C 1828.45,1818.46 1826.29,1819.46 1824,1820.5C 1802.72,1819.17 1781.22,1818.51 1759.5,1818.5C 1736.57,1818.86 1713.74,1818.86 1691,1818.5C 1687.62,1818.37 1686.45,1819.7 1687.5,1822.5C 1686.67,1881.46 1686.17,1940.46 1686,1999.5C 1685.83,2005.35 1685.33,2011.01 1684.5,2016.5C 1684.5,1950.17 1684.5,1883.83 1684.5,1817.5 Z"/></g>
<g><path style="opacity:1" fill="#778e7e" d="M 2185.5,1785.5 C 2185.07,1792.11 2183.57,1798.44 2181,1804.5C 2180.5,1855.17 2180.33,1905.83 2180.5,1956.5C 2179.33,1905 2179.17,1853.33 2180,1801.5C 2181.24,1795.86 2183.07,1790.52 2185.5,1785.5 Z"/></g>
<g><path style="opacity:1" fill="#d1e1d4" d="M 2070.5,1817.5 C 2071.49,1826.65 2071.83,1835.99 2071.5,1845.5C 2003.83,1845.5 1936.17,1845.5 1868.5,1845.5C 1935.66,1844.5 2003,1844.17 2070.5,1844.5C 2070.5,1835.5 2070.5,1826.5 2070.5,1817.5 Z"/></g>
<g><path style="opacity:1" fill="#53725a" d="M 1255.5,1849.5 C 1253.49,1866.94 1250.82,1884.27 1247.5,1901.5C 1246.35,1903.78 1245.35,1906.11 1244.5,1908.5C 1244.95,1896.06 1246.12,1883.73 1248,1871.5C 1251.61,1865.37 1253.78,1858.71 1254.5,1851.5C 1254.33,1850.51 1254.66,1849.84 1255.5,1849.5 Z"/></g>
<g><path style="opacity:1" fill="#354f3b" d="M 1254.5,1851.5 C 1253.78,1858.71 1251.61,1865.37 1248,1871.5C 1246.12,1883.73 1244.95,1896.06 1244.5,1908.5C 1244.07,1912.43 1243.07,1916.09 1241.5,1919.5C 1239.21,1896.6 1242.71,1874.6 1252,1853.5C 1252.71,1852.62 1253.54,1851.95 1254.5,1851.5 Z"/></g>
<g><path style="opacity:1" fill="#ceddd0" d="M 1940.5,1908.5 C 1940.5,1908.17 1940.5,1907.83 1940.5,1907.5C 1984.17,1907.5 2027.83,1907.5 2071.5,1907.5C 2071.5,1919.83 2071.5,1932.17 2071.5,1944.5C 2071.17,1944.5 2070.83,1944.5 2070.5,1944.5C 2070.5,1932.5 2070.5,1920.5 2070.5,1908.5C 2027.17,1908.5 1983.83,1908.5 1940.5,1908.5 Z"/></g>
<g><path style="opacity:1" fill="#fdfefd" d="M 1940.5,1908.5 C 1983.83,1908.5 2027.17,1908.5 2070.5,1908.5C 2070.5,1920.5 2070.5,1932.5 2070.5,1944.5C 2027.17,1944.5 1983.83,1944.5 1940.5,1944.5C 1940.5,1932.5 1940.5,1920.5 1940.5,1908.5 Z"/></g>
<g><path style="opacity:1" fill="#c5d5c9" d="M 645.5,1911.5 C 648.537,1918.94 651.204,1926.61 653.5,1934.5C 649.675,1927.36 647.008,1919.7 645.5,1911.5 Z"/></g>
<g><path style="opacity:1" fill="#8ba693" d="M 2766.5,1807.5 C 2767.83,1844.17 2767.83,1880.83 2766.5,1917.5C 2699.17,1917.5 2631.83,1917.5 2564.5,1917.5C 2631.66,1916.5 2699,1916.17 2766.5,1916.5C 2766.5,1880.17 2766.5,1843.83 2766.5,1807.5 Z"/></g>
<g><path style="opacity:1" fill="#e3efe7" d="M 2564.5,1917.5 C 2631.83,1917.5 2699.17,1917.5 2766.5,1917.5C 2765.5,1918.67 2764.17,1919.33 2762.5,1919.5C 2696.86,1918.51 2631.19,1918.17 2565.5,1918.5C 2565.67,1925.6 2565.67,1932.6 2565.5,1939.5C 2565.53,1941.03 2566.2,1942.2 2567.5,1943C 2634.51,1942.84 2701.17,1943.67 2767.5,1945.5C 2767.17,1945.5 2766.83,1945.5 2766.5,1945.5C 2699.17,1945.5 2631.83,1945.5 2564.5,1945.5C 2564.5,1936.17 2564.5,1926.83 2564.5,1917.5 Z"/></g>
<g><path style="opacity:1" fill="#1e2b22" d="M 1255.5,1730.5 C 1255.5,1765.83 1255.5,1801.17 1255.5,1836.5C 1255.5,1840.83 1255.5,1845.17 1255.5,1849.5C 1254.66,1849.84 1254.33,1850.51 1254.5,1851.5C 1253.54,1851.95 1252.71,1852.62 1252,1853.5C 1242.71,1874.6 1239.21,1896.6 1241.5,1919.5C 1241.5,1920.17 1241.5,1920.83 1241.5,1921.5C 1238.65,1928.71 1235.98,1936.04 1233.5,1943.5C 1231.75,1944.66 1230.75,1946.33 1230.5,1948.5C 1225.48,1953.19 1220.48,1957.86 1215.5,1962.5C 1219.45,1956.2 1223.45,1949.87 1227.5,1943.5C 1228.32,1942.61 1229.32,1942.28 1230.5,1942.5C 1232.91,1938.22 1234.41,1933.56 1235,1928.5C 1236.58,1910.47 1238.41,1892.47 1240.5,1874.5C 1243.63,1868.94 1245.46,1862.94 1246,1856.5C 1249.91,1851.19 1252.75,1845.52 1254.5,1839.5C 1254.17,1803 1254.5,1766.66 1255.5,1730.5 Z"/></g>
<g><path style="opacity:1" fill="#959c97" d="M 1241.5,1921.5 C 1240.35,1929.49 1237.68,1936.82 1233.5,1943.5C 1235.98,1936.04 1238.65,1928.71 1241.5,1921.5 Z"/></g>
<g><path style="opacity:1" fill="#080e0a" d="M 1254.5,1839.5 C 1252.75,1845.52 1249.91,1851.19 1246,1856.5C 1245.46,1862.94 1243.63,1868.94 1240.5,1874.5C 1238.41,1892.47 1236.58,1910.47 1235,1928.5C 1234.41,1933.56 1232.91,1938.22 1230.5,1942.5C 1229.32,1942.28 1228.32,1942.61 1227.5,1943.5C 1223.45,1949.87 1219.45,1956.2 1215.5,1962.5C 1212.17,1967.06 1208.34,1971.4 1204,1975.5C 1201.7,1979.8 1198.7,1983.46 1195,1986.5C 1194.03,1988.39 1193.36,1990.39 1193,1992.5C 1190.51,1994.29 1188.34,1996.46 1186.5,1999C 1185.55,1999.48 1184.55,1999.65 1183.5,1999.5C 1183.35,1998.45 1183.52,1997.45 1184,1996.5C 1200.45,1976.72 1216.12,1956.39 1231,1935.5C 1234.14,1914.36 1236.8,1893.03 1239,1871.5C 1241.81,1859.51 1246.97,1848.85 1254.5,1839.5 Z"/></g>
<g><path style="opacity:1" fill="#e3e7e3" d="M 1247.5,1901.5 C 1246.14,1908.66 1245.3,1916 1245,1923.5C 1242.89,1929.8 1241.23,1936.14 1240,1942.5C 1238.49,1945.43 1237.16,1948.43 1236,1951.5C 1235.67,1951.17 1235.33,1950.83 1235,1950.5C 1233.68,1954.32 1231.52,1957.48 1228.5,1960C 1229.71,1961.11 1229.71,1962.28 1228.5,1963.5C 1226.95,1964.45 1225.29,1964.79 1223.5,1964.5C 1222.9,1972.81 1218.9,1979.14 1211.5,1983.5C 1213.74,1978.59 1216.41,1973.93 1219.5,1969.5C 1223.42,1962.66 1227.09,1955.66 1230.5,1948.5C 1230.75,1946.33 1231.75,1944.66 1233.5,1943.5C 1237.68,1936.82 1240.35,1929.49 1241.5,1921.5C 1241.5,1920.83 1241.5,1920.17 1241.5,1919.5C 1243.07,1916.09 1244.07,1912.43 1244.5,1908.5C 1245.35,1906.11 1246.35,1903.78 1247.5,1901.5 Z"/></g>
<g><path style="opacity:1" fill="#9fb5a6" d="M 1371.5,1817.5 C 1371.5,1859.83 1371.5,1902.17 1371.5,1944.5C 1415.5,1944.5 1459.5,1944.5 1503.5,1944.5C 1459.34,1945.5 1415,1945.83 1370.5,1945.5C 1370.17,1902.66 1370.5,1860 1371.5,1817.5 Z"/></g>
<g><path style="opacity:1" fill="#afc2b5" d="M 1940.5,1907.5 C 1940.5,1907.83 1940.5,1908.17 1940.5,1908.5C 1940.5,1920.5 1940.5,1932.5 1940.5,1944.5C 1983.83,1944.5 2027.17,1944.5 2070.5,1944.5C 2070.83,1944.5 2071.17,1944.5 2071.5,1944.5C 2027.67,1945.5 1983.67,1945.83 1939.5,1945.5C 1939.17,1932.66 1939.5,1919.99 1940.5,1907.5 Z"/></g>
<g><path style="opacity:1" fill="#9cb1a3" d="M 2251.5,1817.5 C 2251.5,1859.83 2251.5,1902.17 2251.5,1944.5C 2295.17,1944.5 2338.83,1944.5 2382.5,1944.5C 2382.5,1902.17 2382.5,1859.83 2382.5,1817.5C 2383.5,1860 2383.83,1902.66 2383.5,1945.5C 2339.17,1945.5 2294.83,1945.5 2250.5,1945.5C 2250.17,1902.66 2250.5,1860 2251.5,1817.5 Z"/></g>
<g><path style="opacity:1" fill="#effaf1" d="M 2251.5,1817.5 C 2295.17,1817.5 2338.83,1817.5 2382.5,1817.5C 2382.5,1859.83 2382.5,1902.17 2382.5,1944.5C 2338.83,1944.5 2295.17,1944.5 2251.5,1944.5C 2251.5,1902.17 2251.5,1859.83 2251.5,1817.5 Z"/></g>
<g><path style="opacity:1" fill="#fefefe" d="M 2254.5,1818.5 C 2296.51,1818.17 2338.51,1818.5 2380.5,1819.5C 2380.49,1859.71 2380.49,1900.21 2380.5,1941C 2380.09,1941.95 2379.43,1942.61 2378.5,1943C 2336.5,1943.5 2294.5,1943.67 2252.5,1943.5C 2252.33,1902.83 2252.5,1862.17 2253,1821.5C 2253.51,1820.47 2254.01,1819.47 2254.5,1818.5 Z"/></g>
<g><path style="opacity:1" fill="#4f745a" d="M 2564.5,1917.5 C 2564.5,1926.83 2564.5,1936.17 2564.5,1945.5C 2631.83,1945.5 2699.17,1945.5 2766.5,1945.5C 2766.5,1968.83 2766.5,1992.17 2766.5,2015.5C 2765.17,2015.5 2763.83,2015.5 2762.5,2015.5C 2763.44,1994.19 2763.78,1972.86 2763.5,1951.5C 2762.5,1951.5 2761.5,1951.5 2760.5,1951.5C 2760.67,1950.18 2760.34,1949.01 2759.5,1948C 2756.95,1947.15 2754.61,1947.48 2752.5,1949C 2725.5,1949.67 2698.5,1949.67 2671.5,1949C 2698.17,1948.67 2724.83,1948.33 2751.5,1948C 2716.8,1946.95 2682.13,1947.45 2647.5,1949.5C 2642.17,1948.83 2636.83,1948.17 2631.5,1947.5C 2608,1949.8 2584.67,1950.13 2561.5,1948.5C 2561.71,1946.08 2561.37,1943.75 2560.5,1941.5C 2561.53,1940.3 2562.36,1938.97 2563,1937.5C 2563.17,1930.65 2563.67,1923.99 2564.5,1917.5 Z"/></g>
<g><path style="opacity:1" fill="#395641" d="M 1230.5,1948.5 C 1227.09,1955.66 1223.42,1962.66 1219.5,1969.5C 1218.32,1969.28 1217.32,1969.61 1216.5,1970.5C 1214.54,1974.72 1212.2,1978.72 1209.5,1982.5C 1205.2,1986.46 1201.36,1990.79 1198,1995.5C 1191.62,2001.04 1185.12,2006.54 1178.5,2012C 1175.56,2016.44 1171.89,2019.94 1167.5,2022.5C 1167.72,2023.68 1167.39,2024.68 1166.5,2025.5C 1159.73,2031.29 1153.06,2036.95 1146.5,2042.5C 1146.5,2040.5 1146.5,2038.5 1146.5,2036.5C 1148.04,2037.3 1149.71,2037.63 1151.5,2037.5C 1151.33,2036.18 1151.66,2035.01 1152.5,2034C 1164.73,2022.1 1177.23,2010.6 1190,1999.5C 1198.29,1988.94 1206.45,1978.27 1214.5,1967.5C 1215.45,1965.95 1215.79,1964.29 1215.5,1962.5C 1220.48,1957.86 1225.48,1953.19 1230.5,1948.5 Z"/></g>
<g><path style="opacity:1" fill="#1d2c20" d="M 1215.5,1962.5 C 1215.79,1964.29 1215.45,1965.95 1214.5,1967.5C 1206.45,1978.27 1198.29,1988.94 1190,1999.5C 1177.23,2010.6 1164.73,2022.1 1152.5,2034C 1151.66,2035.01 1151.33,2036.18 1151.5,2037.5C 1149.71,2037.63 1148.04,2037.3 1146.5,2036.5C 1146.5,2035.83 1146.5,2035.17 1146.5,2034.5C 1149.01,2035.38 1150.68,2034.38 1151.5,2031.5C 1154.06,2030.09 1155.73,2027.93 1156.5,2025C 1160.8,2020.7 1165.63,2017.2 1171,2014.5C 1174.71,2009.04 1178.88,2004.04 1183.5,1999.5C 1184.55,1999.65 1185.55,1999.48 1186.5,1999C 1188.34,1996.46 1190.51,1994.29 1193,1992.5C 1193.36,1990.39 1194.03,1988.39 1195,1986.5C 1198.7,1983.46 1201.7,1979.8 1204,1975.5C 1208.34,1971.4 1212.17,1967.06 1215.5,1962.5 Z"/></g>
<g><path style="opacity:1" fill="#9db1a4" d="M 899.5,2009.5 C 904.181,2009.67 908.848,2010 913.5,2010.5C 913.5,2010.83 913.5,2011.17 913.5,2011.5C 908.586,2011.64 903.919,2010.97 899.5,2009.5 Z"/></g>
<g><path style="opacity:1" fill="#d9e7dc" d="M 913.5,2011.5 C 913.5,2011.17 913.5,2010.83 913.5,2010.5C 935.505,2011.56 957.505,2011.56 979.5,2010.5C 967.036,2012.01 954.369,2012.68 941.5,2012.5C 932.122,2012.47 922.789,2012.14 913.5,2011.5 Z"/></g>
<g><path style="opacity:1" fill="#829284" d="M 2141.5,1801.5 C 2142.5,1873 2142.83,1944.66 2142.5,2016.5C 2070.66,2016.83 1999,2016.5 1927.5,2015.5C 1998.83,2015.5 2070.17,2015.5 2141.5,2015.5C 2141.5,1944.17 2141.5,1872.83 2141.5,1801.5 Z"/></g>
<g><path style="opacity:1" fill="#93a194" d="M 2453.5,1657.5 C 2454.5,1777 2454.83,1896.67 2454.5,2016.5C 2381.17,2016.67 2307.83,2016.5 2234.5,2016C 2232.94,2015.79 2231.61,2015.29 2230.5,2014.5C 2304.48,2015.48 2378.48,2015.82 2452.5,2015.5C 2453.5,1896.33 2453.83,1777 2453.5,1657.5 Z"/></g>
<g><path style="opacity:1" fill="#92a194" d="M 2766.5,1945.5 C 2766.83,1945.5 2767.17,1945.5 2767.5,1945.5C 2767.5,1969.17 2767.5,1992.83 2767.5,2016.5C 2694,2016.83 2620.66,2016.5 2547.5,2015.5C 2619.17,2015.5 2690.83,2015.5 2762.5,2015.5C 2763.83,2015.5 2765.17,2015.5 2766.5,2015.5C 2766.5,1992.17 2766.5,1968.83 2766.5,1945.5 Z"/></g>
<g><path style="opacity:1" fill="#d9e5db" d="M 1919.5,2014.5 C 1922.21,2014.58 1924.87,2014.91 1927.5,2015.5C 1999,2016.5 2070.66,2016.83 2142.5,2016.5C 2070.67,2017.67 1998.67,2017.83 1926.5,2017C 1923.9,2016.61 1921.56,2015.78 1919.5,2014.5 Z"/></g>
<g><path style="opacity:1" fill="#d6e4d9" d="M 1359.5,2016.5 C 1407.5,2016.5 1455.5,2016.5 1503.5,2016.5C 1503.5,2028.17 1503.5,2039.83 1503.5,2051.5C 1450.17,2051.5 1396.83,2051.5 1343.5,2051.5C 1343.17,2051.5 1342.83,2051.5 1342.5,2051.5C 1395.66,2050.5 1449,2050.17 1502.5,2050.5C 1502.5,2039.5 1502.5,2028.5 1502.5,2017.5C 1454.66,2017.83 1407,2017.5 1359.5,2016.5 Z"/></g>
<g><path style="opacity:1" fill="#597a64" d="M 831.5,2089.5 C 836.762,2090.64 842.095,2091.47 847.5,2092C 852.555,2094.49 857.888,2096.15 863.5,2097C 866.76,2097.78 869.927,2097.62 873,2096.5C 878.075,2098.36 883.241,2098.7 888.5,2097.5C 893.941,2100.42 899.774,2102.09 906,2102.5C 928.894,2102.4 952.061,2102.4 975.5,2102.5C 983.694,2100.65 992.028,2099.48 1000.5,2099C 1001.42,2098.63 1002.25,2098.13 1003,2097.5C 1009.89,2098.31 1016.72,2098.31 1023.5,2097.5C 1017.65,2098.99 1011.65,2100.33 1005.5,2101.5C 984.223,2103.66 962.89,2105 941.5,2105.5C 928.14,2105.28 914.807,2104.61 901.5,2103.5C 877.382,2102.24 854.049,2097.58 831.5,2089.5 Z"/></g>
<g><path style="opacity:1" fill="#c9d7cd" d="M 1005.5,2101.5 C 1001.1,2103.05 996.434,2103.88 991.5,2104C 966.875,2106.24 942.208,2106.9 917.5,2106C 911.936,2105.75 906.602,2104.92 901.5,2103.5C 914.807,2104.61 928.14,2105.28 941.5,2105.5C 962.89,2105 984.223,2103.66 1005.5,2101.5 Z"/></g>
<g><path style="opacity:1" fill="#585858" d="M 1743.5,2110.5 C 1743.5,2110.83 1743.5,2111.17 1743.5,2111.5C 1743.83,2136.18 1743.5,2160.84 1742.5,2185.5C 1741.89,2185.38 1741.56,2185.04 1741.5,2184.5C 1742.17,2159.83 1742.83,2135.17 1743.5,2110.5 Z"/></g>
<g><path style="opacity:1" fill="#060606" d="M 1743.5,2111.5 C 1747.83,2111.5 1752.17,2111.5 1756.5,2111.5C 1756.17,2164.34 1756.5,2217 1757.5,2269.5C 1757.91,2275.16 1758.24,2280.83 1758.5,2286.5C 1753.83,2286.5 1749.17,2286.5 1744.5,2286.5C 1744.77,2284.9 1744.43,2283.57 1743.5,2282.5C 1743.83,2277.13 1743.49,2271.79 1742.5,2266.5C 1726.56,2288.33 1705.89,2294.49 1680.5,2285C 1661.74,2274.02 1651.74,2257.52 1650.5,2235.5C 1650.4,2225.15 1650.73,2214.81 1651.5,2204.5C 1652.92,2202.49 1653.59,2200.15 1653.5,2197.5C 1666.99,2164.36 1690.66,2153.86 1724.5,2166C 1732.12,2170.45 1737.79,2176.62 1741.5,2184.5C 1741.56,2185.04 1741.89,2185.38 1742.5,2185.5C 1743.5,2160.84 1743.83,2136.18 1743.5,2111.5 Z"/></g>
<g><path style="opacity:1" fill="#313131" d="M 1743.5,2111.5 C 1743.5,2111.17 1743.5,2110.83 1743.5,2110.5C 1748.17,2110.5 1752.83,2110.5 1757.5,2110.5C 1757.5,2163.5 1757.5,2216.5 1757.5,2269.5C 1756.5,2217 1756.17,2164.34 1756.5,2111.5C 1752.17,2111.5 1747.83,2111.5 1743.5,2111.5 Z"/></g>
<g><path style="opacity:1" fill="#7d9184" d="M 1342.5,2051.5 C 1342.83,2051.5 1343.17,2051.5 1343.5,2051.5C 1343.5,2075.17 1343.5,2098.83 1343.5,2122.5C 1398.5,2122.67 1453.5,2122.5 1508.5,2122C 1514.17,2121.47 1519.84,2120.97 1525.5,2120.5C 1522.1,2121.93 1518.43,2122.76 1514.5,2123C 1457.17,2123.5 1399.83,2123.67 1342.5,2123.5C 1342.5,2099.5 1342.5,2075.5 1342.5,2051.5 Z"/></g>
<g><path style="opacity:1" fill="#525252" d="M 1191.5,2163.5 C 1180.84,2162.2 1170.17,2162.2 1159.5,2163.5C 1160.61,2162.71 1161.94,2162.21 1163.5,2162C 1171.83,2161.33 1180.17,2161.33 1188.5,2162C 1189.74,2162.23 1190.74,2162.73 1191.5,2163.5 Z"/></g>
<g><path style="opacity:1" fill="#4c4c4c" d="M 1993.5,2162.5 C 1984.8,2162.29 1976.13,2162.62 1967.5,2163.5C 1968.26,2162.73 1969.26,2162.23 1970.5,2162C 1978.34,2161.18 1986.01,2161.34 1993.5,2162.5 Z"/></g>
<g><path style="opacity:1" fill="#090909" d="M 916.5,2162.5 C 918.599,2163.61 920.933,2164.28 923.5,2164.5C 935.28,2168.45 942.78,2176.45 946,2188.5C 946.951,2221.18 948.118,2253.84 949.5,2286.5C 945.167,2286.5 940.833,2286.5 936.5,2286.5C 935.995,2280.79 935.162,2275.12 934,2269.5C 923.297,2283.64 908.964,2290.3 891,2289.5C 860.051,2287.24 847.051,2270.9 852,2240.5C 857.735,2226.88 867.902,2218.88 882.5,2216.5C 885.152,2216.59 887.485,2215.92 889.5,2214.5C 903.76,2212.73 918.093,2212.06 932.5,2212.5C 935.139,2178.32 919.806,2165.82 886.5,2175C 879.398,2178.7 875.398,2184.54 874.5,2192.5C 870.146,2194.35 865.48,2195.01 860.5,2194.5C 860.5,2192.17 860.5,2189.83 860.5,2187.5C 862.074,2185.9 862.741,2183.9 862.5,2181.5C 865.893,2174.44 871.226,2169.44 878.5,2166.5C 882.395,2165.54 886.061,2164.2 889.5,2162.5C 898.47,2161.19 907.47,2161.19 916.5,2162.5 Z"/></g>
<g><path style="opacity:1" fill="#858585" d="M 916.5,2162.5 C 919.228,2162.17 921.562,2162.84 923.5,2164.5C 920.933,2164.28 918.599,2163.61 916.5,2162.5 Z"/></g>
<g><path style="opacity:1" fill="#080808" d="M 1191.5,2163.5 C 1211.66,2168.67 1222.33,2181.67 1223.5,2202.5C 1218.83,2202.5 1214.17,2202.5 1209.5,2202.5C 1208.73,2189.45 1202.39,2180.28 1190.5,2175C 1169.62,2168.74 1153.12,2174.57 1141,2192.5C 1138.64,2196.22 1137.14,2200.22 1136.5,2204.5C 1135.08,2206.51 1134.41,2208.85 1134.5,2211.5C 1130.76,2231.21 1134.6,2249.21 1146,2265.5C 1160.6,2279.88 1177.1,2282.38 1195.5,2273C 1204.47,2266.89 1209.14,2258.39 1209.5,2247.5C 1214.17,2247.5 1218.83,2247.5 1223.5,2247.5C 1222.7,2264.61 1214.7,2276.94 1199.5,2284.5C 1195.07,2285.87 1190.73,2287.2 1186.5,2288.5C 1150.99,2293.68 1128.82,2279.01 1120,2244.5C 1115.25,2222.72 1118.58,2202.38 1130,2183.5C 1137.41,2173.22 1147.24,2166.55 1159.5,2163.5C 1170.17,2162.2 1180.84,2162.2 1191.5,2163.5 Z"/></g>
<g><path style="opacity:1" fill="#080808" d="M 1468.5,2282.5 C 1468.73,2278.02 1468.07,2273.69 1466.5,2269.5C 1465.89,2269.62 1465.56,2269.96 1465.5,2270.5C 1460.3,2277.7 1453.63,2283.04 1445.5,2286.5C 1436.26,2288.18 1426.92,2288.85 1417.5,2288.5C 1391.19,2285.01 1379.69,2270.01 1383,2243.5C 1389.44,2226.69 1401.61,2217.19 1419.5,2215C 1434.41,2212.8 1449.41,2211.97 1464.5,2212.5C 1464.5,2206.17 1464.5,2199.83 1464.5,2193.5C 1464.74,2191.1 1464.07,2189.1 1462.5,2187.5C 1459.27,2178.86 1452.93,2174.02 1443.5,2173C 1429.66,2169.51 1418.16,2173.01 1409,2183.5C 1408.52,2184.45 1408.35,2185.45 1408.5,2186.5C 1406.93,2188.1 1406.26,2190.1 1406.5,2192.5C 1406.5,2193.17 1406.5,2193.83 1406.5,2194.5C 1401.83,2194.5 1397.17,2194.5 1392.5,2194.5C 1392.5,2192.83 1392.5,2191.17 1392.5,2189.5C 1394.84,2176.83 1402.17,2168.49 1414.5,2164.5C 1417.15,2164.59 1419.49,2163.92 1421.5,2162.5C 1438.41,2158.91 1454.08,2161.74 1468.5,2171C 1475.09,2178.2 1478.59,2186.7 1479,2196.5C 1479.05,2226.53 1479.88,2256.53 1481.5,2286.5C 1477.17,2286.5 1472.83,2286.5 1468.5,2286.5C 1468.5,2285.17 1468.5,2283.83 1468.5,2282.5 Z"/></g>
<g><path style="opacity:1" fill="#060606" d="M 1993.5,2162.5 C 1997.99,2163.1 2002.32,2164.44 2006.5,2166.5C 2016.37,2172.72 2023.37,2181.39 2027.5,2192.5C 2027.41,2195.15 2028.08,2197.49 2029.5,2199.5C 2029.41,2202.15 2030.08,2204.49 2031.5,2206.5C 2031.5,2207.5 2031.5,2208.5 2031.5,2209.5C 2031.97,2215.49 2032.3,2221.49 2032.5,2227.5C 2002.17,2227.5 1971.83,2227.5 1941.5,2227.5C 1941.18,2231.7 1941.52,2235.7 1942.5,2239.5C 1944.87,2258.36 1954.87,2271.19 1972.5,2278C 1996.9,2282.15 2011.9,2272.32 2017.5,2248.5C 2021.83,2248.5 2026.17,2248.5 2030.5,2248.5C 2030.5,2249.83 2030.5,2251.17 2030.5,2252.5C 2027.29,2267.36 2018.96,2278.02 2005.5,2284.5C 1992.47,2289.59 1979.13,2290.59 1965.5,2287.5C 1947.94,2282.44 1936.44,2271.11 1931,2253.5C 1926.75,2236.59 1926.41,2219.59 1930,2202.5C 1935.1,2184.74 1945.93,2171.91 1962.5,2164C 1964.13,2163.51 1965.8,2163.34 1967.5,2163.5C 1976.13,2162.62 1984.8,2162.29 1993.5,2162.5 Z"/></g>
<g><path style="opacity:1" fill="#a9a9a9" d="M 1993.5,2162.5 C 1998.67,2161.66 2003.01,2163 2006.5,2166.5C 2002.32,2164.44 1997.99,2163.1 1993.5,2162.5 Z"/></g>
<g><path style="opacity:1" fill="#595959" d="M 889.5,2162.5 C 886.061,2164.2 882.395,2165.54 878.5,2166.5C 881.626,2164.01 885.292,2162.68 889.5,2162.5 Z"/></g>
<g><path style="opacity:1" fill="#686868" d="M 1421.5,2162.5 C 1419.49,2163.92 1417.15,2164.59 1414.5,2164.5C 1416.51,2163.08 1418.85,2162.41 1421.5,2162.5 Z"/></g>
<g><path style="opacity:1" fill="#040404" d="M 2246.5,2163.5 C 2268.55,2159.86 2284.55,2167.86 2294.5,2187.5C 2309.24,2164.22 2329.91,2157.05 2356.5,2166C 2370.73,2174.27 2377.89,2186.77 2378,2203.5C 2378.5,2231.16 2378.67,2258.83 2378.5,2286.5C 2373.83,2286.5 2369.17,2286.5 2364.5,2286.5C 2364.67,2258.5 2364.5,2230.5 2364,2202.5C 2363.8,2200.62 2363.3,2198.95 2362.5,2197.5C 2358.42,2181.93 2348.25,2174.6 2332,2175.5C 2316.55,2175.14 2306.05,2182.14 2300.5,2196.5C 2299.08,2198.51 2298.41,2200.85 2298.5,2203.5C 2297.51,2231.09 2297.18,2258.76 2297.5,2286.5C 2292.83,2286.5 2288.17,2286.5 2283.5,2286.5C 2283.67,2259.83 2283.5,2233.16 2283,2206.5C 2282.63,2186.29 2272.46,2175.96 2252.5,2175.5C 2235.57,2175.91 2224.4,2184.24 2219,2200.5C 2218.21,2203.47 2217.54,2206.47 2217,2209.5C 2216.5,2235.16 2216.33,2260.83 2216.5,2286.5C 2211.83,2286.5 2207.17,2286.5 2202.5,2286.5C 2202.5,2249.5 2202.5,2212.5 2202.5,2175.5C 2202.5,2171.83 2202.5,2168.17 2202.5,2164.5C 2206.83,2164.5 2211.17,2164.5 2215.5,2164.5C 2216.17,2171.01 2216.83,2177.68 2217.5,2184.5C 2222.46,2175.36 2229.79,2169.03 2239.5,2165.5C 2242.15,2165.59 2244.49,2164.92 2246.5,2163.5 Z"/></g>
<g><path style="opacity:1" fill="#757575" d="M 2558.5,2164.5 C 2552.64,2164.18 2546.98,2164.51 2541.5,2165.5C 2540.96,2165.44 2540.62,2165.11 2540.5,2164.5C 2546.65,2163.18 2552.65,2163.18 2558.5,2164.5 Z"/></g>
<g><path style="opacity:1" fill="#727272" d="M 2640.5,2164.5 C 2645.31,2163.51 2650.31,2163.18 2655.5,2163.5C 2655.74,2164.79 2655.4,2165.79 2654.5,2166.5C 2650.29,2164.56 2645.62,2163.9 2640.5,2164.5 Z"/></g>
<g><path style="opacity:1" fill="#6e6e6e" d="M 2246.5,2163.5 C 2244.49,2164.92 2242.15,2165.59 2239.5,2165.5C 2241.51,2164.08 2243.85,2163.41 2246.5,2163.5 Z"/></g>
<g><path style="opacity:1" fill="#080808" d="M 2541.5,2165.5 C 2546.98,2164.51 2552.64,2164.18 2558.5,2164.5C 2571.73,2198.32 2585.57,2231.98 2600,2265.5C 2613.95,2232.01 2627.45,2198.35 2640.5,2164.5C 2645.62,2163.9 2650.29,2164.56 2654.5,2166.5C 2631.73,2221.81 2609.73,2277.48 2588.5,2333.5C 2583.5,2333.5 2578.5,2333.5 2573.5,2333.5C 2579.53,2317.76 2585.86,2302.1 2592.5,2286.5C 2576.08,2245.92 2559.08,2205.58 2541.5,2165.5 Z"/></g>
<g><path style="opacity:1" fill="#a2a2a2" d="M 1708.5,2173.5 C 1702.8,2173.45 1697.14,2173.78 1691.5,2174.5C 1694.72,2173.05 1698.22,2172.38 1702,2172.5C 1704.36,2172.5 1706.53,2172.84 1708.5,2173.5 Z"/></g>
<g><path style="opacity:1" fill="#bdbdbd" d="M 1993.5,2174.5 C 1989.34,2174.14 1985.18,2173.81 1981,2173.5C 1975.67,2173.78 1970.5,2174.78 1965.5,2176.5C 1967.86,2174.87 1970.52,2173.7 1973.5,2173C 1978.83,2172.33 1984.17,2172.33 1989.5,2173C 1991.06,2173.21 1992.39,2173.71 1993.5,2174.5 Z"/></g>
<g><path style="opacity:1" fill="#fcfcfc" d="M 1993.5,2174.5 C 2006.81,2180.07 2014.64,2190.07 2017,2204.5C 2017.5,2208.49 2017.67,2212.49 2017.5,2216.5C 1992.83,2216.5 1968.17,2216.5 1943.5,2216.5C 1943.5,2213.83 1943.5,2211.17 1943.5,2208.5C 1945.41,2204.77 1946.74,2200.77 1947.5,2196.5C 1951.03,2187.64 1957.03,2180.97 1965.5,2176.5C 1970.5,2174.78 1975.67,2173.78 1981,2173.5C 1985.18,2173.81 1989.34,2174.14 1993.5,2174.5 Z"/></g>
<g><path style="opacity:1" fill="#646464" d="M 2215.5,2164.5 C 2211.17,2164.5 2206.83,2164.5 2202.5,2164.5C 2202.5,2168.17 2202.5,2171.83 2202.5,2175.5C 2201.52,2171.7 2201.18,2167.7 2201.5,2163.5C 2206.36,2163.18 2211.03,2163.51 2215.5,2164.5 Z"/></g>
<g><path style="opacity:1" fill="#fcfcfc" d="M 1708.5,2173.5 C 1724.07,2176.23 1734.24,2185.23 1739,2200.5C 1743.3,2216.4 1743.64,2232.4 1740,2248.5C 1733.35,2271.46 1718.19,2280.96 1694.5,2277C 1678.37,2270.59 1669.04,2258.76 1666.5,2241.5C 1665.65,2234.2 1665.32,2226.87 1665.5,2219.5C 1665.25,2202.93 1671.25,2189.09 1683.5,2178C 1686.07,2176.55 1688.74,2175.38 1691.5,2174.5C 1697.14,2173.78 1702.8,2173.45 1708.5,2173.5 Z"/></g>
<g><path style="opacity:1" fill="#5a5a5a" d="M 862.5,2181.5 C 862.741,2183.9 862.074,2185.9 860.5,2187.5C 860.259,2185.1 860.926,2183.1 862.5,2181.5 Z"/></g>
<g><path style="opacity:1" fill="#939393" d="M 1408.5,2186.5 C 1408.74,2188.9 1408.07,2190.9 1406.5,2192.5C 1406.26,2190.1 1406.93,2188.1 1408.5,2186.5 Z"/></g>
<g><path style="opacity:1" fill="#787878" d="M 1462.5,2187.5 C 1464.07,2189.1 1464.74,2191.1 1464.5,2193.5C 1462.93,2191.9 1462.26,2189.9 1462.5,2187.5 Z"/></g>
<g><path style="opacity:1" fill="#858585" d="M 860.5,2187.5 C 860.5,2189.83 860.5,2192.17 860.5,2194.5C 865.48,2195.01 870.146,2194.35 874.5,2192.5C 874.5,2193.5 874.5,2194.5 874.5,2195.5C 869.5,2195.5 864.5,2195.5 859.5,2195.5C 859.194,2192.61 859.527,2189.95 860.5,2187.5 Z"/></g>
<g><path style="opacity:1" fill="#b4b4b4" d="M 1392.5,2189.5 C 1392.5,2191.17 1392.5,2192.83 1392.5,2194.5C 1397.17,2194.5 1401.83,2194.5 1406.5,2194.5C 1401.67,2195.4 1396.67,2196.07 1391.5,2196.5C 1391.2,2193.94 1391.53,2191.61 1392.5,2189.5 Z"/></g>
<g><path style="opacity:1" fill="#5a5a5a" d="M 2027.5,2192.5 C 2028.92,2194.51 2029.59,2196.85 2029.5,2199.5C 2028.08,2197.49 2027.41,2195.15 2027.5,2192.5 Z"/></g>
<g><path style="opacity:1" fill="#9c9c9c" d="M 1947.5,2196.5 C 1946.74,2200.77 1945.41,2204.77 1943.5,2208.5C 1943.86,2204.08 1945.19,2200.08 1947.5,2196.5 Z"/></g>
<g><path style="opacity:1" fill="#545454" d="M 1653.5,2197.5 C 1653.59,2200.15 1652.92,2202.49 1651.5,2204.5C 1651.41,2201.85 1652.08,2199.51 1653.5,2197.5 Z"/></g>
<g><path style="opacity:1" fill="#606060" d="M 2300.5,2196.5 C 2300.59,2199.15 2299.92,2201.49 2298.5,2203.5C 2298.41,2200.85 2299.08,2198.51 2300.5,2196.5 Z"/></g>
<g><path style="opacity:1" fill="#909090" d="M 2029.5,2199.5 C 2030.92,2201.51 2031.59,2203.85 2031.5,2206.5C 2030.08,2204.49 2029.41,2202.15 2029.5,2199.5 Z"/></g>
<g><path style="opacity:1" fill="#707070" d="M 1136.5,2204.5 C 1136.59,2207.15 1135.92,2209.49 1134.5,2211.5C 1134.41,2208.85 1135.08,2206.51 1136.5,2204.5 Z"/></g>
<g><path style="opacity:1" fill="#5c5c5c" d="M 2362.5,2197.5 C 2363.3,2198.95 2363.8,2200.62 2364,2202.5C 2364.5,2230.5 2364.67,2258.5 2364.5,2286.5C 2363.77,2256.99 2363.1,2227.32 2362.5,2197.5 Z"/></g>
<g><path style="opacity:1" fill="#606060" d="M 889.5,2214.5 C 887.485,2215.92 885.152,2216.59 882.5,2216.5C 884.515,2215.08 886.848,2214.41 889.5,2214.5 Z"/></g>
<g><path style="opacity:1" fill="#8e8e8e" d="M 1943.5,2208.5 C 1943.5,2211.17 1943.5,2213.83 1943.5,2216.5C 1968.17,2216.5 1992.83,2216.5 2017.5,2216.5C 1992.67,2217.5 1967.67,2217.83 1942.5,2217.5C 1942.19,2214.29 1942.52,2211.29 1943.5,2208.5 Z"/></g>
<g><path style="opacity:1" fill="#2f2f2f" d="M 1651.5,2204.5 C 1650.73,2214.81 1650.4,2225.15 1650.5,2235.5C 1649.83,2231.51 1649.5,2227.35 1649.5,2223C 1649.33,2216.59 1649.99,2210.43 1651.5,2204.5 Z"/></g>
<g><path style="opacity:1" fill="#b3b3b3" d="M 2031.5,2209.5 C 2033.5,2215.43 2033.83,2221.43 2032.5,2227.5C 2032.3,2221.49 2031.97,2215.49 2031.5,2209.5 Z"/></g>
<g><path style="opacity:1" fill="#929292" d="M 932.5,2223.5 C 919.482,2223.34 906.482,2223.67 893.5,2224.5C 894.952,2223.7 896.618,2223.2 898.5,2223C 910.008,2222.17 921.341,2222.34 932.5,2223.5 Z"/></g>
<g><path style="opacity:1" fill="#fbfbfb" d="M 932.5,2223.5 C 934.362,2238.32 931.862,2252.32 925,2265.5C 920.585,2271.57 914.752,2275.74 907.5,2278C 891.366,2282.29 878.2,2278.12 868,2265.5C 866.659,2262.98 865.826,2260.31 865.5,2257.5C 865.312,2251.71 865.978,2246.05 867.5,2240.5C 870.639,2234.69 875.305,2230.69 881.5,2228.5C 885.767,2227.74 889.767,2226.41 893.5,2224.5C 906.482,2223.67 919.482,2223.34 932.5,2223.5 Z"/></g>
<g><path style="opacity:1" fill="#888888" d="M 1464.5,2244.5 C 1464.5,2237.5 1464.5,2230.5 1464.5,2223.5C 1451.48,2223.34 1438.48,2223.67 1425.5,2224.5C 1427.29,2223.69 1429.29,2223.19 1431.5,2223C 1442.83,2222.5 1454.16,2222.33 1465.5,2222.5C 1465.82,2230.02 1465.49,2237.35 1464.5,2244.5 Z"/></g>
<g><path style="opacity:1" fill="#fcfcfc" d="M 1464.5,2244.5 C 1463.82,2257.37 1458.15,2267.54 1447.5,2275C 1445.09,2276.71 1442.42,2277.54 1439.5,2277.5C 1430.36,2277.97 1421.36,2277.3 1412.5,2275.5C 1402.62,2270.94 1397.62,2263.11 1397.5,2252C 1397.32,2247.62 1398.16,2243.45 1400,2239.5C 1404.18,2234.14 1409.35,2230.14 1415.5,2227.5C 1419.16,2227.28 1422.5,2226.28 1425.5,2224.5C 1438.48,2223.67 1451.48,2223.34 1464.5,2223.5C 1464.5,2230.5 1464.5,2237.5 1464.5,2244.5 Z"/></g>
<g><path style="opacity:1" fill="#9b9b9b" d="M 1425.5,2224.5 C 1422.5,2226.28 1419.16,2227.28 1415.5,2227.5C 1418.5,2225.72 1421.84,2224.72 1425.5,2224.5 Z"/></g>
<g><path style="opacity:1" fill="#b5b5b5" d="M 893.5,2224.5 C 889.767,2226.41 885.767,2227.74 881.5,2228.5C 885.085,2226.19 889.085,2224.86 893.5,2224.5 Z"/></g>
<g><path style="opacity:1" fill="#a8a8a8" d="M 2032.5,2227.5 C 2002.67,2228.5 1972.67,2228.83 1942.5,2228.5C 1942.5,2232.17 1942.5,2235.83 1942.5,2239.5C 1941.52,2235.7 1941.18,2231.7 1941.5,2227.5C 1971.83,2227.5 2002.17,2227.5 2032.5,2227.5 Z"/></g>
<g><path style="opacity:1" fill="#555555" d="M 1665.5,2219.5 C 1665.32,2226.87 1665.65,2234.2 1666.5,2241.5C 1665.73,2240.74 1665.23,2239.74 1665,2238.5C 1664.18,2231.99 1664.35,2225.65 1665.5,2219.5 Z"/></g>
<g><path style="opacity:1" fill="#7d7d7d" d="M 2017.5,2248.5 C 2021.97,2247.51 2026.64,2247.18 2031.5,2247.5C 2031.78,2249.41 2031.45,2251.08 2030.5,2252.5C 2030.5,2251.17 2030.5,2249.83 2030.5,2248.5C 2026.17,2248.5 2021.83,2248.5 2017.5,2248.5 Z"/></g>
<g><path style="opacity:1" fill="#6e6e6e" d="M 867.5,2240.5 C 865.978,2246.05 865.312,2251.71 865.5,2257.5C 863.886,2251.6 864.552,2245.93 867.5,2240.5 Z"/></g>
<g><path style="opacity:1" fill="#b2b2b2" d="M 1412.5,2275.5 C 1421.36,2277.3 1430.36,2277.97 1439.5,2277.5C 1438.74,2278.27 1437.74,2278.77 1436.5,2279C 1431.5,2279.67 1426.5,2279.67 1421.5,2279C 1418.14,2278.49 1415.14,2277.33 1412.5,2275.5 Z"/></g>
<g><path style="opacity:1" fill="#626262" d="M 1465.5,2270.5 C 1465.56,2269.96 1465.89,2269.62 1466.5,2269.5C 1468.07,2273.69 1468.73,2278.02 1468.5,2282.5C 1467.32,2278.54 1466.32,2274.54 1465.5,2270.5 Z"/></g>
<g><path style="opacity:1" fill="#aaaaaa" d="M 1199.5,2284.5 C 1195.78,2287.4 1191.45,2288.74 1186.5,2288.5C 1190.73,2287.2 1195.07,2285.87 1199.5,2284.5 Z"/></g>
<g><path style="opacity:1" fill="#a9a9a9" d="M 1743.5,2282.5 C 1744.43,2283.57 1744.77,2284.9 1744.5,2286.5C 1749.17,2286.5 1753.83,2286.5 1758.5,2286.5C 1753.69,2287.49 1748.69,2287.82 1743.5,2287.5C 1743.5,2285.83 1743.5,2284.17 1743.5,2282.5 Z"/></g>
<g><path style="opacity:1" fill="#999999" d="M 1445.5,2286.5 C 1443.98,2287.41 1442.31,2288.24 1440.5,2289C 1432.66,2289.82 1424.99,2289.66 1417.5,2288.5C 1426.92,2288.85 1436.26,2288.18 1445.5,2286.5 Z"/></g>
<g><path style="opacity:1" fill="#bfbfbf" d="M 2005.5,2284.5 C 2000.45,2287.79 1994.78,2289.63 1988.5,2290C 1983.5,2290.67 1978.5,2290.67 1973.5,2290C 1970.48,2289.9 1967.81,2289.07 1965.5,2287.5C 1979.13,2290.59 1992.47,2289.59 2005.5,2284.5 Z"/></g>
</svg>
