<svg width="115" height="114" xmlns="http://www.w3.org/2000/svg" xmlns:xlink="http://www.w3.org/1999/xlink" xml:space="preserve" overflow="hidden"><defs><clipPath id="clip0"><rect x="306" y="471" width="115" height="114"/></clipPath><clipPath id="clip1"><path d="M363.5 471C395.257 471 421 496.52 421 528 421 559.48 395.257 585 363.5 585 331.743 585 306 559.48 306 528 306 496.52 331.743 471 363.5 471Z" fill-rule="evenodd" clip-rule="evenodd"/></clipPath></defs><g clip-path="url(#clip0)" transform="translate(-306 -471)"><path d="M385.144 20.1547C416.624 20.1547 442.144 45.6745 442.144 77.1547 442.144 108.635 416.624 134.155 385.144 134.155 353.663 134.155 328.144 108.635 328.144 77.1547 328.144 45.6745 353.663 20.1547 385.144 20.1547Z" fill="#F2F2F2" fill-rule="evenodd" transform="matrix(1.00877 0 0 1 -25.0221 450.845)"/><g clip-path="url(#clip1)"><path d="M328.127 20.1383C366.127 20.1383 404.127 20.1383 442.127 20.1383 442.127 58.1384 442.127 96.1379 442.127 134.138 404.127 134.138 366.127 134.138 328.127 134.138 328.127 96.1379 328.127 58.1384 328.127 20.1383Z" fill="#FEFEFE" fill-rule="evenodd" transform="matrix(1.00877 0 0 1 -25.0221 450.845)"/><path d="M356.035 63.2171C354.949 63.2391 353.863 63.2612 352.776 63.2832 352.744 63.9905 352.733 64.7035 352.744 65.4221 352.415 65.4221 352.086 65.4221 351.757 65.4221 351.743 65.3988 351.721 65.3825 351.691 65.373 350.941 65.2118 350.184 65.14 349.42 65.1589 349.42 64.5227 349.42 63.8866 349.42 63.2505 349.277 63.2505 349.135 63.2505 348.992 63.2505 348.032 63.2612 347.078 63.2505 346.129 63.2171 347.093 62.495 348.047 61.7601 348.992 61.0124 349.014 61.0124 349.025 61.0015 349.025 60.9795 349.131 60.9103 349.23 60.8334 349.321 60.7491 349.343 60.7491 349.354 60.7383 349.354 60.7162 349.934 60.2844 350.51 59.8457 351.082 59.3998 352.729 60.6793 354.38 61.9519 356.035 63.2171Z" fill="#010101" fill-rule="evenodd" transform="matrix(1.00877 0 0 1 -25.0221 450.845)"/><path d="M349.354 60.7162C349.354 60.7383 349.343 60.7491 349.321 60.7491 349.222 60.7491 349.123 60.7491 349.025 60.7491 349.025 60.8258 349.025 60.9028 349.025 60.9795 349.025 61.0015 349.014 61.0124 348.992 61.0124 348.992 60.9137 348.992 60.8149 348.992 60.7162 349.113 60.7162 349.234 60.7162 349.354 60.7162Z" fill="#A7B6AC" fill-rule="evenodd" transform="matrix(1.00877 0 0 1 -25.0221 450.845)"/><path d="M365.776 60.7491C369.347 60.7106 372.923 60.7053 376.505 60.7326 376.834 60.7517 377.163 60.7738 377.492 60.7985 377.63 60.8159 377.762 60.8432 377.887 60.8807 377.405 60.8313 376.923 60.7932 376.439 60.7655 372.929 60.7491 369.419 60.7435 365.908 60.7491 365.897 60.7491 365.886 60.7491 365.875 60.7491 365.842 60.7491 365.809 60.7491 365.776 60.7491Z" fill="#8D8D8D" fill-rule="evenodd" transform="matrix(1.00877 0 0 1 -25.0221 450.845)"/><path d="M365.908 60.7491C369.419 60.7435 372.929 60.7491 376.439 60.7655 376.923 60.7932 377.405 60.8313 377.887 60.8807 377.909 60.8807 377.931 60.8807 377.953 60.8807 378.066 60.9199 378.187 60.9416 378.315 60.9465 380.789 61.3132 382.714 62.5308 384.091 64.5996 384.482 65.2609 384.772 65.9625 384.963 66.7057 384.96 66.7933 384.982 66.8701 385.028 66.9363 385.028 66.9583 385.028 66.9797 385.028 67.0018 385.018 67.0918 385.04 67.1687 385.095 67.2323 385.095 67.2543 385.095 67.2764 385.095 67.2984 385.128 67.6329 385.171 67.9623 385.226 68.2854 385.226 68.6803 385.226 69.0752 385.226 69.4701 385.191 69.6949 385.169 69.9248 385.16 70.1616 385.16 70.2164 385.16 70.2712 385.16 70.326 385.092 70.5251 385.048 70.7335 385.028 70.9515 384.489 73.5533 382.985 75.3414 380.52 76.3158 380.268 76.3844 380.027 76.4726 379.796 76.579 379.733 76.5696 379.678 76.5803 379.631 76.6118 379.544 76.6086 379.467 76.6307 379.401 76.6773 378.416 76.9116 377.418 77.0432 376.406 77.0722 374.086 77.0615 371.771 77.0722 369.462 77.1056 369.429 78.2953 369.419 79.4914 369.429 80.6925 369.181 81.0005 369.012 81.3513 368.919 81.7456 368.847 82.4541 368.759 83.1564 368.656 83.8517 368.166 84.5395 367.651 85.2084 367.109 85.8596 367.093 85.8905 367.088 85.9232 367.093 85.9579 366.941 86.1078 366.803 86.2722 366.681 86.4517 366.504 86.5405 366.346 86.6557 366.204 86.7975 366.179 86.8938 366.124 86.965 366.04 87.011 365.995 87.011 365.951 87.011 365.908 87.011 365.908 78.2569 365.908 69.5028 365.908 60.7491Z" fill-rule="evenodd" transform="matrix(1.00877 0 0 1 -25.0221 450.845)"/><path d="M349.321 60.7491C349.23 60.8334 349.131 60.9103 349.025 60.9795 349.025 60.9028 349.025 60.8258 349.025 60.7491 349.123 60.7491 349.222 60.7491 349.321 60.7491Z" fill="#526957" fill-rule="evenodd" transform="matrix(1.00877 0 0 1 -25.0221 450.845)"/><path d="M377.953 60.8807C378.052 60.8755 378.151 60.8807 378.249 60.8972 378.279 60.9064 378.301 60.9229 378.315 60.9465 378.187 60.9416 378.066 60.9199 377.953 60.8807Z" fill="#9B9B9B" fill-rule="evenodd" transform="matrix(1.00877 0 0 1 -25.0221 450.845)"/><path d="M365.776 60.7491C365.809 60.7491 365.842 60.7491 365.875 60.7491 365.875 69.5362 365.875 78.323 365.875 87.1099 365.875 87.1319 365.875 87.1539 365.875 87.176 365.851 87.1306 365.829 87.0809 365.809 87.028 365.853 85.0938 365.853 83.1576 365.809 81.219 365.779 81.1819 365.751 81.1819 365.727 81.219 365.722 81.3387 365.694 81.4483 365.645 81.5484 365.686 81.1762 365.724 80.8027 365.76 80.4292 365.776 73.8695 365.782 67.3091 365.776 60.7491Z" fill="#58765F" fill-rule="evenodd" transform="matrix(1.00877 0 0 1 -25.0221 450.845)"/><path d="M365.875 60.7491C365.886 60.7491 365.897 60.7491 365.908 60.7491 365.908 69.5028 365.908 78.2569 365.908 87.011 365.951 87.011 365.995 87.011 366.04 87.011 366.012 87.1061 365.958 87.1388 365.875 87.1099 365.875 78.323 365.875 69.5362 365.875 60.7491Z" fill="#07140E" fill-rule="evenodd" transform="matrix(1.00877 0 0 1 -25.0221 450.845)"/><path d="M346.129 63.2171C347.078 63.2505 348.032 63.2612 348.992 63.2505 348.992 63.2612 348.992 63.2725 348.992 63.2832 348.97 63.2832 348.948 63.2832 348.926 63.2832 347.983 63.2939 347.039 63.2832 346.096 63.2505 346.1 63.2303 346.111 63.2196 346.129 63.2171Z" fill="#7F7F7F" fill-rule="evenodd" transform="matrix(1.00877 0 0 1 -25.0221 450.845)"/><path d="M356.035 63.2171C356.053 63.2196 356.064 63.2303 356.068 63.2505 354.982 63.2832 353.896 63.2939 352.81 63.2832 352.821 64.0126 352.81 64.7369 352.776 65.4555 352.776 64.7312 352.776 64.0069 352.776 63.2832 353.863 63.2612 354.949 63.2391 356.035 63.2171Z" fill="#8F8F8F" fill-rule="evenodd" transform="matrix(1.00877 0 0 1 -25.0221 450.845)"/><path d="M348.926 63.2832C348.948 63.2832 348.97 63.2832 348.992 63.2832 348.987 69.0424 348.992 74.8016 349.009 80.5608 349.016 80.6125 349.032 80.6559 349.058 80.6925 349.058 80.8682 349.058 81.0439 349.058 81.219 348.981 81.1837 348.97 81.1289 349.025 81.0546 349 80.9243 348.983 80.7926 348.975 80.6597 348.97 74.8652 348.953 69.0733 348.926 63.2832Z" fill="#F5FEF7" fill-rule="evenodd" transform="matrix(1.00877 0 0 1 -25.0221 450.845)"/><path d="M348.992 63.2832C349.123 63.2832 349.255 63.2832 349.387 63.2832 349.387 63.9307 349.387 64.5775 349.387 65.225 349.387 65.3012 349.387 65.3787 349.387 65.4555 349.354 64.7482 349.343 64.0346 349.354 63.316 349.255 63.316 349.157 63.316 349.058 63.316 349.058 69.1079 349.058 74.9005 349.058 80.6925 349.032 80.6559 349.016 80.6125 349.009 80.5608 348.992 74.8016 348.987 69.0424 348.992 63.2832Z" fill="#6E8A77" fill-rule="evenodd" transform="matrix(1.00877 0 0 1 -25.0221 450.845)"/><path d="M376.373 63.6781C376.548 63.6888 376.724 63.7002 376.9 63.7109 377.017 63.7411 377.138 63.7525 377.262 63.7436 377.351 63.7902 377.45 63.8123 377.558 63.8098 379.005 64.0529 380.107 64.7986 380.865 66.0476 381.779 67.6675 381.922 69.3567 381.293 71.1158 380.848 72.3667 380.009 73.2333 378.775 73.7158 378.615 73.7586 378.461 73.8128 378.315 73.8802 377.974 73.9495 377.635 74.0206 377.295 74.0943 376.934 74.1372 376.572 74.1642 376.209 74.1762 373.982 74.1762 371.755 74.1762 369.528 74.1762 369.528 70.6768 369.528 67.1775 369.528 63.6781 371.809 63.6781 374.091 63.6781 376.373 63.6781Z" fill="#FEFEFE" fill-rule="evenodd" transform="matrix(1.00877 0 0 1 -25.0221 450.845)"/><path d="M376.373 63.6781C376.373 63.6674 376.373 63.6561 376.373 63.6454 376.558 63.634 376.733 63.6555 376.9 63.7109 376.724 63.7002 376.548 63.6888 376.373 63.6781Z" fill="#616161" fill-rule="evenodd" transform="matrix(1.00877 0 0 1 -25.0221 450.845)"/><path d="M369.495 63.6454C371.788 63.6454 374.081 63.6454 376.373 63.6454 376.373 63.6561 376.373 63.6674 376.373 63.6781 374.091 63.6781 371.809 63.6781 369.528 63.6781 369.528 67.1775 369.528 70.6768 369.528 74.1762 369.495 70.6712 369.484 67.1611 369.495 63.6454Z" fill="#C3CAC4" fill-rule="evenodd" transform="matrix(1.00877 0 0 1 -25.0221 450.845)"/><path d="M377.262 63.7436C377.37 63.7411 377.469 63.7632 377.558 63.8098 377.45 63.8123 377.351 63.7902 377.262 63.7436Z" fill="#7E7E7E" fill-rule="evenodd" transform="matrix(1.00877 0 0 1 -25.0221 450.845)"/><path d="M369.495 63.6454C369.484 67.1611 369.495 70.6712 369.528 74.1762 371.755 74.1762 373.982 74.1762 376.209 74.1762 373.958 74.2203 371.703 74.2203 369.446 74.1762 369.424 70.6768 369.424 67.1775 369.446 63.6781 369.458 63.6599 369.475 63.6485 369.495 63.6454Z" fill="#5C665E" fill-rule="evenodd" transform="matrix(1.00877 0 0 1 -25.0221 450.845)"/><path d="M348.992 63.2832C348.992 63.2725 348.992 63.2612 348.992 63.2505 349.135 63.2505 349.277 63.2505 349.42 63.2505 349.42 63.8866 349.42 64.5227 349.42 65.1589 350.184 65.14 350.941 65.2118 351.691 65.373 351.721 65.3825 351.743 65.3988 351.757 65.4221 350.998 65.4165 350.241 65.3781 349.486 65.3069 349.447 65.2842 349.414 65.2565 349.387 65.225 349.387 64.5775 349.387 63.9307 349.387 63.2832 349.255 63.2832 349.123 63.2832 348.992 63.2832Z" fill="#0C140E" fill-rule="evenodd" transform="matrix(1.00877 0 0 1 -25.0221 450.845)"/><path d="M352.776 63.2832C352.776 64.0069 352.776 64.7312 352.776 65.4555 352.755 65.4555 352.733 65.4555 352.711 65.4555 351.603 65.4555 350.495 65.4555 349.387 65.4555 349.387 65.3787 349.387 65.3012 349.387 65.225 349.414 65.2565 349.447 65.2842 349.486 65.3069 350.241 65.3781 350.998 65.4165 351.757 65.4221 352.086 65.4221 352.415 65.4221 352.744 65.4221 352.733 64.7035 352.744 63.9905 352.776 63.2832Z" fill="#1B271D" fill-rule="evenodd" transform="matrix(1.00877 0 0 1 -25.0221 450.845)"/><path d="M349.387 65.4555C350.105 65.4826 350.83 65.499 351.559 65.5046 351.696 65.5418 351.839 65.5588 351.987 65.5538 352.136 65.5525 352.285 65.5412 352.431 65.521 352.47 65.5544 352.508 65.5872 352.547 65.6199 352.587 65.5953 352.631 65.584 352.678 65.5872 352.667 70.4192 352.678 75.2457 352.711 80.067 352.7 80.1943 352.712 80.3152 352.744 80.4292 352.855 83.7207 354.522 85.6732 357.746 86.2873 357.891 86.3358 358.045 86.3578 358.207 86.3528 358.512 86.3742 358.82 86.3849 359.128 86.3862 359.552 86.3918 359.969 86.3698 360.379 86.32 361.698 86.1865 362.871 85.7097 363.9 84.8884 364.888 83.9827 365.469 82.8698 365.645 81.5484 365.694 81.4483 365.722 81.3387 365.727 81.219 365.751 81.1819 365.779 81.1819 365.809 81.219 365.853 83.1576 365.853 85.0938 365.809 87.028 365.829 87.0809 365.851 87.1306 365.875 87.176 365.875 87.2415 365.875 87.3076 365.875 87.3731 366.091 87.1905 366.31 87.004 366.533 86.8138 366.562 86.7868 366.573 86.754 366.566 86.715 366.71 86.6305 366.831 86.5153 366.928 86.3692 367.146 86.1897 367.36 86.0089 367.57 85.8263 367.68 85.6713 367.807 85.529 367.948 85.3986 368.037 85.2745 368.114 85.1429 368.178 85.0037 368.206 84.9747 368.238 84.9634 368.277 84.9709 368.176 85.1164 368.088 85.2701 368.014 85.4314 366.832 86.9562 365.329 88.0477 363.505 88.7058 362.959 88.9156 362.399 89.0749 361.827 89.1833 361.604 89.2097 361.379 89.2097 361.153 89.1833 361.127 89.204 361.1 89.2204 361.07 89.2324 360.791 89.2481 360.517 89.2872 360.248 89.3476 359.476 89.3445 358.713 89.3445 357.96 89.3476 357.755 89.3344 357.563 89.2796 357.384 89.1833 357.211 89.2229 357.041 89.2116 356.874 89.1505 356.773 89.187 356.669 89.1927 356.561 89.1669 356.377 89.1385 356.201 89.0844 356.035 89.0025 355.857 88.9849 355.681 88.9578 355.508 88.92 353.877 88.4476 352.457 87.6137 351.247 86.4189 350.542 85.6556 350.01 84.7889 349.65 83.819 349.575 83.5595 349.487 83.3069 349.387 83.0619 349.245 82.4497 349.135 81.835 349.058 81.219 349.058 81.0439 349.058 80.8682 349.058 80.6925 349.058 74.9005 349.058 69.1079 349.058 63.316 349.157 63.316 349.255 63.316 349.354 63.316 349.343 64.0346 349.354 64.7482 349.387 65.4555Z" fill="#4D7558" fill-rule="evenodd" transform="matrix(1.00877 0 0 1 -25.0221 450.845)"/><path d="M352.711 65.4555C352.733 65.4555 352.755 65.4555 352.776 65.4555 352.744 70.4444 352.733 75.4352 352.744 80.4292 352.712 80.3152 352.7 80.1943 352.711 80.067 352.711 75.1965 352.711 70.326 352.711 65.4555Z" fill="#B3C4B4" fill-rule="evenodd" transform="matrix(1.00877 0 0 1 -25.0221 450.845)"/><path d="M349.387 65.4555C350.495 65.4555 351.603 65.4555 352.711 65.4555 352.711 70.326 352.711 75.1965 352.711 80.067 352.678 75.2457 352.667 70.4192 352.678 65.5872 352.631 65.584 352.587 65.5953 352.547 65.6199 352.508 65.5872 352.47 65.5544 352.431 65.521 352.285 65.5412 352.136 65.5525 351.987 65.5538 351.839 65.5588 351.696 65.5418 351.559 65.5046 350.83 65.499 350.105 65.4826 349.387 65.4555Z" fill="#517059" fill-rule="evenodd" transform="matrix(1.00877 0 0 1 -25.0221 450.845)"/><path d="M384.963 66.7057C385.009 66.7719 385.032 66.8487 385.028 66.9363 384.982 66.8701 384.96 66.7933 384.963 66.7057Z" fill="#686868" fill-rule="evenodd" transform="matrix(1.00877 0 0 1 -25.0221 450.845)"/><path d="M385.028 67.0018C385.075 67.0679 385.097 67.1454 385.095 67.2323 385.04 67.1687 385.018 67.0918 385.028 67.0018Z" fill="#707070" fill-rule="evenodd" transform="matrix(1.00877 0 0 1 -25.0221 450.845)"/><path d="M385.095 67.2984C385.178 67.6177 385.221 67.9465 385.226 68.2854 385.171 67.9623 385.128 67.6329 385.095 67.2984Z" fill="#777777" fill-rule="evenodd" transform="matrix(1.00877 0 0 1 -25.0221 450.845)"/><path d="M417.214 69.0424C417.335 69.1079 417.456 69.1741 417.576 69.2396 417.63 69.2717 417.674 69.3158 417.708 69.3712 417.606 69.317 417.496 69.2793 417.379 69.2566 417.309 69.1445 417.204 69.0953 417.066 69.1079 416.776 69.147 416.485 69.1797 416.194 69.2068 416.529 69.1369 416.869 69.0821 417.214 69.0424Z" fill="#636364" fill-rule="evenodd" transform="matrix(1.00877 0 0 1 -25.0221 450.845)"/><path d="M417.214 69.0424C416.869 69.0821 416.529 69.1369 416.194 69.2068 416.172 69.2068 416.15 69.2068 416.128 69.2068 415.898 69.2352 415.669 69.2572 415.437 69.2729 415.958 69.1464 416.49 69.0588 417.033 69.0097 417.1 69.0097 417.161 69.0204 417.214 69.0424Z" fill="#D1D1D1" fill-rule="evenodd" transform="matrix(1.00877 0 0 1 -25.0221 450.845)"/><path d="M417.708 69.3712C417.925 69.5274 418.155 69.6641 418.399 69.7831 418.528 69.899 418.665 70.0029 418.81 70.0955 418.979 70.207 419.16 70.3002 419.354 70.3752 419.411 70.4728 419.499 70.5219 419.617 70.5232 419.732 70.5975 419.853 70.6636 419.978 70.7209 420.011 70.7638 420.044 70.8079 420.077 70.8526 420.351 70.9779 420.603 71.1373 420.834 71.3294 421.004 71.4062 421.168 71.4881 421.328 71.5762 421.413 71.6764 421.522 71.7369 421.657 71.7576 421.738 71.8767 421.847 71.9485 421.986 71.9712 421.986 72.0152 421.986 72.0593 421.986 72.1028 422.129 72.174 422.283 72.2288 422.447 72.2678 422.507 72.3176 422.573 72.361 422.645 72.3994 422.842 72.5311 423.04 72.6684 423.237 72.8107 423.291 72.8309 423.346 72.8473 423.402 72.8599 423.616 73.028 423.847 73.1704 424.093 73.2875 424.103 73.3089 424.113 73.331 424.125 73.3536 423.895 73.3971 423.664 73.4412 423.434 73.4853 422.806 73.5546 422.181 73.6427 421.559 73.7486 421.457 74.0471 421.38 74.3545 421.328 74.67 421.333 74.7204 421.355 74.7531 421.394 74.7689 421.473 74.8879 421.501 75.0196 421.476 75.1638 421.326 75.2898 421.265 75.4548 421.295 75.6576 421.295 75.6683 421.295 75.6796 421.295 75.6903 421.257 75.7817 421.235 75.8799 421.229 75.9864 421.197 75.9864 421.164 75.9864 421.13 75.9864 421.107 76.2597 421.095 76.5343 421.098 76.8089 421.098 76.8203 421.098 76.831 421.098 76.8423 421.04 76.9406 421.001 77.0508 420.982 77.1711 420.966 77.3789 420.96 77.588 420.966 77.7965 420.939 78.0037 420.928 78.2122 420.933 78.4219 420.942 78.4843 420.931 78.5397 420.9 78.5863 420.877 78.6002 420.86 78.6216 420.851 78.6518 420.811 78.8893 420.772 79.1248 420.736 79.3597 420.659 79.3868 420.583 79.4145 420.505 79.4423 420.363 79.4164 420.22 79.3944 420.077 79.3761 420.034 79.3434 419.99 79.31 419.946 79.2772 419.98 79.0234 420.024 78.7715 420.077 78.5202 420.099 78.3999 420.121 78.279 420.144 78.1587 420.175 78.0736 420.224 77.9968 420.292 77.9281 420.319 77.8418 420.335 77.7543 420.341 77.6649 420.361 77.6611 420.378 77.6504 420.39 77.6321 420.447 77.3525 420.519 77.0785 420.604 76.8089 420.862 76.2251 420.96 75.611 420.9 74.966 420.927 74.8457 420.998 74.7582 421.114 74.7028 421.178 74.4086 421.227 74.1126 421.262 73.814 420.838 73.8714 420.421 73.9482 420.012 74.0446 419.751 74.0509 419.499 74.0836 419.255 74.1435 418.775 74.2253 418.292 74.2965 417.807 74.3576 417.661 74.4017 417.519 74.4401 417.379 74.4722 417.255 74.5151 417.123 74.5371 416.984 74.5384 416.665 74.5736 416.347 74.6171 416.029 74.67 415.919 74.6146 415.809 74.5598 415.701 74.5056 415.635 74.3463 415.514 74.2581 415.339 74.2423 415.339 74.209 415.339 74.1762 415.339 74.1435 415.272 74.1435 415.207 74.1435 415.141 74.1435 414.983 73.9961 414.808 73.8758 414.614 73.7813 414.603 73.7813 414.592 73.7813 414.581 73.7813 414.567 73.7498 414.545 73.7227 414.516 73.6994 414.365 73.6081 414.212 73.5262 414.055 73.4525 413.829 73.336 413.609 73.2044 413.397 73.0576 413.354 73.0249 413.31 72.9921 413.265 72.9587 413.19 72.8611 413.091 72.8069 412.969 72.7944 412.954 72.7622 412.932 72.7351 412.903 72.7118 412.754 72.623 412.601 72.5412 412.443 72.465 412.312 72.3698 412.17 72.293 412.015 72.2344 411.884 72.1444 411.752 72.0511 411.619 71.9548 411.588 71.939 411.556 71.9334 411.521 71.9384 411.495 71.8962 411.462 71.8578 411.422 71.8232 411.204 71.723 410.996 71.6077 410.797 71.478 410.641 71.3331 410.465 71.2122 410.27 71.1158 410.144 71.017 410.012 70.9237 409.875 70.8362 409.833 70.8198 409.789 70.8141 409.744 70.8198 409.693 70.8123 409.649 70.7902 409.612 70.7537 409.454 70.6409 409.29 70.5421 409.118 70.4577 409.118 70.4249 409.118 70.3915 409.118 70.3588 409.702 70.2958 410.273 70.1969 410.83 70.0628 411.117 70.042 411.402 70.0092 411.685 69.9639 411.699 69.984 411.721 69.9954 411.752 69.9966 412.107 69.9469 412.458 69.8807 412.805 69.7995 412.855 69.8052 412.904 69.8159 412.953 69.8322 413.132 69.773 413.312 69.7182 413.496 69.6679 413.539 69.6786 413.583 69.6899 413.627 69.7006 414.093 69.608 414.554 69.5091 415.009 69.4046 415.009 69.3932 415.009 69.3825 415.009 69.3712 415.391 69.3435 415.764 69.2881 416.128 69.2068 416.15 69.2068 416.172 69.2068 416.194 69.2068 416.485 69.1797 416.776 69.147 417.066 69.1079 417.204 69.0953 417.309 69.1445 417.379 69.2566 417.496 69.2793 417.606 69.317 417.708 69.3712Z" fill="#313133" fill-rule="evenodd" transform="matrix(1.00877 0 0 1 -25.0221 450.845)"/><path d="M416.128 69.2068C415.764 69.2881 415.391 69.3435 415.009 69.3712 415.086 69.3492 415.163 69.3277 415.24 69.3057 415.313 69.3151 415.379 69.3044 415.437 69.2729 415.669 69.2572 415.898 69.2352 416.128 69.2068Z" fill="#909090" fill-rule="evenodd" transform="matrix(1.00877 0 0 1 -25.0221 450.845)"/><path d="M415.24 69.3057C415.163 69.3277 415.086 69.3492 415.009 69.3712 415.009 69.3825 415.009 69.3932 415.009 69.4046 414.702 69.4373 414.395 69.4701 414.088 69.5028 414.46 69.392 414.843 69.3259 415.24 69.3057Z" fill="#D3D3D4" fill-rule="evenodd" transform="matrix(1.00877 0 0 1 -25.0221 450.845)"/><path d="M414.088 69.5028C413.628 69.625 413.157 69.7025 412.673 69.7334 413.137 69.6313 413.608 69.5545 414.088 69.5028Z" fill="#C2C2C3" fill-rule="evenodd" transform="matrix(1.00877 0 0 1 -25.0221 450.845)"/><path d="M415.009 69.4046C414.554 69.5091 414.093 69.608 413.627 69.7006 413.583 69.6899 413.539 69.6786 413.496 69.6679 413.312 69.7182 413.132 69.773 412.953 69.8322 412.904 69.8159 412.855 69.8052 412.805 69.7995 412.458 69.8807 412.107 69.9469 411.752 69.9966 411.721 69.9954 411.699 69.984 411.685 69.9639 411.728 69.9721 411.761 69.9607 411.784 69.9311 412.041 69.877 412.305 69.8329 412.574 69.7995 412.625 69.7945 412.657 69.7724 412.673 69.7334 413.157 69.7025 413.628 69.625 414.088 69.5028 414.395 69.4701 414.702 69.4373 415.009 69.4046Z" fill="#565658" fill-rule="evenodd" transform="matrix(1.00877 0 0 1 -25.0221 450.845)"/><path d="M412.673 69.7334C412.657 69.7724 412.625 69.7945 412.574 69.7995 412.305 69.8329 412.041 69.877 411.784 69.9311 411.466 69.9607 411.148 69.9941 410.83 70.03 410.923 70.0029 411.016 69.9702 411.11 69.9311 411.15 69.9355 411.189 69.9469 411.224 69.9639 411.37 69.9009 411.523 69.8631 411.685 69.8486 412.014 69.8052 412.344 69.7661 412.673 69.7334Z" fill="#D2D2D3" fill-rule="evenodd" transform="matrix(1.00877 0 0 1 -25.0221 450.845)"/><path d="M411.784 69.9311C411.761 69.9607 411.728 69.9721 411.685 69.9639 411.402 70.0092 411.117 70.042 410.83 70.0628 410.83 70.0521 410.83 70.0407 410.83 70.03 411.148 69.9941 411.466 69.9607 411.784 69.9311Z" fill="#8B8B8C" fill-rule="evenodd" transform="matrix(1.00877 0 0 1 -25.0221 450.845)"/><path d="M385.226 69.4701C385.236 69.7088 385.214 69.9387 385.16 70.1616 385.169 69.9248 385.191 69.6949 385.226 69.4701Z" fill="#848484" fill-rule="evenodd" transform="matrix(1.00877 0 0 1 -25.0221 450.845)"/><path d="M417.576 69.2396C417.855 69.3164 418.085 69.4644 418.267 69.6842 418.347 69.6905 418.423 69.7069 418.498 69.7334 418.629 69.8631 418.772 69.9784 418.925 70.0791 419.039 70.1081 419.148 70.1465 419.255 70.1944 419.28 70.2316 419.302 70.2693 419.32 70.3097 419.424 70.3821 419.522 70.4539 419.617 70.5232 419.499 70.5219 419.411 70.4728 419.354 70.3752 419.16 70.3002 418.979 70.207 418.81 70.0955 418.665 70.0029 418.528 69.899 418.399 69.7831 418.155 69.6641 417.925 69.5274 417.708 69.3712 417.674 69.3158 417.63 69.2717 417.576 69.2396Z" fill="#BCBCBC" fill-rule="evenodd" transform="matrix(1.00877 0 0 1 -25.0221 450.845)"/><path d="M410.83 70.0628C410.273 70.1969 409.702 70.2958 409.118 70.3588 409.118 70.3915 409.118 70.4249 409.118 70.4577 409.29 70.5421 409.454 70.6409 409.612 70.7537 409.561 70.7531 409.511 70.7424 409.464 70.7209 409.336 70.651 409.21 70.5742 409.086 70.4904 409.028 70.447 409.016 70.3978 409.053 70.3424 409.635 70.2064 410.228 70.1131 410.83 70.0628Z" fill="#B3B3B3" fill-rule="evenodd" transform="matrix(1.00877 0 0 1 -25.0221 450.845)"/><path d="M385.16 70.326C385.14 70.5131 385.112 70.6995 385.078 70.8853 385.069 70.9156 385.052 70.9376 385.028 70.9515 385.048 70.7335 385.092 70.5251 385.16 70.326Z" fill="#6A6A6A" fill-rule="evenodd" transform="matrix(1.00877 0 0 1 -25.0221 450.845)"/><path d="M419.978 70.7209C420.135 70.8123 420.299 70.8891 420.472 70.9515 420.502 70.9779 420.513 71.0113 420.505 71.0497 420.654 71.0812 420.774 71.1637 420.867 71.2966 420.923 71.3073 420.977 71.3186 421.032 71.3294 421.14 71.403 421.239 71.4856 421.328 71.5762 421.168 71.4881 421.004 71.4062 420.834 71.3294 420.603 71.1373 420.351 70.9779 420.077 70.8526 420.044 70.8079 420.011 70.7638 419.978 70.7209Z" fill="#BFBFC0" fill-rule="evenodd" transform="matrix(1.00877 0 0 1 -25.0221 450.845)"/><path d="M409.744 70.8198C409.789 70.8141 409.833 70.8198 409.875 70.8362 410.012 70.9237 410.144 71.017 410.27 71.1158 410.118 71.0963 409.975 71.0522 409.843 70.9842 409.843 70.9401 409.843 70.896 409.843 70.8526 409.8 70.8601 409.767 70.8494 409.744 70.8198Z" fill="#A6A6A6" fill-rule="evenodd" transform="matrix(1.00877 0 0 1 -25.0221 450.845)"/><path d="M410.27 71.1158C410.465 71.2122 410.641 71.3331 410.797 71.478 410.728 71.4874 410.662 71.4767 410.6 71.4446 410.511 71.3564 410.412 71.2796 410.303 71.2147 410.283 71.1839 410.271 71.1511 410.27 71.1158Z" fill="#C1C1C1" fill-rule="evenodd" transform="matrix(1.00877 0 0 1 -25.0221 450.845)"/><path d="M410.797 71.478C410.996 71.6077 411.204 71.723 411.422 71.8232 411.462 71.8578 411.495 71.8962 411.521 71.9384 411.364 71.8647 411.211 71.7822 411.06 71.6915 410.961 71.6285 410.874 71.5574 410.797 71.478Z" fill="#AEAEAF" fill-rule="evenodd" transform="matrix(1.00877 0 0 1 -25.0221 450.845)"/><path d="M421.986 71.9712C422.115 72.0738 422.257 72.1507 422.414 72.2017 422.441 72.2168 422.451 72.2388 422.447 72.2678 422.283 72.2288 422.129 72.174 421.986 72.1028 421.986 72.0593 421.986 72.0152 421.986 71.9712Z" fill="#656567" fill-rule="evenodd" transform="matrix(1.00877 0 0 1 -25.0221 450.845)"/><path d="M412.015 72.2344C412.17 72.293 412.312 72.3698 412.443 72.465 412.38 72.4675 412.32 72.4561 412.261 72.4322 412.202 72.3724 412.131 72.3339 412.048 72.3169 412.023 72.2949 412.012 72.2678 412.015 72.2344Z" fill="#B4B4B5" fill-rule="evenodd" transform="matrix(1.00877 0 0 1 -25.0221 450.845)"/><path d="M412.443 72.465C412.601 72.5412 412.754 72.623 412.903 72.7118 412.932 72.7351 412.954 72.7622 412.969 72.7944 412.79 72.749 412.625 72.6722 412.475 72.5638 412.446 72.5368 412.435 72.504 412.443 72.465Z" fill="#ADADAD" fill-rule="evenodd" transform="matrix(1.00877 0 0 1 -25.0221 450.845)"/><path d="M422.645 72.3994C422.703 72.3944 422.757 72.4057 422.809 72.4322 423.012 72.5752 423.21 72.7175 423.402 72.8599 423.346 72.8473 423.291 72.8309 423.237 72.8107 423.04 72.6684 422.842 72.5311 422.645 72.3994Z" fill="#9E9E9F" fill-rule="evenodd" transform="matrix(1.00877 0 0 1 -25.0221 450.845)"/><path d="M412.969 72.7944C413.091 72.8069 413.19 72.8611 413.265 72.9587 413.133 72.9568 413.034 72.9021 412.969 72.7944Z" fill="#7E7E80" fill-rule="evenodd" transform="matrix(1.00877 0 0 1 -25.0221 450.845)"/><path d="M423.402 72.8599C423.495 72.88 423.588 72.9021 423.681 72.926 423.807 72.9965 423.922 73.079 424.026 73.1729 424.07 73.1993 424.092 73.2378 424.093 73.2875 423.847 73.1704 423.616 73.028 423.402 72.8599Z" fill="#C4C4C4" fill-rule="evenodd" transform="matrix(1.00877 0 0 1 -25.0221 450.845)"/><path d="M412.969 73.1893C412.778 73.1187 412.603 73.0198 412.443 72.8926 412.423 72.8995 412.407 72.9109 412.393 72.926 412.387 73.0343 412.359 73.1332 412.311 73.222 412.331 73.1023 412.342 72.9814 412.344 72.8599 412.492 72.8806 412.623 72.9411 412.739 73.0412 412.805 73.0633 412.87 73.0847 412.936 73.1068 412.961 73.1288 412.972 73.1559 412.969 73.1893Z" fill="#9F9F9F" fill-rule="evenodd" transform="matrix(1.00877 0 0 1 -25.0221 450.845)"/><path d="M412.969 73.1893C413.002 73.2277 413.047 73.2497 413.101 73.2548 413.184 73.3266 413.272 73.3977 413.364 73.4689 413.463 73.4865 413.55 73.525 413.627 73.5842 413.673 73.6295 413.728 73.6629 413.792 73.6824 413.887 73.7832 413.996 73.8651 414.121 73.9293 414.185 73.9564 414.251 73.9728 414.318 73.9791 414.32 74.0477 414.353 74.0968 414.417 74.1271 414.52 74.192 414.629 74.2417 414.746 74.2751 414.785 74.3028 414.828 74.3249 414.877 74.3406 414.94 74.4269 415.016 74.4981 415.108 74.5547 415.207 74.5516 415.272 74.5957 415.306 74.6864 415.405 74.704 415.492 74.7424 415.569 74.8016 415.676 74.8867 415.786 74.9692 415.898 75.0485 416.007 75.0542 416.117 75.0485 416.227 75.0322 416.241 75.0523 416.263 75.0636 416.293 75.0649 416.776 74.9553 417.259 74.8678 417.741 74.8016 417.883 74.7657 418.025 74.733 418.169 74.7028 418.381 74.6524 418.6 74.6196 418.827 74.6039 419.248 74.5736 419.665 74.5188 420.077 74.4395 420.058 74.6839 420.025 74.9251 419.978 75.1638 419.905 75.3275 419.872 75.5033 419.88 75.6903 419.88 75.701 419.88 75.7124 419.88 75.7231 419.831 75.8478 419.793 75.9794 419.765 76.118 419.752 76.1363 419.736 76.1476 419.715 76.1507 419.664 76.2635 419.604 76.3731 419.534 76.4801 419.45 76.5034 419.412 76.5589 419.419 76.6445 419.209 76.7718 419.011 76.9141 418.827 77.0722 418.628 77.161 418.43 77.2485 418.234 77.3355 417.869 77.428 417.496 77.4828 417.116 77.5005 416.742 77.5061 416.37 77.5005 415.997 77.4841 415.602 77.3991 415.207 77.3172 414.812 77.2372 414.813 77.2038 414.796 77.1824 414.763 77.1711 414.574 77.132 414.393 77.0772 414.219 77.0067 414.081 76.9557 413.949 76.8895 413.824 76.8089 413.738 76.7434 413.65 76.6773 413.561 76.6118 413.499 76.5797 413.433 76.5689 413.364 76.579 413.26 76.4304 413.128 76.3208 412.969 76.2496 412.914 76.1728 412.848 76.1073 412.771 76.0525 412.625 75.9171 412.504 75.7634 412.41 75.5914 412.398 75.5914 412.388 75.5914 412.376 75.5914 412.364 75.4485 412.309 75.3282 412.212 75.2293 412.19 75.1745 412.169 75.1197 412.147 75.0649 412.094 74.7109 412.105 74.3601 412.179 74.0118 412.179 73.9677 412.179 73.9236 412.179 73.8802 412.276 73.6875 412.319 73.4784 412.311 73.2548 412.311 73.2441 412.311 73.2327 412.311 73.222 412.359 73.1332 412.387 73.0343 412.393 72.926 412.407 72.9109 412.423 72.8995 412.443 72.8926 412.603 73.0198 412.778 73.1187 412.969 73.1893Z" fill="#313133" fill-rule="evenodd" transform="matrix(1.00877 0 0 1 -25.0221 450.845)"/><path d="M413.101 73.2548C413.253 73.2932 413.396 73.353 413.528 73.4361 413.558 73.4891 413.591 73.5382 413.627 73.5842 413.55 73.525 413.463 73.4865 413.364 73.4689 413.272 73.3977 413.184 73.3266 413.101 73.2548Z" fill="#CCCCCD" fill-rule="evenodd" transform="matrix(1.00877 0 0 1 -25.0221 450.845)"/><path d="M413.397 73.0576C413.609 73.2044 413.829 73.336 414.055 73.4525 414.151 73.518 414.239 73.5942 414.318 73.6824 414.099 73.5527 413.868 73.4374 413.627 73.3373 413.52 73.2686 413.443 73.1748 413.397 73.0576Z" fill="#CFCFCF" fill-rule="evenodd" transform="matrix(1.00877 0 0 1 -25.0221 450.845)"/><path d="M424.093 73.2875C424.18 73.2938 424.202 73.3322 424.158 73.4028 423.858 73.4916 423.55 73.5407 423.237 73.5508 423.303 73.5287 423.368 73.5073 423.434 73.4853 423.664 73.4412 423.895 73.3971 424.125 73.3536 424.113 73.331 424.103 73.3089 424.093 73.2875Z" fill="#CDCDCD" fill-rule="evenodd" transform="matrix(1.00877 0 0 1 -25.0221 450.845)"/><path d="M412.311 73.2548C412.319 73.4784 412.276 73.6875 412.179 73.8802 412.202 73.6931 412.23 73.5067 412.261 73.3209 412.271 73.2907 412.287 73.2686 412.311 73.2548Z" fill="#909092" fill-rule="evenodd" transform="matrix(1.00877 0 0 1 -25.0221 450.845)"/><path d="M414.055 73.4525C414.212 73.5262 414.365 73.6081 414.516 73.6994 414.545 73.7227 414.567 73.7498 414.581 73.7813 414.5 73.736 414.413 73.7032 414.318 73.6824 414.239 73.5942 414.151 73.518 414.055 73.4525Z" fill="#818182" fill-rule="evenodd" transform="matrix(1.00877 0 0 1 -25.0221 450.845)"/><path d="M378.775 73.7158C378.639 73.8084 378.486 73.8632 378.315 73.8802 378.461 73.8128 378.615 73.7586 378.775 73.7158Z" fill="#404040" fill-rule="evenodd" transform="matrix(1.00877 0 0 1 -25.0221 450.845)"/><path d="M413.792 73.6824C413.911 73.6925 414.02 73.7309 414.121 73.7977 414.323 73.974 414.531 74.1334 414.746 74.2751 414.629 74.2417 414.52 74.192 414.417 74.1271 414.353 74.0968 414.32 74.0477 414.318 73.9791 414.251 73.9728 414.185 73.9564 414.121 73.9293 413.996 73.8651 413.887 73.7832 413.792 73.6824Z" fill="#C7C7C7" fill-rule="evenodd" transform="matrix(1.00877 0 0 1 -25.0221 450.845)"/><path d="M420.9 74.966C420.889 74.966 420.879 74.966 420.867 74.966 420.879 74.8281 420.95 74.7292 421.081 74.67 421.106 74.4426 421.144 74.2178 421.197 73.9954 421.186 73.957 421.175 73.9186 421.164 73.8802 420.918 73.9192 420.676 73.9684 420.44 74.0282 420.297 74.0446 420.155 74.0502 420.012 74.0446 420.421 73.9482 420.838 73.8714 421.262 73.814 421.227 74.1126 421.178 74.4086 421.114 74.7028 420.998 74.7582 420.927 74.8457 420.9 74.966Z" fill="#939394" fill-rule="evenodd" transform="matrix(1.00877 0 0 1 -25.0221 450.845)"/><path d="M414.614 73.7813C414.808 73.8758 414.983 73.9961 415.141 74.1435 414.928 74.0735 414.753 73.9526 414.614 73.7813Z" fill="#909091" fill-rule="evenodd" transform="matrix(1.00877 0 0 1 -25.0221 450.845)"/><path d="M420.012 74.0446C420.008 74.0654 419.997 74.0817 419.978 74.0943 419.742 74.1227 419.512 74.1605 419.288 74.209 419.145 74.2234 419.003 74.2342 418.86 74.2423 418.99 74.2033 419.122 74.1705 419.255 74.1435 419.499 74.0836 419.751 74.0509 420.012 74.0446Z" fill="#9C9C9D" fill-rule="evenodd" transform="matrix(1.00877 0 0 1 -25.0221 450.845)"/><path d="M423.434 73.4853C423.368 73.5073 423.303 73.5287 423.237 73.5508 422.704 73.6402 422.167 73.7221 421.624 73.7977 421.58 73.85 421.557 73.9104 421.559 73.9791 421.462 74.2297 421.408 74.493 421.394 74.7689 421.355 74.7531 421.333 74.7204 421.328 74.67 421.38 74.3545 421.457 74.0471 421.559 73.7486 422.181 73.6427 422.806 73.5546 423.434 73.4853Z" fill="#787878" fill-rule="evenodd" transform="matrix(1.00877 0 0 1 -25.0221 450.845)"/><path d="M419.255 74.1435C419.122 74.1705 418.99 74.2033 418.86 74.2423 418.567 74.2965 418.271 74.34 417.971 74.374 417.874 74.3904 417.785 74.4231 417.708 74.4722 417.598 74.4722 417.489 74.4722 417.379 74.4722 417.519 74.4401 417.661 74.4017 417.807 74.3576 418.292 74.2965 418.775 74.2253 419.255 74.1435Z" fill="#777778" fill-rule="evenodd" transform="matrix(1.00877 0 0 1 -25.0221 450.845)"/><path d="M415.141 74.1435C415.207 74.1435 415.272 74.1435 415.339 74.1435 415.339 74.1762 415.339 74.209 415.339 74.2423 415.514 74.2581 415.635 74.3463 415.701 74.5056 415.519 74.3765 415.333 74.2562 415.141 74.1435Z" fill="#6D6C6F" fill-rule="evenodd" transform="matrix(1.00877 0 0 1 -25.0221 450.845)"/><path d="M419.288 74.209C419.196 74.2518 419.097 74.2852 418.992 74.3078 418.564 74.3658 418.136 74.4206 417.708 74.4722 417.785 74.4231 417.874 74.3904 417.971 74.374 418.271 74.34 418.567 74.2965 418.86 74.2423 419.003 74.2342 419.145 74.2234 419.288 74.209Z" fill="#D6D6D6" fill-rule="evenodd" transform="matrix(1.00877 0 0 1 -25.0221 450.845)"/><path d="M420.077 74.8678C420.034 74.9635 420.001 75.0618 419.978 75.1638 420.025 74.9251 420.058 74.6839 420.077 74.4395 419.665 74.5188 419.248 74.5736 418.827 74.6039 418.827 74.5932 418.827 74.5818 418.827 74.5711 419.236 74.5472 419.631 74.481 420.012 74.374 420.047 74.3431 420.091 74.3318 420.144 74.3406 420.133 74.5195 420.111 74.6946 420.077 74.8678Z" fill="#727273" fill-rule="evenodd" transform="matrix(1.00877 0 0 1 -25.0221 450.845)"/><path d="M414.877 74.3406C414.967 74.3576 415.049 74.3904 415.124 74.4395 415.245 74.5358 415.371 74.624 415.503 74.7028 415.526 74.7368 415.548 74.7695 415.569 74.8016 415.492 74.7424 415.405 74.704 415.306 74.6864 415.272 74.5957 415.207 74.5516 415.108 74.5547 415.016 74.4981 414.94 74.4269 414.877 74.3406Z" fill="#B4B4B5" fill-rule="evenodd" transform="matrix(1.00877 0 0 1 -25.0221 450.845)"/><path d="M420.012 74.374C419.631 74.481 419.236 74.5472 418.827 74.5711 418.827 74.5604 418.827 74.5491 418.827 74.5384 419.218 74.459 419.613 74.4042 420.012 74.374Z" fill="#A4A4A5" fill-rule="evenodd" transform="matrix(1.00877 0 0 1 -25.0221 450.845)"/><path d="M416.984 74.5384C416.98 74.5585 416.97 74.5755 416.951 74.5875 416.683 74.6316 416.414 74.67 416.145 74.7028 416.099 74.7028 416.061 74.6914 416.029 74.67 416.347 74.6171 416.665 74.5736 416.984 74.5384Z" fill="#979798" fill-rule="evenodd" transform="matrix(1.00877 0 0 1 -25.0221 450.845)"/><path d="M418.827 74.5384C418.827 74.5491 418.827 74.5604 418.827 74.5711 418.827 74.5818 418.827 74.5932 418.827 74.6039 418.6 74.6196 418.381 74.6524 418.169 74.7028 417.927 74.7191 417.686 74.7412 417.445 74.7689 417.889 74.6379 418.35 74.561 418.827 74.5384Z" fill="#D6D6D7" fill-rule="evenodd" transform="matrix(1.00877 0 0 1 -25.0221 450.845)"/><path d="M421.559 73.9791C421.536 74.2228 421.492 74.464 421.427 74.7028 421.515 74.8558 421.543 75.0202 421.509 75.1965 421.478 75.2608 421.434 75.3156 421.377 75.3609 421.364 75.468 421.336 75.5662 421.295 75.6576 421.265 75.4548 421.326 75.2898 421.476 75.1638 421.501 75.0196 421.473 74.8879 421.394 74.7689 421.408 74.493 421.462 74.2297 421.559 73.9791Z" fill="#9B9B9B" fill-rule="evenodd" transform="matrix(1.00877 0 0 1 -25.0221 450.845)"/><path d="M408.855 86.4844C406.419 86.4951 403.984 86.4838 401.549 86.4517 400.879 86.2489 400.381 85.8319 400.052 85.2015 399.954 84.9923 399.904 84.7732 399.904 84.5433 399.898 82.8755 399.904 81.2083 399.92 79.5405 400.005 79.3415 400.054 79.133 400.068 78.9151 400.43 78.2305 400.99 77.7971 401.747 77.6157 403.348 77.5987 404.95 77.5937 406.552 77.5987 406.584 76.6502 406.595 75.696 406.584 74.7361 407.338 74.7248 408.09 74.7361 408.839 74.7689 408.855 78.6739 408.861 82.5795 408.855 86.4844Z" fill="#4D7658" fill-rule="evenodd" transform="matrix(1.00877 0 0 1 -25.0221 450.845)"/><path d="M412.179 74.0118C412.105 74.3601 412.094 74.7109 412.147 75.0649 412.063 74.9345 412.03 74.7865 412.048 74.6209 412.028 74.3998 412.072 74.197 412.179 74.0118Z" fill="#B0B0B0" fill-rule="evenodd" transform="matrix(1.00877 0 0 1 -25.0221 450.845)"/><path d="M418.169 74.7028C418.025 74.733 417.883 74.7657 417.741 74.8016 417.489 74.8205 417.236 74.8426 416.984 74.8678 417.137 74.8293 417.29 74.7966 417.445 74.7689 417.686 74.7412 417.927 74.7191 418.169 74.7028Z" fill="#9E9E9F" fill-rule="evenodd" transform="matrix(1.00877 0 0 1 -25.0221 450.845)"/><path d="M406.584 74.7028C407.352 74.7028 408.121 74.7028 408.888 74.7028 408.899 78.6354 408.888 82.5631 408.855 86.4844 408.861 82.5795 408.855 78.6739 408.839 74.7689 408.09 74.7361 407.338 74.7248 406.584 74.7361 406.595 75.696 406.584 76.6502 406.552 77.5987 406.541 76.6282 406.552 75.6626 406.584 74.7028Z" fill="#5E7965" fill-rule="evenodd" transform="matrix(1.00877 0 0 1 -25.0221 450.845)"/><path d="M415.569 74.8016C415.614 74.7966 415.658 74.8023 415.701 74.818 415.794 74.8967 415.898 74.9572 416.013 74.9994 416.181 74.9604 416.351 74.9383 416.523 74.9333 416.427 74.9654 416.329 74.9981 416.227 75.0322 416.117 75.0485 416.007 75.0542 415.898 75.0485 415.786 74.9692 415.676 74.8867 415.569 74.8016Z" fill="#AFAFB0" fill-rule="evenodd" transform="matrix(1.00877 0 0 1 -25.0221 450.845)"/><path d="M417.741 74.8016C417.259 74.8678 416.776 74.9553 416.293 75.0649 416.263 75.0636 416.241 75.0523 416.227 75.0322 416.329 74.9981 416.427 74.9654 416.523 74.9333 416.684 74.932 416.838 74.91 416.984 74.8678 417.236 74.8426 417.489 74.8205 417.741 74.8016Z" fill="#6C6C6D" fill-rule="evenodd" transform="matrix(1.00877 0 0 1 -25.0221 450.845)"/><path d="M420.867 74.966C420.879 74.966 420.889 74.966 420.9 74.966 420.96 75.611 420.862 76.2251 420.604 76.8089 420.594 76.7188 420.605 76.6313 420.637 76.5456 420.683 76.4146 420.732 76.283 420.785 76.1507 420.802 76.0197 420.807 75.8881 420.802 75.7558 420.894 75.502 420.916 75.2387 420.867 74.966Z" fill="#5A5A5B" fill-rule="evenodd" transform="matrix(1.00877 0 0 1 -25.0221 450.845)"/><path d="M420.867 74.966C420.916 75.2387 420.894 75.502 420.802 75.7558 420.828 75.5417 420.828 75.3275 420.802 75.114 420.802 75.0523 420.824 75.0032 420.867 74.966Z" fill="#B1B1B1" fill-rule="evenodd" transform="matrix(1.00877 0 0 1 -25.0221 450.845)"/><path d="M412.212 75.2293C412.309 75.3282 412.364 75.4485 412.376 75.5914 412.332 75.5146 412.283 75.4384 412.228 75.3609 412.213 75.3187 412.207 75.2746 412.212 75.2293Z" fill="#909092" fill-rule="evenodd" transform="matrix(1.00877 0 0 1 -25.0221 450.845)"/><path d="M420.077 74.8678C420.04 75.1512 419.973 75.4252 419.88 75.6903 419.872 75.5033 419.905 75.3275 419.978 75.1638 420.001 75.0618 420.034 74.9635 420.077 74.8678Z" fill="#A0A0A0" fill-rule="evenodd" transform="matrix(1.00877 0 0 1 -25.0221 450.845)"/><path d="M412.41 75.5914C412.504 75.7634 412.625 75.9171 412.771 76.0525 412.576 75.9555 412.455 75.8018 412.41 75.5914Z" fill="#A8A8A8" fill-rule="evenodd" transform="matrix(1.00877 0 0 1 -25.0221 450.845)"/><path d="M421.295 75.6903C421.32 75.8428 421.282 75.9744 421.18 76.0852 421.148 76.3309 421.121 76.5721 421.098 76.8089 421.095 76.5343 421.107 76.2597 421.13 75.9864 421.164 75.9864 421.197 75.9864 421.229 75.9864 421.235 75.8799 421.257 75.7817 421.295 75.6903Z" fill="#A0A0A1" fill-rule="evenodd" transform="matrix(1.00877 0 0 1 -25.0221 450.845)"/><path d="M420.802 75.7558C420.807 75.8881 420.802 76.0197 420.785 76.1507 420.732 76.283 420.683 76.4146 420.637 76.5456 420.605 76.6313 420.594 76.7188 420.604 76.8089 420.582 76.8089 420.56 76.8089 420.538 76.8089 420.554 76.5601 420.625 76.3296 420.752 76.118 420.771 76.0399 420.765 75.9631 420.736 75.8875 420.741 75.8327 420.763 75.7892 420.802 75.7558Z" fill="#C1C1C2" fill-rule="evenodd" transform="matrix(1.00877 0 0 1 -25.0221 450.845)"/><path d="M412.969 76.2496C413.128 76.3208 413.26 76.4304 413.364 76.579 413.364 76.5897 413.364 76.6011 413.364 76.6118 413.28 76.5425 413.181 76.499 413.068 76.4801 413.035 76.4039 413.002 76.3271 412.969 76.2496Z" fill="#C6C6C6" fill-rule="evenodd" transform="matrix(1.00877 0 0 1 -25.0221 450.845)"/><path d="M380.52 76.3158C380.516 76.3359 380.506 76.3523 380.487 76.3649 380.259 76.4468 380.028 76.5179 379.796 76.579 380.027 76.4726 380.268 76.3844 380.52 76.3158Z" fill="#A3A3A3" fill-rule="evenodd" transform="matrix(1.00877 0 0 1 -25.0221 450.845)"/><path d="M419.88 75.7231C419.891 76.0922 419.759 76.3888 419.485 76.6118 419.548 76.5293 419.609 76.4411 419.666 76.3485 419.703 76.2874 419.72 76.2219 419.715 76.1507 419.736 76.1476 419.752 76.1363 419.765 76.118 419.793 75.9794 419.831 75.8478 419.88 75.7231Z" fill="#C5C5C5" fill-rule="evenodd" transform="matrix(1.00877 0 0 1 -25.0221 450.845)"/><path d="M419.715 76.1507C419.72 76.2219 419.703 76.2874 419.666 76.3485 419.609 76.4411 419.548 76.5293 419.485 76.6118 419.463 76.6225 419.441 76.6338 419.419 76.6445 419.412 76.5589 419.45 76.5034 419.534 76.4801 419.604 76.3731 419.664 76.2635 419.715 76.1507Z" fill="#767677" fill-rule="evenodd" transform="matrix(1.00877 0 0 1 -25.0221 450.845)"/><path d="M413.364 76.6118C413.364 76.6011 413.364 76.5897 413.364 76.579 413.433 76.5689 413.499 76.5797 413.561 76.6118 413.65 76.6773 413.738 76.7434 413.824 76.8089 413.664 76.7585 413.511 76.6924 413.364 76.6118Z" fill="#7E7E7F" fill-rule="evenodd" transform="matrix(1.00877 0 0 1 -25.0221 450.845)"/><path d="M379.631 76.6118C379.565 76.6584 379.488 76.6804 379.401 76.6773 379.467 76.6307 379.544 76.6086 379.631 76.6118Z" fill="#939393" fill-rule="evenodd" transform="matrix(1.00877 0 0 1 -25.0221 450.845)"/><path d="M419.419 76.6445C419.317 76.7642 419.207 76.8795 419.09 76.9903 419.02 77.0117 418.954 77.0394 418.893 77.0722 418.871 77.0722 418.849 77.0722 418.827 77.0722 419.011 76.9141 419.209 76.7718 419.419 76.6445Z" fill="#818182" fill-rule="evenodd" transform="matrix(1.00877 0 0 1 -25.0221 450.845)"/><path d="M376.406 77.0722C374.108 77.1056 371.804 77.1163 369.495 77.1056 369.506 78.2739 369.495 79.4366 369.462 80.5936 369.462 79.4309 369.462 78.2682 369.462 77.1056 371.771 77.0722 374.086 77.0615 376.406 77.0722Z" fill="#848684" fill-rule="evenodd" transform="matrix(1.00877 0 0 1 -25.0221 450.845)"/><path d="M414.219 77.0067C414.393 77.0772 414.574 77.132 414.763 77.1711 414.796 77.1824 414.813 77.2038 414.812 77.2372 414.596 77.1982 414.398 77.1213 414.219 77.0067Z" fill="#8F8F90" fill-rule="evenodd" transform="matrix(1.00877 0 0 1 -25.0221 450.845)"/><path d="M420.538 76.8423C420.472 77.0753 420.406 77.3059 420.341 77.5332 420.363 77.3222 420.402 77.1138 420.456 76.9078 420.47 76.8662 420.497 76.8448 420.538 76.8423Z" fill="#CBCBCB" fill-rule="evenodd" transform="matrix(1.00877 0 0 1 -25.0221 450.845)"/><path d="M414.812 77.2372C415.207 77.3172 415.602 77.3991 415.997 77.4841 416.37 77.5005 416.742 77.5061 417.116 77.5005 416.77 77.5326 416.419 77.5439 416.063 77.5332 415.689 77.4684 415.316 77.3972 414.944 77.3191 414.884 77.3128 414.84 77.2851 414.812 77.2372Z" fill="#7E7D7E" fill-rule="evenodd" transform="matrix(1.00877 0 0 1 -25.0221 450.845)"/><path d="M418.827 77.0722C418.849 77.0722 418.871 77.0722 418.893 77.0722 418.861 77.127 418.816 77.1704 418.761 77.2038 418.441 77.389 418.09 77.4872 417.708 77.5005 417.892 77.4759 418.068 77.4211 418.234 77.3355 418.43 77.2485 418.628 77.161 418.827 77.0722Z" fill="#DCDCDC" fill-rule="evenodd" transform="matrix(1.00877 0 0 1 -25.0221 450.845)"/><path d="M420.538 76.8089C420.56 76.8089 420.582 76.8089 420.604 76.8089 420.519 77.0785 420.447 77.3525 420.39 77.6321 420.378 77.6504 420.361 77.6611 420.341 77.6649 420.341 77.6208 420.341 77.5767 420.341 77.5332 420.406 77.3059 420.472 77.0753 420.538 76.8423 420.538 76.831 420.538 76.8203 420.538 76.8089Z" fill="#686869" fill-rule="evenodd" transform="matrix(1.00877 0 0 1 -25.0221 450.845)"/><path d="M421.098 76.8423C421.041 77.1005 421.019 77.3638 421.032 77.6321 421.01 77.6869 420.988 77.7417 420.966 77.7965 420.96 77.588 420.966 77.3789 420.982 77.1711 421.001 77.0508 421.04 76.9406 421.098 76.8423Z" fill="#787878" fill-rule="evenodd" transform="matrix(1.00877 0 0 1 -25.0221 450.845)"/><path d="M418.234 77.3355C418.068 77.4211 417.892 77.4759 417.708 77.5005 417.156 77.566 416.607 77.5767 416.063 77.5332 416.419 77.5439 416.77 77.5326 417.116 77.5005 417.496 77.4828 417.869 77.428 418.234 77.3355Z" fill="#AEAEAE" fill-rule="evenodd" transform="matrix(1.00877 0 0 1 -25.0221 450.845)"/><path d="M377.986 77.6321C376.219 77.622 374.453 77.6327 372.687 77.6649 372.746 77.6384 372.812 77.6214 372.885 77.6157 374.59 77.588 376.291 77.5937 377.986 77.6321Z" fill="#9BAEA1" fill-rule="evenodd" transform="matrix(1.00877 0 0 1 -25.0221 450.845)"/><path d="M383.153 77.6321C384.891 77.5987 386.636 77.588 388.385 77.5987 388.385 78.3885 388.385 79.1784 388.385 79.9688 386.784 79.9688 385.182 79.9688 383.58 79.9688 385.165 79.9354 386.756 79.9247 388.353 79.9354 388.353 79.1676 388.353 78.3999 388.353 77.6321 386.619 77.6321 384.886 77.6321 383.153 77.6321Z" fill="#90A497" fill-rule="evenodd" transform="matrix(1.00877 0 0 1 -25.0221 450.845)"/><path d="M417.214 77.6321C415.536 77.6264 413.858 77.6321 412.179 77.6485 411.966 77.6812 411.757 77.7304 411.554 77.7965 411.725 77.7008 411.912 77.6403 412.113 77.6157 413.819 77.588 415.519 77.5937 417.214 77.6321Z" fill="#97AA9D" fill-rule="evenodd" transform="matrix(1.00877 0 0 1 -25.0221 450.845)"/><path d="M377.986 77.6321C378.788 77.743 379.369 78.1599 379.73 78.8823 379.776 79.1563 379.836 79.4309 379.911 79.7055 379.927 82.5133 379.933 85.3218 379.927 88.1302 379.796 88.937 379.357 89.5127 378.611 89.8578 378.524 89.8887 378.436 89.9164 378.348 89.9403 378.161 89.9554 377.975 89.9718 377.788 89.9895 375.978 90.0058 374.168 90.0115 372.358 90.0058 372.358 89.2274 372.358 88.4482 372.358 87.6691 374.113 87.6691 375.869 87.6691 377.623 87.6691 377.623 87.2856 377.623 86.9014 377.623 86.5178 376.044 86.5178 374.464 86.5178 372.885 86.5178 371.809 86.303 371.168 85.6562 370.959 84.576 370.927 82.8087 370.938 81.0427 370.992 79.2772 371.226 78.5724 371.68 78.0623 372.358 77.7474 372.464 77.7027 372.573 77.6749 372.687 77.6649 374.453 77.6327 376.219 77.622 377.986 77.6321Z" fill="#4D7658" fill-rule="evenodd" transform="matrix(1.00877 0 0 1 -25.0221 450.845)"/><path d="M383.449 86.4844C382.724 86.4844 382.001 86.4844 381.276 86.4844 381.271 84.2907 381.276 82.097 381.293 79.9027 381.304 79.6835 381.315 79.4643 381.326 79.2445 381.441 79.0272 381.545 78.808 381.639 78.5863 381.828 78.3085 382.069 78.0894 382.363 77.9281 382.456 77.9086 382.549 77.8866 382.643 77.862 382.668 77.867 382.69 77.8777 382.708 77.8954 382.783 77.8211 382.866 77.7549 382.955 77.6976 383.03 77.7209 383.107 77.7152 383.185 77.6812 384.886 77.6592 386.586 77.6592 388.286 77.6812 388.302 77.6945 388.312 77.7115 388.319 77.7304 388.283 77.7858 388.261 77.8463 388.254 77.9118 388.286 78.5334 388.297 79.1538 388.286 79.771 388.266 79.8088 388.238 79.8416 388.204 79.8699 386.713 79.8712 385.21 79.8605 383.696 79.8372 383.607 79.8447 383.53 79.8775 383.465 79.9354 383.461 79.9883 383.478 80.0381 383.515 80.0834 383.51 80.1187 383.494 80.1458 383.465 80.1659 383.449 82.2721 383.443 84.3783 383.449 86.4844Z" fill="#4C7557" fill-rule="evenodd" transform="matrix(1.00877 0 0 1 -25.0221 450.845)"/><path d="M417.214 77.6321C418.109 77.7637 418.728 78.2462 419.074 79.0801 419.149 79.259 419.187 79.446 419.189 79.6394 419.189 80.8348 419.189 82.0309 419.189 83.2263 416.967 83.2156 414.751 83.2263 412.541 83.2597 412.514 83.4732 412.497 83.6924 412.492 83.9179 412.471 83.9664 412.443 84.0098 412.41 84.0495 412.438 84.1232 412.449 84.2 412.443 84.2794 413.205 84.3335 413.973 84.3222 414.746 84.2466 414.922 84.2687 415.097 84.2907 415.272 84.3128 416.412 84.2454 417.554 84.229 418.696 84.263 417.818 84.2743 416.94 84.285 416.063 84.2964 416.951 84.3184 417.84 84.3184 418.728 84.2964 418.798 84.246 418.874 84.2353 418.959 84.263 418.987 84.2964 418.997 84.3348 418.992 84.3783 419.024 84.3783 419.057 84.3783 419.09 84.3783 419.099 85.0812 419.089 85.7834 419.057 86.4844 416.699 86.4844 414.34 86.4844 411.982 86.4844 410.969 86.2048 410.372 85.5466 410.188 84.5099 410.156 82.7974 410.167 81.0861 410.221 79.3761 410.411 78.6317 410.856 78.1051 411.554 77.7965 411.757 77.7304 411.966 77.6812 412.179 77.6485 413.858 77.6321 415.536 77.6264 417.214 77.6321Z" fill="#4D7658" fill-rule="evenodd" transform="matrix(1.00877 0 0 1 -25.0221 450.845)"/><path d="M397.732 78.0598C398.213 78.3992 398.509 78.8597 398.62 79.4423 398.62 81.7896 398.62 84.137 398.62 86.4844 396.273 86.4844 393.925 86.4844 391.577 86.4844 391.491 86.4655 391.404 86.4542 391.314 86.4517 390.555 86.2281 390.034 85.7456 389.751 85.0037 389.697 84.8431 389.67 84.6787 389.669 84.5099 389.663 83.3359 389.669 82.1625 389.685 80.9885 389.702 80.9721 389.718 80.9557 389.734 80.9394 391.896 80.9123 394.057 80.9173 396.218 80.9557 396.391 80.9173 396.462 80.8077 396.432 80.627 396.421 80.649 396.409 80.6704 396.399 80.6925 396.382 80.4607 396.382 80.2302 396.399 80.0015 396.352 79.897 396.269 79.8422 396.152 79.8372 394.015 79.8693 391.876 79.8749 389.734 79.8535 389.718 79.8372 389.702 79.8202 389.685 79.8038 389.68 79.5134 389.674 79.2224 389.669 78.9321 389.67 78.6247 389.692 78.323 389.734 78.027 389.656 77.913 389.656 77.8034 389.734 77.6976 392.016 77.7417 394.297 77.7417 396.58 77.6976 396.713 77.719 396.845 77.7461 396.974 77.7801 396.953 77.7908 396.931 77.8022 396.909 77.8129 397.051 77.8236 397.194 77.8349 397.337 77.8456 397.434 77.9766 397.565 78.0478 397.732 78.0598Z" fill="#4C7558" fill-rule="evenodd" transform="matrix(1.00877 0 0 1 -25.0221 450.845)"/><path d="M420.341 77.6649C420.335 77.7543 420.319 77.8418 420.292 77.9281 420.224 77.9968 420.175 78.0736 420.144 78.1587 420.141 78.0957 420.152 78.0358 420.176 77.9773 420.244 77.8765 420.298 77.7726 420.341 77.6649Z" fill="#9C9C9C" fill-rule="evenodd" transform="matrix(1.00877 0 0 1 -25.0221 450.845)"/><path d="M421.032 77.6321C421.018 77.862 421.001 78.0925 420.982 78.323 420.975 78.364 420.959 78.3967 420.933 78.4219 420.928 78.2122 420.939 78.0037 420.966 77.7965 420.988 77.7417 421.01 77.6869 421.032 77.6321Z" fill="#BDBDBD" fill-rule="evenodd" transform="matrix(1.00877 0 0 1 -25.0221 450.845)"/><path d="M420.144 78.1587C420.121 78.279 420.099 78.3999 420.077 78.5202 420.019 78.716 419.954 78.9138 419.88 79.1128 419.886 79.1563 419.891 79.2004 419.897 79.2445 419.909 79.2627 419.926 79.2735 419.946 79.2772 419.99 79.31 420.034 79.3434 420.077 79.3761 420.099 79.3982 420.121 79.4196 420.144 79.4423 420.079 79.4498 420.018 79.4391 419.962 79.4089 419.942 79.356 419.909 79.3119 419.864 79.2772 419.843 79.0165 419.876 78.7639 419.962 78.5202 420.028 78.4011 420.088 78.2808 420.144 78.1587Z" fill="#D0D0D0" fill-rule="evenodd" transform="matrix(1.00877 0 0 1 -25.0221 450.845)"/><path d="M420.077 78.5202C420.024 78.7715 419.98 79.0234 419.946 79.2772 419.926 79.2735 419.909 79.2627 419.897 79.2445 419.891 79.2004 419.886 79.1563 419.88 79.1128 419.954 78.9138 420.019 78.716 420.077 78.5202Z" fill="#767677" fill-rule="evenodd" transform="matrix(1.00877 0 0 1 -25.0221 450.845)"/><path d="M420.9 78.7179C420.906 78.9264 420.9 79.1355 420.884 79.3434 420.836 79.4076 420.776 79.4517 420.703 79.475 420.734 79.4265 420.773 79.383 420.818 79.3434 420.823 79.1267 420.85 78.9189 420.9 78.7179Z" fill="#BBBBBC" fill-rule="evenodd" transform="matrix(1.00877 0 0 1 -25.0221 450.845)"/><path d="M420.9 78.5863C420.9 78.6298 420.9 78.6739 420.9 78.7179 420.85 78.9189 420.823 79.1267 420.818 79.3434 420.773 79.383 420.734 79.4265 420.703 79.475 420.516 79.4737 420.329 79.4624 420.144 79.4423 420.121 79.4196 420.099 79.3982 420.077 79.3761 420.22 79.3944 420.363 79.4164 420.505 79.4423 420.583 79.4145 420.659 79.3868 420.736 79.3597 420.772 79.1248 420.811 78.8893 420.851 78.6518 420.86 78.6216 420.877 78.6002 420.9 78.5863Z" fill="#5B5B5D" fill-rule="evenodd" transform="matrix(1.00877 0 0 1 -25.0221 450.845)"/><path d="M420.144 79.4423C420.329 79.4624 420.516 79.4737 420.703 79.475 420.699 79.4952 420.688 79.5115 420.67 79.5241 420.504 79.5512 420.34 79.5462 420.176 79.5078 420.164 79.4851 420.153 79.463 420.144 79.4423Z" fill="#CCCCCD" fill-rule="evenodd" transform="matrix(1.00877 0 0 1 -25.0221 450.845)"/><path d="M397.732 78.0598C397.565 78.0478 397.434 77.9766 397.337 77.8456 397.194 77.8349 397.051 77.8236 396.909 77.8129 396.931 77.8022 396.953 77.7908 396.974 77.7801 396.845 77.7461 396.713 77.719 396.58 77.6976 394.297 77.7417 392.016 77.7417 389.734 77.6976 389.656 77.8034 389.656 77.913 389.734 78.027 389.692 78.323 389.67 78.6247 389.669 78.9321 389.674 79.2224 389.68 79.5134 389.685 79.8038 389.702 79.8202 389.718 79.8372 389.734 79.8535 391.876 79.8749 394.015 79.8693 396.152 79.8372 396.269 79.8422 396.352 79.897 396.399 80.0015 396.382 80.2302 396.382 80.4607 396.399 80.6925 396.409 80.6704 396.421 80.649 396.432 80.627 396.462 80.8077 396.391 80.9173 396.218 80.9557 394.057 80.9173 391.896 80.9123 389.734 80.9394 389.718 80.9557 389.702 80.9721 389.685 80.9885 389.669 82.1625 389.663 83.3359 389.669 84.5099 389.636 83.3088 389.625 82.1027 389.636 80.8902 391.863 80.8902 394.09 80.8902 396.316 80.8902 396.328 80.5772 396.316 80.2699 396.284 79.9688 394.068 79.9688 391.851 79.9688 389.636 79.9688 389.636 79.1784 389.636 78.3885 389.636 77.5987 391.983 77.5937 394.331 77.5987 396.678 77.6157 396.913 77.6605 397.143 77.726 397.369 77.8129 397.504 77.8796 397.624 77.9621 397.732 78.0598Z" fill="#5C7B65" fill-rule="evenodd" transform="matrix(1.00877 0 0 1 -25.0221 450.845)"/><path d="M412.541 79.9688C413.978 79.9688 415.415 79.9688 416.853 79.9688 416.853 80.3744 416.853 80.7807 416.853 81.1863 415.415 81.1863 413.978 81.1863 412.541 81.1863 412.541 80.7807 412.541 80.3744 412.541 79.9688Z" fill="#ECF7EF" fill-rule="evenodd" transform="matrix(1.00877 0 0 1 -25.0221 450.845)"/><path d="M373.279 79.9688C374.727 79.9688 376.175 79.9688 377.623 79.9688 377.623 81.3614 377.623 82.7552 377.623 84.1477 376.175 84.1477 374.727 84.1477 373.279 84.1477 373.279 82.7552 373.279 81.3614 373.279 79.9688Z" fill="#FDFEFD" fill-rule="evenodd" transform="matrix(1.00877 0 0 1 -25.0221 450.845)"/><path d="M406.584 74.7028C407.369 74.67 408.158 74.6593 408.954 74.67 408.965 78.6247 408.954 82.5738 408.921 86.5178 408.932 82.5738 408.921 78.6354 408.888 74.7028 408.121 74.7028 407.352 74.7028 406.584 74.7028Z" fill="#E0EBE1" fill-rule="evenodd" transform="matrix(1.00877 0 0 1 -25.0221 450.845)"/><path d="M413.298 80.0015C413.297 80.0343 413.314 80.0563 413.348 80.067 414.446 80.4506 415.56 80.6591 416.688 80.6925 416.732 80.6704 416.776 80.6484 416.819 80.627 416.819 80.8021 416.819 80.9778 416.819 81.1535 415.415 81.168 414.01 81.1516 412.607 81.1038 412.649 81.0609 412.644 81.0231 412.591 80.9885 412.576 80.6868 412.571 80.3908 412.574 80.1004 412.615 80.0431 412.669 80.0097 412.739 80.0015 412.922 80.011 413.108 80.011 413.298 80.0015Z" fill="#FDFEFD" fill-rule="evenodd" transform="matrix(1.00877 0 0 1 -25.0221 450.845)"/><path d="M413.298 80.0015C414.463 80.0066 415.626 80.0173 416.786 80.0343 416.818 80.2295 416.829 80.4273 416.819 80.627 416.776 80.6484 416.732 80.6704 416.688 80.6925 415.56 80.6591 414.446 80.4506 413.348 80.067 413.314 80.0563 413.297 80.0343 413.298 80.0015Z" fill="#F5F5F5" fill-rule="evenodd" transform="matrix(1.00877 0 0 1 -25.0221 450.845)"/><path d="M379.73 78.8823C379.836 79.0524 379.908 79.2388 379.944 79.4423 379.971 82.3439 379.966 85.2399 379.927 88.1302 379.933 85.3218 379.927 82.5133 379.911 79.7055 379.836 79.4309 379.776 79.1563 379.73 78.8823Z" fill="#67816E" fill-rule="evenodd" transform="matrix(1.00877 0 0 1 -25.0221 450.845)"/><path d="M381.639 78.5863C381.545 78.808 381.441 79.0272 381.326 79.2445 381.315 79.4643 381.304 79.6835 381.293 79.9027 381.276 82.097 381.271 84.2907 381.276 86.4844 381.244 84.1647 381.233 81.8394 381.244 79.5078 381.287 79.1601 381.418 78.8527 381.639 78.5863Z" fill="#56735F" fill-rule="evenodd" transform="matrix(1.00877 0 0 1 -25.0221 450.845)"/><path d="M383.153 77.6321C384.886 77.6321 386.619 77.6321 388.353 77.6321 388.353 78.3999 388.353 79.1676 388.353 79.9354 386.756 79.9247 385.165 79.9354 383.58 79.9688 383.548 82.1348 383.537 84.3071 383.548 86.4844 383.515 86.4844 383.482 86.4844 383.449 86.4844 383.443 84.3783 383.449 82.2721 383.465 80.1659 383.494 80.1458 383.51 80.1187 383.515 80.0834 383.478 80.0381 383.461 79.9883 383.465 79.9354 383.53 79.8775 383.607 79.8447 383.696 79.8372 385.21 79.8605 386.713 79.8712 388.204 79.8699 388.238 79.8416 388.266 79.8088 388.286 79.771 388.297 79.1538 388.286 78.5334 388.254 77.9118 388.261 77.8463 388.283 77.7858 388.319 77.7304 388.312 77.7115 388.302 77.6945 388.286 77.6812 386.586 77.6592 384.886 77.6592 383.185 77.6812 383.107 77.7152 383.03 77.7209 382.955 77.6976 382.866 77.7549 382.783 77.8211 382.708 77.8954 382.69 77.8777 382.668 77.867 382.643 77.862 382.549 77.8866 382.456 77.9086 382.363 77.9281 382.594 77.7518 382.857 77.6535 383.153 77.6321Z" fill="#4F745A" fill-rule="evenodd" transform="matrix(1.00877 0 0 1 -25.0221 450.845)"/><path d="M381.244 79.5078C381.233 81.8394 381.244 84.1647 381.276 86.4844 382.001 86.4844 382.724 86.4844 383.449 86.4844 383.482 86.4844 383.515 86.4844 383.548 86.4844 383.537 84.3071 383.548 82.1348 383.58 79.9688 383.58 82.1512 383.58 84.3348 383.58 86.5178 382.791 86.5178 382.001 86.5178 381.211 86.5178 381.2 84.1755 381.211 81.8388 381.244 79.5078Z" fill="#8DA091" fill-rule="evenodd" transform="matrix(1.00877 0 0 1 -25.0221 450.845)"/><path d="M383.58 79.9688C385.182 79.9688 386.784 79.9688 388.385 79.9688 388.318 80.0003 388.247 80.033 388.171 80.067 387.471 80.0236 386.764 80.0015 386.049 80.0015 385.294 80.0135 384.543 80.0135 383.795 80.0015 383.683 79.9971 383.645 80.0406 383.679 80.1332 383.652 82.0737 383.635 84.0148 383.63 85.9579 383.624 86.1506 383.607 86.337 383.58 86.5178 383.58 84.3348 383.58 82.1512 383.58 79.9688Z" fill="#F5FBF4" fill-rule="evenodd" transform="matrix(1.00877 0 0 1 -25.0221 450.845)"/><path d="M400.068 78.9151C400.054 79.133 400.005 79.3415 399.92 79.5405 399.904 81.2083 399.898 82.8755 399.904 84.5433 399.865 82.8484 399.86 81.1478 399.887 79.4423 399.928 79.2564 399.988 79.0807 400.068 78.9151Z" fill="#778E7E" fill-rule="evenodd" transform="matrix(1.00877 0 0 1 -25.0221 450.845)"/><path d="M396.284 79.9688C396.316 80.2699 396.328 80.5772 396.316 80.8902 394.09 80.8902 391.863 80.8902 389.636 80.8902 391.846 80.8569 394.062 80.8461 396.284 80.8569 396.284 80.5608 396.284 80.2648 396.284 79.9688Z" fill="#D1E1D4" fill-rule="evenodd" transform="matrix(1.00877 0 0 1 -25.0221 450.845)"/><path d="M369.462 81.0219C369.396 81.5956 369.308 82.1656 369.199 82.7331 369.161 82.8081 369.128 82.8849 369.1 82.963 369.115 82.5536 369.153 82.148 369.215 81.7456 369.334 81.544 369.405 81.3248 369.429 81.0874 369.424 81.0546 369.434 81.0326 369.462 81.0219Z" fill="#53725A" fill-rule="evenodd" transform="matrix(1.00877 0 0 1 -25.0221 450.845)"/><path d="M369.429 81.0874C369.405 81.3248 369.334 81.544 369.215 81.7456 369.153 82.148 369.115 82.5536 369.1 82.963 369.086 83.0928 369.053 83.2131 369.002 83.3252 368.926 82.5719 369.041 81.8476 369.347 81.1535 369.37 81.1245 369.398 81.1025 369.429 81.0874Z" fill="#354F3B" fill-rule="evenodd" transform="matrix(1.00877 0 0 1 -25.0221 450.845)"/><path d="M392.005 82.963C392.005 82.9523 392.005 82.941 392.005 82.9303 393.442 82.9303 394.88 82.9303 396.316 82.9303 396.316 83.3359 396.316 83.7421 396.316 84.1477 396.306 84.1477 396.294 84.1477 396.284 84.1477 396.284 83.7528 396.284 83.3579 396.284 82.963 394.858 82.963 393.432 82.963 392.005 82.963Z" fill="#CEDDD0" fill-rule="evenodd" transform="matrix(1.00877 0 0 1 -25.0221 450.845)"/><path d="M392.005 82.963C393.432 82.963 394.858 82.963 396.284 82.963 396.284 83.3579 396.284 83.7528 396.284 84.1477 394.858 84.1477 393.432 84.1477 392.005 84.1477 392.005 83.7528 392.005 83.3579 392.005 82.963Z" fill="#FDFEFD" fill-rule="evenodd" transform="matrix(1.00877 0 0 1 -25.0221 450.845)"/><path d="M349.387 83.0619C349.487 83.3069 349.575 83.5595 349.65 83.819 349.525 83.584 349.436 83.3321 349.387 83.0619Z" fill="#C5D5C9" fill-rule="evenodd" transform="matrix(1.00877 0 0 1 -25.0221 450.845)"/><path d="M419.189 79.6394C419.233 80.8461 419.233 82.0529 419.189 83.2597 416.973 83.2597 414.757 83.2597 412.541 83.2597 414.751 83.2263 416.967 83.2156 419.189 83.2263 419.189 82.0309 419.189 80.8348 419.189 79.6394Z" fill="#8BA693" fill-rule="evenodd" transform="matrix(1.00877 0 0 1 -25.0221 450.845)"/><path d="M412.541 83.2597C414.757 83.2597 416.973 83.2597 419.189 83.2597 419.156 83.2981 419.112 83.3195 419.057 83.3252 416.897 83.2924 414.736 83.2817 412.574 83.2924 412.58 83.5261 412.58 83.7566 412.574 83.9834 412.575 84.0337 412.597 84.0722 412.64 84.0986 414.845 84.0936 417.039 84.1207 419.222 84.1811 419.211 84.1811 419.2 84.1811 419.189 84.1811 416.973 84.1811 414.757 84.1811 412.541 84.1811 412.541 83.8738 412.541 83.5664 412.541 83.2597Z" fill="#E3EFE7" fill-rule="evenodd" transform="matrix(1.00877 0 0 1 -25.0221 450.845)"/><path d="M369.462 77.1056C369.462 78.2682 369.462 79.4309 369.462 80.5936 369.462 80.7366 369.462 80.8789 369.462 81.0219 369.434 81.0326 369.424 81.0546 369.429 81.0874 369.398 81.1025 369.37 81.1245 369.347 81.1535 369.041 81.8476 368.926 82.5719 369.002 83.3252 369.002 83.3472 369.002 83.3693 369.002 83.3913 368.908 83.6281 368.82 83.8694 368.738 84.115 368.68 84.1534 368.648 84.2082 368.639 84.2794 368.474 84.4343 368.309 84.588 368.146 84.7404 368.275 84.5332 368.407 84.3247 368.541 84.115 368.568 84.086 368.6 84.0747 368.639 84.0822 368.719 83.9412 368.768 83.7881 368.787 83.6212 368.839 83.0279 368.9 82.4359 368.968 81.8444 369.072 81.6612 369.131 81.464 369.15 81.2518 369.278 81.0773 369.371 80.8909 369.429 80.6925 369.419 79.4914 369.429 78.2953 369.462 77.1056Z" fill="#1E2B22" fill-rule="evenodd" transform="matrix(1.00877 0 0 1 -25.0221 450.845)"/><path d="M369.002 83.3913C368.963 83.654 368.876 83.8952 368.738 84.115 368.82 83.8694 368.908 83.6281 369.002 83.3913Z" fill="#959C97" fill-rule="evenodd" transform="matrix(1.00877 0 0 1 -25.0221 450.845)"/><path d="M369.429 80.6925C369.371 80.8909 369.278 81.0773 369.15 81.2518 369.131 81.464 369.072 81.6612 368.968 81.8444 368.9 82.4359 368.839 83.0279 368.787 83.6212 368.768 83.7881 368.719 83.9412 368.639 84.0822 368.6 84.0747 368.568 84.086 368.541 84.115 368.407 84.3247 368.275 84.5332 368.146 84.7404 368.036 84.8903 367.91 85.0333 367.767 85.1681 367.692 85.3098 367.593 85.4301 367.471 85.5302 367.439 85.5926 367.417 85.6581 367.405 85.728 367.323 85.7866 367.252 85.8577 367.191 85.9415 367.16 85.9573 367.127 85.9629 367.093 85.9579 367.088 85.9232 367.093 85.8905 367.109 85.8596 367.651 85.2084 368.166 84.5395 368.656 83.8517 368.759 83.1564 368.847 82.4541 368.919 81.7456 369.012 81.3513 369.181 81.0005 369.429 80.6925Z" fill="#080E0A" fill-rule="evenodd" transform="matrix(1.00877 0 0 1 -25.0221 450.845)"/><path d="M369.199 82.7331C369.154 82.9687 369.126 83.2099 369.116 83.4568 369.047 83.664 368.992 83.8731 368.952 84.0822 368.902 84.1786 368.859 84.2775 368.82 84.3783 368.81 84.3676 368.798 84.3562 368.787 84.3455 368.744 84.4715 368.673 84.5754 368.573 84.6579 368.613 84.6944 368.613 84.7335 368.573 84.7732 368.522 84.8047 368.468 84.816 368.409 84.8065 368.389 85.0799 368.258 85.2877 368.014 85.4314 368.088 85.2701 368.176 85.1164 368.277 84.9709 368.406 84.7455 368.527 84.5156 368.639 84.2794 368.648 84.2082 368.68 84.1534 368.738 84.115 368.876 83.8952 368.963 83.654 369.002 83.3913 369.002 83.3693 369.002 83.3472 369.002 83.3252 369.053 83.2131 369.086 83.0928 369.1 82.963 369.128 82.8849 369.161 82.8081 369.199 82.7331Z" fill="#E3E7E3" fill-rule="evenodd" transform="matrix(1.00877 0 0 1 -25.0221 450.845)"/><path d="M373.279 79.9688C373.279 81.3614 373.279 82.7552 373.279 84.1477 374.727 84.1477 376.175 84.1477 377.623 84.1477 376.17 84.1811 374.711 84.1918 373.247 84.1811 373.236 82.7709 373.247 81.367 373.279 79.9688Z" fill="#9FB5A6" fill-rule="evenodd" transform="matrix(1.00877 0 0 1 -25.0221 450.845)"/><path d="M392.005 82.9303C392.005 82.941 392.005 82.9523 392.005 82.963 392.005 83.3579 392.005 83.7528 392.005 84.1477 393.432 84.1477 394.858 84.1477 396.284 84.1477 396.294 84.1477 396.306 84.1477 396.316 84.1477 394.874 84.1811 393.426 84.1918 391.972 84.1811 391.962 83.7585 391.972 83.3416 392.005 82.9303Z" fill="#AFC2B5" fill-rule="evenodd" transform="matrix(1.00877 0 0 1 -25.0221 450.845)"/><path d="M402.241 79.9688C402.241 81.3614 402.241 82.7552 402.241 84.1477 403.678 84.1477 405.114 84.1477 406.552 84.1477 406.552 82.7552 406.552 81.3614 406.552 79.9688 406.584 81.367 406.595 82.7709 406.584 84.1811 405.126 84.1811 403.666 84.1811 402.208 84.1811 402.196 82.7709 402.208 81.367 402.241 79.9688Z" fill="#9CB1A3" fill-rule="evenodd" transform="matrix(1.00877 0 0 1 -25.0221 450.845)"/><path d="M402.241 79.9688C403.678 79.9688 405.114 79.9688 406.552 79.9688 406.552 81.3614 406.552 82.7552 406.552 84.1477 405.114 84.1477 403.678 84.1477 402.241 84.1477 402.241 82.7552 402.241 81.3614 402.241 79.9688Z" fill="#EFFAF1" fill-rule="evenodd" transform="matrix(1.00877 0 0 1 -25.0221 450.845)"/><path d="M402.339 80.0015C403.722 79.9908 405.104 80.0015 406.486 80.0343 406.486 81.3576 406.486 82.6903 406.486 84.0331 406.472 84.064 406.45 84.086 406.42 84.0986 405.038 84.115 403.656 84.1207 402.273 84.115 402.268 82.7766 402.273 81.4388 402.29 80.1004 402.307 80.0664 402.323 80.033 402.339 80.0015Z" fill="#FEFEFE" fill-rule="evenodd" transform="matrix(1.00877 0 0 1 -25.0221 450.845)"/><path d="M412.541 83.2597C412.541 83.5664 412.541 83.8738 412.541 84.1811 414.757 84.1811 416.973 84.1811 419.189 84.1811 419.189 84.9489 419.189 85.7167 419.189 86.4844 419.145 86.4844 419.101 86.4844 419.057 86.4844 419.089 85.7834 419.099 85.0812 419.09 84.3783 419.057 84.3783 419.024 84.3783 418.992 84.3783 418.997 84.3348 418.987 84.2964 418.959 84.263 418.874 84.2353 418.798 84.246 418.728 84.2964 417.84 84.3184 416.951 84.3184 416.063 84.2964 416.94 84.285 417.818 84.2743 418.696 84.263 417.554 84.229 416.412 84.2454 415.272 84.3128 415.097 84.2907 414.922 84.2687 414.746 84.2466 413.973 84.3222 413.205 84.3335 412.443 84.2794 412.449 84.2 412.438 84.1232 412.41 84.0495 412.443 84.0098 412.471 83.9664 412.492 83.9179 412.497 83.6924 412.514 83.4732 412.541 83.2597Z" fill="#4F745A" fill-rule="evenodd" transform="matrix(1.00877 0 0 1 -25.0221 450.845)"/><path d="M368.639 84.2794C368.527 84.5156 368.406 84.7455 368.277 84.9709 368.238 84.9634 368.206 84.9747 368.178 85.0037 368.114 85.1429 368.037 85.2745 367.948 85.3986 367.807 85.529 367.68 85.6713 367.57 85.8263 367.36 86.0089 367.146 86.1897 366.928 86.3692 366.831 86.5153 366.71 86.6305 366.566 86.715 366.573 86.754 366.562 86.7868 366.533 86.8138 366.31 87.004 366.091 87.1905 365.875 87.3731 365.875 87.3076 365.875 87.2415 365.875 87.176 365.926 87.2018 365.98 87.2132 366.04 87.2087 366.034 87.1653 366.045 87.1269 366.072 87.0935 366.475 86.7017 366.886 86.3232 367.307 85.9579 367.579 85.6108 367.848 85.2594 368.113 84.9048 368.144 84.8538 368.155 84.7996 368.146 84.7404 368.309 84.588 368.474 84.4343 368.639 84.2794Z" fill="#395641" fill-rule="evenodd" transform="matrix(1.00877 0 0 1 -25.0221 450.845)"/><path d="M368.146 84.7404C368.155 84.7996 368.144 84.8538 368.113 84.9048 367.848 85.2594 367.579 85.6108 367.307 85.9579 366.886 86.3232 366.475 86.7017 366.072 87.0935 366.045 87.1269 366.034 87.1653 366.04 87.2087 365.98 87.2132 365.926 87.2018 365.875 87.176 365.875 87.1539 365.875 87.1319 365.875 87.1099 365.958 87.1388 366.012 87.1061 366.04 87.011 366.124 86.965 366.179 86.8938 366.204 86.7975 366.346 86.6557 366.504 86.5405 366.681 86.4517 366.803 86.2722 366.941 86.1078 367.093 85.9579 367.127 85.9629 367.16 85.9573 367.191 85.9415 367.252 85.8577 367.323 85.7866 367.405 85.728 367.417 85.6581 367.439 85.5926 367.471 85.5302 367.593 85.4301 367.692 85.3098 367.767 85.1681 367.91 85.0333 368.036 84.8903 368.146 84.7404Z" fill="#1D2C20" fill-rule="evenodd" transform="matrix(1.00877 0 0 1 -25.0221 450.845)"/><path d="M357.746 86.2873C357.9 86.293 358.054 86.3037 358.207 86.32 358.207 86.3307 358.207 86.3421 358.207 86.3528 358.045 86.3578 357.891 86.3358 357.746 86.2873Z" fill="#9DB1A4" fill-rule="evenodd" transform="matrix(1.00877 0 0 1 -25.0221 450.845)"/><path d="M358.207 86.3528C358.207 86.3421 358.207 86.3307 358.207 86.32 358.931 86.3547 359.655 86.3547 360.379 86.32 359.969 86.3698 359.552 86.3918 359.128 86.3862 358.82 86.3849 358.512 86.3742 358.207 86.3528Z" fill="#D9E7DC" fill-rule="evenodd" transform="matrix(1.00877 0 0 1 -25.0221 450.845)"/><path d="M398.62 79.4423C398.653 81.7947 398.664 84.1534 398.653 86.5178 396.289 86.5285 393.93 86.5178 391.577 86.4844 393.925 86.4844 396.273 86.4844 398.62 86.4844 398.62 84.137 398.62 81.7896 398.62 79.4423Z" fill="#829284" fill-rule="evenodd" transform="matrix(1.00877 0 0 1 -25.0221 450.845)"/><path d="M408.888 74.7028C408.921 78.6354 408.932 82.5738 408.921 86.5178 406.508 86.5235 404.094 86.5178 401.681 86.5008 401.63 86.4945 401.585 86.4775 401.549 86.4517 403.984 86.4838 406.419 86.4951 408.855 86.4844 408.888 82.5631 408.899 78.6354 408.888 74.7028Z" fill="#93A194" fill-rule="evenodd" transform="matrix(1.00877 0 0 1 -25.0221 450.845)"/><path d="M419.189 84.1811C419.2 84.1811 419.211 84.1811 419.222 84.1811 419.222 84.9602 419.222 85.7387 419.222 86.5178 416.803 86.5285 414.389 86.5178 411.982 86.4844 414.34 86.4844 416.699 86.4844 419.057 86.4844 419.101 86.4844 419.145 86.4844 419.189 86.4844 419.189 85.7167 419.189 84.9489 419.189 84.1811Z" fill="#92A194" fill-rule="evenodd" transform="matrix(1.00877 0 0 1 -25.0221 450.845)"/><path d="M391.314 86.4517C391.404 86.4542 391.491 86.4655 391.577 86.4844 393.93 86.5178 396.289 86.5285 398.653 86.5178 396.289 86.5562 393.92 86.5613 391.545 86.5342 391.459 86.521 391.382 86.4939 391.314 86.4517Z" fill="#D9E5DB" fill-rule="evenodd" transform="matrix(1.00877 0 0 1 -25.0221 450.845)"/><path d="M372.885 86.5178C374.464 86.5178 376.044 86.5178 377.623 86.5178 377.623 86.9014 377.623 87.2856 377.623 87.6691 375.869 87.6691 374.113 87.6691 372.358 87.6691 372.347 87.6691 372.336 87.6691 372.325 87.6691 374.075 87.6364 375.83 87.6257 377.591 87.6364 377.591 87.2742 377.591 86.9127 377.591 86.5506 376.016 86.5613 374.448 86.5506 372.885 86.5178Z" fill="#D6E4D9" fill-rule="evenodd" transform="matrix(1.00877 0 0 1 -25.0221 450.845)"/><path d="M355.508 88.92C355.681 88.9578 355.857 88.9849 356.035 89.0025 356.201 89.0844 356.377 89.1385 356.561 89.1669 356.669 89.1927 356.773 89.187 356.874 89.1505 357.041 89.2116 357.211 89.2229 357.384 89.1833 357.563 89.2796 357.755 89.3344 357.96 89.3476 358.713 89.3445 359.476 89.3445 360.248 89.3476 360.517 89.2872 360.791 89.2481 361.07 89.2324 361.1 89.2204 361.127 89.204 361.153 89.1833 361.379 89.2097 361.604 89.2097 361.827 89.1833 361.634 89.2324 361.437 89.2765 361.234 89.3149 360.534 89.3861 359.832 89.4302 359.128 89.4465 358.689 89.4396 358.25 89.4176 357.812 89.381 357.018 89.3395 356.251 89.1858 355.508 88.92Z" fill="#597A64" fill-rule="evenodd" transform="matrix(1.00877 0 0 1 -25.0221 450.845)"/><path d="M361.234 89.3149C361.09 89.3659 360.936 89.393 360.774 89.3974 359.964 89.4711 359.152 89.4925 358.339 89.4629 358.155 89.4547 357.98 89.4276 357.812 89.381 358.25 89.4176 358.689 89.4396 359.128 89.4465 359.832 89.4302 360.534 89.3861 361.234 89.3149Z" fill="#C9D7CD" fill-rule="evenodd" transform="matrix(1.00877 0 0 1 -25.0221 450.845)"/><path d="M385.522 89.6109C385.522 89.6223 385.522 89.633 385.522 89.6443 385.533 90.4562 385.522 91.268 385.489 92.0792 385.469 92.0755 385.459 92.0641 385.456 92.0465 385.478 91.2346 385.5 90.4228 385.522 89.6109Z" fill="#585858" fill-rule="evenodd" transform="matrix(1.00877 0 0 1 -25.0221 450.845)"/><path d="M385.522 89.6443C385.665 89.6443 385.807 89.6443 385.95 89.6443 385.939 91.3833 385.95 93.116 385.983 94.8436 385.996 95.03 386.007 95.2165 386.016 95.4035 385.862 95.4035 385.709 95.4035 385.555 95.4035 385.564 95.3506 385.552 95.3065 385.522 95.2719 385.533 95.0949 385.522 94.9192 385.489 94.7453 384.965 95.4633 384.285 95.6662 383.449 95.3538 382.832 94.9922 382.502 94.4493 382.461 93.725 382.458 93.3843 382.469 93.0442 382.495 92.7047 382.541 92.6385 382.563 92.5617 382.56 92.4742 383.004 91.3839 383.783 91.0381 384.897 91.4374 385.147 91.5842 385.334 91.787 385.456 92.0465 385.459 92.0641 385.469 92.0755 385.489 92.0792 385.522 91.268 385.533 90.4562 385.522 89.6443Z" fill="#060606" fill-rule="evenodd" transform="matrix(1.00877 0 0 1 -25.0221 450.845)"/><path d="M385.522 89.6443C385.522 89.633 385.522 89.6223 385.522 89.6109 385.676 89.6109 385.829 89.6109 385.983 89.6109 385.983 91.3556 385.983 93.0996 385.983 94.8436 385.95 93.116 385.939 91.3833 385.95 89.6443 385.807 89.6443 385.665 89.6443 385.522 89.6443Z" fill="#313131" fill-rule="evenodd" transform="matrix(1.00877 0 0 1 -25.0221 450.845)"/><path d="M372.325 87.6691C372.336 87.6691 372.347 87.6691 372.358 87.6691 372.358 88.4482 372.358 89.2274 372.358 90.0058 374.168 90.0115 375.978 90.0058 377.788 89.9895 377.975 89.9718 378.161 89.9554 378.348 89.9403 378.236 89.9876 378.115 90.0146 377.986 90.0222 376.099 90.0392 374.212 90.0443 372.325 90.0392 372.325 89.2494 372.325 88.459 372.325 87.6691Z" fill="#7D9184" fill-rule="evenodd" transform="matrix(1.00877 0 0 1 -25.0221 450.845)"/><path d="M367.356 91.3556C367.005 91.3127 366.654 91.3127 366.303 91.3556 366.339 91.3291 366.383 91.3127 366.434 91.3058 366.708 91.2838 366.983 91.2838 367.257 91.3058 367.298 91.3134 367.331 91.3297 367.356 91.3556Z" fill="#525252" fill-rule="evenodd" transform="matrix(1.00877 0 0 1 -25.0221 450.845)"/><path d="M393.75 91.3222C393.463 91.3153 393.178 91.3266 392.894 91.3556 392.919 91.3297 392.952 91.3134 392.993 91.3058 393.251 91.2787 393.503 91.2844 393.75 91.3222Z" fill="#4C4C4C" fill-rule="evenodd" transform="matrix(1.00877 0 0 1 -25.0221 450.845)"/><path d="M358.306 91.3222C358.374 91.3587 358.451 91.3808 358.536 91.3883 358.924 91.5181 359.171 91.7813 359.276 92.1781 359.308 93.2539 359.346 94.3284 359.392 95.4035 359.249 95.4035 359.106 95.4035 358.964 95.4035 358.947 95.2152 358.92 95.0288 358.881 94.8436 358.529 95.309 358.058 95.5282 357.466 95.5018 356.448 95.4274 356.02 94.8896 356.183 93.8894 356.372 93.4409 356.706 93.1777 357.187 93.0996 357.274 93.1027 357.351 93.0807 357.417 93.0334 357.886 92.9755 358.358 92.9535 358.832 92.9679 358.919 91.8431 358.414 91.4318 357.318 91.7341 357.085 91.8557 356.953 92.0478 356.923 92.3098 356.78 92.3709 356.627 92.3923 356.463 92.3753 356.463 92.2991 356.463 92.2216 356.463 92.1454 356.514 92.0925 356.537 92.027 356.528 91.9476 356.64 91.7152 356.816 91.5508 357.055 91.4538 357.183 91.4223 357.304 91.3782 357.417 91.3222 357.712 91.2794 358.008 91.2794 358.306 91.3222Z" fill="#090909" fill-rule="evenodd" transform="matrix(1.00877 0 0 1 -25.0221 450.845)"/><path d="M358.306 91.3222C358.395 91.3115 358.472 91.3335 358.536 91.3883 358.451 91.3808 358.374 91.3587 358.306 91.3222Z" fill="#858585" fill-rule="evenodd" transform="matrix(1.00877 0 0 1 -25.0221 450.845)"/><path d="M367.356 91.3556C368.019 91.5256 368.371 91.9533 368.409 92.6385 368.255 92.6385 368.102 92.6385 367.948 92.6385 367.923 92.2096 367.714 91.9073 367.323 91.7341 366.636 91.5275 366.093 91.7196 365.694 92.3098 365.616 92.432 365.567 92.5636 365.546 92.7047 365.499 92.7708 365.477 92.8476 365.48 92.9352 365.357 93.5839 365.483 94.176 365.858 94.712 366.339 95.1856 366.882 95.2675 367.487 94.9589 367.783 94.7579 367.937 94.4783 367.948 94.1199 368.102 94.1199 368.255 94.1199 368.409 94.1199 368.382 94.683 368.119 95.0886 367.619 95.3374 367.473 95.3827 367.331 95.4262 367.191 95.469 366.022 95.6397 365.293 95.1566 365.003 94.021 364.847 93.3043 364.956 92.6348 365.332 92.0137 365.576 91.6755 365.899 91.4557 366.303 91.3556 366.654 91.3127 367.005 91.3127 367.356 91.3556Z" fill="#080808" fill-rule="evenodd" transform="matrix(1.00877 0 0 1 -25.0221 450.845)"/><path d="M376.472 95.2719C376.48 95.1239 376.458 94.9815 376.406 94.8436 376.386 94.848 376.375 94.8587 376.373 94.877 376.202 95.1138 375.983 95.2895 375.715 95.4035 375.411 95.4583 375.103 95.4803 374.794 95.469 373.928 95.3544 373.549 94.8606 373.658 93.9883 373.87 93.4347 374.271 93.1223 374.859 93.0505 375.35 92.978 375.844 92.9503 376.34 92.9679 376.34 92.7595 376.34 92.551 376.34 92.3425 376.348 92.2638 376.326 92.1977 376.274 92.1454 376.168 91.8607 375.959 91.7013 375.649 91.668 375.194 91.5533 374.815 91.6686 374.514 92.0137 374.498 92.0446 374.492 92.078 374.498 92.112 374.446 92.1649 374.423 92.231 374.431 92.3098 374.431 92.3318 374.431 92.3532 374.431 92.3753 374.278 92.3753 374.125 92.3753 373.971 92.3753 373.971 92.3205 373.971 92.2657 373.971 92.2109 374.048 91.7939 374.289 91.5193 374.695 91.3883 374.782 91.3915 374.859 91.3694 374.925 91.3222 375.481 91.2044 375.997 91.2976 376.472 91.6025 376.689 91.8393 376.804 92.1189 376.817 92.4414 376.819 93.4296 376.846 94.4172 376.9 95.4035 376.757 95.4035 376.614 95.4035 376.472 95.4035 376.472 95.3594 376.472 95.3153 376.472 95.2719Z" fill="#080808" fill-rule="evenodd" transform="matrix(1.00877 0 0 1 -25.0221 450.845)"/><path d="M393.75 91.3222C393.897 91.3423 394.04 91.3864 394.177 91.4538 394.502 91.6585 394.733 91.9438 394.868 92.3098 394.866 92.3967 394.888 92.4742 394.934 92.5403 394.931 92.6272 394.953 92.704 395 92.7702 395 92.8036 395 92.8363 395 92.8691 395.016 93.0662 395.026 93.264 395.033 93.4617 394.035 93.4617 393.037 93.4617 392.038 93.4617 392.028 93.5997 392.039 93.7313 392.071 93.8566 392.149 94.477 392.478 94.8996 393.059 95.1232 393.861 95.2599 394.355 94.9368 394.54 94.1527 394.682 94.1527 394.825 94.1527 394.967 94.1527 394.967 94.1967 394.967 94.2408 394.967 94.2843 394.861 94.773 394.587 95.1239 394.145 95.3374 393.716 95.5049 393.277 95.5377 392.828 95.4363 392.25 95.2694 391.872 94.8965 391.693 94.317 391.553 93.7609 391.542 93.201 391.66 92.6385 391.827 92.0541 392.184 91.6321 392.729 91.3719 392.783 91.3556 392.838 91.3499 392.894 91.3556 393.178 91.3266 393.463 91.3153 393.75 91.3222Z" fill="#060606" fill-rule="evenodd" transform="matrix(1.00877 0 0 1 -25.0221 450.845)"/><path d="M393.75 91.3222C393.92 91.2945 394.063 91.3392 394.177 91.4538 394.04 91.3864 393.897 91.3423 393.75 91.3222Z" fill="#A9A9A9" fill-rule="evenodd" transform="matrix(1.00877 0 0 1 -25.0221 450.845)"/><path d="M357.417 91.3222C357.304 91.3782 357.183 91.4223 357.055 91.4538 357.158 91.3719 357.279 91.3285 357.417 91.3222Z" fill="#595959" fill-rule="evenodd" transform="matrix(1.00877 0 0 1 -25.0221 450.845)"/><path d="M374.925 91.3222C374.859 91.3694 374.782 91.3915 374.695 91.3883 374.761 91.3417 374.838 91.3197 374.925 91.3222Z" fill="#686868" fill-rule="evenodd" transform="matrix(1.00877 0 0 1 -25.0221 450.845)"/><path d="M402.076 91.3556C402.802 91.2353 403.328 91.4985 403.656 92.1454 404.141 91.3789 404.821 91.1433 405.696 91.4374 406.164 91.7095 406.4 92.1214 406.404 92.6719 406.42 93.582 406.426 94.4928 406.42 95.4035 406.266 95.4035 406.113 95.4035 405.959 95.4035 405.965 94.4821 405.959 93.56 405.943 92.6385 405.936 92.5768 405.92 92.522 405.894 92.4742 405.759 91.9621 405.424 91.7209 404.89 91.7505 404.381 91.7385 404.036 91.969 403.853 92.4414 403.806 92.5075 403.784 92.5844 403.787 92.6719 403.755 93.5795 403.744 94.4902 403.754 95.4035 403.6 95.4035 403.447 95.4035 403.294 95.4035 403.299 94.5255 403.294 93.6475 403.277 92.7702 403.265 92.1051 402.93 91.7656 402.273 91.7505 401.716 91.7637 401.349 92.0377 401.171 92.573 401.145 92.6707 401.123 92.7695 401.105 92.8691 401.089 93.7137 401.083 94.5583 401.089 95.4035 400.935 95.4035 400.781 95.4035 400.627 95.4035 400.627 94.1854 400.627 92.9679 400.627 91.7505 400.627 91.6295 400.627 91.5092 400.627 91.3883 400.77 91.3883 400.913 91.3883 401.056 91.3883 401.078 91.6025 401.099 91.8223 401.121 92.0465 401.284 91.7454 401.526 91.5376 401.846 91.4211 401.932 91.4242 402.01 91.4022 402.076 91.3556Z" fill="#040404" fill-rule="evenodd" transform="matrix(1.00877 0 0 1 -25.0221 450.845)"/><path d="M412.344 91.3883C412.151 91.3776 411.964 91.3883 411.784 91.4211 411.767 91.4192 411.755 91.4085 411.752 91.3883 411.954 91.3449 412.151 91.3449 412.344 91.3883Z" fill="#757575" fill-rule="evenodd" transform="matrix(1.00877 0 0 1 -25.0221 450.845)"/><path d="M415.043 91.3883C415.201 91.3556 415.365 91.3449 415.536 91.3556 415.544 91.3978 415.533 91.4305 415.503 91.4538 415.364 91.3902 415.211 91.3688 415.043 91.3883Z" fill="#727272" fill-rule="evenodd" transform="matrix(1.00877 0 0 1 -25.0221 450.845)"/><path d="M402.076 91.3556C402.01 91.4022 401.932 91.4242 401.846 91.4211 401.912 91.3745 401.989 91.3524 402.076 91.3556Z" fill="#6E6E6E" fill-rule="evenodd" transform="matrix(1.00877 0 0 1 -25.0221 450.845)"/><path d="M411.784 91.4211C411.964 91.3883 412.151 91.3776 412.344 91.3883 412.779 92.5012 413.235 93.6091 413.709 94.712 414.168 93.6097 414.613 92.5025 415.043 91.3883 415.211 91.3688 415.364 91.3902 415.503 91.4538 414.753 93.274 414.03 95.1062 413.331 96.9498 413.166 96.9498 413.002 96.9498 412.837 96.9498 413.036 96.432 413.244 95.9168 413.463 95.4035 412.922 94.0676 412.363 92.7399 411.784 91.4211Z" fill="#080808" fill-rule="evenodd" transform="matrix(1.00877 0 0 1 -25.0221 450.845)"/><path d="M384.37 91.6843C384.182 91.6831 383.997 91.6938 383.811 91.7171 383.917 91.6699 384.032 91.6478 384.156 91.6516 384.234 91.6516 384.305 91.6629 384.37 91.6843Z" fill="#A2A2A2" fill-rule="evenodd" transform="matrix(1.00877 0 0 1 -25.0221 450.845)"/><path d="M393.75 91.7171C393.612 91.7057 393.476 91.6944 393.338 91.6843 393.163 91.6938 392.993 91.7265 392.828 91.7832 392.906 91.7297 392.993 91.6913 393.092 91.668 393.267 91.6459 393.442 91.6459 393.618 91.668 393.669 91.6749 393.713 91.6913 393.75 91.7171Z" fill="#BDBDBD" fill-rule="evenodd" transform="matrix(1.00877 0 0 1 -25.0221 450.845)"/><path d="M393.75 91.7171C394.187 91.9004 394.445 92.2298 394.523 92.7047 394.54 92.8357 394.545 92.9673 394.54 93.0996 393.728 93.0996 392.916 93.0996 392.104 93.0996 392.104 93.0114 392.104 92.9239 392.104 92.8363 392.167 92.7135 392.211 92.5819 392.236 92.4414 392.352 92.1498 392.549 91.93 392.828 91.7832 392.993 91.7265 393.163 91.6938 393.338 91.6843 393.476 91.6944 393.612 91.7057 393.75 91.7171Z" fill="#FCFCFC" fill-rule="evenodd" transform="matrix(1.00877 0 0 1 -25.0221 450.845)"/><path d="M401.056 91.3883C400.913 91.3883 400.77 91.3883 400.627 91.3883 400.627 91.5092 400.627 91.6295 400.627 91.7505 400.595 91.6251 400.584 91.4935 400.595 91.3556 400.755 91.3449 400.908 91.3556 401.056 91.3883Z" fill="#646464" fill-rule="evenodd" transform="matrix(1.00877 0 0 1 -25.0221 450.845)"/><path d="M384.37 91.6843C384.883 91.7744 385.217 92.0704 385.374 92.573 385.515 93.0964 385.527 93.623 385.407 94.1527 385.188 94.9085 384.689 95.2209 383.91 95.0905 383.379 94.8795 383.072 94.4902 382.988 93.9221 382.96 93.6822 382.949 93.4409 382.955 93.1985 382.947 92.653 383.145 92.1977 383.548 91.8324 383.632 91.7851 383.72 91.7461 383.811 91.7171 383.997 91.6938 384.182 91.6831 384.37 91.6843Z" fill="#FCFCFC" fill-rule="evenodd" transform="matrix(1.00877 0 0 1 -25.0221 450.845)"/><path d="M356.528 91.9476C356.537 92.027 356.514 92.0925 356.463 92.1454 356.455 92.066 356.477 92.0005 356.528 91.9476Z" fill="#5A5A5A" fill-rule="evenodd" transform="matrix(1.00877 0 0 1 -25.0221 450.845)"/><path d="M374.498 92.112C374.505 92.1914 374.483 92.2569 374.431 92.3098 374.423 92.231 374.446 92.1649 374.498 92.112Z" fill="#939393" fill-rule="evenodd" transform="matrix(1.00877 0 0 1 -25.0221 450.845)"/><path d="M376.274 92.1454C376.326 92.1977 376.348 92.2638 376.34 92.3425 376.289 92.2902 376.267 92.2241 376.274 92.1454Z" fill="#787878" fill-rule="evenodd" transform="matrix(1.00877 0 0 1 -25.0221 450.845)"/><path d="M356.463 92.1454C356.463 92.2216 356.463 92.2991 356.463 92.3753 356.627 92.3923 356.78 92.3709 356.923 92.3098 356.923 92.3425 356.923 92.3753 356.923 92.4086 356.759 92.4086 356.595 92.4086 356.429 92.4086 356.419 92.3135 356.431 92.226 356.463 92.1454Z" fill="#858585" fill-rule="evenodd" transform="matrix(1.00877 0 0 1 -25.0221 450.845)"/><path d="M373.971 92.2109C373.971 92.2657 373.971 92.3205 373.971 92.3753 374.125 92.3753 374.278 92.3753 374.431 92.3753 374.273 92.4049 374.108 92.4269 373.938 92.4414 373.928 92.357 373.939 92.2802 373.971 92.2109Z" fill="#B4B4B4" fill-rule="evenodd" transform="matrix(1.00877 0 0 1 -25.0221 450.845)"/><path d="M394.868 92.3098C394.916 92.3759 394.938 92.4527 394.934 92.5403 394.888 92.4742 394.866 92.3967 394.868 92.3098Z" fill="#5A5A5A" fill-rule="evenodd" transform="matrix(1.00877 0 0 1 -25.0221 450.845)"/><path d="M392.236 92.4414C392.211 92.5819 392.167 92.7135 392.104 92.8363 392.116 92.6908 392.16 92.5592 392.236 92.4414Z" fill="#9C9C9C" fill-rule="evenodd" transform="matrix(1.00877 0 0 1 -25.0221 450.845)"/><path d="M382.56 92.4742C382.563 92.5617 382.541 92.6385 382.495 92.7047 382.491 92.6171 382.513 92.5403 382.56 92.4742Z" fill="#545454" fill-rule="evenodd" transform="matrix(1.00877 0 0 1 -25.0221 450.845)"/><path d="M403.853 92.4414C403.856 92.5283 403.834 92.6058 403.787 92.6719 403.784 92.5844 403.806 92.5075 403.853 92.4414Z" fill="#606060" fill-rule="evenodd" transform="matrix(1.00877 0 0 1 -25.0221 450.845)"/><path d="M394.934 92.5403C394.981 92.6064 395.003 92.6833 395 92.7702 394.953 92.704 394.931 92.6272 394.934 92.5403Z" fill="#909090" fill-rule="evenodd" transform="matrix(1.00877 0 0 1 -25.0221 450.845)"/><path d="M365.546 92.7047C365.549 92.7916 365.527 92.8691 365.48 92.9352 365.477 92.8476 365.499 92.7708 365.546 92.7047Z" fill="#707070" fill-rule="evenodd" transform="matrix(1.00877 0 0 1 -25.0221 450.845)"/><path d="M405.894 92.4742C405.92 92.522 405.936 92.5768 405.943 92.6385 405.959 93.56 405.965 94.4821 405.959 95.4035 405.935 94.4323 405.913 93.4554 405.894 92.4742Z" fill="#5C5C5C" fill-rule="evenodd" transform="matrix(1.00877 0 0 1 -25.0221 450.845)"/><path d="M357.417 93.0334C357.351 93.0807 357.274 93.1027 357.187 93.0996 357.253 93.053 357.33 93.0309 357.417 93.0334Z" fill="#606060" fill-rule="evenodd" transform="matrix(1.00877 0 0 1 -25.0221 450.845)"/><path d="M392.104 92.8363C392.104 92.9239 392.104 93.0114 392.104 93.0996 392.916 93.0996 393.728 93.0996 394.54 93.0996 393.722 93.1323 392.899 93.143 392.071 93.1323 392.061 93.0271 392.072 92.9283 392.104 92.8363Z" fill="#8E8E8E" fill-rule="evenodd" transform="matrix(1.00877 0 0 1 -25.0221 450.845)"/><path d="M382.495 92.7047C382.469 93.0442 382.458 93.3843 382.461 93.725 382.439 93.5934 382.428 93.4567 382.428 93.3137 382.423 93.1027 382.445 92.8999 382.495 92.7047Z" fill="#2F2F2F" fill-rule="evenodd" transform="matrix(1.00877 0 0 1 -25.0221 450.845)"/><path d="M395 92.8691C395.066 93.0643 395.077 93.2621 395.033 93.4617 395.026 93.264 395.016 93.0662 395 92.8691Z" fill="#B3B3B3" fill-rule="evenodd" transform="matrix(1.00877 0 0 1 -25.0221 450.845)"/><path d="M358.832 93.3301C358.404 93.3244 357.976 93.3358 357.549 93.3628 357.597 93.3364 357.651 93.32 357.713 93.3137 358.092 93.286 358.465 93.2917 358.832 93.3301Z" fill="#929292" fill-rule="evenodd" transform="matrix(1.00877 0 0 1 -25.0221 450.845)"/><path d="M358.832 93.3301C358.893 93.8176 358.811 94.2786 358.585 94.712 358.44 94.9116 358.248 95.0489 358.009 95.1232 357.478 95.2649 357.045 95.1276 356.709 94.712 356.665 94.6294 356.638 94.5413 356.627 94.4487 356.621 94.2585 356.643 94.072 356.693 93.8894 356.796 93.6979 356.95 93.5663 357.154 93.4945 357.294 93.4693 357.426 93.4258 357.549 93.3628 357.976 93.3358 358.404 93.3244 358.832 93.3301Z" fill="#FBFBFB" fill-rule="evenodd" transform="matrix(1.00877 0 0 1 -25.0221 450.845)"/><path d="M376.34 94.021C376.34 93.7905 376.34 93.56 376.34 93.3301 375.911 93.3244 375.484 93.3358 375.057 93.3628 375.115 93.3364 375.182 93.32 375.254 93.3137 375.627 93.2967 376 93.2917 376.373 93.2967 376.384 93.5442 376.373 93.7855 376.34 94.021Z" fill="#888888" fill-rule="evenodd" transform="matrix(1.00877 0 0 1 -25.0221 450.845)"/><path d="M376.34 94.021C376.318 94.4449 376.131 94.7793 375.78 95.025 375.701 95.081 375.614 95.1081 375.517 95.1069 375.217 95.1226 374.921 95.1006 374.629 95.0414 374.304 94.8915 374.139 94.6332 374.135 94.2679 374.129 94.1237 374.157 93.9864 374.217 93.8566 374.355 93.6803 374.525 93.5487 374.727 93.4617 374.848 93.4542 374.958 93.4214 375.057 93.3628 375.484 93.3358 375.911 93.3244 376.34 93.3301 376.34 93.56 376.34 93.7905 376.34 94.021Z" fill="#FCFCFC" fill-rule="evenodd" transform="matrix(1.00877 0 0 1 -25.0221 450.845)"/><path d="M375.057 93.3628C374.958 93.4214 374.848 93.4542 374.727 93.4617 374.826 93.4032 374.937 93.3698 375.057 93.3628Z" fill="#9B9B9B" fill-rule="evenodd" transform="matrix(1.00877 0 0 1 -25.0221 450.845)"/><path d="M357.549 93.3628C357.426 93.4258 357.294 93.4693 357.154 93.4945 357.272 93.4183 357.403 93.3748 357.549 93.3628Z" fill="#B5B5B5" fill-rule="evenodd" transform="matrix(1.00877 0 0 1 -25.0221 450.845)"/><path d="M395.033 93.4617C394.051 93.4945 393.064 93.5052 392.071 93.4945 392.071 93.6154 392.071 93.7357 392.071 93.8566 392.039 93.7313 392.028 93.5997 392.038 93.4617 393.037 93.4617 394.035 93.4617 395.033 93.4617Z" fill="#A8A8A8" fill-rule="evenodd" transform="matrix(1.00877 0 0 1 -25.0221 450.845)"/><path d="M382.955 93.1985C382.949 93.4409 382.96 93.6822 382.988 93.9221 382.963 93.8976 382.946 93.8642 382.939 93.8239 382.911 93.6091 382.917 93.4006 382.955 93.1985Z" fill="#555555" fill-rule="evenodd" transform="matrix(1.00877 0 0 1 -25.0221 450.845)"/><path d="M394.54 94.1527C394.686 94.1199 394.84 94.1092 395 94.1199 395.009 94.1829 394.999 94.2377 394.967 94.2843 394.967 94.2408 394.967 94.1967 394.967 94.1527 394.825 94.1527 394.682 94.1527 394.54 94.1527Z" fill="#7D7D7D" fill-rule="evenodd" transform="matrix(1.00877 0 0 1 -25.0221 450.845)"/><path d="M356.693 93.8894C356.643 94.072 356.621 94.2585 356.627 94.4487 356.574 94.2547 356.596 94.0683 356.693 93.8894Z" fill="#6E6E6E" fill-rule="evenodd" transform="matrix(1.00877 0 0 1 -25.0221 450.845)"/><path d="M374.629 95.0414C374.921 95.1006 375.217 95.1226 375.517 95.1069 375.493 95.1327 375.459 95.1491 375.419 95.1566 375.254 95.1787 375.09 95.1787 374.925 95.1566 374.814 95.1396 374.716 95.1012 374.629 95.0414Z" fill="#B2B2B2" fill-rule="evenodd" transform="matrix(1.00877 0 0 1 -25.0221 450.845)"/><path d="M376.373 94.877C376.375 94.8587 376.386 94.848 376.406 94.8436 376.458 94.9815 376.48 95.1239 376.472 95.2719 376.433 95.1415 376.4 95.0099 376.373 94.877Z" fill="#626262" fill-rule="evenodd" transform="matrix(1.00877 0 0 1 -25.0221 450.845)"/><path d="M367.619 95.3374C367.497 95.4331 367.354 95.4772 367.191 95.469 367.331 95.4262 367.473 95.3827 367.619 95.3374Z" fill="#AAAAAA" fill-rule="evenodd" transform="matrix(1.00877 0 0 1 -25.0221 450.845)"/><path d="M385.522 95.2719C385.552 95.3065 385.564 95.3506 385.555 95.4035 385.709 95.4035 385.862 95.4035 386.016 95.4035 385.857 95.4356 385.693 95.447 385.522 95.4363 385.522 95.3815 385.522 95.3267 385.522 95.2719Z" fill="#A9A9A9" fill-rule="evenodd" transform="matrix(1.00877 0 0 1 -25.0221 450.845)"/><path d="M375.715 95.4035C375.665 95.4331 375.61 95.4608 375.551 95.4854 375.292 95.5125 375.04 95.5074 374.794 95.469 375.103 95.4803 375.411 95.4583 375.715 95.4035Z" fill="#999999" fill-rule="evenodd" transform="matrix(1.00877 0 0 1 -25.0221 450.845)"/><path d="M394.145 95.3374C393.978 95.4457 393.792 95.5062 393.585 95.5181 393.42 95.5402 393.256 95.5402 393.092 95.5181 392.992 95.515 392.904 95.4879 392.828 95.4363 393.277 95.5377 393.716 95.5049 394.145 95.3374Z" fill="#BFBFBF" fill-rule="evenodd" transform="matrix(1.00877 0 0 1 -25.0221 450.845)"/></g></g></svg>