<svg width="153" height="153" xmlns="http://www.w3.org/2000/svg" xmlns:xlink="http://www.w3.org/1999/xlink" xml:space="preserve" overflow="hidden"><defs><clipPath id="clip0"><rect x="502" y="218" width="153" height="153"/></clipPath><clipPath id="clip1"><path d="M578.5 218C620.75 218 655 252.25 655 294.5 655 336.75 620.75 371 578.5 371 536.25 371 502 336.75 502 294.5 502 252.25 536.25 218 578.5 218Z" fill-rule="evenodd" clip-rule="evenodd"/></clipPath></defs><g clip-path="url(#clip0)" transform="translate(-502 -218)"><path d="M578.5 218C620.75 218 655 252.25 655 294.5 655 336.75 620.75 371 578.5 371 536.25 371 502 336.75 502 294.5 502 252.25 536.25 218 578.5 218Z" fill="#F2F2F2" fill-rule="evenodd"/><g clip-path="url(#clip1)"><path d="M501.978 217.978C552.978 217.978 603.978 217.978 654.978 217.978 654.978 268.978 654.978 319.978 654.978 370.978 603.978 370.978 552.978 370.978 501.978 370.978 501.978 319.978 501.978 268.978 501.978 217.978Z" fill="#FEFEFE" fill-rule="evenodd"/><path d="M539.433 275.795C537.975 275.824 536.518 275.853 535.06 275.883 535.016 276.832 535.001 277.789 535.016 278.754 534.574 278.754 534.133 278.754 533.691 278.754 533.672 278.722 533.643 278.7 533.603 278.688 532.596 278.471 531.58 278.375 530.555 278.401 530.555 277.547 530.555 276.693 530.555 275.839 530.364 275.839 530.172 275.839 529.981 275.839 528.692 275.853 527.411 275.839 526.138 275.795 527.432 274.825 528.713 273.839 529.981 272.835 530.01 272.835 530.025 272.821 530.025 272.791 530.167 272.698 530.3 272.595 530.422 272.482 530.452 272.482 530.467 272.467 530.467 272.438 531.245 271.858 532.018 271.27 532.786 270.671 534.996 272.388 537.212 274.096 539.433 275.795Z" fill="#010101" fill-rule="evenodd"/><path d="M530.467 272.438C530.467 272.467 530.452 272.482 530.422 272.482 530.29 272.482 530.157 272.482 530.025 272.482 530.025 272.585 530.025 272.688 530.025 272.791 530.025 272.821 530.01 272.835 529.981 272.835 529.981 272.703 529.981 272.57 529.981 272.438 530.143 272.438 530.305 272.438 530.467 272.438Z" fill="#A7B6AC" fill-rule="evenodd"/><path d="M552.507 272.482C557.299 272.43 562.099 272.423 566.906 272.46 567.348 272.485 567.79 272.515 568.231 272.548 568.416 272.572 568.593 272.608 568.761 272.659 568.115 272.592 567.467 272.541 566.817 272.504 562.106 272.482 557.395 272.474 552.683 272.482 552.669 272.482 552.654 272.482 552.639 272.482 552.595 272.482 552.551 272.482 552.507 272.482Z" fill="#8D8D8D" fill-rule="evenodd"/><path d="M552.683 272.482C557.395 272.474 562.106 272.482 566.817 272.504 567.467 272.541 568.115 272.592 568.761 272.659 568.79 272.659 568.82 272.659 568.849 272.659 569.002 272.711 569.163 272.74 569.335 272.747 572.656 273.239 575.24 274.873 577.087 277.65 577.611 278.537 578.001 279.479 578.257 280.476 578.253 280.594 578.283 280.697 578.345 280.786 578.345 280.815 578.345 280.844 578.345 280.874 578.331 280.995 578.36 281.097 578.434 281.183 578.434 281.213 578.434 281.242 578.434 281.272 578.479 281.721 578.538 282.162 578.61 282.597 578.61 283.127 578.61 283.657 578.61 284.187 578.563 284.488 578.534 284.797 578.522 285.114 578.522 285.188 578.522 285.261 578.522 285.335 578.431 285.602 578.372 285.882 578.345 286.174 577.621 289.667 575.603 292.066 572.294 293.374 571.957 293.466 571.633 293.584 571.323 293.727 571.238 293.715 571.164 293.729 571.102 293.771 570.985 293.767 570.881 293.797 570.793 293.86 569.471 294.174 568.131 294.351 566.773 294.39 563.659 294.375 560.553 294.39 557.454 294.434 557.409 296.031 557.395 297.636 557.409 299.248 557.077 299.661 556.849 300.132 556.725 300.662 556.628 301.612 556.51 302.555 556.372 303.488 555.714 304.411 555.022 305.309 554.296 306.183 554.274 306.225 554.267 306.269 554.274 306.315 554.069 306.516 553.885 306.736 553.721 306.978 553.484 307.097 553.271 307.251 553.081 307.441 553.047 307.571 552.973 307.666 552.86 307.728 552.801 307.728 552.742 307.728 552.683 307.728 552.683 295.98 552.683 284.231 552.683 272.482Z" fill-rule="evenodd"/><path d="M530.422 272.482C530.3 272.595 530.167 272.698 530.025 272.791 530.025 272.688 530.025 272.585 530.025 272.482 530.157 272.482 530.29 272.482 530.422 272.482Z" fill="#526957" fill-rule="evenodd"/><path d="M568.849 272.659C568.983 272.652 569.115 272.659 569.247 272.681 569.287 272.693 569.316 272.715 569.335 272.747 569.163 272.74 569.002 272.711 568.849 272.659Z" fill="#9B9B9B" fill-rule="evenodd"/><path d="M552.507 272.482C552.551 272.482 552.595 272.482 552.639 272.482 552.639 284.275 552.639 296.068 552.639 307.861 552.639 307.891 552.639 307.92 552.639 307.949 552.607 307.888 552.577 307.822 552.551 307.751 552.61 305.155 552.61 302.556 552.551 299.955 552.51 299.904 552.473 299.904 552.441 299.955 552.434 300.115 552.397 300.263 552.33 300.397 552.385 299.897 552.437 299.396 552.485 298.895 552.507 290.091 552.514 281.286 552.507 272.482Z" fill="#58765F" fill-rule="evenodd"/><path d="M552.639 272.482C552.654 272.482 552.669 272.482 552.683 272.482 552.683 284.231 552.683 295.98 552.683 307.728 552.742 307.728 552.801 307.728 552.86 307.728 552.824 307.856 552.75 307.9 552.639 307.861 552.639 296.068 552.639 284.275 552.639 272.482Z" fill="#07140E" fill-rule="evenodd"/><path d="M526.138 275.795C527.411 275.839 528.692 275.853 529.981 275.839 529.981 275.853 529.981 275.868 529.981 275.883 529.951 275.883 529.922 275.883 529.892 275.883 528.626 275.898 527.36 275.883 526.094 275.839 526.099 275.812 526.114 275.797 526.138 275.795Z" fill="#7F7F7F" fill-rule="evenodd"/><path d="M539.433 275.795C539.457 275.797 539.472 275.812 539.477 275.839 538.02 275.883 536.562 275.898 535.104 275.883 535.119 276.862 535.104 277.834 535.06 278.798 535.06 277.826 535.06 276.855 535.06 275.883 536.518 275.853 537.975 275.824 539.433 275.795Z" fill="#8F8F8F" fill-rule="evenodd"/><path d="M529.892 275.883C529.922 275.883 529.951 275.883 529.981 275.883 529.973 283.612 529.981 291.342 530.003 299.071 530.012 299.14 530.034 299.199 530.069 299.248 530.069 299.484 530.069 299.719 530.069 299.955 529.966 299.908 529.951 299.834 530.025 299.734 529.991 299.56 529.969 299.383 529.959 299.204 529.951 291.427 529.929 283.654 529.892 275.883Z" fill="#F5FEF7" fill-rule="evenodd"/><path d="M529.981 275.883C530.157 275.883 530.334 275.883 530.511 275.883 530.511 276.752 530.511 277.62 530.511 278.489 530.511 278.592 530.511 278.695 530.511 278.798 530.467 277.849 530.452 276.892 530.467 275.927 530.334 275.927 530.202 275.927 530.069 275.927 530.069 283.701 530.069 291.474 530.069 299.248 530.034 299.199 530.012 299.14 530.003 299.071 529.981 291.342 529.973 283.612 529.981 275.883Z" fill="#6E8A77" fill-rule="evenodd"/><path d="M566.729 276.413C566.964 276.428 567.2 276.443 567.436 276.457 567.593 276.498 567.755 276.513 567.922 276.501 568.042 276.564 568.174 276.593 568.319 276.59 570.261 276.916 571.74 277.917 572.758 279.593 573.985 281.767 574.176 284.034 573.332 286.395 572.735 288.074 571.609 289.237 569.953 289.884 569.737 289.942 569.531 290.015 569.335 290.105 568.878 290.198 568.422 290.294 567.966 290.392 567.481 290.45 566.995 290.487 566.508 290.503 563.519 290.503 560.531 290.503 557.542 290.503 557.542 285.806 557.542 281.109 557.542 276.413 560.604 276.413 563.667 276.413 566.729 276.413Z" fill="#FEFEFE" fill-rule="evenodd"/><path d="M566.729 276.413C566.729 276.398 566.729 276.383 566.729 276.369 566.976 276.354 567.212 276.383 567.436 276.457 567.2 276.443 566.964 276.428 566.729 276.413Z" fill="#616161" fill-rule="evenodd"/><path d="M557.498 276.369C560.575 276.369 563.652 276.369 566.729 276.369 566.729 276.383 566.729 276.398 566.729 276.413 563.667 276.413 560.604 276.413 557.542 276.413 557.542 281.109 557.542 285.806 557.542 290.503 557.498 285.799 557.483 281.087 557.498 276.369Z" fill="#C3CAC4" fill-rule="evenodd"/><path d="M567.922 276.501C568.067 276.498 568.199 276.527 568.319 276.59 568.174 276.593 568.042 276.564 567.922 276.501Z" fill="#7E7E7E" fill-rule="evenodd"/><path d="M557.498 276.369C557.483 281.087 557.498 285.799 557.542 290.503 560.531 290.503 563.519 290.503 566.508 290.503 563.487 290.561 560.462 290.561 557.432 290.503 557.402 285.806 557.402 281.109 557.432 276.413 557.448 276.388 557.47 276.374 557.498 276.369Z" fill="#5C665E" fill-rule="evenodd"/><path d="M529.981 275.883C529.981 275.868 529.981 275.853 529.981 275.839 530.172 275.839 530.364 275.839 530.555 275.839 530.555 276.693 530.555 277.547 530.555 278.401 531.58 278.375 532.596 278.471 533.603 278.688 533.643 278.7 533.672 278.722 533.691 278.754 532.673 278.746 531.657 278.694 530.643 278.599 530.591 278.568 530.547 278.532 530.511 278.489 530.511 277.62 530.511 276.752 530.511 275.883 530.334 275.883 530.157 275.883 529.981 275.883Z" fill="#0C140E" fill-rule="evenodd"/><path d="M535.06 275.883C535.06 276.855 535.06 277.826 535.06 278.798 535.031 278.798 535.001 278.798 534.972 278.798 533.485 278.798 531.998 278.798 530.511 278.798 530.511 278.695 530.511 278.592 530.511 278.489 530.547 278.532 530.591 278.568 530.643 278.599 531.657 278.694 532.673 278.746 533.691 278.754 534.133 278.754 534.574 278.754 535.016 278.754 535.001 277.789 535.016 276.832 535.06 275.883Z" fill="#1B271D" fill-rule="evenodd"/><path d="M530.511 278.798C531.475 278.835 532.447 278.857 533.426 278.864 533.61 278.915 533.801 278.937 534 278.931 534.201 278.929 534.399 278.914 534.596 278.886 534.648 278.931 534.7 278.975 534.751 279.019 534.806 278.986 534.865 278.971 534.928 278.975 534.913 285.46 534.928 291.938 534.972 298.409 534.958 298.58 534.973 298.742 535.016 298.895 535.165 303.312 537.403 305.933 541.73 306.757 541.925 306.822 542.131 306.851 542.348 306.845 542.758 306.873 543.171 306.888 543.585 306.889 544.153 306.897 544.713 306.868 545.263 306.801 547.033 306.622 548.608 305.982 549.989 304.88 551.315 303.664 552.095 302.17 552.33 300.397 552.397 300.263 552.434 300.115 552.441 299.955 552.473 299.904 552.51 299.904 552.551 299.955 552.61 302.556 552.61 305.155 552.551 307.751 552.577 307.822 552.607 307.888 552.639 307.949 552.639 308.038 552.639 308.126 552.639 308.214 552.929 307.969 553.224 307.719 553.523 307.464 553.562 307.427 553.577 307.383 553.567 307.331 553.761 307.218 553.923 307.063 554.053 306.867 554.345 306.626 554.632 306.383 554.914 306.138 555.062 305.93 555.232 305.739 555.422 305.564 555.541 305.397 555.645 305.221 555.731 305.034 555.767 304.995 555.811 304.98 555.864 304.99 555.727 305.186 555.609 305.392 555.51 305.608 553.924 307.654 551.907 309.119 549.459 310.003 548.726 310.285 547.975 310.498 547.207 310.644 546.907 310.679 546.605 310.679 546.301 310.644 546.268 310.671 546.231 310.694 546.191 310.71 545.816 310.731 545.448 310.783 545.086 310.864 544.051 310.86 543.028 310.86 542.017 310.864 541.742 310.846 541.484 310.773 541.244 310.644 541.012 310.697 540.783 310.682 540.559 310.599 540.423 310.649 540.284 310.656 540.14 310.622 539.892 310.584 539.656 310.511 539.433 310.401 539.194 310.377 538.959 310.341 538.726 310.29 536.537 309.656 534.631 308.537 533.006 306.933 532.062 305.909 531.348 304.746 530.864 303.444 530.763 303.096 530.645 302.757 530.511 302.428 530.32 301.606 530.173 300.782 530.069 299.955 530.069 299.719 530.069 299.484 530.069 299.248 530.069 291.474 530.069 283.701 530.069 275.927 530.202 275.927 530.334 275.927 530.467 275.927 530.452 276.892 530.467 277.849 530.511 278.798Z" fill="#4D7558" fill-rule="evenodd"/><path d="M534.972 278.798C535.001 278.798 535.031 278.798 535.06 278.798 535.016 285.494 535.001 292.193 535.016 298.895 534.973 298.742 534.958 298.58 534.972 298.409 534.972 291.872 534.972 285.335 534.972 278.798Z" fill="#B3C4B4" fill-rule="evenodd"/><path d="M530.511 278.798C531.998 278.798 533.485 278.798 534.972 278.798 534.972 285.335 534.972 291.872 534.972 298.409 534.928 291.938 534.913 285.46 534.928 278.975 534.865 278.971 534.806 278.986 534.751 279.019 534.7 278.975 534.648 278.931 534.596 278.886 534.399 278.914 534.201 278.929 534 278.931 533.801 278.937 533.61 278.915 533.426 278.864 532.447 278.857 531.475 278.835 530.511 278.798Z" fill="#517059" fill-rule="evenodd"/><path d="M578.257 280.476C578.32 280.565 578.349 280.669 578.345 280.786 578.283 280.697 578.253 280.594 578.257 280.476Z" fill="#686868" fill-rule="evenodd"/><path d="M578.345 280.874C578.408 280.963 578.438 281.066 578.434 281.183 578.36 281.097 578.331 280.995 578.345 280.874Z" fill="#707070" fill-rule="evenodd"/><path d="M578.434 281.272C578.545 281.7 578.604 282.142 578.61 282.597 578.538 282.162 578.479 281.721 578.434 281.272Z" fill="#777777" fill-rule="evenodd"/><path d="M621.542 283.612C621.704 283.701 621.867 283.789 622.028 283.877 622.101 283.92 622.159 283.979 622.205 284.054 622.068 283.981 621.921 283.93 621.763 283.9 621.669 283.75 621.529 283.684 621.344 283.701 620.953 283.752 620.564 283.797 620.173 283.833 620.622 283.74 621.079 283.666 621.542 283.612Z" fill="#636364" fill-rule="evenodd"/><path d="M621.542 283.612C621.079 283.666 620.622 283.74 620.173 283.833 620.143 283.833 620.114 283.833 620.085 283.833 619.776 283.871 619.467 283.9 619.157 283.922 619.856 283.752 620.57 283.635 621.299 283.568 621.389 283.569 621.47 283.583 621.542 283.612Z" fill="#D1D1D1" fill-rule="evenodd"/><path d="M622.205 284.054C622.495 284.263 622.805 284.447 623.132 284.606 623.305 284.762 623.49 284.902 623.684 285.026 623.911 285.176 624.154 285.301 624.413 285.401 624.49 285.532 624.608 285.598 624.767 285.6 624.922 285.7 625.084 285.788 625.252 285.865 625.296 285.923 625.34 285.982 625.385 286.042 625.752 286.21 626.091 286.424 626.401 286.682 626.628 286.785 626.849 286.895 627.063 287.013 627.176 287.148 627.323 287.229 627.505 287.256 627.613 287.417 627.76 287.513 627.947 287.543 627.947 287.602 627.947 287.661 627.947 287.72 628.139 287.816 628.345 287.889 628.565 287.941 628.646 288.008 628.734 288.066 628.83 288.118 629.096 288.294 629.361 288.479 629.625 288.67 629.698 288.697 629.772 288.719 629.846 288.736 630.134 288.961 630.444 289.153 630.774 289.31 630.787 289.339 630.802 289.368 630.818 289.399 630.508 289.457 630.199 289.516 629.89 289.575 629.047 289.668 628.208 289.786 627.373 289.929 627.236 290.33 627.133 290.742 627.063 291.165 627.07 291.233 627.099 291.277 627.152 291.298 627.258 291.458 627.295 291.634 627.262 291.828 627.06 291.997 626.979 292.218 627.019 292.49 627.019 292.505 627.019 292.52 627.019 292.534 626.968 292.657 626.939 292.789 626.931 292.932 626.887 292.932 626.843 292.932 626.798 292.932 626.766 293.299 626.751 293.667 626.754 294.036 626.754 294.051 626.754 294.066 626.754 294.08 626.676 294.213 626.625 294.36 626.6 294.522 626.578 294.801 626.57 295.081 626.578 295.361 626.541 295.64 626.527 295.919 626.533 296.201 626.546 296.285 626.531 296.359 626.489 296.421 626.457 296.44 626.435 296.469 626.423 296.51 626.369 296.828 626.317 297.144 626.268 297.459 626.165 297.496 626.062 297.533 625.959 297.57 625.768 297.535 625.577 297.506 625.385 297.481 625.326 297.437 625.267 297.393 625.208 297.349 625.253 297.008 625.312 296.67 625.385 296.333 625.415 296.171 625.444 296.009 625.473 295.847 625.516 295.734 625.582 295.63 625.672 295.538 625.708 295.422 625.73 295.305 625.738 295.185 625.766 295.18 625.788 295.165 625.805 295.14 625.881 294.765 625.977 294.398 626.092 294.036 626.437 293.253 626.57 292.428 626.489 291.563 626.525 291.401 626.621 291.283 626.776 291.209 626.862 290.815 626.928 290.417 626.975 290.017 626.406 290.094 625.846 290.197 625.297 290.326 624.947 290.334 624.609 290.378 624.281 290.459 623.637 290.569 622.989 290.664 622.337 290.746 622.142 290.805 621.951 290.857 621.763 290.9 621.597 290.957 621.42 290.987 621.233 290.989 620.805 291.036 620.378 291.095 619.952 291.165 619.803 291.091 619.656 291.017 619.511 290.944 619.422 290.731 619.26 290.613 619.025 290.591 619.025 290.547 619.025 290.503 619.025 290.459 618.936 290.459 618.848 290.459 618.76 290.459 618.548 290.261 618.312 290.099 618.053 289.973 618.038 289.973 618.023 289.973 618.009 289.973 617.989 289.93 617.959 289.894 617.92 289.862 617.719 289.74 617.512 289.63 617.302 289.531 616.998 289.375 616.704 289.198 616.419 289.001 616.361 288.957 616.303 288.913 616.242 288.868 616.141 288.738 616.008 288.664 615.845 288.648 615.825 288.605 615.795 288.569 615.756 288.537 615.556 288.418 615.35 288.308 615.138 288.206 614.963 288.078 614.772 287.975 614.564 287.897 614.388 287.776 614.212 287.651 614.034 287.521 613.992 287.5 613.948 287.493 613.901 287.499 613.866 287.442 613.822 287.391 613.769 287.345 613.476 287.21 613.196 287.056 612.929 286.881 612.72 286.687 612.484 286.524 612.223 286.395 612.053 286.262 611.876 286.137 611.693 286.02 611.636 285.998 611.577 285.99 611.516 285.998 611.447 285.987 611.388 285.958 611.339 285.909 611.127 285.758 610.906 285.625 610.677 285.512 610.677 285.468 610.677 285.423 610.677 285.379 611.46 285.295 612.226 285.162 612.974 284.982 613.358 284.954 613.741 284.91 614.122 284.849 614.141 284.877 614.17 284.892 614.21 284.893 614.688 284.826 615.159 284.738 615.624 284.628 615.692 284.636 615.758 284.651 615.822 284.672 616.063 284.593 616.306 284.519 616.551 284.452 616.61 284.466 616.669 284.481 616.728 284.496 617.354 284.371 617.972 284.239 618.583 284.098 618.583 284.084 618.583 284.069 618.583 284.054 619.095 284.016 619.595 283.942 620.085 283.833 620.114 283.833 620.143 283.833 620.173 283.833 620.564 283.797 620.953 283.752 621.344 283.701 621.529 283.684 621.669 283.75 621.763 283.9 621.921 283.93 622.068 283.981 622.205 284.054Z" fill="#313133" fill-rule="evenodd"/><path d="M620.085 283.833C619.595 283.942 619.095 284.016 618.583 284.054 618.686 284.025 618.789 283.995 618.892 283.966 618.991 283.979 619.079 283.964 619.157 283.922 619.467 283.9 619.776 283.871 620.085 283.833Z" fill="#909090" fill-rule="evenodd"/><path d="M618.892 283.966C618.789 283.995 618.686 284.025 618.583 284.054 618.583 284.069 618.583 284.084 618.583 284.098 618.171 284.142 617.758 284.187 617.346 284.231 617.845 284.082 618.36 283.993 618.892 283.966Z" fill="#D3D3D4" fill-rule="evenodd"/><path d="M617.346 284.231C616.729 284.395 616.096 284.498 615.447 284.54 616.069 284.403 616.702 284.3 617.346 284.231Z" fill="#C2C2C3" fill-rule="evenodd"/><path d="M618.583 284.098C617.972 284.239 617.354 284.371 616.728 284.496 616.669 284.481 616.61 284.466 616.551 284.452 616.306 284.519 616.063 284.593 615.822 284.672 615.758 284.651 615.692 284.636 615.624 284.628 615.159 284.738 614.688 284.826 614.21 284.893 614.17 284.892 614.141 284.877 614.122 284.849 614.179 284.86 614.223 284.845 614.254 284.805 614.599 284.732 614.953 284.673 615.315 284.628 615.382 284.622 615.426 284.593 615.447 284.54 616.096 284.498 616.729 284.395 617.346 284.231 617.758 284.187 618.171 284.142 618.583 284.098Z" fill="#565658" fill-rule="evenodd"/><path d="M615.447 284.54C615.426 284.593 615.382 284.622 615.315 284.628 614.953 284.673 614.599 284.732 614.254 284.805 613.827 284.845 613.4 284.889 612.974 284.938 613.099 284.902 613.224 284.858 613.349 284.805 613.403 284.811 613.455 284.826 613.504 284.849 613.698 284.765 613.904 284.714 614.122 284.695 614.563 284.636 615.005 284.584 615.447 284.54Z" fill="#D2D2D3" fill-rule="evenodd"/><path d="M614.254 284.805C614.223 284.845 614.179 284.86 614.122 284.849 613.741 284.91 613.358 284.954 612.974 284.982 612.974 284.967 612.974 284.952 612.974 284.938 613.4 284.889 613.827 284.845 614.254 284.805Z" fill="#8B8B8C" fill-rule="evenodd"/><path d="M578.61 284.187C578.625 284.506 578.595 284.816 578.522 285.114 578.534 284.797 578.563 284.488 578.61 284.187Z" fill="#848484" fill-rule="evenodd"/><path d="M622.028 283.877C622.402 283.98 622.711 284.179 622.956 284.474 623.062 284.482 623.165 284.504 623.265 284.54 623.441 284.714 623.632 284.869 623.839 285.004 623.991 285.043 624.138 285.094 624.281 285.158 624.314 285.208 624.344 285.259 624.369 285.313 624.508 285.411 624.64 285.506 624.767 285.6 624.608 285.598 624.49 285.532 624.413 285.401 624.154 285.301 623.911 285.176 623.684 285.026 623.49 284.902 623.305 284.762 623.132 284.606 622.805 284.447 622.495 284.263 622.205 284.054 622.159 283.979 622.101 283.92 622.028 283.877Z" fill="#BCBCBC" fill-rule="evenodd"/><path d="M612.974 284.982C612.226 285.162 611.46 285.295 610.677 285.379 610.677 285.423 610.677 285.468 610.677 285.512 610.906 285.625 611.127 285.758 611.339 285.909 611.27 285.908 611.204 285.894 611.141 285.865 610.969 285.771 610.8 285.668 610.633 285.556 610.554 285.498 610.54 285.431 610.589 285.357 611.371 285.175 612.166 285.049 612.974 284.982Z" fill="#B3B3B3" fill-rule="evenodd"/><path d="M578.522 285.335C578.495 285.586 578.458 285.837 578.412 286.086 578.399 286.127 578.377 286.156 578.345 286.174 578.372 285.882 578.431 285.602 578.522 285.335Z" fill="#6A6A6A" fill-rule="evenodd"/><path d="M625.252 285.865C625.462 285.988 625.683 286.091 625.915 286.174 625.954 286.21 625.969 286.255 625.959 286.307 626.158 286.349 626.32 286.459 626.445 286.638 626.519 286.653 626.592 286.668 626.666 286.682 626.811 286.781 626.943 286.892 627.063 287.013 626.849 286.895 626.628 286.785 626.401 286.682 626.091 286.424 625.752 286.21 625.385 286.042 625.34 285.982 625.296 285.923 625.252 285.865Z" fill="#BFBFC0" fill-rule="evenodd"/><path d="M611.516 285.998C611.577 285.99 611.636 285.998 611.693 286.02 611.876 286.137 612.053 286.262 612.223 286.395 612.018 286.369 611.827 286.31 611.649 286.218 611.649 286.16 611.649 286.1 611.649 286.042 611.592 286.052 611.547 286.037 611.516 285.998Z" fill="#A6A6A6" fill-rule="evenodd"/><path d="M612.223 286.395C612.484 286.524 612.72 286.687 612.929 286.881 612.837 286.894 612.748 286.88 612.664 286.837 612.545 286.718 612.413 286.615 612.267 286.528 612.239 286.487 612.224 286.443 612.223 286.395Z" fill="#C1C1C1" fill-rule="evenodd"/><path d="M612.929 286.881C613.196 287.056 613.476 287.21 613.769 287.345 613.822 287.391 613.866 287.442 613.901 287.499 613.691 287.4 613.485 287.29 613.283 287.168 613.15 287.084 613.032 286.988 612.929 286.881Z" fill="#AEAEAF" fill-rule="evenodd"/><path d="M627.947 287.543C628.119 287.681 628.311 287.784 628.521 287.853 628.556 287.873 628.571 287.902 628.565 287.941 628.345 287.889 628.139 287.816 627.947 287.72 627.947 287.661 627.947 287.602 627.947 287.543Z" fill="#656567" fill-rule="evenodd"/><path d="M614.564 287.897C614.772 287.975 614.963 288.078 615.138 288.206 615.054 288.209 614.973 288.194 614.895 288.162 614.815 288.081 614.72 288.03 614.608 288.007 614.575 287.978 614.56 287.941 614.564 287.897Z" fill="#B4B4B5" fill-rule="evenodd"/><path d="M615.138 288.206C615.35 288.308 615.556 288.418 615.756 288.537 615.795 288.569 615.825 288.605 615.845 288.648 615.604 288.587 615.383 288.484 615.182 288.339 615.143 288.302 615.128 288.258 615.138 288.206Z" fill="#ADADAD" fill-rule="evenodd"/><path d="M628.83 288.118C628.908 288.111 628.982 288.126 629.051 288.162 629.323 288.354 629.588 288.545 629.846 288.736 629.772 288.719 629.698 288.697 629.625 288.67 629.361 288.479 629.096 288.294 628.83 288.118Z" fill="#9E9E9F" fill-rule="evenodd"/><path d="M615.845 288.648C616.008 288.664 616.141 288.738 616.242 288.868 616.065 288.866 615.932 288.792 615.845 288.648Z" fill="#7E7E80" fill-rule="evenodd"/><path d="M629.846 288.736C629.971 288.763 630.096 288.792 630.221 288.824 630.39 288.919 630.544 289.03 630.685 289.156 630.744 289.192 630.773 289.243 630.774 289.31 630.444 289.153 630.134 288.961 629.846 288.736Z" fill="#C4C4C4" fill-rule="evenodd"/><path d="M615.845 289.178C615.588 289.083 615.353 288.951 615.138 288.78 615.112 288.789 615.09 288.804 615.072 288.824 615.063 288.97 615.026 289.103 614.961 289.222 614.988 289.061 615.003 288.899 615.005 288.736 615.204 288.764 615.38 288.845 615.535 288.979 615.624 289.009 615.712 289.038 615.8 289.067 615.833 289.097 615.849 289.134 615.845 289.178Z" fill="#9F9F9F" fill-rule="evenodd"/><path d="M615.845 289.178C615.889 289.229 615.948 289.259 616.021 289.266 616.133 289.362 616.251 289.458 616.375 289.553 616.508 289.577 616.625 289.628 616.728 289.708 616.79 289.769 616.864 289.813 616.949 289.84 617.076 289.975 617.224 290.085 617.39 290.171 617.476 290.207 617.564 290.229 617.655 290.238 617.658 290.33 617.702 290.396 617.788 290.436 617.926 290.524 618.073 290.59 618.23 290.635 618.281 290.672 618.34 290.702 618.406 290.724 618.489 290.839 618.592 290.935 618.716 291.011 618.848 291.007 618.936 291.065 618.981 291.187 619.113 291.211 619.231 291.262 619.334 291.342 619.477 291.456 619.625 291.567 619.776 291.673 619.923 291.681 620.07 291.674 620.217 291.651 620.236 291.679 620.265 291.694 620.306 291.695 620.954 291.548 621.602 291.431 622.249 291.342 622.44 291.294 622.631 291.25 622.823 291.209 623.108 291.141 623.403 291.097 623.707 291.077 624.271 291.036 624.831 290.963 625.385 290.856 625.359 291.184 625.315 291.508 625.252 291.828 625.154 292.048 625.109 292.284 625.12 292.534 625.12 292.549 625.12 292.564 625.12 292.579 625.055 292.746 625.003 292.923 624.965 293.109 624.949 293.133 624.927 293.148 624.899 293.153 624.83 293.304 624.749 293.451 624.656 293.595 624.543 293.626 624.492 293.7 624.502 293.815 624.219 293.986 623.954 294.177 623.707 294.39 623.439 294.509 623.174 294.626 622.911 294.743 622.42 294.867 621.919 294.941 621.41 294.964 620.909 294.971 620.409 294.964 619.908 294.942 619.378 294.828 618.848 294.718 618.318 294.61 618.319 294.566 618.297 294.537 618.252 294.522 617.998 294.47 617.755 294.396 617.523 294.301 617.337 294.233 617.16 294.144 616.993 294.036 616.877 293.948 616.759 293.86 616.64 293.771 616.556 293.728 616.467 293.714 616.375 293.727 616.235 293.528 616.058 293.381 615.845 293.285 615.771 293.182 615.682 293.094 615.58 293.02 615.383 292.839 615.221 292.633 615.094 292.402 615.079 292.402 615.064 292.402 615.049 292.402 615.032 292.21 614.958 292.048 614.829 291.916 614.799 291.842 614.77 291.769 614.74 291.695 614.67 291.22 614.685 290.749 614.784 290.282 614.784 290.223 614.784 290.164 614.784 290.105 614.914 289.846 614.973 289.566 614.961 289.266 614.961 289.251 614.961 289.236 614.961 289.222 615.026 289.103 615.063 288.97 615.072 288.824 615.09 288.804 615.112 288.789 615.138 288.78 615.353 288.951 615.588 289.083 615.845 289.178Z" fill="#313133" fill-rule="evenodd"/><path d="M616.021 289.266C616.226 289.317 616.418 289.398 616.595 289.509 616.635 289.58 616.679 289.646 616.728 289.708 616.625 289.628 616.508 289.577 616.375 289.553 616.251 289.458 616.133 289.362 616.021 289.266Z" fill="#CCCCCD" fill-rule="evenodd"/><path d="M616.419 289.001C616.704 289.198 616.998 289.375 617.302 289.531 617.431 289.619 617.549 289.722 617.655 289.84 617.361 289.665 617.052 289.511 616.728 289.376 616.584 289.284 616.481 289.159 616.419 289.001Z" fill="#CFCFCF" fill-rule="evenodd"/><path d="M630.774 289.31C630.891 289.318 630.921 289.37 630.862 289.465 630.459 289.584 630.046 289.65 629.625 289.664 629.714 289.634 629.802 289.605 629.89 289.575 630.199 289.516 630.508 289.457 630.818 289.399 630.802 289.368 630.787 289.339 630.774 289.31Z" fill="#CDCDCD" fill-rule="evenodd"/><path d="M614.961 289.266C614.973 289.566 614.914 289.846 614.784 290.105 614.815 289.854 614.852 289.604 614.895 289.354 614.907 289.314 614.929 289.285 614.961 289.266Z" fill="#909092" fill-rule="evenodd"/><path d="M617.302 289.531C617.512 289.63 617.719 289.74 617.92 289.862 617.959 289.894 617.989 289.93 618.009 289.973 617.899 289.912 617.782 289.868 617.655 289.84 617.549 289.722 617.431 289.619 617.302 289.531Z" fill="#818182" fill-rule="evenodd"/><path d="M569.953 289.884C569.771 290.009 569.565 290.083 569.335 290.105 569.531 290.015 569.737 289.942 569.953 289.884Z" fill="#404040" fill-rule="evenodd"/><path d="M616.949 289.84C617.108 289.853 617.255 289.905 617.39 289.995 617.661 290.232 617.941 290.445 618.23 290.635 618.073 290.59 617.926 290.524 617.788 290.436 617.702 290.396 617.658 290.33 617.655 290.238 617.564 290.229 617.476 290.207 617.39 290.171 617.224 290.085 617.076 289.975 616.949 289.84Z" fill="#C7C7C7" fill-rule="evenodd"/><path d="M626.489 291.563C626.475 291.563 626.46 291.563 626.445 291.563 626.46 291.377 626.556 291.245 626.732 291.165 626.765 290.861 626.816 290.558 626.887 290.26 626.872 290.208 626.857 290.157 626.843 290.105 626.513 290.157 626.189 290.224 625.871 290.304 625.68 290.326 625.489 290.334 625.297 290.326 625.846 290.197 626.406 290.094 626.975 290.017 626.928 290.417 626.862 290.815 626.776 291.209 626.621 291.283 626.525 291.401 626.489 291.563Z" fill="#939394" fill-rule="evenodd"/><path d="M618.053 289.973C618.312 290.099 618.548 290.261 618.76 290.459 618.475 290.365 618.239 290.203 618.053 289.973Z" fill="#909091" fill-rule="evenodd"/><path d="M625.297 290.326C625.292 290.353 625.277 290.376 625.252 290.392 624.935 290.43 624.626 290.482 624.325 290.547 624.134 290.566 623.942 290.58 623.751 290.591 623.926 290.539 624.102 290.495 624.281 290.459 624.609 290.378 624.947 290.334 625.297 290.326Z" fill="#9C9C9D" fill-rule="evenodd"/><path d="M629.89 289.575C629.802 289.605 629.714 289.634 629.625 289.664 628.91 289.783 628.188 289.893 627.461 289.995 627.401 290.065 627.371 290.146 627.373 290.238 627.243 290.574 627.17 290.928 627.152 291.298 627.099 291.277 627.07 291.233 627.063 291.165 627.133 290.742 627.236 290.33 627.373 289.929 628.208 289.786 629.047 289.668 629.89 289.575Z" fill="#787878" fill-rule="evenodd"/><path d="M624.281 290.459C624.102 290.495 623.926 290.539 623.751 290.591 623.358 290.664 622.96 290.723 622.558 290.768 622.427 290.79 622.309 290.834 622.205 290.9 622.058 290.9 621.91 290.9 621.763 290.9 621.951 290.857 622.142 290.805 622.337 290.746 622.989 290.664 623.637 290.569 624.281 290.459Z" fill="#777778" fill-rule="evenodd"/><path d="M618.76 290.459C618.848 290.459 618.936 290.459 619.025 290.459 619.025 290.503 619.025 290.547 619.025 290.591 619.26 290.613 619.422 290.731 619.511 290.944 619.268 290.771 619.017 290.61 618.76 290.459Z" fill="#6D6C6F" fill-rule="evenodd"/><path d="M624.325 290.547C624.202 290.604 624.07 290.648 623.927 290.679 623.353 290.757 622.779 290.831 622.205 290.9 622.309 290.834 622.427 290.79 622.558 290.768 622.96 290.723 623.358 290.664 623.751 290.591 623.942 290.58 624.134 290.566 624.325 290.547Z" fill="#D6D6D6" fill-rule="evenodd"/><path d="M625.385 291.43C625.327 291.559 625.282 291.691 625.252 291.828 625.315 291.508 625.359 291.184 625.385 290.856 624.831 290.963 624.271 291.036 623.707 291.077 623.707 291.062 623.707 291.047 623.707 291.033 624.255 291 624.785 290.912 625.297 290.768 625.344 290.727 625.403 290.712 625.473 290.724 625.46 290.963 625.43 291.198 625.385 291.43Z" fill="#727273" fill-rule="evenodd"/><path d="M618.406 290.724C618.526 290.746 618.636 290.79 618.738 290.856 618.898 290.986 619.068 291.103 619.246 291.209 619.276 291.254 619.306 291.299 619.334 291.342 619.231 291.262 619.113 291.211 618.981 291.187 618.936 291.065 618.848 291.007 618.716 291.011 618.592 290.935 618.489 290.839 618.406 290.724Z" fill="#B4B4B5" fill-rule="evenodd"/><path d="M625.297 290.768C624.785 290.912 624.255 291 623.707 291.033 623.707 291.018 623.707 291.003 623.707 290.989 624.231 290.882 624.761 290.808 625.297 290.768Z" fill="#A4A4A5" fill-rule="evenodd"/><path d="M621.233 290.989C621.228 291.016 621.214 291.038 621.189 291.055 620.829 291.114 620.469 291.165 620.107 291.209 620.046 291.209 619.994 291.194 619.952 291.165 620.378 291.095 620.805 291.036 621.233 290.989Z" fill="#979798" fill-rule="evenodd"/><path d="M623.707 290.989C623.707 291.003 623.707 291.018 623.707 291.033 623.707 291.047 623.707 291.062 623.707 291.077 623.403 291.097 623.108 291.141 622.823 291.209 622.499 291.232 622.175 291.261 621.851 291.298 622.448 291.122 623.067 291.019 623.707 290.989Z" fill="#D6D6D7" fill-rule="evenodd"/><path d="M627.373 290.238C627.342 290.565 627.283 290.889 627.196 291.209 627.315 291.414 627.351 291.635 627.306 291.872 627.264 291.959 627.205 292.032 627.13 292.093 627.112 292.236 627.075 292.368 627.019 292.49 626.979 292.218 627.06 291.997 627.262 291.828 627.295 291.634 627.258 291.458 627.152 291.298 627.17 290.928 627.243 290.574 627.373 290.238Z" fill="#9B9B9B" fill-rule="evenodd"/><path d="M610.323 307.022C607.054 307.036 603.786 307.021 600.518 306.978 599.619 306.706 598.949 306.146 598.508 305.299 598.377 305.019 598.311 304.725 598.31 304.416 598.302 302.178 598.31 299.94 598.332 297.702 598.445 297.435 598.511 297.155 598.53 296.863 599.016 295.944 599.767 295.363 600.783 295.118 602.933 295.096 605.082 295.089 607.232 295.096 607.276 293.823 607.29 292.542 607.276 291.254 608.288 291.239 609.296 291.254 610.301 291.298 610.323 296.539 610.331 301.78 610.323 307.022Z" fill="#4D7658" fill-rule="evenodd"/><path d="M614.784 290.282C614.685 290.749 614.67 291.22 614.74 291.695 614.629 291.52 614.584 291.322 614.608 291.099 614.582 290.803 614.641 290.531 614.784 290.282Z" fill="#B0B0B0" fill-rule="evenodd"/><path d="M622.823 291.209C622.631 291.25 622.44 291.294 622.249 291.342 621.91 291.368 621.571 291.397 621.233 291.43 621.438 291.379 621.644 291.335 621.851 291.298 622.175 291.261 622.499 291.232 622.823 291.209Z" fill="#9E9E9F" fill-rule="evenodd"/><path d="M607.276 291.209C608.306 291.209 609.337 291.209 610.368 291.209 610.382 296.488 610.368 301.758 610.323 307.022 610.331 301.78 610.323 296.539 610.301 291.298 609.296 291.254 608.288 291.239 607.276 291.254 607.29 292.542 607.276 293.823 607.232 295.096 607.217 293.793 607.232 292.497 607.276 291.209Z" fill="#5E7965" fill-rule="evenodd"/><path d="M619.334 291.342C619.394 291.335 619.454 291.342 619.511 291.364 619.636 291.47 619.776 291.551 619.93 291.607 620.155 291.555 620.384 291.525 620.615 291.519 620.486 291.561 620.353 291.606 620.217 291.651 620.07 291.674 619.923 291.681 619.776 291.673 619.625 291.567 619.477 291.456 619.334 291.342Z" fill="#AFAFB0" fill-rule="evenodd"/><path d="M622.249 291.342C621.602 291.431 620.954 291.548 620.306 291.695 620.265 291.694 620.236 291.679 620.217 291.651 620.353 291.606 620.486 291.561 620.615 291.519 620.831 291.517 621.037 291.488 621.233 291.43 621.571 291.397 621.91 291.368 622.249 291.342Z" fill="#6C6C6D" fill-rule="evenodd"/><path d="M626.445 291.563C626.46 291.563 626.475 291.563 626.489 291.563 626.57 292.428 626.437 293.253 626.092 294.036 626.078 293.915 626.093 293.797 626.136 293.683 626.198 293.507 626.264 293.33 626.335 293.153 626.357 292.977 626.364 292.8 626.357 292.623 626.481 292.282 626.51 291.929 626.445 291.563Z" fill="#5A5A5B" fill-rule="evenodd"/><path d="M626.445 291.563C626.51 291.929 626.481 292.282 626.357 292.623 626.392 292.335 626.392 292.048 626.357 291.762 626.358 291.679 626.387 291.612 626.445 291.563Z" fill="#B1B1B1" fill-rule="evenodd"/><path d="M614.829 291.916C614.958 292.048 615.032 292.21 615.049 292.402 614.989 292.299 614.923 292.196 614.851 292.093 614.829 292.036 614.822 291.977 614.829 291.916Z" fill="#909092" fill-rule="evenodd"/><path d="M625.385 291.43C625.334 291.811 625.245 292.179 625.12 292.534 625.109 292.284 625.154 292.048 625.252 291.828 625.282 291.691 625.327 291.559 625.385 291.43Z" fill="#A0A0A0" fill-rule="evenodd"/><path d="M615.094 292.402C615.221 292.633 615.383 292.839 615.58 293.02 615.317 292.891 615.155 292.685 615.094 292.402Z" fill="#A8A8A8" fill-rule="evenodd"/><path d="M627.019 292.534C627.053 292.739 627.002 292.916 626.865 293.065 626.822 293.394 626.785 293.718 626.754 294.036 626.751 293.667 626.766 293.299 626.798 292.932 626.843 292.932 626.887 292.932 626.931 292.932 626.939 292.789 626.968 292.657 627.019 292.534Z" fill="#A0A0A1" fill-rule="evenodd"/><path d="M626.357 292.623C626.364 292.8 626.357 292.977 626.335 293.153 626.264 293.33 626.198 293.507 626.136 293.683 626.093 293.797 626.078 293.915 626.092 294.036 626.062 294.036 626.033 294.036 626.003 294.036 626.024 293.702 626.12 293.393 626.29 293.109 626.315 293.004 626.308 292.901 626.268 292.799 626.276 292.726 626.305 292.667 626.357 292.623Z" fill="#C1C1C2" fill-rule="evenodd"/><path d="M615.845 293.285C616.058 293.381 616.235 293.528 616.375 293.727 616.375 293.742 616.375 293.757 616.375 293.771 616.262 293.678 616.13 293.62 615.977 293.595 615.934 293.492 615.89 293.389 615.845 293.285Z" fill="#C6C6C6" fill-rule="evenodd"/><path d="M572.294 293.374C572.289 293.401 572.275 293.423 572.25 293.44 571.944 293.549 571.634 293.645 571.323 293.727 571.633 293.584 571.957 293.466 572.294 293.374Z" fill="#A3A3A3" fill-rule="evenodd"/><path d="M625.12 292.579C625.135 293.074 624.958 293.472 624.59 293.771 624.675 293.66 624.756 293.542 624.833 293.418 624.883 293.336 624.905 293.248 624.899 293.153 624.927 293.148 624.949 293.133 624.965 293.109 625.003 292.923 625.055 292.746 625.12 292.579Z" fill="#C5C5C5" fill-rule="evenodd"/><path d="M624.899 293.153C624.905 293.248 624.883 293.336 624.833 293.418 624.756 293.542 624.675 293.66 624.59 293.771 624.56 293.786 624.531 293.801 624.502 293.815 624.492 293.7 624.543 293.626 624.656 293.595 624.749 293.451 624.83 293.304 624.899 293.153Z" fill="#767677" fill-rule="evenodd"/><path d="M616.375 293.771C616.375 293.757 616.375 293.742 616.375 293.727 616.467 293.714 616.556 293.728 616.64 293.771 616.759 293.86 616.877 293.948 616.993 294.036 616.778 293.968 616.572 293.88 616.375 293.771Z" fill="#7E7E7F" fill-rule="evenodd"/><path d="M571.102 293.771C571.013 293.834 570.91 293.864 570.793 293.86 570.881 293.797 570.985 293.767 571.102 293.771Z" fill="#939393" fill-rule="evenodd"/><path d="M624.502 293.815C624.363 293.976 624.216 294.13 624.06 294.279 623.966 294.308 623.878 294.345 623.795 294.39 623.765 294.39 623.736 294.39 623.707 294.39 623.954 294.177 624.219 293.986 624.502 293.815Z" fill="#818182" fill-rule="evenodd"/><path d="M566.773 294.39C563.689 294.434 560.597 294.448 557.498 294.434 557.512 296.002 557.498 297.563 557.454 299.116 557.454 297.555 557.454 295.994 557.454 294.434 560.553 294.39 563.659 294.375 566.773 294.39Z" fill="#848684" fill-rule="evenodd"/><path d="M617.523 294.301C617.755 294.396 617.998 294.47 618.252 294.522 618.297 294.537 618.319 294.566 618.318 294.61 618.028 294.558 617.763 294.455 617.523 294.301Z" fill="#8F8F90" fill-rule="evenodd"/><path d="M626.003 294.08C625.914 294.394 625.825 294.703 625.738 295.008 625.769 294.725 625.82 294.445 625.893 294.169 625.911 294.113 625.948 294.084 626.003 294.08Z" fill="#CBCBCB" fill-rule="evenodd"/><path d="M618.318 294.61C618.848 294.718 619.378 294.828 619.908 294.942 620.409 294.964 620.909 294.971 621.41 294.964 620.946 295.008 620.476 295.023 619.996 295.008 619.495 294.921 618.994 294.825 618.495 294.721 618.414 294.712 618.356 294.675 618.318 294.61Z" fill="#7E7D7E" fill-rule="evenodd"/><path d="M623.707 294.39C623.736 294.39 623.765 294.39 623.795 294.39 623.752 294.462 623.693 294.521 623.618 294.566 623.188 294.814 622.717 294.947 622.205 294.964 622.452 294.931 622.688 294.858 622.911 294.743 623.174 294.626 623.439 294.509 623.707 294.39Z" fill="#DCDCDC" fill-rule="evenodd"/><path d="M626.003 294.036C626.033 294.036 626.062 294.036 626.092 294.036 625.977 294.398 625.881 294.765 625.805 295.14 625.788 295.165 625.766 295.18 625.738 295.185 625.738 295.126 625.738 295.067 625.738 295.008 625.825 294.703 625.914 294.394 626.003 294.08 626.003 294.066 626.003 294.051 626.003 294.036Z" fill="#686869" fill-rule="evenodd"/><path d="M626.754 294.08C626.678 294.428 626.649 294.781 626.666 295.14 626.636 295.214 626.607 295.288 626.578 295.361 626.57 295.081 626.578 294.801 626.6 294.522 626.625 294.36 626.676 294.213 626.754 294.08Z" fill="#787878" fill-rule="evenodd"/><path d="M622.911 294.743C622.688 294.858 622.452 294.931 622.205 294.964 621.463 295.052 620.727 295.067 619.996 295.008 620.476 295.023 620.946 295.008 621.41 294.964 621.919 294.941 622.42 294.867 622.911 294.743Z" fill="#AEAEAE" fill-rule="evenodd"/><path d="M568.893 295.14C566.522 295.127 564.152 295.142 561.782 295.185 561.861 295.149 561.95 295.127 562.047 295.118 564.336 295.082 566.619 295.089 568.893 295.14Z" fill="#9BAEA1" fill-rule="evenodd"/><path d="M575.828 295.14C578.161 295.096 580.502 295.082 582.851 295.096 582.851 296.156 582.851 297.216 582.851 298.276 580.701 298.276 578.552 298.276 576.402 298.276 578.529 298.232 580.664 298.218 582.806 298.232 582.806 297.202 582.806 296.171 582.806 295.14 580.48 295.14 578.154 295.14 575.828 295.14Z" fill="#90A497" fill-rule="evenodd"/><path d="M621.542 295.14C619.29 295.133 617.037 295.14 614.784 295.163 614.498 295.207 614.218 295.273 613.945 295.361 614.175 295.233 614.426 295.152 614.696 295.118 616.985 295.082 619.268 295.089 621.542 295.14Z" fill="#97AA9D" fill-rule="evenodd"/><path d="M568.893 295.14C569.97 295.289 570.75 295.849 571.234 296.819 571.296 297.187 571.377 297.555 571.477 297.923 571.499 301.692 571.507 305.461 571.499 309.23 571.323 310.313 570.734 311.086 569.733 311.549 569.615 311.591 569.498 311.627 569.379 311.659 569.129 311.68 568.879 311.702 568.628 311.726 566.199 311.748 563.77 311.755 561.341 311.748 561.341 310.702 561.341 309.657 561.341 308.612 563.696 308.612 566.052 308.612 568.407 308.612 568.407 308.096 568.407 307.581 568.407 307.066 566.287 307.066 564.167 307.066 562.047 307.066 560.604 306.778 559.743 305.91 559.463 304.46 559.42 302.088 559.435 299.718 559.508 297.349 559.82 296.403 560.431 295.718 561.341 295.295 561.483 295.235 561.63 295.198 561.782 295.185 564.152 295.142 566.522 295.127 568.893 295.14Z" fill="#4D7658" fill-rule="evenodd"/><path d="M576.225 307.022C575.254 307.022 574.282 307.022 573.31 307.022 573.303 304.077 573.31 301.133 573.332 298.188 573.347 297.893 573.362 297.599 573.376 297.305 573.53 297.013 573.67 296.719 573.796 296.421 574.05 296.049 574.374 295.755 574.768 295.538 574.893 295.511 575.018 295.482 575.143 295.45 575.177 295.456 575.207 295.471 575.232 295.494 575.332 295.394 575.442 295.306 575.563 295.229 575.664 295.26 575.766 295.252 575.872 295.207 578.154 295.177 580.436 295.177 582.718 295.207 582.738 295.225 582.753 295.247 582.762 295.273 582.714 295.347 582.685 295.428 582.674 295.516 582.717 296.351 582.732 297.183 582.718 298.011 582.69 298.062 582.653 298.106 582.608 298.144 580.606 298.146 578.589 298.132 576.557 298.1 576.437 298.11 576.334 298.154 576.247 298.232 576.242 298.303 576.264 298.37 576.314 298.431 576.308 298.478 576.286 298.514 576.247 298.541 576.225 301.368 576.218 304.195 576.225 307.022Z" fill="#4C7557" fill-rule="evenodd"/><path d="M621.542 295.14C622.742 295.317 623.574 295.965 624.038 297.084 624.139 297.325 624.19 297.575 624.192 297.835 624.192 299.439 624.192 301.044 624.192 302.649 621.211 302.635 618.237 302.649 615.27 302.693 615.234 302.98 615.212 303.274 615.204 303.577 615.176 303.642 615.139 303.7 615.094 303.753 615.132 303.853 615.147 303.956 615.138 304.062 616.161 304.134 617.192 304.12 618.23 304.018 618.465 304.048 618.701 304.077 618.936 304.107 620.466 304.016 621.997 303.994 623.53 304.04 622.352 304.055 621.174 304.07 619.996 304.085 621.189 304.114 622.381 304.114 623.574 304.085 623.667 304.017 623.771 304.003 623.883 304.04 623.92 304.085 623.935 304.137 623.927 304.195 623.972 304.195 624.016 304.195 624.06 304.195 624.072 305.138 624.057 306.081 624.016 307.022 620.85 307.022 617.685 307.022 614.519 307.022 613.161 306.646 612.358 305.763 612.112 304.372 612.069 302.073 612.084 299.776 612.156 297.481 612.412 296.482 613.008 295.775 613.945 295.361 614.218 295.273 614.498 295.207 614.784 295.163 617.037 295.14 619.29 295.133 621.542 295.14Z" fill="#4D7658" fill-rule="evenodd"/><path d="M595.394 295.715C596.04 296.17 596.438 296.788 596.587 297.57 596.587 300.72 596.587 303.871 596.587 307.022 593.437 307.022 590.286 307.022 587.135 307.022 587.019 306.996 586.901 306.981 586.782 306.978 585.763 306.677 585.063 306.03 584.684 305.034 584.611 304.819 584.575 304.598 584.573 304.372 584.566 302.796 584.573 301.221 584.595 299.646 584.617 299.624 584.639 299.601 584.661 299.579 587.562 299.543 590.463 299.55 593.363 299.601 593.595 299.55 593.69 299.403 593.65 299.16 593.635 299.189 593.62 299.219 593.606 299.248 593.583 298.937 593.583 298.628 593.606 298.321 593.542 298.181 593.432 298.107 593.274 298.1 590.406 298.143 587.535 298.151 584.661 298.122 584.639 298.1 584.617 298.078 584.595 298.056 584.588 297.666 584.581 297.275 584.573 296.885 584.575 296.473 584.604 296.068 584.661 295.67 584.556 295.518 584.556 295.371 584.661 295.229 587.723 295.288 590.785 295.288 593.849 295.229 594.027 295.257 594.204 295.294 594.379 295.339 594.349 295.354 594.32 295.369 594.29 295.383 594.482 295.398 594.673 295.413 594.864 295.428 594.994 295.603 595.171 295.699 595.394 295.715Z" fill="#4C7558" fill-rule="evenodd"/><path d="M625.738 295.185C625.73 295.305 625.708 295.422 625.672 295.538 625.582 295.63 625.516 295.734 625.473 295.847 625.47 295.763 625.485 295.682 625.517 295.604 625.608 295.469 625.681 295.329 625.738 295.185Z" fill="#9C9C9C" fill-rule="evenodd"/><path d="M626.666 295.14C626.647 295.45 626.625 295.759 626.6 296.068 626.589 296.123 626.567 296.167 626.533 296.201 626.527 295.919 626.541 295.64 626.578 295.361 626.607 295.288 626.636 295.214 626.666 295.14Z" fill="#BDBDBD" fill-rule="evenodd"/><path d="M625.473 295.847C625.444 296.009 625.415 296.171 625.385 296.333 625.307 296.596 625.219 296.861 625.12 297.128 625.127 297.187 625.135 297.246 625.142 297.305 625.159 297.329 625.181 297.344 625.208 297.349 625.267 297.393 625.326 297.437 625.385 297.481 625.415 297.511 625.444 297.54 625.473 297.57 625.386 297.58 625.305 297.566 625.23 297.526 625.203 297.454 625.159 297.395 625.098 297.349 625.07 296.999 625.115 296.66 625.23 296.333 625.318 296.173 625.399 296.011 625.473 295.847Z" fill="#D0D0D0" fill-rule="evenodd"/><path d="M625.385 296.333C625.312 296.67 625.253 297.008 625.208 297.349 625.181 297.344 625.159 297.329 625.142 297.305 625.135 297.246 625.127 297.187 625.12 297.128 625.219 296.861 625.307 296.596 625.385 296.333Z" fill="#767677" fill-rule="evenodd"/><path d="M626.489 296.598C626.497 296.878 626.489 297.158 626.467 297.437 626.403 297.524 626.322 297.583 626.224 297.614 626.267 297.549 626.318 297.491 626.379 297.437 626.385 297.147 626.422 296.867 626.489 296.598Z" fill="#BBBBBC" fill-rule="evenodd"/><path d="M626.489 296.421C626.489 296.48 626.489 296.539 626.489 296.598 626.422 296.867 626.385 297.147 626.379 297.437 626.318 297.491 626.267 297.549 626.224 297.614 625.973 297.613 625.722 297.598 625.473 297.57 625.444 297.54 625.415 297.511 625.385 297.481 625.577 297.506 625.768 297.535 625.959 297.57 626.062 297.533 626.165 297.496 626.268 297.459 626.317 297.144 626.369 296.828 626.423 296.51 626.435 296.469 626.457 296.44 626.489 296.421Z" fill="#5B5B5D" fill-rule="evenodd"/><path d="M625.473 297.57C625.722 297.598 625.973 297.613 626.224 297.614 626.219 297.641 626.205 297.663 626.18 297.68 625.958 297.717 625.737 297.709 625.517 297.658 625.502 297.628 625.487 297.598 625.473 297.57Z" fill="#CCCCCD" fill-rule="evenodd"/><path d="M595.394 295.715C595.171 295.699 594.994 295.603 594.864 295.428 594.673 295.413 594.482 295.398 594.29 295.383 594.32 295.369 594.349 295.354 594.379 295.339 594.204 295.294 594.027 295.257 593.849 295.229 590.785 295.288 587.723 295.288 584.661 295.229 584.556 295.371 584.556 295.518 584.661 295.67 584.604 296.068 584.575 296.473 584.573 296.885 584.581 297.275 584.588 297.666 584.595 298.056 584.617 298.078 584.639 298.1 584.661 298.122 587.535 298.151 590.406 298.143 593.274 298.1 593.432 298.107 593.542 298.181 593.606 298.321 593.583 298.628 593.583 298.937 593.606 299.248 593.62 299.219 593.635 299.189 593.65 299.16 593.69 299.403 593.595 299.55 593.363 299.601 590.463 299.55 587.562 299.543 584.661 299.579 584.639 299.601 584.617 299.624 584.595 299.646 584.573 301.221 584.566 302.796 584.573 304.372 584.529 302.76 584.514 301.14 584.529 299.513 587.518 299.513 590.506 299.513 593.495 299.513 593.51 299.093 593.495 298.681 593.451 298.276 590.477 298.276 587.503 298.276 584.529 298.276 584.529 297.216 584.529 296.156 584.529 295.096 587.68 295.089 590.831 295.096 593.981 295.118 594.295 295.178 594.604 295.267 594.909 295.383 595.089 295.473 595.251 295.583 595.394 295.715Z" fill="#5C7B65" fill-rule="evenodd"/><path d="M615.27 298.276C617.199 298.276 619.128 298.276 621.056 298.276 621.056 298.821 621.056 299.366 621.056 299.911 619.128 299.911 617.199 299.911 615.27 299.911 615.27 299.366 615.27 298.821 615.27 298.276Z" fill="#ECF7EF" fill-rule="evenodd"/><path d="M562.577 298.276C564.521 298.276 566.464 298.276 568.407 298.276 568.407 300.146 568.407 302.016 568.407 303.886 566.464 303.886 564.521 303.886 562.577 303.886 562.577 302.016 562.577 300.146 562.577 298.276Z" fill="#FDFEFD" fill-rule="evenodd"/><path d="M607.276 291.209C608.328 291.165 609.388 291.151 610.456 291.165 610.471 296.473 610.456 301.773 610.412 307.066 610.426 301.773 610.412 296.488 610.368 291.209 609.337 291.209 608.306 291.209 607.276 291.209Z" fill="#E0EBE1" fill-rule="evenodd"/><path d="M616.286 298.321C616.285 298.365 616.307 298.394 616.352 298.409 617.827 298.923 619.321 299.203 620.836 299.248 620.896 299.218 620.954 299.189 621.012 299.16 621.012 299.395 621.012 299.631 621.012 299.866 619.127 299.886 617.242 299.864 615.359 299.8 615.415 299.743 615.408 299.692 615.337 299.646 615.318 299.241 615.31 298.843 615.315 298.453 615.368 298.376 615.442 298.332 615.535 298.321 615.781 298.333 616.032 298.333 616.286 298.321Z" fill="#FDFEFD" fill-rule="evenodd"/><path d="M616.286 298.321C617.85 298.328 619.41 298.342 620.968 298.365 621.01 298.627 621.025 298.892 621.012 299.16 620.954 299.189 620.896 299.218 620.836 299.248 619.321 299.203 617.827 298.923 616.352 298.409 616.307 298.394 616.285 298.365 616.286 298.321Z" fill="#F5F5F5" fill-rule="evenodd"/><path d="M571.234 296.819C571.377 297.047 571.473 297.297 571.521 297.57 571.558 301.464 571.551 305.351 571.499 309.23 571.507 305.461 571.499 301.692 571.477 297.923 571.377 297.555 571.296 297.187 571.234 296.819Z" fill="#67816E" fill-rule="evenodd"/><path d="M573.796 296.421C573.67 296.719 573.53 297.013 573.376 297.305 573.362 297.599 573.347 297.893 573.332 298.188 573.31 301.133 573.303 304.077 573.31 307.022 573.266 303.908 573.251 300.787 573.266 297.658 573.323 297.191 573.5 296.779 573.796 296.421Z" fill="#56735F" fill-rule="evenodd"/><path d="M575.828 295.14C578.154 295.14 580.48 295.14 582.806 295.14 582.806 296.171 582.806 297.202 582.806 298.232 580.664 298.218 578.529 298.232 576.402 298.276 576.358 301.184 576.343 304.099 576.358 307.022 576.314 307.022 576.269 307.022 576.225 307.022 576.218 304.195 576.225 301.368 576.247 298.541 576.286 298.514 576.308 298.478 576.314 298.431 576.264 298.37 576.242 298.303 576.247 298.232 576.334 298.154 576.437 298.11 576.557 298.1 578.589 298.132 580.606 298.146 582.608 298.144 582.653 298.106 582.69 298.062 582.718 298.011 582.732 297.183 582.717 296.351 582.674 295.516 582.685 295.428 582.714 295.347 582.762 295.273 582.753 295.247 582.738 295.225 582.718 295.207 580.436 295.177 578.154 295.177 575.872 295.207 575.766 295.252 575.664 295.26 575.563 295.229 575.442 295.306 575.332 295.394 575.232 295.494 575.207 295.471 575.177 295.456 575.143 295.45 575.018 295.482 574.893 295.511 574.768 295.538 575.078 295.302 575.432 295.169 575.828 295.14Z" fill="#4F745A" fill-rule="evenodd"/><path d="M573.266 297.658C573.251 300.787 573.266 303.908 573.31 307.022 574.282 307.022 575.254 307.022 576.225 307.022 576.269 307.022 576.314 307.022 576.358 307.022 576.343 304.099 576.358 301.184 576.402 298.276 576.402 301.206 576.402 304.136 576.402 307.066 575.342 307.066 574.282 307.066 573.222 307.066 573.207 303.922 573.222 300.786 573.266 297.658Z" fill="#8DA091" fill-rule="evenodd"/><path d="M576.402 298.276C578.552 298.276 580.701 298.276 582.851 298.276 582.76 298.319 582.665 298.363 582.563 298.409 581.624 298.35 580.674 298.321 579.715 298.321 578.702 298.336 577.693 298.336 576.689 298.321 576.54 298.315 576.488 298.374 576.534 298.497 576.498 301.101 576.476 303.707 576.468 306.315 576.461 306.573 576.439 306.823 576.402 307.066 576.402 304.136 576.402 301.206 576.402 298.276Z" fill="#F5FBF4" fill-rule="evenodd"/><path d="M598.53 296.863C598.511 297.155 598.445 297.435 598.332 297.702 598.31 299.94 598.302 302.178 598.31 304.416 598.258 302.141 598.251 299.859 598.288 297.57 598.342 297.321 598.423 297.085 598.53 296.863Z" fill="#778E7E" fill-rule="evenodd"/><path d="M593.451 298.276C593.495 298.681 593.51 299.093 593.495 299.513 590.506 299.513 587.518 299.513 584.529 299.513 587.495 299.469 590.47 299.454 593.451 299.469 593.451 299.071 593.451 298.674 593.451 298.276Z" fill="#D1E1D4" fill-rule="evenodd"/><path d="M557.454 299.69C557.365 300.46 557.247 301.226 557.1 301.987 557.049 302.087 557.005 302.19 556.968 302.296 556.988 301.746 557.039 301.202 557.122 300.662 557.282 300.391 557.378 300.097 557.409 299.778 557.402 299.734 557.417 299.705 557.454 299.69Z" fill="#53725A" fill-rule="evenodd"/><path d="M557.409 299.778C557.378 300.097 557.282 300.391 557.122 300.662 557.039 301.202 556.988 301.746 556.968 302.296 556.949 302.469 556.905 302.631 556.835 302.782 556.734 301.77 556.889 300.798 557.299 299.866 557.33 299.828 557.367 299.798 557.409 299.778Z" fill="#354F3B" fill-rule="evenodd"/><path d="M587.709 302.296C587.709 302.281 587.709 302.266 587.709 302.252 589.638 302.252 591.566 302.252 593.495 302.252 593.495 302.796 593.495 303.341 593.495 303.886 593.481 303.886 593.466 303.886 593.451 303.886 593.451 303.356 593.451 302.826 593.451 302.296 591.537 302.296 589.623 302.296 587.709 302.296Z" fill="#CEDDD0" fill-rule="evenodd"/><path d="M587.709 302.296C589.623 302.296 591.537 302.296 593.451 302.296 593.451 302.826 593.451 303.356 593.451 303.886 591.537 303.886 589.623 303.886 587.709 303.886 587.709 303.356 587.709 302.826 587.709 302.296Z" fill="#FDFEFD" fill-rule="evenodd"/><path d="M530.511 302.428C530.645 302.757 530.763 303.096 530.864 303.444 530.695 303.129 530.577 302.79 530.511 302.428Z" fill="#C5D5C9" fill-rule="evenodd"/><path d="M624.192 297.835C624.251 299.454 624.251 301.074 624.192 302.693 621.219 302.693 618.244 302.693 615.27 302.693 618.237 302.649 621.211 302.635 624.192 302.649 624.192 301.044 624.192 299.439 624.192 297.835Z" fill="#8BA693" fill-rule="evenodd"/><path d="M615.27 302.693C618.244 302.693 621.219 302.693 624.192 302.693 624.148 302.745 624.089 302.774 624.016 302.782 621.117 302.738 618.216 302.723 615.315 302.737 615.322 303.051 615.322 303.36 615.315 303.665 615.316 303.733 615.345 303.784 615.403 303.82 618.363 303.812 621.307 303.849 624.237 303.93 624.222 303.93 624.207 303.93 624.192 303.93 621.219 303.93 618.244 303.93 615.27 303.93 615.27 303.518 615.27 303.105 615.27 302.693Z" fill="#E3EFE7" fill-rule="evenodd"/><path d="M557.454 294.434C557.454 295.994 557.454 297.555 557.454 299.116 557.454 299.307 557.454 299.499 557.454 299.69 557.417 299.705 557.402 299.734 557.409 299.778 557.367 299.798 557.33 299.828 557.299 299.866 556.889 300.798 556.734 301.77 556.835 302.782 556.835 302.811 556.835 302.84 556.835 302.87 556.709 303.188 556.591 303.512 556.482 303.842 556.405 303.893 556.36 303.967 556.349 304.062 556.128 304.27 555.907 304.476 555.687 304.681 555.861 304.403 556.038 304.123 556.217 303.842 556.253 303.802 556.297 303.788 556.349 303.797 556.456 303.608 556.522 303.403 556.548 303.179 556.618 302.383 556.699 301.588 556.791 300.794 556.929 300.548 557.01 300.283 557.034 299.999 557.207 299.764 557.332 299.514 557.409 299.248 557.395 297.636 557.409 296.031 557.454 294.434Z" fill="#1E2B22" fill-rule="evenodd"/><path d="M556.835 302.87C556.784 303.223 556.667 303.547 556.482 303.842 556.591 303.512 556.709 303.188 556.835 302.87Z" fill="#959C97" fill-rule="evenodd"/><path d="M557.409 299.248C557.332 299.514 557.207 299.764 557.034 299.999 557.01 300.283 556.929 300.548 556.791 300.794 556.699 301.588 556.618 302.383 556.548 303.179 556.522 303.403 556.456 303.608 556.349 303.797 556.297 303.788 556.253 303.802 556.217 303.842 556.038 304.123 555.861 304.403 555.687 304.681 555.54 304.882 555.371 305.074 555.179 305.255 555.077 305.445 554.945 305.607 554.781 305.741 554.739 305.824 554.709 305.913 554.693 306.006 554.583 306.085 554.487 306.181 554.406 306.293 554.364 306.314 554.32 306.322 554.274 306.315 554.267 306.269 554.274 306.225 554.296 306.183 555.022 305.309 555.714 304.411 556.372 303.488 556.51 302.555 556.628 301.612 556.725 300.662 556.849 300.132 557.077 299.661 557.409 299.248Z" fill="#080E0A" fill-rule="evenodd"/><path d="M557.1 301.987C557.04 302.303 557.003 302.627 556.99 302.958 556.897 303.237 556.823 303.517 556.769 303.797 556.702 303.927 556.644 304.059 556.592 304.195 556.578 304.18 556.563 304.165 556.548 304.151 556.49 304.32 556.395 304.459 556.261 304.57 556.315 304.619 556.315 304.671 556.261 304.725 556.193 304.767 556.119 304.782 556.04 304.769 556.014 305.136 555.837 305.416 555.51 305.608 555.609 305.392 555.727 305.186 555.864 304.99 556.037 304.688 556.199 304.379 556.349 304.062 556.36 303.967 556.405 303.893 556.482 303.842 556.667 303.547 556.784 303.223 556.835 302.87 556.835 302.84 556.835 302.811 556.835 302.782 556.905 302.631 556.949 302.469 556.968 302.296 557.005 302.19 557.049 302.087 557.1 301.987Z" fill="#E3E7E3" fill-rule="evenodd"/><path d="M562.577 298.276C562.577 300.146 562.577 302.016 562.577 303.886 564.521 303.886 566.464 303.886 568.407 303.886 566.457 303.93 564.499 303.945 562.533 303.93 562.518 302.038 562.533 300.154 562.577 298.276Z" fill="#9FB5A6" fill-rule="evenodd"/><path d="M587.709 302.252C587.709 302.266 587.709 302.281 587.709 302.296 587.709 302.826 587.709 303.356 587.709 303.886 589.623 303.886 591.537 303.886 593.451 303.886 593.466 303.886 593.481 303.886 593.495 303.886 591.559 303.93 589.616 303.945 587.665 303.93 587.65 303.363 587.665 302.803 587.709 302.252Z" fill="#AFC2B5" fill-rule="evenodd"/><path d="M601.446 298.276C601.446 300.146 601.446 302.016 601.446 303.886 603.374 303.886 605.303 303.886 607.232 303.886 607.232 302.016 607.232 300.146 607.232 298.276 607.276 300.154 607.29 302.038 607.276 303.93 605.318 303.93 603.359 303.93 601.401 303.93 601.387 302.038 601.401 300.154 601.446 298.276Z" fill="#9CB1A3" fill-rule="evenodd"/><path d="M601.446 298.276C603.374 298.276 605.303 298.276 607.232 298.276 607.232 300.146 607.232 302.016 607.232 303.886 605.303 303.886 603.374 303.886 601.446 303.886 601.446 302.016 601.446 300.146 601.446 298.276Z" fill="#EFFAF1" fill-rule="evenodd"/><path d="M601.578 298.321C603.434 298.306 605.289 298.321 607.143 298.365 607.143 300.141 607.143 301.93 607.143 303.731 607.125 303.773 607.096 303.802 607.055 303.82 605.2 303.842 603.345 303.849 601.49 303.842 601.482 302.045 601.49 300.249 601.512 298.453 601.534 298.408 601.556 298.363 601.578 298.321Z" fill="#FEFEFE" fill-rule="evenodd"/><path d="M615.27 302.693C615.27 303.105 615.27 303.518 615.27 303.93 618.244 303.93 621.219 303.93 624.192 303.93 624.192 304.96 624.192 305.991 624.192 307.022 624.134 307.022 624.074 307.022 624.016 307.022 624.057 306.081 624.072 305.138 624.06 304.195 624.016 304.195 623.972 304.195 623.927 304.195 623.935 304.137 623.92 304.085 623.883 304.04 623.771 304.003 623.667 304.017 623.574 304.085 622.381 304.114 621.189 304.114 619.996 304.085 621.174 304.07 622.352 304.055 623.53 304.04 621.997 303.994 620.466 304.016 618.936 304.107 618.701 304.077 618.465 304.048 618.23 304.018 617.192 304.12 616.161 304.134 615.138 304.062 615.147 303.956 615.132 303.853 615.094 303.753 615.139 303.7 615.176 303.642 615.204 303.577 615.212 303.274 615.234 302.98 615.27 302.693Z" fill="#4F745A" fill-rule="evenodd"/><path d="M556.349 304.062C556.199 304.379 556.037 304.688 555.864 304.99 555.811 304.98 555.767 304.995 555.731 305.034 555.645 305.221 555.541 305.397 555.422 305.564 555.232 305.739 555.062 305.93 554.914 306.138 554.632 306.383 554.345 306.626 554.053 306.867 553.923 307.063 553.761 307.218 553.567 307.331 553.577 307.383 553.562 307.427 553.523 307.464 553.224 307.719 552.929 307.969 552.639 308.214 552.639 308.126 552.639 308.038 552.639 307.949 552.707 307.985 552.781 307.999 552.86 307.993 552.853 307.935 552.867 307.884 552.904 307.839 553.444 307.313 553.997 306.805 554.561 306.315 554.927 305.849 555.287 305.377 555.643 304.902 555.685 304.833 555.7 304.76 555.687 304.681 555.907 304.476 556.128 304.27 556.349 304.062Z" fill="#395641" fill-rule="evenodd"/><path d="M555.687 304.681C555.7 304.76 555.685 304.833 555.643 304.902 555.287 305.377 554.927 305.849 554.561 306.315 553.997 306.805 553.444 307.313 552.904 307.839 552.867 307.884 552.853 307.935 552.86 307.993 552.781 307.999 552.707 307.985 552.639 307.949 552.639 307.92 552.639 307.891 552.639 307.861 552.75 307.9 552.824 307.856 552.86 307.728 552.973 307.666 553.047 307.571 553.081 307.441 553.271 307.251 553.484 307.097 553.721 306.978 553.885 306.736 554.069 306.516 554.274 306.315 554.32 306.322 554.364 306.314 554.406 306.293 554.487 306.181 554.583 306.085 554.693 306.006 554.709 305.913 554.739 305.824 554.781 305.741 554.945 305.607 555.077 305.445 555.179 305.255 555.371 305.074 555.54 304.882 555.687 304.681Z" fill="#1D2C20" fill-rule="evenodd"/><path d="M541.73 306.757C541.936 306.764 542.143 306.779 542.348 306.801 542.348 306.816 542.348 306.831 542.348 306.845 542.131 306.851 541.925 306.822 541.73 306.757Z" fill="#9DB1A4" fill-rule="evenodd"/><path d="M542.348 306.845C542.348 306.831 542.348 306.816 542.348 306.801 543.32 306.848 544.292 306.848 545.263 306.801 544.713 306.868 544.153 306.897 543.585 306.889 543.171 306.888 542.758 306.873 542.348 306.845Z" fill="#D9E7DC" fill-rule="evenodd"/><path d="M596.587 297.57C596.631 300.728 596.646 303.893 596.631 307.066 593.458 307.081 590.293 307.066 587.135 307.022 590.286 307.022 593.437 307.022 596.587 307.022 596.587 303.871 596.587 300.72 596.587 297.57Z" fill="#829284" fill-rule="evenodd"/><path d="M610.368 291.209C610.412 296.488 610.426 301.773 610.412 307.066 607.173 307.073 603.934 307.066 600.695 307.044 600.626 307.035 600.567 307.013 600.518 306.978 603.786 307.021 607.054 307.036 610.323 307.022 610.368 301.758 610.382 296.488 610.368 291.209Z" fill="#93A194" fill-rule="evenodd"/><path d="M624.192 303.93C624.207 303.93 624.222 303.93 624.237 303.93 624.237 304.975 624.237 306.021 624.237 307.066 620.99 307.081 617.751 307.066 614.519 307.022 617.685 307.022 620.85 307.022 624.016 307.022 624.074 307.022 624.134 307.022 624.192 307.022 624.192 305.991 624.192 304.96 624.192 303.93Z" fill="#92A194" fill-rule="evenodd"/><path d="M586.782 306.978C586.901 306.981 587.019 306.996 587.135 307.022 590.293 307.066 593.458 307.081 596.631 307.066 593.459 307.118 590.278 307.125 587.091 307.088 586.976 307.071 586.873 307.034 586.782 306.978Z" fill="#D9E5DB" fill-rule="evenodd"/><path d="M562.047 307.066C564.167 307.066 566.287 307.066 568.407 307.066 568.407 307.581 568.407 308.096 568.407 308.612 566.052 308.612 563.696 308.612 561.341 308.612 561.326 308.612 561.311 308.612 561.296 308.612 563.644 308.568 566 308.553 568.363 308.568 568.363 308.082 568.363 307.596 568.363 307.11 566.25 307.125 564.145 307.11 562.047 307.066Z" fill="#D6E4D9" fill-rule="evenodd"/><path d="M538.726 310.29C538.959 310.341 539.194 310.377 539.433 310.401 539.656 310.511 539.892 310.584 540.14 310.622 540.284 310.656 540.423 310.649 540.559 310.599 540.783 310.682 541.012 310.697 541.244 310.644 541.484 310.773 541.742 310.846 542.017 310.864 543.028 310.86 544.051 310.86 545.086 310.864 545.448 310.783 545.816 310.731 546.191 310.71 546.231 310.694 546.268 310.671 546.301 310.644 546.605 310.679 546.907 310.679 547.207 310.644 546.948 310.709 546.683 310.769 546.411 310.82 545.472 310.916 544.529 310.975 543.585 310.997 542.995 310.987 542.406 310.958 541.818 310.909 540.753 310.853 539.722 310.647 538.726 310.29Z" fill="#597A64" fill-rule="evenodd"/><path d="M546.411 310.82C546.217 310.889 546.011 310.925 545.793 310.931 544.706 311.03 543.616 311.059 542.525 311.019 542.279 311.008 542.043 310.971 541.818 310.909 542.406 310.958 542.995 310.987 543.585 310.997 544.529 310.975 545.472 310.916 546.411 310.82Z" fill="#C9D7CD" fill-rule="evenodd"/><path d="M579.008 311.218C579.008 311.232 579.008 311.247 579.008 311.262 579.023 312.352 579.008 313.441 578.964 314.53 578.937 314.525 578.922 314.51 578.92 314.486 578.949 313.397 578.978 312.307 579.008 311.218Z" fill="#585858" fill-rule="evenodd"/><path d="M579.008 311.262C579.199 311.262 579.391 311.262 579.582 311.262 579.568 313.596 579.582 315.922 579.626 318.241 579.644 318.491 579.659 318.741 579.67 318.991 579.464 318.991 579.258 318.991 579.052 318.991 579.064 318.921 579.049 318.862 579.008 318.815 579.023 318.578 579.008 318.342 578.964 318.108 578.26 319.072 577.347 319.344 576.225 318.925 575.397 318.44 574.955 317.711 574.9 316.739 574.896 316.282 574.91 315.825 574.944 315.37 575.007 315.281 575.037 315.178 575.033 315.06 575.629 313.597 576.674 313.133 578.169 313.669 578.505 313.866 578.756 314.138 578.92 314.486 578.922 314.51 578.937 314.525 578.964 314.53 579.008 313.441 579.023 312.352 579.008 311.262Z" fill="#060606" fill-rule="evenodd"/><path d="M579.008 311.262C579.008 311.247 579.008 311.232 579.008 311.218 579.214 311.218 579.42 311.218 579.626 311.218 579.626 313.559 579.626 315.9 579.626 318.241 579.582 315.922 579.568 313.596 579.582 311.262 579.391 311.262 579.199 311.262 579.008 311.262Z" fill="#313131" fill-rule="evenodd"/><path d="M561.296 308.612C561.311 308.612 561.326 308.612 561.341 308.612 561.341 309.657 561.341 310.702 561.341 311.748 563.77 311.755 566.199 311.748 568.628 311.726 568.879 311.702 569.129 311.68 569.379 311.659 569.229 311.723 569.067 311.759 568.893 311.77 566.361 311.792 563.828 311.799 561.296 311.792 561.296 310.732 561.296 309.672 561.296 308.612Z" fill="#7D9184" fill-rule="evenodd"/><path d="M554.627 313.559C554.156 313.501 553.685 313.501 553.214 313.559 553.263 313.524 553.321 313.502 553.39 313.492 553.758 313.463 554.126 313.463 554.494 313.492 554.549 313.503 554.593 313.525 554.627 313.559Z" fill="#525252" fill-rule="evenodd"/><path d="M590.05 313.515C589.666 313.505 589.283 313.52 588.902 313.559 588.935 313.525 588.979 313.503 589.034 313.492 589.38 313.456 589.719 313.463 590.05 313.515Z" fill="#4C4C4C" fill-rule="evenodd"/><path d="M542.481 313.515C542.573 313.564 542.676 313.593 542.79 313.603 543.31 313.777 543.641 314.131 543.784 314.663 543.826 316.106 543.877 317.549 543.938 318.991 543.747 318.991 543.555 318.991 543.364 318.991 543.342 318.739 543.305 318.489 543.253 318.241 542.781 318.865 542.148 319.159 541.354 319.124 539.987 319.024 539.413 318.302 539.632 316.96 539.885 316.358 540.334 316.005 540.979 315.9 541.096 315.904 541.199 315.874 541.288 315.811 541.918 315.733 542.551 315.704 543.187 315.723 543.304 314.213 542.627 313.661 541.155 314.067 540.842 314.23 540.665 314.488 540.625 314.84 540.433 314.921 540.227 314.951 540.007 314.928 540.007 314.825 540.007 314.722 540.007 314.619 540.077 314.548 540.106 314.46 540.095 314.354 540.245 314.042 540.481 313.821 540.802 313.691 540.974 313.649 541.136 313.59 541.288 313.515 541.684 313.457 542.082 313.457 542.481 313.515Z" fill="#090909" fill-rule="evenodd"/><path d="M542.481 313.515C542.601 313.5 542.704 313.53 542.79 313.603 542.676 313.593 542.573 313.564 542.481 313.515Z" fill="#858585" fill-rule="evenodd"/><path d="M554.627 313.559C555.517 313.787 555.989 314.361 556.04 315.281 555.834 315.281 555.628 315.281 555.422 315.281 555.388 314.705 555.108 314.3 554.583 314.067 553.66 313.79 552.932 314.048 552.396 314.84 552.292 315.004 552.226 315.181 552.198 315.37 552.135 315.458 552.105 315.562 552.109 315.679 551.944 316.549 552.114 317.344 552.617 318.064 553.262 318.699 553.991 318.81 554.804 318.395 555.2 318.125 555.406 317.75 555.422 317.269 555.628 317.269 555.834 317.269 556.04 317.269 556.005 318.025 555.652 318.569 554.98 318.903 554.785 318.964 554.593 319.022 554.406 319.08 552.838 319.309 551.858 318.661 551.469 317.136 551.259 316.174 551.406 315.276 551.911 314.442 552.238 313.988 552.672 313.693 553.214 313.559 553.685 313.501 554.156 313.501 554.627 313.559Z" fill="#080808" fill-rule="evenodd"/><path d="M566.862 318.815C566.872 318.617 566.843 318.426 566.773 318.241 566.746 318.246 566.732 318.261 566.729 318.285 566.499 318.603 566.205 318.839 565.846 318.991 565.438 319.066 565.025 319.095 564.609 319.08 563.447 318.926 562.939 318.263 563.085 317.092 563.37 316.35 563.907 315.93 564.697 315.833 565.356 315.736 566.018 315.7 566.685 315.723 566.685 315.443 566.685 315.163 566.685 314.884 566.695 314.778 566.666 314.689 566.597 314.619 566.454 314.237 566.174 314.023 565.757 313.978 565.146 313.824 564.638 313.979 564.234 314.442 564.212 314.484 564.205 314.528 564.211 314.575 564.142 314.645 564.113 314.734 564.123 314.84 564.123 314.869 564.123 314.898 564.123 314.928 563.917 314.928 563.711 314.928 563.505 314.928 563.505 314.854 563.505 314.781 563.505 314.707 563.608 314.148 563.932 313.779 564.476 313.603 564.594 313.607 564.697 313.577 564.786 313.515 565.533 313.356 566.225 313.481 566.862 313.89 567.153 314.208 567.307 314.583 567.325 315.016 567.328 316.343 567.364 317.668 567.436 318.991 567.245 318.991 567.053 318.991 566.862 318.991 566.862 318.933 566.862 318.874 566.862 318.815Z" fill="#080808" fill-rule="evenodd"/><path d="M590.05 313.515C590.248 313.541 590.44 313.6 590.624 313.691 591.06 313.966 591.369 314.349 591.552 314.84 591.548 314.957 591.577 315.06 591.64 315.149 591.636 315.266 591.666 315.369 591.729 315.458 591.729 315.502 591.729 315.546 591.729 315.591 591.749 315.855 591.764 316.12 591.773 316.386 590.433 316.386 589.093 316.386 587.753 316.386 587.739 316.571 587.754 316.748 587.797 316.916 587.902 317.749 588.344 318.315 589.123 318.616 590.2 318.799 590.863 318.365 591.11 317.313 591.301 317.313 591.493 317.313 591.684 317.313 591.684 317.372 591.684 317.431 591.684 317.49 591.543 318.146 591.175 318.617 590.58 318.903 590.005 319.128 589.415 319.172 588.813 319.036 588.038 318.812 587.53 318.312 587.29 317.534 587.102 316.787 587.087 316.036 587.245 315.281 587.471 314.497 587.949 313.93 588.681 313.581 588.753 313.559 588.827 313.552 588.902 313.559 589.283 313.52 589.666 313.505 590.05 313.515Z" fill="#060606" fill-rule="evenodd"/><path d="M590.05 313.515C590.278 313.477 590.47 313.537 590.624 313.691 590.44 313.6 590.248 313.541 590.05 313.515Z" fill="#A9A9A9" fill-rule="evenodd"/><path d="M541.288 313.515C541.136 313.59 540.974 313.649 540.802 313.691 540.94 313.581 541.102 313.523 541.288 313.515Z" fill="#595959" fill-rule="evenodd"/><path d="M564.786 313.515C564.697 313.577 564.594 313.607 564.476 313.603 564.565 313.54 564.669 313.511 564.786 313.515Z" fill="#686868" fill-rule="evenodd"/><path d="M601.225 313.559C602.199 313.398 602.905 313.751 603.345 314.619 603.996 313.591 604.909 313.274 606.083 313.669 606.712 314.034 607.028 314.587 607.033 315.326 607.055 316.547 607.062 317.769 607.055 318.991 606.849 318.991 606.643 318.991 606.437 318.991 606.444 317.755 606.437 316.518 606.415 315.281 606.406 315.198 606.384 315.125 606.348 315.06 606.168 314.373 605.719 314.049 605.001 314.089 604.319 314.073 603.855 314.382 603.61 315.016 603.547 315.105 603.518 315.208 603.521 315.326 603.478 316.544 603.463 317.766 603.477 318.991 603.271 318.991 603.065 318.991 602.859 318.991 602.866 317.814 602.859 316.636 602.837 315.458 602.821 314.565 602.371 314.109 601.49 314.089 600.742 314.107 600.249 314.475 600.01 315.193 599.975 315.324 599.946 315.457 599.922 315.591 599.9 316.724 599.892 317.858 599.9 318.991 599.693 318.991 599.488 318.991 599.281 318.991 599.281 317.357 599.281 315.723 599.281 314.089 599.281 313.927 599.281 313.765 599.281 313.603 599.473 313.603 599.664 313.603 599.856 313.603 599.885 313.89 599.914 314.185 599.944 314.486 600.163 314.083 600.487 313.803 600.916 313.647 601.033 313.651 601.136 313.621 601.225 313.559Z" fill="#040404" fill-rule="evenodd"/><path d="M615.005 313.603C614.747 313.589 614.497 313.603 614.254 313.647 614.231 313.644 614.216 313.63 614.21 313.603 614.482 313.545 614.747 313.545 615.005 313.603Z" fill="#757575" fill-rule="evenodd"/><path d="M618.627 313.603C618.84 313.559 619.06 313.545 619.29 313.559 619.3 313.616 619.285 313.66 619.246 313.691 619.06 313.606 618.853 313.576 618.627 313.603Z" fill="#727272" fill-rule="evenodd"/><path d="M601.225 313.559C601.136 313.621 601.033 313.651 600.916 313.647 601.004 313.584 601.108 313.555 601.225 313.559Z" fill="#6E6E6E" fill-rule="evenodd"/><path d="M614.254 313.647C614.497 313.603 614.747 313.589 615.005 313.603 615.59 315.097 616.201 316.583 616.838 318.064 617.454 316.585 618.051 315.098 618.627 313.603 618.853 313.576 619.06 313.606 619.246 313.691 618.24 316.134 617.268 318.593 616.33 321.067 616.11 321.067 615.889 321.067 615.668 321.067 615.934 320.372 616.214 319.681 616.507 318.991 615.782 317.199 615.031 315.417 614.254 313.647Z" fill="#080808" fill-rule="evenodd"/><path d="M577.462 314C577.21 313.998 576.96 314.013 576.711 314.045 576.853 313.981 577.008 313.951 577.175 313.956 577.279 313.956 577.375 313.971 577.462 314Z" fill="#A2A2A2" fill-rule="evenodd"/><path d="M590.05 314.045C589.866 314.029 589.683 314.014 589.498 314 589.263 314.013 589.034 314.057 588.813 314.133 588.918 314.061 589.035 314.009 589.167 313.978 589.402 313.949 589.638 313.949 589.873 313.978 589.942 313.988 590.001 314.01 590.05 314.045Z" fill="#BDBDBD" fill-rule="evenodd"/><path d="M590.05 314.045C590.638 314.291 590.984 314.732 591.088 315.37 591.11 315.546 591.118 315.723 591.11 315.9 590.021 315.9 588.931 315.9 587.842 315.9 587.842 315.782 587.842 315.664 587.842 315.546 587.926 315.382 587.985 315.205 588.018 315.016 588.174 314.625 588.439 314.33 588.813 314.133 589.034 314.057 589.263 314.013 589.498 314 589.683 314.014 589.866 314.029 590.05 314.045Z" fill="#FCFCFC" fill-rule="evenodd"/><path d="M599.856 313.603C599.664 313.603 599.473 313.603 599.281 313.603 599.281 313.765 599.281 313.927 599.281 314.089 599.238 313.921 599.223 313.744 599.237 313.559 599.452 313.545 599.658 313.559 599.856 313.603Z" fill="#646464" fill-rule="evenodd"/><path d="M577.462 314C578.15 314.121 578.599 314.519 578.809 315.193 578.999 315.895 579.014 316.602 578.853 317.313 578.56 318.327 577.89 318.747 576.844 318.572 576.131 318.289 575.719 317.766 575.607 317.004 575.569 316.681 575.555 316.358 575.563 316.032 575.552 315.3 575.817 314.689 576.358 314.199 576.471 314.135 576.589 314.083 576.711 314.045 576.96 314.013 577.21 313.998 577.462 314Z" fill="#FCFCFC" fill-rule="evenodd"/><path d="M540.095 314.354C540.106 314.46 540.077 314.548 540.007 314.619 539.996 314.513 540.026 314.424 540.095 314.354Z" fill="#5A5A5A" fill-rule="evenodd"/><path d="M564.211 314.575C564.222 314.681 564.192 314.769 564.123 314.84 564.113 314.734 564.142 314.645 564.211 314.575Z" fill="#939393" fill-rule="evenodd"/><path d="M566.597 314.619C566.666 314.689 566.695 314.778 566.685 314.884 566.616 314.813 566.586 314.725 566.597 314.619Z" fill="#787878" fill-rule="evenodd"/><path d="M540.007 314.619C540.007 314.722 540.007 314.825 540.007 314.928 540.227 314.951 540.433 314.921 540.625 314.84 540.625 314.884 540.625 314.928 540.625 314.972 540.405 314.972 540.184 314.972 539.963 314.972 539.949 314.844 539.964 314.727 540.007 314.619Z" fill="#858585" fill-rule="evenodd"/><path d="M563.505 314.707C563.505 314.781 563.505 314.854 563.505 314.928 563.711 314.928 563.917 314.928 564.123 314.928 563.91 314.968 563.689 314.997 563.461 315.016 563.447 314.903 563.462 314.8 563.505 314.707Z" fill="#B4B4B4" fill-rule="evenodd"/><path d="M591.552 314.84C591.615 314.928 591.644 315.032 591.64 315.149 591.577 315.06 591.548 314.957 591.552 314.84Z" fill="#5A5A5A" fill-rule="evenodd"/><path d="M588.018 315.016C587.985 315.205 587.926 315.382 587.842 315.546 587.858 315.351 587.916 315.174 588.018 315.016Z" fill="#9C9C9C" fill-rule="evenodd"/><path d="M575.033 315.06C575.037 315.178 575.007 315.281 574.944 315.37 574.94 315.253 574.97 315.149 575.033 315.06Z" fill="#545454" fill-rule="evenodd"/><path d="M603.61 315.016C603.614 315.133 603.584 315.237 603.521 315.326 603.518 315.208 603.547 315.105 603.61 315.016Z" fill="#606060" fill-rule="evenodd"/><path d="M591.64 315.149C591.703 315.238 591.732 315.341 591.729 315.458 591.666 315.369 591.636 315.266 591.64 315.149Z" fill="#909090" fill-rule="evenodd"/><path d="M552.198 315.37C552.202 315.487 552.172 315.59 552.109 315.679 552.105 315.562 552.135 315.458 552.198 315.37Z" fill="#707070" fill-rule="evenodd"/><path d="M606.348 315.06C606.384 315.125 606.406 315.198 606.415 315.281 606.437 316.518 606.444 317.755 606.437 318.991 606.404 317.688 606.375 316.378 606.348 315.06Z" fill="#5C5C5C" fill-rule="evenodd"/><path d="M541.288 315.811C541.199 315.874 541.096 315.904 540.979 315.9 541.068 315.837 541.171 315.807 541.288 315.811Z" fill="#606060" fill-rule="evenodd"/><path d="M587.842 315.546C587.842 315.664 587.842 315.782 587.842 315.9 588.931 315.9 590.021 315.9 591.11 315.9 590.013 315.944 588.909 315.958 587.797 315.944 587.784 315.802 587.798 315.67 587.842 315.546Z" fill="#8E8E8E" fill-rule="evenodd"/><path d="M574.944 315.37C574.91 315.825 574.896 316.282 574.9 316.739 574.871 316.563 574.856 316.379 574.856 316.187 574.849 315.904 574.878 315.632 574.944 315.37Z" fill="#2F2F2F" fill-rule="evenodd"/><path d="M591.729 315.591C591.817 315.852 591.831 316.117 591.773 316.386 591.764 316.12 591.749 315.855 591.729 315.591Z" fill="#B3B3B3" fill-rule="evenodd"/><path d="M543.187 316.209C542.612 316.202 542.038 316.216 541.465 316.253 541.529 316.218 541.602 316.196 541.685 316.187 542.194 316.15 542.694 316.158 543.187 316.209Z" fill="#929292" fill-rule="evenodd"/><path d="M543.187 316.209C543.269 316.863 543.159 317.482 542.856 318.064 542.661 318.332 542.403 318.516 542.083 318.616 541.37 318.806 540.789 318.621 540.338 318.064 540.279 317.953 540.242 317.835 540.228 317.711 540.22 317.455 540.249 317.205 540.316 316.96 540.455 316.703 540.661 316.526 540.935 316.43 541.123 316.396 541.3 316.337 541.465 316.253 542.038 316.216 542.612 316.202 543.187 316.209Z" fill="#FBFBFB" fill-rule="evenodd"/><path d="M566.685 317.136C566.685 316.827 566.685 316.518 566.685 316.209 566.11 316.202 565.536 316.216 564.962 316.253 565.041 316.217 565.13 316.195 565.227 316.187 565.728 316.165 566.228 316.157 566.729 316.165 566.743 316.497 566.729 316.821 566.685 317.136Z" fill="#888888" fill-rule="evenodd"/><path d="M566.685 317.136C566.655 317.705 566.404 318.154 565.934 318.484 565.828 318.559 565.71 318.596 565.581 318.594 565.177 318.615 564.779 318.585 564.388 318.506 563.952 318.304 563.731 317.958 563.726 317.468 563.718 317.274 563.755 317.09 563.836 316.916 564.021 316.679 564.249 316.502 564.521 316.386 564.682 316.376 564.83 316.332 564.962 316.253 565.536 316.216 566.11 316.202 566.685 316.209 566.685 316.518 566.685 316.827 566.685 317.136Z" fill="#FCFCFC" fill-rule="evenodd"/><path d="M564.962 316.253C564.83 316.332 564.682 316.376 564.521 316.386 564.653 316.307 564.801 316.263 564.962 316.253Z" fill="#9B9B9B" fill-rule="evenodd"/><path d="M541.465 316.253C541.3 316.337 541.123 316.396 540.935 316.43 541.093 316.328 541.27 316.269 541.465 316.253Z" fill="#B5B5B5" fill-rule="evenodd"/><path d="M591.773 316.386C590.455 316.43 589.13 316.444 587.797 316.43 587.797 316.592 587.797 316.753 587.797 316.916 587.754 316.748 587.739 316.571 587.753 316.386 589.093 316.386 590.433 316.386 591.773 316.386Z" fill="#A8A8A8" fill-rule="evenodd"/><path d="M575.563 316.032C575.555 316.358 575.569 316.681 575.607 317.004 575.573 316.97 575.551 316.926 575.541 316.871 575.505 316.584 575.512 316.304 575.563 316.032Z" fill="#555555" fill-rule="evenodd"/><path d="M591.11 317.313C591.308 317.269 591.514 317.255 591.729 317.269 591.741 317.353 591.726 317.427 591.684 317.49 591.684 317.431 591.684 317.372 591.684 317.313 591.493 317.313 591.301 317.313 591.11 317.313Z" fill="#7D7D7D" fill-rule="evenodd"/><path d="M540.316 316.96C540.249 317.205 540.22 317.455 540.228 317.711 540.157 317.45 540.186 317.2 540.316 316.96Z" fill="#6E6E6E" fill-rule="evenodd"/><path d="M564.388 318.506C564.779 318.585 565.177 318.615 565.581 318.594 565.547 318.628 565.503 318.65 565.448 318.66 565.227 318.69 565.006 318.69 564.786 318.66 564.637 318.638 564.505 318.586 564.388 318.506Z" fill="#B2B2B2" fill-rule="evenodd"/><path d="M566.729 318.285C566.732 318.261 566.746 318.246 566.773 318.241 566.843 318.426 566.872 318.617 566.862 318.815 566.809 318.64 566.765 318.463 566.729 318.285Z" fill="#626262" fill-rule="evenodd"/><path d="M554.98 318.903C554.816 319.031 554.625 319.09 554.406 319.08 554.593 319.022 554.785 318.964 554.98 318.903Z" fill="#AAAAAA" fill-rule="evenodd"/><path d="M579.008 318.815C579.049 318.862 579.064 318.921 579.052 318.991 579.258 318.991 579.464 318.991 579.67 318.991 579.458 319.035 579.237 319.05 579.008 319.036 579.008 318.962 579.008 318.889 579.008 318.815Z" fill="#A9A9A9" fill-rule="evenodd"/><path d="M565.846 318.991C565.779 319.032 565.705 319.068 565.625 319.102 565.279 319.138 564.94 319.131 564.609 319.08 565.025 319.095 565.438 319.066 565.846 318.991Z" fill="#999999" fill-rule="evenodd"/><path d="M590.58 318.903C590.357 319.048 590.107 319.13 589.829 319.146 589.608 319.176 589.388 319.176 589.167 319.146 589.033 319.142 588.915 319.105 588.813 319.036 589.415 319.172 590.005 319.128 590.58 318.903Z" fill="#BFBFBF" fill-rule="evenodd"/></g></g></svg>