<svg width="181" height="181" xmlns="http://www.w3.org/2000/svg" xmlns:xlink="http://www.w3.org/1999/xlink" xml:space="preserve" overflow="hidden"><defs><clipPath id="clip0"><rect x="521" y="32" width="181" height="181"/></clipPath><clipPath id="clip1"><path d="M611.5 32C661.482 32 702 72.5183 702 122.5 702 172.482 661.482 213 611.5 213 561.518 213 521 172.482 521 122.5 521 72.5183 561.518 32 611.5 32Z" fill-rule="evenodd" clip-rule="evenodd"/></clipPath></defs><g clip-path="url(#clip0)" transform="translate(-521 -32)"><path d="M611.5 32C661.482 32 702 72.5183 702 122.5 702 172.482 661.482 213 611.5 213 561.518 213 521 172.482 521 122.5 521 72.5183 561.518 32 611.5 32Z" fill="#F2F2F2" fill-rule="evenodd"/><g clip-path="url(#clip1)"><path d="M520.974 31.9739C581.307 31.9739 641.64 31.9739 701.974 31.9739 701.974 92.3074 701.974 152.64 701.974 212.974 641.64 212.974 581.307 212.974 520.974 212.974 520.974 152.64 520.974 92.3074 520.974 31.9739Z" fill="#FEFEFE" fill-rule="evenodd"/><path d="M565.283 100.371C563.559 100.406 561.835 100.441 560.11 100.476 560.058 101.599 560.041 102.731 560.058 103.872 559.536 103.872 559.013 103.872 558.491 103.872 558.469 103.835 558.434 103.809 558.386 103.794 557.196 103.538 555.994 103.424 554.781 103.454 554.781 102.444 554.781 101.434 554.781 100.424 554.554 100.424 554.328 100.424 554.102 100.424 552.577 100.441 551.062 100.424 549.556 100.371 551.086 99.2245 552.601 98.0577 554.102 96.8705 554.136 96.8705 554.154 96.8533 554.154 96.8183 554.322 96.7085 554.479 96.5863 554.624 96.4525 554.659 96.4525 554.676 96.4353 554.676 96.4003 555.597 95.7147 556.512 95.0182 557.419 94.3102 560.034 96.3417 562.656 98.3623 565.283 100.371Z" fill="#010101" fill-rule="evenodd"/><path d="M554.676 96.4003C554.676 96.4353 554.659 96.4525 554.624 96.4525 554.467 96.4525 554.31 96.4525 554.154 96.4525 554.154 96.5743 554.154 96.6965 554.154 96.8183 554.154 96.8533 554.136 96.8705 554.102 96.8705 554.102 96.7138 554.102 96.557 554.102 96.4003 554.293 96.4003 554.485 96.4003 554.676 96.4003Z" fill="#A7B6AC" fill-rule="evenodd"/><path d="M580.75 96.4525C586.419 96.3914 592.097 96.383 597.784 96.4264 598.307 96.4567 598.829 96.4917 599.352 96.5309 599.571 96.5586 599.78 96.602 599.979 96.6615 599.214 96.5831 598.448 96.5225 597.679 96.4786 592.106 96.4525 586.533 96.4436 580.959 96.4525 580.942 96.4525 580.924 96.4525 580.907 96.4525 580.854 96.4525 580.802 96.4525 580.75 96.4525Z" fill="#8D8D8D" fill-rule="evenodd"/><path d="M580.959 96.4525C586.533 96.4436 592.106 96.4525 597.679 96.4786 598.448 96.5225 599.214 96.5831 599.979 96.6615 600.013 96.6615 600.048 96.6615 600.083 96.6615 600.263 96.7237 600.455 96.7582 600.658 96.766 604.586 97.3481 607.643 99.2814 609.828 102.566 610.449 103.616 610.91 104.73 611.213 105.91 611.208 106.049 611.243 106.171 611.317 106.276 611.317 106.311 611.317 106.345 611.317 106.38 611.3 106.523 611.335 106.645 611.422 106.746 611.422 106.781 611.422 106.816 611.422 106.851 611.475 107.382 611.544 107.905 611.631 108.418 611.631 109.045 611.631 109.672 611.631 110.299 611.575 110.656 611.54 111.021 611.526 111.397 611.526 111.484 611.526 111.571 611.526 111.658 611.418 111.974 611.348 112.305 611.317 112.651 610.46 116.782 608.073 119.621 604.159 121.168 603.759 121.277 603.376 121.417 603.009 121.586 602.909 121.571 602.822 121.588 602.748 121.638 602.609 121.633 602.487 121.668 602.382 121.742 600.819 122.114 599.234 122.323 597.627 122.369 593.943 122.352 590.268 122.369 586.602 122.422 586.55 124.311 586.533 126.21 586.55 128.117 586.156 128.606 585.887 129.163 585.74 129.789 585.625 130.914 585.486 132.029 585.322 133.133 584.544 134.225 583.726 135.287 582.866 136.321 582.841 136.37 582.832 136.422 582.84 136.477 582.599 136.715 582.381 136.976 582.187 137.261 581.906 137.402 581.654 137.585 581.429 137.81 581.389 137.963 581.302 138.076 581.168 138.149 581.098 138.149 581.028 138.149 580.959 138.149 580.959 124.25 580.959 110.351 580.959 96.4525Z" fill-rule="evenodd"/><path d="M554.624 96.4525C554.479 96.5863 554.322 96.7085 554.154 96.8183 554.154 96.6965 554.154 96.5743 554.154 96.4525 554.31 96.4525 554.467 96.4525 554.624 96.4525Z" fill="#526957" fill-rule="evenodd"/><path d="M600.083 96.6615C600.241 96.6532 600.398 96.6615 600.553 96.6876 600.601 96.7023 600.636 96.7284 600.658 96.766 600.455 96.7582 600.263 96.7237 600.083 96.6615Z" fill="#9B9B9B" fill-rule="evenodd"/><path d="M580.75 96.4525C580.802 96.4525 580.854 96.4525 580.907 96.4525 580.907 110.404 580.907 124.355 580.907 138.306 580.907 138.341 580.907 138.376 580.907 138.411 580.868 138.339 580.833 138.26 580.802 138.176 580.872 135.105 580.872 132.031 580.802 128.953 580.754 128.894 580.71 128.894 580.672 128.953 580.664 129.143 580.62 129.317 580.541 129.476 580.606 128.885 580.667 128.292 580.724 127.699 580.75 117.284 580.759 106.868 580.75 96.4525Z" fill="#58765F" fill-rule="evenodd"/><path d="M580.907 96.4525C580.924 96.4525 580.942 96.4525 580.959 96.4525 580.959 110.351 580.959 124.25 580.959 138.149 581.028 138.149 581.098 138.149 581.168 138.149 581.125 138.3 581.038 138.352 580.907 138.306 580.907 124.355 580.907 110.404 580.907 96.4525Z" fill="#07140E" fill-rule="evenodd"/><path d="M549.556 100.371C551.062 100.424 552.577 100.441 554.102 100.424 554.102 100.441 554.102 100.459 554.102 100.476 554.067 100.476 554.032 100.476 553.997 100.476 552.499 100.493 551.001 100.476 549.503 100.424 549.51 100.392 549.527 100.375 549.556 100.371Z" fill="#7F7F7F" fill-rule="evenodd"/><path d="M565.283 100.371C565.312 100.375 565.329 100.392 565.336 100.424 563.612 100.476 561.887 100.493 560.163 100.476 560.18 101.634 560.163 102.784 560.11 103.925 560.11 102.775 560.11 101.625 560.11 100.476 561.835 100.441 563.559 100.406 565.283 100.371Z" fill="#8F8F8F" fill-rule="evenodd"/><path d="M553.997 100.476C554.032 100.476 554.067 100.476 554.102 100.476 554.093 109.62 554.102 118.764 554.128 127.908 554.139 127.99 554.165 128.059 554.206 128.117 554.206 128.396 554.206 128.675 554.206 128.953 554.084 128.897 554.066 128.81 554.154 128.692 554.114 128.485 554.087 128.276 554.075 128.065 554.067 118.865 554.04 109.669 553.997 100.476Z" fill="#F5FEF7" fill-rule="evenodd"/><path d="M554.102 100.476C554.31 100.476 554.519 100.476 554.729 100.476 554.729 101.504 554.729 102.531 554.729 103.559 554.729 103.68 554.729 103.803 554.729 103.925 554.676 102.802 554.659 101.669 554.676 100.528 554.519 100.528 554.363 100.528 554.206 100.528 554.206 109.724 554.206 118.921 554.206 128.117 554.165 128.059 554.139 127.99 554.128 127.908 554.102 118.764 554.093 109.62 554.102 100.476Z" fill="#6E8A77" fill-rule="evenodd"/><path d="M597.575 101.103C597.853 101.12 598.132 101.138 598.411 101.155 598.597 101.203 598.789 101.221 598.986 101.207 599.128 101.281 599.285 101.316 599.456 101.312 601.753 101.698 603.503 102.882 604.707 104.865 606.158 107.437 606.385 110.119 605.387 112.912 604.68 114.898 603.348 116.274 601.389 117.04 601.134 117.108 600.89 117.194 600.658 117.301 600.117 117.411 599.578 117.524 599.038 117.641 598.465 117.709 597.89 117.752 597.314 117.771 593.778 117.771 590.242 117.771 586.707 117.771 586.707 112.215 586.707 106.659 586.707 101.103 590.329 101.103 593.952 101.103 597.575 101.103Z" fill="#FEFEFE" fill-rule="evenodd"/><path d="M597.575 101.103C597.575 101.086 597.575 101.068 597.575 101.051 597.868 101.033 598.146 101.067 598.411 101.155 598.132 101.138 597.853 101.12 597.575 101.103Z" fill="#616161" fill-rule="evenodd"/><path d="M586.654 101.051C590.295 101.051 593.935 101.051 597.575 101.051 597.575 101.068 597.575 101.086 597.575 101.103 593.952 101.103 590.329 101.103 586.707 101.103 586.707 106.659 586.707 112.215 586.707 117.771 586.654 112.206 586.637 106.633 586.654 101.051Z" fill="#C3CAC4" fill-rule="evenodd"/><path d="M598.986 101.207C599.157 101.203 599.314 101.238 599.456 101.312 599.285 101.316 599.128 101.281 598.986 101.207Z" fill="#7E7E7E" fill-rule="evenodd"/><path d="M586.654 101.051C586.637 106.633 586.654 112.206 586.707 117.771 590.242 117.771 593.778 117.771 597.314 117.771 593.74 117.841 590.16 117.841 586.576 117.771 586.541 112.215 586.541 106.659 586.576 101.103 586.596 101.074 586.622 101.056 586.654 101.051Z" fill="#5C665E" fill-rule="evenodd"/><path d="M554.102 100.476C554.102 100.459 554.102 100.441 554.102 100.424 554.328 100.424 554.554 100.424 554.781 100.424 554.781 101.434 554.781 102.444 554.781 103.454 555.994 103.424 557.196 103.538 558.386 103.794 558.434 103.809 558.469 103.835 558.491 103.872 557.287 103.863 556.085 103.802 554.885 103.689 554.823 103.653 554.771 103.609 554.729 103.559 554.729 102.531 554.729 101.504 554.729 100.476 554.519 100.476 554.31 100.476 554.102 100.476Z" fill="#0C140E" fill-rule="evenodd"/><path d="M560.11 100.476C560.11 101.625 560.11 102.775 560.11 103.925 560.076 103.925 560.041 103.925 560.006 103.925 558.247 103.925 556.488 103.925 554.729 103.925 554.729 103.803 554.729 103.68 554.729 103.559 554.771 103.609 554.823 103.653 554.885 103.689 556.085 103.802 557.287 103.863 558.491 103.872 559.013 103.872 559.536 103.872 560.058 103.872 560.041 102.731 560.058 101.599 560.11 100.476Z" fill="#1B271D" fill-rule="evenodd"/><path d="M554.729 103.925C555.869 103.968 557.019 103.994 558.177 104.003 558.394 104.062 558.621 104.089 558.856 104.081 559.093 104.079 559.329 104.061 559.562 104.029 559.623 104.082 559.684 104.134 559.745 104.186 559.809 104.147 559.879 104.129 559.954 104.134 559.936 111.806 559.954 119.469 560.006 127.124 559.989 127.326 560.007 127.518 560.058 127.699 560.234 132.925 562.882 136.025 568 137 568.231 137.077 568.475 137.112 568.732 137.104 569.217 137.138 569.705 137.155 570.195 137.157 570.867 137.166 571.529 137.131 572.181 137.052 574.275 136.84 576.138 136.083 577.771 134.779 579.34 133.341 580.262 131.574 580.541 129.476 580.62 129.317 580.664 129.143 580.672 128.953 580.71 128.894 580.754 128.894 580.802 128.953 580.872 132.031 580.872 135.105 580.802 138.176 580.833 138.26 580.868 138.339 580.907 138.411 580.907 138.515 580.907 138.62 580.907 138.724 581.249 138.434 581.598 138.138 581.952 137.836 581.998 137.793 582.015 137.741 582.004 137.679 582.233 137.545 582.425 137.362 582.579 137.13 582.925 136.845 583.264 136.558 583.598 136.268 583.773 136.022 583.974 135.796 584.198 135.589 584.34 135.392 584.462 135.183 584.564 134.962 584.607 134.916 584.659 134.898 584.721 134.91 584.56 135.141 584.42 135.385 584.303 135.641 582.426 138.062 580.04 139.795 577.144 140.84 576.277 141.173 575.388 141.426 574.48 141.598 574.125 141.64 573.768 141.64 573.409 141.598 573.369 141.631 573.326 141.657 573.278 141.676 572.835 141.701 572.4 141.763 571.972 141.859 570.747 141.854 569.536 141.854 568.34 141.859 568.015 141.838 567.71 141.751 567.426 141.598 567.151 141.661 566.881 141.643 566.616 141.546 566.455 141.604 566.29 141.613 566.119 141.572 565.826 141.527 565.547 141.441 565.283 141.311 565.001 141.283 564.722 141.24 564.447 141.18 561.858 140.43 559.603 139.106 557.681 137.209 556.563 135.997 555.718 134.621 555.146 133.081 555.027 132.669 554.887 132.268 554.729 131.879 554.503 130.907 554.329 129.931 554.206 128.953 554.206 128.675 554.206 128.396 554.206 128.117 554.206 118.921 554.206 109.724 554.206 100.528 554.363 100.528 554.519 100.528 554.676 100.528 554.659 101.669 554.676 102.802 554.729 103.925Z" fill="#4D7558" fill-rule="evenodd"/><path d="M560.006 103.925C560.041 103.925 560.076 103.925 560.11 103.925 560.058 111.846 560.041 119.77 560.058 127.699 560.007 127.518 559.989 127.326 560.006 127.124 560.006 119.391 560.006 111.658 560.006 103.925Z" fill="#B3C4B4" fill-rule="evenodd"/><path d="M554.729 103.925C556.488 103.925 558.247 103.925 560.006 103.925 560.006 111.658 560.006 119.391 560.006 127.124 559.954 119.469 559.936 111.806 559.954 104.134 559.879 104.129 559.809 104.147 559.745 104.186 559.684 104.134 559.623 104.082 559.562 104.029 559.329 104.061 559.093 104.079 558.856 104.081 558.621 104.089 558.394 104.062 558.177 104.003 557.019 103.994 555.869 103.968 554.729 103.925Z" fill="#517059" fill-rule="evenodd"/><path d="M611.213 105.91C611.287 106.015 611.322 106.137 611.317 106.276 611.243 106.171 611.208 106.049 611.213 105.91Z" fill="#686868" fill-rule="evenodd"/><path d="M611.317 106.38C611.391 106.485 611.426 106.608 611.422 106.746 611.335 106.645 611.3 106.523 611.317 106.38Z" fill="#707070" fill-rule="evenodd"/><path d="M611.422 106.851C611.554 107.358 611.623 107.88 611.631 108.418 611.544 107.905 611.475 107.382 611.422 106.851Z" fill="#777777" fill-rule="evenodd"/><path d="M662.419 109.62C662.611 109.724 662.803 109.829 662.994 109.933 663.08 109.984 663.149 110.054 663.203 110.142 663.041 110.056 662.867 109.996 662.681 109.96 662.569 109.782 662.403 109.704 662.184 109.724 661.723 109.786 661.261 109.838 660.799 109.881 661.331 109.77 661.871 109.683 662.419 109.62Z" fill="#636364" fill-rule="evenodd"/><path d="M662.419 109.62C661.871 109.683 661.331 109.77 660.799 109.881 660.765 109.881 660.73 109.881 660.695 109.881 660.33 109.926 659.965 109.961 659.598 109.986 660.424 109.785 661.269 109.646 662.132 109.568 662.238 109.568 662.334 109.585 662.419 109.62Z" fill="#D1D1D1" fill-rule="evenodd"/><path d="M663.203 110.142C663.547 110.39 663.913 110.607 664.3 110.796 664.505 110.98 664.723 111.145 664.953 111.292 665.221 111.469 665.508 111.617 665.816 111.736 665.907 111.891 666.046 111.969 666.234 111.971 666.417 112.089 666.609 112.194 666.808 112.285 666.86 112.353 666.912 112.423 666.965 112.494 667.399 112.693 667.8 112.946 668.167 113.251 668.436 113.373 668.697 113.503 668.951 113.643 669.085 113.802 669.259 113.898 669.473 113.931 669.601 114.12 669.775 114.234 669.996 114.27 669.996 114.34 669.996 114.41 669.996 114.479 670.223 114.592 670.467 114.679 670.727 114.741 670.822 114.82 670.927 114.889 671.041 114.95 671.355 115.159 671.669 115.377 671.981 115.603 672.068 115.635 672.155 115.661 672.243 115.681 672.584 115.948 672.95 116.174 673.34 116.36 673.356 116.394 673.373 116.429 673.392 116.465 673.026 116.534 672.66 116.604 672.295 116.674 671.297 116.784 670.305 116.924 669.317 117.092 669.155 117.566 669.033 118.054 668.951 118.555 668.958 118.635 668.993 118.687 669.055 118.712 669.181 118.901 669.225 119.11 669.186 119.339 668.947 119.539 668.851 119.801 668.899 120.123 668.899 120.14 668.899 120.158 668.899 120.175 668.838 120.32 668.803 120.476 668.794 120.645 668.742 120.645 668.69 120.645 668.637 120.645 668.599 121.079 668.581 121.515 668.585 121.951 668.585 121.969 668.585 121.986 668.585 122.004 668.493 122.16 668.432 122.335 668.402 122.526 668.376 122.856 668.367 123.188 668.376 123.519 668.333 123.848 668.316 124.179 668.324 124.512 668.338 124.611 668.321 124.699 668.271 124.773 668.234 124.795 668.208 124.829 668.193 124.877 668.129 125.254 668.068 125.628 668.01 126.001 667.888 126.044 667.767 126.088 667.644 126.132 667.418 126.091 667.192 126.056 666.965 126.027 666.896 125.975 666.826 125.922 666.756 125.87 666.81 125.467 666.88 125.067 666.965 124.668 667 124.477 667.035 124.285 667.07 124.094 667.12 123.959 667.198 123.837 667.305 123.728 667.348 123.591 667.374 123.452 667.383 123.31 667.416 123.304 667.442 123.287 667.462 123.258 667.552 122.814 667.666 122.379 667.801 121.951 668.21 121.024 668.367 120.049 668.271 119.025 668.314 118.834 668.427 118.695 668.611 118.607 668.712 118.14 668.79 117.67 668.846 117.196 668.173 117.287 667.511 117.409 666.861 117.562 666.447 117.572 666.047 117.624 665.659 117.719 664.897 117.849 664.131 117.962 663.36 118.059 663.129 118.129 662.903 118.19 662.681 118.241 662.484 118.309 662.275 118.344 662.054 118.346 661.547 118.402 661.042 118.471 660.538 118.555 660.362 118.467 660.188 118.38 660.016 118.294 659.911 118.041 659.719 117.901 659.441 117.876 659.441 117.823 659.441 117.771 659.441 117.719 659.336 117.719 659.232 117.719 659.127 117.719 658.877 117.485 658.598 117.294 658.291 117.144 658.274 117.144 658.256 117.144 658.239 117.144 658.216 117.094 658.181 117.051 658.135 117.014 657.896 116.869 657.652 116.739 657.403 116.622 657.044 116.437 656.695 116.228 656.358 115.995 656.29 115.943 656.221 115.891 656.149 115.838 656.029 115.683 655.873 115.597 655.679 115.577 655.655 115.526 655.62 115.483 655.574 115.446 655.338 115.305 655.094 115.175 654.843 115.054 654.636 114.903 654.41 114.781 654.164 114.688 653.956 114.545 653.747 114.397 653.536 114.244 653.487 114.219 653.435 114.21 653.38 114.218 653.339 114.151 653.286 114.09 653.223 114.035 652.877 113.876 652.546 113.693 652.23 113.487 651.982 113.257 651.703 113.065 651.394 112.912 651.193 112.755 650.984 112.607 650.767 112.468 650.7 112.442 650.63 112.433 650.558 112.442 650.477 112.43 650.407 112.395 650.349 112.337 650.098 112.158 649.837 112.001 649.565 111.867 649.565 111.815 649.565 111.762 649.565 111.71 650.492 111.61 651.398 111.453 652.282 111.24 652.738 111.207 653.191 111.155 653.641 111.083 653.663 111.115 653.697 111.133 653.746 111.135 654.31 111.056 654.868 110.951 655.418 110.822 655.498 110.831 655.576 110.848 655.653 110.874 655.937 110.78 656.224 110.693 656.515 110.613 656.584 110.63 656.654 110.648 656.724 110.665 657.464 110.518 658.196 110.361 658.918 110.195 658.918 110.177 658.918 110.16 658.918 110.142 659.524 110.098 660.116 110.01 660.695 109.881 660.73 109.881 660.765 109.881 660.799 109.881 661.261 109.838 661.723 109.786 662.184 109.724 662.403 109.704 662.569 109.782 662.681 109.96 662.867 109.996 663.041 110.056 663.203 110.142Z" fill="#313133" fill-rule="evenodd"/><path d="M660.695 109.881C660.116 110.01 659.524 110.098 658.918 110.142 659.04 110.107 659.162 110.073 659.284 110.038 659.401 110.053 659.506 110.036 659.598 109.986 659.965 109.961 660.33 109.926 660.695 109.881Z" fill="#909090" fill-rule="evenodd"/><path d="M659.284 110.038C659.162 110.073 659.04 110.107 658.918 110.142 658.918 110.16 658.918 110.177 658.918 110.195 658.431 110.247 657.943 110.299 657.455 110.351 658.046 110.175 658.655 110.07 659.284 110.038Z" fill="#D3D3D4" fill-rule="evenodd"/><path d="M657.455 110.351C656.725 110.545 655.977 110.668 655.209 110.717 655.945 110.555 656.694 110.433 657.455 110.351Z" fill="#C2C2C3" fill-rule="evenodd"/><path d="M658.918 110.195C658.196 110.361 657.464 110.518 656.724 110.665 656.654 110.648 656.584 110.63 656.515 110.613 656.224 110.693 655.937 110.78 655.653 110.874 655.576 110.848 655.498 110.831 655.418 110.822 654.868 110.951 654.31 111.056 653.746 111.135 653.697 111.133 653.663 111.115 653.641 111.083 653.708 111.096 653.761 111.078 653.798 111.031 654.206 110.945 654.624 110.875 655.052 110.822 655.132 110.814 655.184 110.779 655.209 110.717 655.977 110.668 656.725 110.545 657.455 110.351 657.943 110.299 658.431 110.247 658.918 110.195Z" fill="#565658" fill-rule="evenodd"/><path d="M655.209 110.717C655.184 110.779 655.132 110.814 655.052 110.822 654.624 110.875 654.206 110.945 653.798 111.031 653.292 111.078 652.787 111.131 652.282 111.188 652.43 111.145 652.578 111.093 652.727 111.031 652.791 111.038 652.852 111.056 652.909 111.083 653.14 110.983 653.383 110.923 653.641 110.9 654.163 110.831 654.686 110.769 655.209 110.717Z" fill="#D2D2D3" fill-rule="evenodd"/><path d="M653.798 111.031C653.761 111.078 653.708 111.096 653.641 111.083 653.191 111.155 652.738 111.207 652.282 111.24 652.282 111.223 652.282 111.205 652.282 111.188 652.787 111.131 653.292 111.078 653.798 111.031Z" fill="#8B8B8C" fill-rule="evenodd"/><path d="M611.631 110.299C611.647 110.678 611.612 111.043 611.526 111.397 611.54 111.021 611.575 110.656 611.631 110.299Z" fill="#848484" fill-rule="evenodd"/><path d="M662.994 109.933C663.437 110.055 663.802 110.29 664.091 110.639 664.217 110.649 664.339 110.675 664.457 110.717 664.666 110.923 664.892 111.106 665.136 111.266 665.316 111.312 665.49 111.373 665.659 111.449 665.699 111.508 665.734 111.568 665.763 111.632 665.927 111.747 666.084 111.861 666.234 111.971 666.046 111.969 665.907 111.891 665.816 111.736 665.508 111.617 665.221 111.469 664.953 111.292 664.723 111.145 664.505 110.98 664.3 110.796 663.913 110.607 663.547 110.39 663.203 110.142 663.149 110.054 663.08 109.984 662.994 109.933Z" fill="#BCBCBC" fill-rule="evenodd"/><path d="M652.282 111.24C651.398 111.453 650.492 111.61 649.565 111.71 649.565 111.762 649.565 111.815 649.565 111.867 649.837 112.001 650.098 112.158 650.349 112.337 650.268 112.336 650.189 112.319 650.114 112.285 649.911 112.174 649.711 112.052 649.513 111.919 649.421 111.85 649.403 111.772 649.461 111.684 650.386 111.468 651.327 111.32 652.282 111.24Z" fill="#B3B3B3" fill-rule="evenodd"/><path d="M611.526 111.658C611.494 111.955 611.45 112.251 611.396 112.546 611.381 112.594 611.355 112.629 611.317 112.651 611.348 112.305 611.418 111.974 611.526 111.658Z" fill="#6A6A6A" fill-rule="evenodd"/><path d="M666.808 112.285C667.056 112.43 667.317 112.552 667.592 112.651 667.639 112.693 667.656 112.746 667.644 112.807 667.88 112.857 668.071 112.988 668.219 113.199 668.307 113.216 668.393 113.234 668.481 113.251 668.652 113.368 668.809 113.499 668.951 113.643 668.697 113.503 668.436 113.373 668.167 113.251 667.8 112.946 667.399 112.693 666.965 112.494 666.912 112.423 666.86 112.353 666.808 112.285Z" fill="#BFBFC0" fill-rule="evenodd"/><path d="M650.558 112.442C650.63 112.433 650.7 112.442 650.767 112.468 650.984 112.607 651.193 112.755 651.394 112.912 651.152 112.881 650.926 112.811 650.715 112.703 650.715 112.633 650.715 112.563 650.715 112.494 650.648 112.506 650.595 112.489 650.558 112.442Z" fill="#A6A6A6" fill-rule="evenodd"/><path d="M651.394 112.912C651.703 113.065 651.982 113.257 652.23 113.487 652.12 113.502 652.016 113.485 651.917 113.434 651.776 113.294 651.619 113.172 651.446 113.069 651.414 113.02 651.396 112.968 651.394 112.912Z" fill="#C1C1C1" fill-rule="evenodd"/><path d="M652.23 113.487C652.546 113.693 652.877 113.876 653.223 114.035 653.286 114.09 653.339 114.151 653.38 114.218 653.131 114.101 652.887 113.97 652.648 113.826 652.491 113.726 652.352 113.613 652.23 113.487Z" fill="#AEAEAF" fill-rule="evenodd"/><path d="M669.996 114.27C670.2 114.433 670.426 114.555 670.675 114.636 670.717 114.66 670.734 114.695 670.727 114.741 670.467 114.679 670.223 114.592 669.996 114.479 669.996 114.41 669.996 114.34 669.996 114.27Z" fill="#656567" fill-rule="evenodd"/><path d="M654.164 114.688C654.41 114.781 654.636 114.903 654.843 115.054 654.744 115.058 654.648 115.04 654.555 115.002 654.461 114.907 654.348 114.846 654.216 114.819 654.177 114.784 654.159 114.741 654.164 114.688Z" fill="#B4B4B5" fill-rule="evenodd"/><path d="M654.843 115.054C655.094 115.175 655.338 115.305 655.574 115.446 655.62 115.483 655.655 115.526 655.679 115.577 655.394 115.505 655.133 115.383 654.895 115.211 654.849 115.168 654.831 115.116 654.843 115.054Z" fill="#ADADAD" fill-rule="evenodd"/><path d="M671.041 114.95C671.133 114.942 671.22 114.96 671.302 115.002 671.624 115.229 671.938 115.455 672.243 115.681 672.155 115.661 672.068 115.635 671.981 115.603 671.669 115.377 671.355 115.159 671.041 114.95Z" fill="#9E9E9F" fill-rule="evenodd"/><path d="M655.679 115.577C655.873 115.597 656.029 115.683 656.149 115.838 655.939 115.835 655.782 115.748 655.679 115.577Z" fill="#7E7E80" fill-rule="evenodd"/><path d="M672.243 115.681C672.391 115.713 672.539 115.748 672.687 115.786 672.886 115.898 673.069 116.029 673.235 116.178 673.304 116.22 673.339 116.281 673.34 116.36 672.95 116.174 672.584 115.948 672.243 115.681Z" fill="#C4C4C4" fill-rule="evenodd"/><path d="M655.679 116.204C655.375 116.092 655.097 115.935 654.843 115.733 654.812 115.744 654.786 115.762 654.764 115.786 654.754 115.958 654.71 116.115 654.634 116.256 654.666 116.066 654.683 115.874 654.686 115.681 654.921 115.714 655.13 115.81 655.313 115.969 655.418 116.004 655.522 116.038 655.627 116.073 655.666 116.108 655.684 116.151 655.679 116.204Z" fill="#9F9F9F" fill-rule="evenodd"/><path d="M655.679 116.204C655.732 116.265 655.802 116.3 655.888 116.308 656.021 116.422 656.16 116.535 656.306 116.648 656.463 116.676 656.602 116.737 656.724 116.831 656.797 116.903 656.884 116.956 656.985 116.987 657.136 117.147 657.31 117.277 657.508 117.379 657.609 117.422 657.714 117.448 657.821 117.458 657.824 117.567 657.877 117.645 657.978 117.693 658.141 117.796 658.315 117.875 658.5 117.928 658.562 117.972 658.631 118.007 658.709 118.032 658.808 118.169 658.929 118.282 659.075 118.372 659.232 118.367 659.336 118.437 659.389 118.581 659.546 118.609 659.685 118.67 659.807 118.764 659.977 118.899 660.151 119.03 660.329 119.156 660.503 119.165 660.677 119.156 660.852 119.13 660.874 119.162 660.908 119.18 660.956 119.182 661.723 119.008 662.49 118.869 663.255 118.764 663.481 118.707 663.707 118.655 663.935 118.607 664.272 118.527 664.62 118.475 664.98 118.45 665.648 118.402 666.31 118.315 666.965 118.189 666.934 118.577 666.882 118.96 666.808 119.339 666.691 119.599 666.639 119.878 666.652 120.175 666.652 120.192 666.652 120.21 666.652 120.227 666.574 120.425 666.513 120.634 666.469 120.854 666.449 120.883 666.423 120.901 666.39 120.906 666.308 121.085 666.213 121.259 666.103 121.429 665.969 121.466 665.909 121.554 665.92 121.69 665.586 121.892 665.272 122.118 664.98 122.369 664.664 122.51 664.35 122.649 664.039 122.787 663.458 122.934 662.866 123.021 662.263 123.049 661.67 123.058 661.078 123.049 660.486 123.023 659.859 122.888 659.232 122.758 658.605 122.631 658.607 122.578 658.58 122.544 658.527 122.526 658.227 122.464 657.939 122.377 657.664 122.265 657.444 122.184 657.235 122.079 657.037 121.951 656.9 121.847 656.76 121.742 656.619 121.638 656.52 121.587 656.416 121.57 656.306 121.586 656.141 121.35 655.932 121.176 655.679 121.063 655.592 120.941 655.487 120.837 655.365 120.75 655.132 120.535 654.941 120.291 654.791 120.018 654.773 120.018 654.756 120.018 654.738 120.018 654.718 119.791 654.631 119.6 654.477 119.443 654.442 119.356 654.408 119.269 654.373 119.182 654.289 118.62 654.307 118.063 654.425 117.51 654.425 117.44 654.425 117.37 654.425 117.301 654.578 116.995 654.647 116.663 654.634 116.308 654.634 116.291 654.634 116.273 654.634 116.256 654.71 116.115 654.754 115.958 654.764 115.786 654.786 115.762 654.812 115.744 654.843 115.733 655.097 115.935 655.375 116.092 655.679 116.204Z" fill="#313133" fill-rule="evenodd"/><path d="M655.888 116.308C656.13 116.369 656.357 116.464 656.567 116.596 656.614 116.68 656.666 116.758 656.724 116.831 656.602 116.737 656.463 116.676 656.306 116.648 656.16 116.535 656.021 116.422 655.888 116.308Z" fill="#CCCCCD" fill-rule="evenodd"/><path d="M656.358 115.995C656.695 116.228 657.044 116.437 657.403 116.622 657.556 116.726 657.695 116.847 657.821 116.987 657.473 116.781 657.107 116.598 656.724 116.439 656.554 116.33 656.432 116.181 656.358 115.995Z" fill="#CFCFCF" fill-rule="evenodd"/><path d="M673.34 116.36C673.479 116.37 673.514 116.431 673.444 116.543 672.967 116.684 672.479 116.762 671.981 116.778 672.086 116.743 672.19 116.709 672.295 116.674 672.66 116.604 673.026 116.534 673.392 116.465 673.373 116.429 673.356 116.394 673.34 116.36Z" fill="#CDCDCD" fill-rule="evenodd"/><path d="M654.634 116.308C654.647 116.663 654.578 116.995 654.425 117.301 654.461 117.004 654.505 116.708 654.555 116.413 654.57 116.365 654.596 116.33 654.634 116.308Z" fill="#909092" fill-rule="evenodd"/><path d="M657.403 116.622C657.652 116.739 657.896 116.869 658.135 117.014 658.181 117.051 658.216 117.094 658.239 117.144 658.11 117.072 657.971 117.02 657.821 116.987 657.695 116.847 657.556 116.726 657.403 116.622Z" fill="#818182" fill-rule="evenodd"/><path d="M601.389 117.04C601.173 117.187 600.929 117.274 600.658 117.301 600.89 117.194 601.134 117.108 601.389 117.04Z" fill="#404040" fill-rule="evenodd"/><path d="M656.985 116.987C657.174 117.003 657.348 117.064 657.508 117.17 657.828 117.45 658.159 117.703 658.5 117.928 658.315 117.875 658.141 117.796 657.978 117.693 657.877 117.645 657.824 117.567 657.821 117.458 657.714 117.448 657.609 117.422 657.508 117.379 657.31 117.277 657.136 117.147 656.985 116.987Z" fill="#C7C7C7" fill-rule="evenodd"/><path d="M668.271 119.025C668.254 119.025 668.237 119.025 668.219 119.025 668.238 118.806 668.351 118.649 668.559 118.555 668.598 118.194 668.659 117.837 668.742 117.484 668.725 117.423 668.707 117.362 668.69 117.301 668.299 117.363 667.916 117.441 667.54 117.536 667.314 117.562 667.088 117.571 666.861 117.562 667.511 117.409 668.173 117.287 668.846 117.196 668.79 117.67 668.712 118.14 668.611 118.607 668.427 118.695 668.314 118.834 668.271 119.025Z" fill="#939394" fill-rule="evenodd"/><path d="M658.291 117.144C658.598 117.294 658.877 117.485 659.127 117.719 658.79 117.608 658.512 117.416 658.291 117.144Z" fill="#909091" fill-rule="evenodd"/><path d="M666.861 117.562C666.855 117.595 666.838 117.621 666.808 117.641 666.433 117.686 666.067 117.746 665.711 117.823 665.485 117.846 665.259 117.863 665.032 117.876 665.239 117.814 665.448 117.762 665.659 117.719 666.047 117.624 666.447 117.572 666.861 117.562Z" fill="#9C9C9D" fill-rule="evenodd"/><path d="M672.295 116.674C672.19 116.709 672.086 116.743 671.981 116.778 671.135 116.92 670.282 117.05 669.421 117.17 669.35 117.253 669.315 117.349 669.317 117.458 669.163 117.856 669.077 118.274 669.055 118.712 668.993 118.687 668.958 118.635 668.951 118.555 669.033 118.054 669.155 117.566 669.317 117.092 670.305 116.924 671.297 116.784 672.295 116.674Z" fill="#787878" fill-rule="evenodd"/><path d="M665.659 117.719C665.448 117.762 665.239 117.814 665.032 117.876 664.567 117.962 664.097 118.031 663.621 118.085 663.466 118.111 663.326 118.163 663.203 118.241 663.029 118.241 662.855 118.241 662.681 118.241 662.903 118.19 663.129 118.129 663.36 118.059 664.131 117.962 664.897 117.849 665.659 117.719Z" fill="#777778" fill-rule="evenodd"/><path d="M659.127 117.719C659.232 117.719 659.336 117.719 659.441 117.719 659.441 117.771 659.441 117.823 659.441 117.876 659.719 117.901 659.911 118.041 660.016 118.294 659.728 118.089 659.432 117.898 659.127 117.719Z" fill="#6D6C6F" fill-rule="evenodd"/><path d="M665.711 117.823C665.566 117.891 665.409 117.944 665.241 117.98 664.562 118.072 663.882 118.159 663.203 118.241 663.326 118.163 663.466 118.111 663.621 118.085 664.097 118.031 664.567 117.962 665.032 117.876 665.259 117.863 665.485 117.846 665.711 117.823Z" fill="#D6D6D6" fill-rule="evenodd"/><path d="M666.965 118.869C666.896 119.021 666.844 119.177 666.808 119.339 666.882 118.96 666.934 118.577 666.965 118.189 666.31 118.315 665.648 118.402 664.98 118.45 664.98 118.433 664.98 118.415 664.98 118.398 665.629 118.36 666.256 118.255 666.861 118.085 666.917 118.036 666.986 118.018 667.07 118.032 667.054 118.316 667.019 118.594 666.965 118.869Z" fill="#727273" fill-rule="evenodd"/><path d="M658.709 118.032C658.851 118.059 658.982 118.111 659.101 118.189 659.292 118.342 659.492 118.482 659.702 118.607 659.738 118.661 659.773 118.713 659.807 118.764 659.685 118.67 659.546 118.609 659.389 118.581 659.336 118.437 659.232 118.367 659.075 118.372 658.929 118.282 658.808 118.169 658.709 118.032Z" fill="#B4B4B5" fill-rule="evenodd"/><path d="M666.861 118.085C666.256 118.255 665.629 118.36 664.98 118.398 664.98 118.381 664.98 118.363 664.98 118.346 665.6 118.22 666.227 118.133 666.861 118.085Z" fill="#A4A4A5" fill-rule="evenodd"/><path d="M662.054 118.346C662.048 118.378 662.031 118.405 662.001 118.424 661.576 118.494 661.149 118.555 660.721 118.607 660.649 118.607 660.588 118.589 660.538 118.555 661.042 118.471 661.547 118.402 662.054 118.346Z" fill="#979798" fill-rule="evenodd"/><path d="M664.98 118.346C664.98 118.363 664.98 118.381 664.98 118.398 664.98 118.415 664.98 118.433 664.98 118.45 664.62 118.475 664.272 118.527 663.935 118.607 663.551 118.633 663.168 118.668 662.785 118.712 663.491 118.504 664.223 118.382 664.98 118.346Z" fill="#D6D6D7" fill-rule="evenodd"/><path d="M669.317 117.458C669.281 117.845 669.211 118.228 669.108 118.607 669.248 118.85 669.292 119.111 669.238 119.391 669.189 119.493 669.119 119.58 669.029 119.652 669.008 119.822 668.964 119.978 668.899 120.123 668.851 119.801 668.947 119.539 669.186 119.339 669.225 119.11 669.181 118.901 669.055 118.712 669.077 118.274 669.163 117.856 669.317 117.458Z" fill="#9B9B9B" fill-rule="evenodd"/><path d="M649.147 137.313C645.28 137.33 641.413 137.312 637.547 137.261 636.484 136.939 635.692 136.277 635.17 135.276 635.015 134.944 634.936 134.596 634.935 134.231 634.926 131.583 634.935 128.936 634.961 126.288 635.095 125.972 635.174 125.641 635.196 125.295 635.77 124.208 636.659 123.52 637.861 123.232 640.404 123.205 642.947 123.197 645.49 123.205 645.542 121.699 645.559 120.184 645.542 118.66 646.739 118.642 647.932 118.66 649.121 118.712 649.147 124.912 649.156 131.113 649.147 137.313Z" fill="#4D7658" fill-rule="evenodd"/><path d="M654.425 117.51C654.307 118.063 654.289 118.62 654.373 119.182 654.24 118.975 654.188 118.74 654.216 118.477 654.185 118.126 654.255 117.804 654.425 117.51Z" fill="#B0B0B0" fill-rule="evenodd"/><path d="M663.935 118.607C663.707 118.655 663.481 118.707 663.255 118.764 662.855 118.794 662.454 118.829 662.054 118.869 662.296 118.808 662.539 118.756 662.785 118.712 663.168 118.668 663.551 118.633 663.935 118.607Z" fill="#9E9E9F" fill-rule="evenodd"/><path d="M645.542 118.607C646.761 118.607 647.981 118.607 649.2 118.607 649.217 124.851 649.2 131.087 649.147 137.313 649.156 131.113 649.147 124.912 649.121 118.712 647.932 118.66 646.739 118.642 645.542 118.66 645.559 120.184 645.542 121.699 645.49 123.205 645.473 121.664 645.49 120.131 645.542 118.607Z" fill="#5E7965" fill-rule="evenodd"/><path d="M659.807 118.764C659.878 118.756 659.948 118.765 660.016 118.79 660.165 118.915 660.33 119.011 660.512 119.078 660.779 119.016 661.049 118.981 661.322 118.973 661.169 119.024 661.013 119.076 660.852 119.13 660.677 119.156 660.503 119.165 660.329 119.156 660.151 119.03 659.977 118.899 659.807 118.764Z" fill="#AFAFB0" fill-rule="evenodd"/><path d="M663.255 118.764C662.49 118.869 661.723 119.008 660.956 119.182 660.908 119.18 660.874 119.162 660.852 119.13 661.013 119.076 661.169 119.024 661.322 118.973 661.578 118.971 661.822 118.936 662.054 118.869 662.454 118.829 662.855 118.794 663.255 118.764Z" fill="#6C6C6D" fill-rule="evenodd"/><path d="M668.219 119.025C668.237 119.025 668.254 119.025 668.271 119.025 668.367 120.049 668.21 121.024 667.801 121.951 667.785 121.808 667.802 121.669 667.854 121.533 667.927 121.325 668.005 121.116 668.089 120.906 668.115 120.698 668.124 120.489 668.115 120.279 668.262 119.876 668.297 119.458 668.219 119.025Z" fill="#5A5A5B" fill-rule="evenodd"/><path d="M668.219 119.025C668.297 119.458 668.262 119.876 668.115 120.279 668.157 119.939 668.157 119.599 668.115 119.26 668.116 119.162 668.151 119.084 668.219 119.025Z" fill="#B1B1B1" fill-rule="evenodd"/><path d="M654.477 119.443C654.631 119.6 654.718 119.791 654.738 120.018 654.667 119.896 654.589 119.775 654.503 119.652 654.478 119.585 654.469 119.515 654.477 119.443Z" fill="#909092" fill-rule="evenodd"/><path d="M666.965 118.869C666.905 119.319 666.8 119.754 666.652 120.175 666.639 119.878 666.691 119.599 666.808 119.339 666.844 119.177 666.896 119.021 666.965 118.869Z" fill="#A0A0A0" fill-rule="evenodd"/><path d="M654.791 120.018C654.941 120.291 655.132 120.535 655.365 120.75 655.055 120.596 654.863 120.352 654.791 120.018Z" fill="#A8A8A8" fill-rule="evenodd"/><path d="M668.899 120.175C668.938 120.417 668.878 120.626 668.716 120.802 668.665 121.192 668.622 121.575 668.585 121.951 668.581 121.515 668.599 121.079 668.637 120.645 668.69 120.645 668.742 120.645 668.794 120.645 668.803 120.476 668.838 120.32 668.899 120.175Z" fill="#A0A0A1" fill-rule="evenodd"/><path d="M668.115 120.279C668.124 120.489 668.115 120.698 668.089 120.906 668.005 121.116 667.927 121.325 667.854 121.533 667.802 121.669 667.785 121.808 667.801 121.951 667.766 121.951 667.732 121.951 667.697 121.951 667.721 121.556 667.835 121.19 668.036 120.854 668.066 120.73 668.057 120.608 668.01 120.488 668.019 120.401 668.054 120.332 668.115 120.279Z" fill="#C1C1C2" fill-rule="evenodd"/><path d="M655.679 121.063C655.932 121.176 656.141 121.35 656.306 121.586 656.306 121.603 656.306 121.621 656.306 121.638 656.173 121.528 656.016 121.459 655.836 121.429 655.784 121.308 655.732 121.186 655.679 121.063Z" fill="#C6C6C6" fill-rule="evenodd"/><path d="M604.159 121.168C604.153 121.2 604.136 121.226 604.106 121.246 603.744 121.376 603.378 121.489 603.009 121.586 603.376 121.417 603.759 121.277 604.159 121.168Z" fill="#A3A3A3" fill-rule="evenodd"/><path d="M666.652 120.227C666.669 120.813 666.46 121.284 666.025 121.638 666.125 121.507 666.221 121.367 666.312 121.22 666.371 121.123 666.397 121.019 666.39 120.906 666.423 120.901 666.449 120.883 666.469 120.854 666.513 120.634 666.574 120.425 666.652 120.227Z" fill="#C5C5C5" fill-rule="evenodd"/><path d="M666.39 120.906C666.397 121.019 666.371 121.123 666.312 121.22 666.221 121.367 666.125 121.507 666.025 121.638 665.99 121.655 665.955 121.673 665.92 121.69 665.909 121.554 665.969 121.466 666.103 121.429 666.213 121.259 666.308 121.085 666.39 120.906Z" fill="#767677" fill-rule="evenodd"/><path d="M656.306 121.638C656.306 121.621 656.306 121.603 656.306 121.586 656.416 121.57 656.52 121.587 656.619 121.638 656.76 121.742 656.9 121.847 657.037 121.951 656.783 121.871 656.539 121.766 656.306 121.638Z" fill="#7E7E7F" fill-rule="evenodd"/><path d="M602.748 121.638C602.643 121.712 602.521 121.747 602.382 121.742 602.487 121.668 602.609 121.633 602.748 121.638Z" fill="#939393" fill-rule="evenodd"/><path d="M665.92 121.69C665.757 121.88 665.583 122.063 665.398 122.239 665.286 122.273 665.182 122.317 665.084 122.369 665.049 122.369 665.015 122.369 664.98 122.369 665.272 122.118 665.586 121.892 665.92 121.69Z" fill="#818182" fill-rule="evenodd"/><path d="M597.627 122.369C593.978 122.422 590.321 122.439 586.654 122.422 586.672 124.277 586.654 126.123 586.602 127.96 586.602 126.114 586.602 124.268 586.602 122.422 590.268 122.369 593.943 122.352 597.627 122.369Z" fill="#848684" fill-rule="evenodd"/><path d="M657.664 122.265C657.939 122.377 658.227 122.464 658.527 122.526 658.58 122.544 658.607 122.578 658.605 122.631 658.262 122.569 657.948 122.447 657.664 122.265Z" fill="#8F8F90" fill-rule="evenodd"/><path d="M667.697 122.004C667.591 122.374 667.486 122.74 667.383 123.101 667.419 122.766 667.48 122.435 667.566 122.108 667.588 122.042 667.631 122.008 667.697 122.004Z" fill="#CBCBCB" fill-rule="evenodd"/><path d="M658.605 122.631C659.232 122.758 659.859 122.888 660.486 123.023 661.078 123.049 661.67 123.058 662.263 123.049 661.714 123.1 661.157 123.118 660.591 123.101 659.997 122.998 659.405 122.885 658.814 122.761 658.719 122.751 658.649 122.707 658.605 122.631Z" fill="#7E7D7E" fill-rule="evenodd"/><path d="M664.98 122.369C665.015 122.369 665.049 122.369 665.084 122.369 665.033 122.456 664.963 122.525 664.875 122.578 664.367 122.872 663.809 123.028 663.203 123.049 663.496 123.01 663.775 122.923 664.039 122.787 664.35 122.649 664.664 122.51 664.98 122.369Z" fill="#DCDCDC" fill-rule="evenodd"/><path d="M667.697 121.951C667.732 121.951 667.766 121.951 667.801 121.951 667.666 122.379 667.552 122.814 667.462 123.258 667.442 123.287 667.416 123.304 667.383 123.31 667.383 123.24 667.383 123.17 667.383 123.101 667.486 122.74 667.591 122.374 667.697 122.004 667.697 121.986 667.697 121.969 667.697 121.951Z" fill="#686869" fill-rule="evenodd"/><path d="M668.585 122.004C668.495 122.414 668.46 122.832 668.481 123.258 668.445 123.345 668.411 123.432 668.376 123.519 668.367 123.188 668.376 122.856 668.402 122.526 668.432 122.335 668.493 122.16 668.585 122.004Z" fill="#787878" fill-rule="evenodd"/><path d="M664.039 122.787C663.775 122.923 663.496 123.01 663.203 123.049 662.326 123.153 661.455 123.17 660.591 123.101 661.157 123.118 661.714 123.1 662.263 123.049 662.866 123.021 663.458 122.934 664.039 122.787Z" fill="#AEAEAE" fill-rule="evenodd"/><path d="M600.135 123.258C597.33 123.242 594.526 123.259 591.723 123.31 591.816 123.268 591.921 123.241 592.036 123.232 594.744 123.188 597.444 123.197 600.135 123.258Z" fill="#9BAEA1" fill-rule="evenodd"/><path d="M608.339 123.258C611.099 123.205 613.869 123.188 616.647 123.205 616.647 124.459 616.647 125.713 616.647 126.968 614.104 126.968 611.561 126.968 609.018 126.968 611.534 126.915 614.06 126.898 616.595 126.915 616.595 125.696 616.595 124.477 616.595 123.258 613.842 123.258 611.091 123.258 608.339 123.258Z" fill="#90A497" fill-rule="evenodd"/><path d="M662.419 123.258C659.755 123.249 657.09 123.258 654.425 123.284 654.086 123.336 653.755 123.414 653.432 123.519 653.704 123.367 654 123.271 654.32 123.232 657.029 123.188 659.728 123.197 662.419 123.258Z" fill="#97AA9D" fill-rule="evenodd"/><path d="M600.135 123.258C601.409 123.434 602.331 124.096 602.905 125.243 602.977 125.678 603.073 126.114 603.192 126.55 603.218 131.008 603.227 135.467 603.218 139.926 603.009 141.207 602.313 142.121 601.128 142.669 600.99 142.718 600.85 142.762 600.71 142.8 600.414 142.824 600.118 142.85 599.822 142.878 596.948 142.904 594.074 142.913 591.2 142.904 591.2 141.668 591.2 140.431 591.2 139.194 593.987 139.194 596.774 139.194 599.56 139.194 599.56 138.585 599.56 137.975 599.56 137.366 597.052 137.366 594.544 137.366 592.036 137.366 590.329 137.025 589.31 135.998 588.979 134.283 588.928 131.477 588.946 128.673 589.032 125.87 589.402 124.751 590.124 123.941 591.2 123.441 591.368 123.37 591.542 123.326 591.723 123.31 594.526 123.259 597.33 123.242 600.135 123.258Z" fill="#4D7658" fill-rule="evenodd"/><path d="M608.809 137.313C607.659 137.313 606.51 137.313 605.36 137.313 605.352 133.83 605.36 130.347 605.387 126.863 605.404 126.515 605.422 126.167 605.439 125.818 605.621 125.473 605.786 125.125 605.935 124.773 606.236 124.332 606.619 123.984 607.085 123.728 607.233 123.697 607.381 123.662 607.529 123.623 607.569 123.631 607.604 123.648 607.633 123.676 607.752 123.558 607.883 123.453 608.025 123.362 608.144 123.399 608.266 123.39 608.391 123.336 611.091 123.301 613.79 123.301 616.49 123.336 616.514 123.357 616.531 123.384 616.542 123.414 616.485 123.502 616.45 123.598 616.438 123.702 616.489 124.689 616.506 125.674 616.49 126.654 616.457 126.714 616.413 126.766 616.359 126.811 613.992 126.813 611.606 126.796 609.201 126.759 609.06 126.771 608.938 126.823 608.835 126.915 608.829 126.999 608.855 127.078 608.914 127.15 608.907 127.206 608.881 127.249 608.835 127.281 608.809 130.625 608.8 133.969 608.809 137.313Z" fill="#4C7557" fill-rule="evenodd"/><path d="M662.419 123.258C663.839 123.467 664.822 124.233 665.372 125.557 665.491 125.841 665.552 126.138 665.554 126.445 665.554 128.343 665.554 130.242 665.554 132.14 662.027 132.123 658.509 132.14 655 132.193 654.956 132.532 654.93 132.88 654.921 133.238 654.888 133.315 654.844 133.384 654.791 133.447 654.836 133.564 654.854 133.686 654.843 133.812 656.053 133.898 657.273 133.88 658.5 133.76 658.779 133.795 659.058 133.83 659.336 133.865 661.146 133.758 662.958 133.732 664.771 133.786 663.377 133.804 661.984 133.821 660.591 133.839 662.001 133.874 663.412 133.874 664.823 133.839 664.933 133.759 665.055 133.742 665.189 133.786 665.233 133.839 665.25 133.9 665.241 133.969 665.293 133.969 665.345 133.969 665.398 133.969 665.412 135.085 665.395 136.2 665.345 137.313 661.601 137.313 657.856 137.313 654.111 137.313 652.504 136.869 651.555 135.824 651.264 134.178 651.212 131.459 651.23 128.742 651.316 126.027 651.618 124.845 652.324 124.009 653.432 123.519 653.755 123.414 654.086 123.336 654.425 123.284 657.09 123.258 659.755 123.249 662.419 123.258Z" fill="#4D7658" fill-rule="evenodd"/><path d="M631.486 123.937C632.25 124.476 632.72 125.207 632.897 126.132 632.897 129.859 632.897 133.586 632.897 137.313 629.17 137.313 625.442 137.313 621.715 137.313 621.578 137.283 621.439 137.265 621.297 137.261 620.092 136.906 619.265 136.14 618.815 134.962 618.73 134.707 618.686 134.446 618.685 134.178 618.676 132.314 618.685 130.451 618.711 128.587 618.737 128.561 618.763 128.535 618.789 128.509 622.221 128.466 625.652 128.474 629.083 128.535 629.357 128.474 629.47 128.3 629.422 128.013 629.405 128.048 629.387 128.082 629.37 128.117 629.343 127.749 629.343 127.383 629.37 127.02 629.295 126.854 629.164 126.767 628.978 126.759 625.585 126.81 622.189 126.819 618.789 126.785 618.763 126.759 618.737 126.732 618.711 126.706 618.702 126.245 618.693 125.783 618.685 125.322 618.686 124.834 618.721 124.355 618.789 123.885 618.665 123.704 618.665 123.53 618.789 123.362 622.411 123.432 626.033 123.432 629.657 123.362 629.869 123.396 630.078 123.439 630.284 123.493 630.25 123.51 630.215 123.528 630.18 123.545 630.406 123.562 630.633 123.58 630.859 123.597 631.013 123.805 631.222 123.918 631.486 123.937Z" fill="#4C7558" fill-rule="evenodd"/><path d="M667.383 123.31C667.374 123.452 667.348 123.591 667.305 123.728 667.198 123.837 667.12 123.959 667.07 124.094 667.066 123.994 667.084 123.899 667.122 123.806 667.229 123.646 667.315 123.481 667.383 123.31Z" fill="#9C9C9C" fill-rule="evenodd"/><path d="M668.481 123.258C668.459 123.623 668.432 123.989 668.402 124.355 668.39 124.42 668.364 124.472 668.324 124.512 668.316 124.179 668.333 123.848 668.376 123.519 668.411 123.432 668.445 123.345 668.481 123.258Z" fill="#BDBDBD" fill-rule="evenodd"/><path d="M667.07 124.094C667.035 124.285 667 124.477 666.965 124.668 666.873 124.979 666.769 125.293 666.652 125.609 666.661 125.678 666.669 125.748 666.678 125.818 666.698 125.847 666.724 125.864 666.756 125.87 666.826 125.922 666.896 125.975 666.965 126.027 667 126.062 667.035 126.096 667.07 126.132 666.967 126.144 666.871 126.127 666.782 126.079 666.75 125.995 666.698 125.925 666.626 125.87 666.593 125.456 666.645 125.055 666.782 124.668 666.886 124.479 666.982 124.288 667.07 124.094Z" fill="#D0D0D0" fill-rule="evenodd"/><path d="M666.965 124.668C666.88 125.067 666.81 125.467 666.756 125.87 666.724 125.864 666.698 125.847 666.678 125.818 666.669 125.748 666.661 125.678 666.652 125.609 666.769 125.293 666.873 124.979 666.965 124.668Z" fill="#767677" fill-rule="evenodd"/><path d="M668.271 124.982C668.28 125.313 668.271 125.645 668.245 125.975 668.17 126.077 668.074 126.147 667.958 126.184 668.008 126.107 668.069 126.038 668.141 125.975 668.149 125.631 668.192 125.301 668.271 124.982Z" fill="#BBBBBC" fill-rule="evenodd"/><path d="M668.271 124.773C668.271 124.842 668.271 124.912 668.271 124.982 668.192 125.301 668.149 125.631 668.141 125.975 668.069 126.038 668.008 126.107 667.958 126.184 667.661 126.182 667.364 126.164 667.07 126.132 667.035 126.096 667 126.062 666.965 126.027 667.192 126.056 667.418 126.091 667.644 126.132 667.767 126.088 667.888 126.044 668.01 126.001 668.068 125.628 668.129 125.254 668.193 124.877 668.208 124.829 668.234 124.795 668.271 124.773Z" fill="#5B5B5D" fill-rule="evenodd"/><path d="M667.07 126.132C667.364 126.164 667.661 126.182 667.958 126.184 667.952 126.216 667.935 126.242 667.906 126.262 667.643 126.305 667.382 126.297 667.122 126.236 667.103 126.2 667.085 126.165 667.07 126.132Z" fill="#CCCCCD" fill-rule="evenodd"/><path d="M631.486 123.937C631.222 123.918 631.013 123.805 630.859 123.597 630.633 123.58 630.406 123.562 630.18 123.545 630.215 123.528 630.25 123.51 630.284 123.493 630.078 123.439 629.869 123.396 629.657 123.362 626.033 123.432 622.411 123.432 618.789 123.362 618.665 123.53 618.665 123.704 618.789 123.885 618.721 124.355 618.686 124.834 618.685 125.322 618.693 125.783 618.702 126.245 618.711 126.706 618.737 126.732 618.763 126.759 618.789 126.785 622.189 126.819 625.585 126.81 628.978 126.759 629.164 126.767 629.295 126.854 629.37 127.02 629.343 127.383 629.343 127.749 629.37 128.117 629.387 128.082 629.405 128.048 629.422 128.013 629.47 128.3 629.357 128.474 629.083 128.535 625.652 128.474 622.221 128.466 618.789 128.509 618.763 128.535 618.737 128.561 618.711 128.587 618.685 130.451 618.676 132.314 618.685 134.178 618.632 132.271 618.615 130.356 618.632 128.431 622.168 128.431 625.704 128.431 629.239 128.431 629.257 127.934 629.239 127.446 629.187 126.968 625.669 126.968 622.15 126.968 618.632 126.968 618.632 125.713 618.632 124.459 618.632 123.205 622.359 123.197 626.087 123.205 629.814 123.232 630.186 123.303 630.552 123.407 630.911 123.545 631.125 123.651 631.316 123.782 631.486 123.937Z" fill="#5C7B65" fill-rule="evenodd"/><path d="M655 126.968C657.281 126.968 659.563 126.968 661.845 126.968 661.845 127.612 661.845 128.257 661.845 128.901 659.563 128.901 657.281 128.901 655 128.901 655 128.257 655 127.612 655 126.968Z" fill="#ECF7EF" fill-rule="evenodd"/><path d="M592.663 126.968C594.962 126.968 597.261 126.968 599.56 126.968 599.56 129.179 599.56 131.392 599.56 133.603 597.261 133.603 594.962 133.603 592.663 133.603 592.663 131.392 592.663 129.179 592.663 126.968Z" fill="#FDFEFD" fill-rule="evenodd"/><path d="M645.542 118.607C646.787 118.555 648.041 118.538 649.304 118.555 649.321 124.834 649.304 131.104 649.252 137.366 649.269 131.104 649.252 124.851 649.2 118.607 647.981 118.607 646.761 118.607 645.542 118.607Z" fill="#E0EBE1" fill-rule="evenodd"/><path d="M656.201 127.02C656.2 127.072 656.226 127.107 656.28 127.124 658.024 127.733 659.792 128.064 661.583 128.117 661.654 128.082 661.724 128.047 661.792 128.013 661.792 128.291 661.792 128.57 661.792 128.849 659.562 128.872 657.332 128.846 655.104 128.77 655.171 128.702 655.163 128.642 655.078 128.587 655.055 128.108 655.047 127.638 655.052 127.177 655.116 127.086 655.202 127.033 655.313 127.02 655.604 127.035 655.9 127.035 656.201 127.02Z" fill="#FDFEFD" fill-rule="evenodd"/><path d="M656.201 127.02C658.051 127.028 659.897 127.045 661.74 127.072 661.79 127.382 661.807 127.696 661.792 128.013 661.724 128.047 661.654 128.082 661.583 128.117 659.792 128.064 658.024 127.733 656.28 127.124 656.226 127.107 656.2 127.072 656.201 127.02Z" fill="#F5F5F5" fill-rule="evenodd"/><path d="M602.905 125.243C603.073 125.513 603.187 125.809 603.244 126.132 603.288 130.739 603.279 135.337 603.218 139.926 603.227 135.467 603.218 131.008 603.192 126.55 603.073 126.114 602.977 125.678 602.905 125.243Z" fill="#67816E" fill-rule="evenodd"/><path d="M605.935 124.773C605.786 125.125 605.621 125.473 605.439 125.818 605.422 126.167 605.404 126.515 605.387 126.863 605.36 130.347 605.352 133.83 605.36 137.313 605.308 133.63 605.291 129.938 605.308 126.236 605.376 125.684 605.585 125.196 605.935 124.773Z" fill="#56735F" fill-rule="evenodd"/><path d="M608.339 123.258C611.091 123.258 613.842 123.258 616.595 123.258 616.595 124.477 616.595 125.696 616.595 126.915 614.06 126.898 611.534 126.915 609.018 126.968 608.966 130.407 608.949 133.856 608.966 137.313 608.914 137.313 608.861 137.313 608.809 137.313 608.8 133.969 608.809 130.625 608.835 127.281 608.881 127.249 608.907 127.206 608.914 127.15 608.855 127.078 608.829 126.999 608.835 126.915 608.938 126.823 609.06 126.771 609.201 126.759 611.606 126.796 613.992 126.813 616.359 126.811 616.413 126.766 616.457 126.714 616.49 126.654 616.506 125.674 616.489 124.689 616.438 123.702 616.45 123.598 616.485 123.502 616.542 123.414 616.531 123.384 616.514 123.357 616.49 123.336 613.79 123.301 611.091 123.301 608.391 123.336 608.266 123.39 608.144 123.399 608.025 123.362 607.883 123.453 607.752 123.558 607.633 123.676 607.604 123.648 607.569 123.631 607.529 123.623 607.381 123.662 607.233 123.697 607.085 123.728 607.452 123.448 607.87 123.292 608.339 123.258Z" fill="#4F745A" fill-rule="evenodd"/><path d="M605.308 126.236C605.291 129.938 605.308 133.63 605.36 137.313 606.51 137.313 607.659 137.313 608.809 137.313 608.861 137.313 608.914 137.313 608.966 137.313 608.949 133.856 608.966 130.407 609.018 126.968 609.018 130.433 609.018 133.9 609.018 137.366 607.764 137.366 606.51 137.366 605.256 137.366 605.239 133.647 605.256 129.937 605.308 126.236Z" fill="#8DA091" fill-rule="evenodd"/><path d="M609.018 126.968C611.561 126.968 614.104 126.968 616.647 126.968 616.54 127.018 616.427 127.07 616.307 127.124 615.195 127.055 614.072 127.02 612.937 127.02 611.739 127.039 610.546 127.039 609.358 127.02 609.181 127.013 609.12 127.082 609.175 127.229 609.131 130.31 609.105 133.392 609.096 136.477 609.088 136.783 609.061 137.079 609.018 137.366 609.018 133.9 609.018 130.433 609.018 126.968Z" fill="#F5FBF4" fill-rule="evenodd"/><path d="M635.196 125.295C635.174 125.641 635.095 125.972 634.961 126.288 634.935 128.936 634.926 131.583 634.935 134.231 634.874 131.54 634.865 128.84 634.909 126.132 634.974 125.837 635.069 125.558 635.196 125.295Z" fill="#778E7E" fill-rule="evenodd"/><path d="M629.187 126.968C629.239 127.446 629.257 127.934 629.239 128.431 625.704 128.431 622.168 128.431 618.632 128.431 622.142 128.378 625.66 128.361 629.187 128.378 629.187 127.908 629.187 127.438 629.187 126.968Z" fill="#D1E1D4" fill-rule="evenodd"/><path d="M586.602 128.64C586.497 129.551 586.358 130.456 586.184 131.357 586.124 131.476 586.072 131.598 586.027 131.722 586.051 131.072 586.112 130.428 586.21 129.789 586.399 129.469 586.512 129.121 586.55 128.744 586.541 128.692 586.558 128.657 586.602 128.64Z" fill="#53725A" fill-rule="evenodd"/><path d="M586.55 128.744C586.512 129.121 586.399 129.469 586.21 129.789 586.112 130.428 586.051 131.072 586.027 131.722 586.005 131.928 585.953 132.119 585.871 132.297 585.751 131.101 585.934 129.951 586.419 128.849 586.456 128.803 586.5 128.768 586.55 128.744Z" fill="#354F3B" fill-rule="evenodd"/><path d="M622.394 131.722C622.394 131.705 622.394 131.687 622.394 131.67 624.676 131.67 626.958 131.67 629.239 131.67 629.239 132.314 629.239 132.959 629.239 133.603 629.222 133.603 629.204 133.603 629.187 133.603 629.187 132.976 629.187 132.349 629.187 131.722 626.923 131.722 624.659 131.722 622.394 131.722Z" fill="#CEDDD0" fill-rule="evenodd"/><path d="M622.394 131.722C624.659 131.722 626.923 131.722 629.187 131.722 629.187 132.349 629.187 132.976 629.187 133.603 626.923 133.603 624.659 133.603 622.394 133.603 622.394 132.976 622.394 132.349 622.394 131.722Z" fill="#FDFEFD" fill-rule="evenodd"/><path d="M554.729 131.879C554.887 132.268 555.027 132.669 555.146 133.081 554.947 132.708 554.807 132.308 554.729 131.879Z" fill="#C5D5C9" fill-rule="evenodd"/><path d="M665.554 126.445C665.624 128.361 665.624 130.277 665.554 132.193 662.036 132.193 658.518 132.193 655 132.193 658.509 132.14 662.027 132.123 665.554 132.14 665.554 130.242 665.554 128.343 665.554 126.445Z" fill="#8BA693" fill-rule="evenodd"/><path d="M655 132.193C658.518 132.193 662.036 132.193 665.554 132.193 665.502 132.254 665.433 132.288 665.345 132.297 661.916 132.245 658.484 132.228 655.052 132.245 655.061 132.616 655.061 132.982 655.052 133.342 655.053 133.422 655.088 133.483 655.156 133.525 658.658 133.517 662.141 133.56 665.607 133.656 665.589 133.656 665.572 133.656 665.554 133.656 662.036 133.656 658.518 133.656 655 133.656 655 133.168 655 132.68 655 132.193Z" fill="#E3EFE7" fill-rule="evenodd"/><path d="M586.602 122.422C586.602 124.268 586.602 126.114 586.602 127.96 586.602 128.187 586.602 128.413 586.602 128.64 586.558 128.657 586.541 128.692 586.55 128.744 586.5 128.768 586.456 128.803 586.419 128.849 585.934 129.951 585.751 131.101 585.871 132.297 585.871 132.332 585.871 132.367 585.871 132.402 585.722 132.778 585.582 133.161 585.453 133.551 585.361 133.612 585.309 133.699 585.296 133.812 585.033 134.058 584.772 134.302 584.512 134.544 584.718 134.215 584.927 133.884 585.139 133.551 585.182 133.505 585.234 133.487 585.296 133.499 585.422 133.275 585.5 133.032 585.531 132.767 585.613 131.825 585.709 130.885 585.818 129.946 585.982 129.655 586.077 129.342 586.106 129.005 586.31 128.728 586.458 128.432 586.55 128.117 586.533 126.21 586.55 124.311 586.602 122.422Z" fill="#1E2B22" fill-rule="evenodd"/><path d="M585.871 132.402C585.81 132.819 585.671 133.202 585.453 133.551 585.582 133.161 585.722 132.778 585.871 132.402Z" fill="#959C97" fill-rule="evenodd"/><path d="M586.55 128.117C586.458 128.432 586.31 128.728 586.106 129.005 586.077 129.342 585.982 129.655 585.818 129.946 585.709 130.885 585.613 131.825 585.531 132.767 585.5 133.032 585.422 133.275 585.296 133.499 585.234 133.487 585.182 133.505 585.139 133.551 584.927 133.884 584.718 134.215 584.512 134.544 584.338 134.782 584.138 135.009 583.911 135.223 583.791 135.448 583.634 135.639 583.441 135.798 583.39 135.897 583.355 136.001 583.336 136.112 583.206 136.205 583.093 136.318 582.997 136.451 582.947 136.476 582.895 136.485 582.84 136.477 582.832 136.422 582.841 136.37 582.866 136.321 583.726 135.287 584.544 134.225 585.322 133.133 585.486 132.029 585.625 130.914 585.74 129.789 585.887 129.163 586.156 128.606 586.55 128.117Z" fill="#080E0A" fill-rule="evenodd"/><path d="M586.184 131.357C586.113 131.731 586.069 132.114 586.053 132.506 585.943 132.835 585.856 133.167 585.792 133.499 585.713 133.652 585.644 133.809 585.583 133.969 585.566 133.952 585.548 133.934 585.531 133.917 585.462 134.117 585.349 134.282 585.191 134.413 585.254 134.471 585.254 134.533 585.191 134.596 585.11 134.646 585.024 134.664 584.93 134.649 584.899 135.083 584.69 135.413 584.303 135.641 584.42 135.385 584.56 135.141 584.721 134.91 584.926 134.552 585.118 134.187 585.296 133.812 585.309 133.699 585.361 133.612 585.453 133.551 585.671 133.202 585.81 132.819 585.871 132.402 585.871 132.367 585.871 132.332 585.871 132.297 585.953 132.119 586.005 131.928 586.027 131.722 586.072 131.598 586.124 131.476 586.184 131.357Z" fill="#E3E7E3" fill-rule="evenodd"/><path d="M592.663 126.968C592.663 129.179 592.663 131.392 592.663 133.603 594.962 133.603 597.261 133.603 599.56 133.603 597.253 133.656 594.936 133.673 592.611 133.656 592.594 131.417 592.611 129.188 592.663 126.968Z" fill="#9FB5A6" fill-rule="evenodd"/><path d="M622.394 131.67C622.394 131.687 622.394 131.705 622.394 131.722 622.394 132.349 622.394 132.976 622.394 133.603 624.659 133.603 626.923 133.603 629.187 133.603 629.204 133.603 629.222 133.603 629.239 133.603 626.949 133.656 624.65 133.673 622.342 133.656 622.325 132.985 622.342 132.323 622.394 131.67Z" fill="#AFC2B5" fill-rule="evenodd"/><path d="M638.645 126.968C638.645 129.179 638.645 131.392 638.645 133.603 640.927 133.603 643.208 133.603 645.49 133.603 645.49 131.392 645.49 129.179 645.49 126.968 645.542 129.188 645.559 131.417 645.542 133.656 643.226 133.656 640.909 133.656 638.593 133.656 638.575 131.417 638.593 129.188 638.645 126.968Z" fill="#9CB1A3" fill-rule="evenodd"/><path d="M638.645 126.968C640.927 126.968 643.208 126.968 645.49 126.968 645.49 129.179 645.49 131.392 645.49 133.603 643.208 133.603 640.927 133.603 638.645 133.603 638.645 131.392 638.645 129.179 638.645 126.968Z" fill="#EFFAF1" fill-rule="evenodd"/><path d="M638.802 127.02C640.997 127.003 643.191 127.02 645.385 127.072 645.385 129.173 645.385 131.289 645.385 133.421 645.364 133.47 645.329 133.505 645.281 133.525 643.086 133.551 640.892 133.56 638.697 133.551 638.688 131.426 638.697 129.302 638.723 127.177 638.75 127.123 638.776 127.07 638.802 127.02Z" fill="#FEFEFE" fill-rule="evenodd"/><path d="M655 132.193C655 132.68 655 133.168 655 133.656 658.518 133.656 662.036 133.656 665.554 133.656 665.554 134.875 665.554 136.094 665.554 137.313 665.485 137.313 665.415 137.313 665.345 137.313 665.395 136.2 665.412 135.085 665.398 133.969 665.345 133.969 665.293 133.969 665.241 133.969 665.25 133.9 665.233 133.839 665.189 133.786 665.055 133.742 664.933 133.759 664.823 133.839 663.412 133.874 662.001 133.874 660.591 133.839 661.984 133.821 663.377 133.804 664.771 133.786 662.958 133.732 661.146 133.758 659.336 133.865 659.058 133.83 658.779 133.795 658.5 133.76 657.273 133.88 656.053 133.898 654.843 133.812 654.854 133.686 654.836 133.564 654.791 133.447 654.844 133.384 654.888 133.315 654.921 133.238 654.93 132.88 654.956 132.532 655 132.193Z" fill="#4F745A" fill-rule="evenodd"/><path d="M585.296 133.812C585.118 134.187 584.926 134.552 584.721 134.91 584.659 134.898 584.607 134.916 584.564 134.962 584.462 135.183 584.34 135.392 584.198 135.589 583.974 135.796 583.773 136.022 583.598 136.268 583.264 136.558 582.925 136.845 582.579 137.13 582.425 137.362 582.233 137.545 582.004 137.679 582.015 137.741 581.998 137.793 581.952 137.836 581.598 138.138 581.249 138.434 580.907 138.724 580.907 138.62 580.907 138.515 580.907 138.411 580.987 138.452 581.074 138.47 581.168 138.463 581.159 138.394 581.176 138.333 581.22 138.28 581.859 137.658 582.512 137.057 583.18 136.477 583.613 135.926 584.039 135.368 584.46 134.805 584.509 134.724 584.527 134.638 584.512 134.544 584.772 134.302 585.033 134.058 585.296 133.812Z" fill="#395641" fill-rule="evenodd"/><path d="M584.512 134.544C584.527 134.638 584.509 134.724 584.46 134.805 584.039 135.368 583.613 135.926 583.18 136.477 582.512 137.057 581.859 137.658 581.22 138.28 581.176 138.333 581.159 138.394 581.168 138.463 581.074 138.47 580.987 138.452 580.907 138.411 580.907 138.376 580.907 138.341 580.907 138.306 581.038 138.352 581.125 138.3 581.168 138.149 581.302 138.076 581.389 137.963 581.429 137.81 581.654 137.585 581.906 137.402 582.187 137.261 582.381 136.976 582.599 136.715 582.84 136.477 582.895 136.485 582.947 136.476 582.997 136.451 583.093 136.318 583.206 136.205 583.336 136.112 583.355 136.001 583.39 135.897 583.441 135.798 583.634 135.639 583.791 135.448 583.911 135.223 584.138 135.009 584.338 134.782 584.512 134.544Z" fill="#1D2C20" fill-rule="evenodd"/><path d="M568 137C568.245 137.009 568.489 137.026 568.732 137.052 568.732 137.069 568.732 137.087 568.732 137.104 568.475 137.112 568.231 137.077 568 137Z" fill="#9DB1A4" fill-rule="evenodd"/><path d="M568.732 137.104C568.732 137.087 568.732 137.069 568.732 137.052 569.882 137.107 571.031 137.107 572.181 137.052 571.529 137.131 570.867 137.166 570.195 137.157 569.705 137.155 569.217 137.138 568.732 137.104Z" fill="#D9E7DC" fill-rule="evenodd"/><path d="M632.897 126.132C632.949 129.867 632.967 133.612 632.949 137.366 629.196 137.383 625.451 137.366 621.715 137.313 625.442 137.313 629.17 137.313 632.897 137.313 632.897 133.586 632.897 129.859 632.897 126.132Z" fill="#829284" fill-rule="evenodd"/><path d="M649.2 118.607C649.252 124.851 649.269 131.104 649.252 137.366 645.42 137.375 641.588 137.366 637.756 137.339 637.675 137.329 637.605 137.302 637.547 137.261 641.413 137.312 645.28 137.33 649.147 137.313 649.2 131.087 649.217 124.851 649.2 118.607Z" fill="#93A194" fill-rule="evenodd"/><path d="M665.554 133.656C665.572 133.656 665.589 133.656 665.607 133.656 665.607 134.893 665.607 136.129 665.607 137.366 661.766 137.383 657.934 137.366 654.111 137.313 657.856 137.313 661.601 137.313 665.345 137.313 665.415 137.313 665.485 137.313 665.554 137.313 665.554 136.094 665.554 134.875 665.554 133.656Z" fill="#92A194" fill-rule="evenodd"/><path d="M621.297 137.261C621.439 137.265 621.578 137.283 621.715 137.313 625.451 137.366 629.196 137.383 632.949 137.366 629.196 137.427 625.434 137.435 621.663 137.392 621.527 137.371 621.405 137.328 621.297 137.261Z" fill="#D9E5DB" fill-rule="evenodd"/><path d="M592.036 137.366C594.544 137.366 597.052 137.366 599.56 137.366 599.56 137.975 599.56 138.585 599.56 139.194 596.774 139.194 593.987 139.194 591.2 139.194 591.183 139.194 591.165 139.194 591.148 139.194 593.926 139.142 596.713 139.125 599.508 139.142 599.508 138.567 599.508 137.993 599.508 137.418 597.008 137.435 594.518 137.418 592.036 137.366Z" fill="#D6E4D9" fill-rule="evenodd"/><path d="M564.447 141.18C564.722 141.24 565.001 141.283 565.283 141.311 565.547 141.441 565.826 141.527 566.119 141.572 566.29 141.613 566.455 141.604 566.616 141.546 566.881 141.643 567.151 141.661 567.426 141.598 567.71 141.751 568.015 141.838 568.34 141.859 569.536 141.854 570.747 141.854 571.972 141.859 572.4 141.763 572.835 141.701 573.278 141.676 573.326 141.657 573.369 141.631 573.409 141.598 573.768 141.64 574.125 141.64 574.48 141.598 574.174 141.676 573.86 141.746 573.539 141.807 572.427 141.92 571.313 141.99 570.195 142.016 569.497 142.005 568.8 141.97 568.105 141.912 566.845 141.846 565.626 141.602 564.447 141.18Z" fill="#597A64" fill-rule="evenodd"/><path d="M573.539 141.807C573.309 141.888 573.065 141.931 572.808 141.938 571.521 142.055 570.232 142.089 568.941 142.042 568.65 142.029 568.372 141.986 568.105 141.912 568.8 141.97 569.497 142.005 570.195 142.016 571.313 141.99 572.427 141.92 573.539 141.807Z" fill="#C9D7CD" fill-rule="evenodd"/><path d="M612.101 142.277C612.101 142.295 612.101 142.312 612.101 142.33 612.118 143.619 612.101 144.908 612.049 146.196 612.017 146.19 612 146.172 611.996 146.144 612.031 144.855 612.066 143.566 612.101 142.277Z" fill="#585858" fill-rule="evenodd"/><path d="M612.101 142.33C612.327 142.33 612.554 142.33 612.78 142.33 612.763 145.091 612.78 147.842 612.832 150.585 612.854 150.881 612.871 151.177 612.885 151.474 612.641 151.474 612.397 151.474 612.153 151.474 612.167 151.39 612.149 151.32 612.101 151.265 612.118 150.984 612.1 150.705 612.049 150.429 611.216 151.569 610.136 151.891 608.809 151.395 607.829 150.821 607.306 149.959 607.241 148.809 607.236 148.268 607.253 147.728 607.294 147.189 607.368 147.084 607.403 146.962 607.398 146.823 608.103 145.092 609.34 144.543 611.108 145.177 611.506 145.41 611.803 145.732 611.996 146.144 612 146.172 612.017 146.19 612.049 146.196 612.101 144.908 612.118 143.619 612.101 142.33Z" fill="#060606" fill-rule="evenodd"/><path d="M612.101 142.33C612.101 142.312 612.101 142.295 612.101 142.277 612.345 142.277 612.588 142.277 612.832 142.277 612.832 145.047 612.832 147.816 612.832 150.585 612.78 147.842 612.763 145.091 612.78 142.33 612.554 142.33 612.327 142.33 612.101 142.33Z" fill="#313131" fill-rule="evenodd"/><path d="M591.148 139.194C591.165 139.194 591.183 139.194 591.2 139.194 591.2 140.431 591.2 141.668 591.2 142.904 594.074 142.913 596.948 142.904 599.822 142.878 600.118 142.85 600.414 142.824 600.71 142.8 600.532 142.875 600.341 142.918 600.135 142.93 597.14 142.957 594.144 142.965 591.148 142.957 591.148 141.703 591.148 140.448 591.148 139.194Z" fill="#7D9184" fill-rule="evenodd"/><path d="M583.258 145.047C582.701 144.979 582.143 144.979 581.586 145.047 581.644 145.005 581.713 144.979 581.795 144.968 582.23 144.933 582.666 144.933 583.101 144.968 583.166 144.98 583.218 145.006 583.258 145.047Z" fill="#525252" fill-rule="evenodd"/><path d="M625.164 144.994C624.709 144.983 624.256 145.001 623.805 145.047 623.845 145.006 623.897 144.98 623.962 144.968 624.372 144.925 624.772 144.934 625.164 144.994Z" fill="#4C4C4C" fill-rule="evenodd"/><path d="M568.889 144.994C568.998 145.052 569.12 145.087 569.254 145.099 569.87 145.305 570.262 145.723 570.43 146.353 570.48 148.061 570.541 149.767 570.613 151.474 570.387 151.474 570.16 151.474 569.934 151.474 569.907 151.175 569.864 150.879 569.803 150.585 569.244 151.324 568.495 151.672 567.556 151.63 565.939 151.512 565.26 150.658 565.518 149.07 565.818 148.358 566.349 147.94 567.112 147.816 567.251 147.821 567.373 147.786 567.478 147.711 568.223 147.619 568.972 147.584 569.725 147.607 569.863 145.821 569.061 145.168 567.321 145.648 566.95 145.841 566.741 146.146 566.694 146.562 566.467 146.659 566.223 146.693 565.963 146.666 565.963 146.545 565.963 146.422 565.963 146.301 566.045 146.217 566.08 146.113 566.067 145.987 566.244 145.618 566.523 145.357 566.903 145.203 567.107 145.153 567.298 145.083 567.478 144.994 567.947 144.926 568.417 144.926 568.889 144.994Z" fill="#090909" fill-rule="evenodd"/><path d="M568.889 144.994C569.031 144.977 569.153 145.012 569.254 145.099 569.12 145.087 568.998 145.052 568.889 144.994Z" fill="#858585" fill-rule="evenodd"/><path d="M583.258 145.047C584.311 145.317 584.869 145.996 584.93 147.084 584.686 147.084 584.443 147.084 584.198 147.084 584.158 146.403 583.827 145.923 583.206 145.648 582.115 145.32 581.253 145.625 580.619 146.562 580.496 146.756 580.418 146.965 580.384 147.189 580.31 147.294 580.275 147.416 580.28 147.555 580.084 148.585 580.285 149.525 580.88 150.376 581.643 151.128 582.505 151.258 583.467 150.768 583.936 150.449 584.18 150.005 584.198 149.436 584.443 149.436 584.686 149.436 584.93 149.436 584.888 150.33 584.47 150.974 583.676 151.369 583.444 151.441 583.218 151.51 582.997 151.578 581.141 151.849 579.983 151.082 579.522 149.279 579.274 148.141 579.448 147.078 580.044 146.092 580.432 145.555 580.945 145.206 581.586 145.047 582.143 144.979 582.701 144.979 583.258 145.047Z" fill="#080808" fill-rule="evenodd"/><path d="M597.732 151.265C597.744 151.03 597.709 150.804 597.627 150.585 597.595 150.592 597.578 150.609 597.575 150.638 597.303 151.014 596.955 151.293 596.53 151.474 596.047 151.561 595.559 151.596 595.067 151.578 593.692 151.396 593.091 150.612 593.264 149.227 593.601 148.348 594.237 147.852 595.171 147.738 595.95 147.623 596.734 147.579 597.523 147.607 597.523 147.276 597.523 146.945 597.523 146.614 597.535 146.489 597.5 146.384 597.418 146.301 597.249 145.849 596.918 145.596 596.425 145.543 595.702 145.361 595.101 145.544 594.623 146.092 594.598 146.141 594.589 146.194 594.597 146.248 594.515 146.332 594.479 146.437 594.492 146.562 594.492 146.597 594.492 146.631 594.492 146.666 594.248 146.666 594.005 146.666 593.761 146.666 593.761 146.579 593.761 146.492 593.761 146.405 593.883 145.743 594.266 145.307 594.91 145.099 595.049 145.104 595.171 145.069 595.276 144.994 596.159 144.807 596.978 144.955 597.732 145.439 598.076 145.815 598.259 146.259 598.28 146.771 598.283 148.34 598.326 149.908 598.411 151.474 598.185 151.474 597.958 151.474 597.732 151.474 597.732 151.404 597.732 151.334 597.732 151.265Z" fill="#080808" fill-rule="evenodd"/><path d="M625.164 144.994C625.398 145.026 625.625 145.096 625.843 145.203 626.359 145.528 626.725 145.981 626.94 146.562 626.936 146.7 626.971 146.823 627.045 146.928 627.04 147.066 627.075 147.188 627.149 147.293 627.149 147.346 627.149 147.398 627.149 147.45 627.174 147.763 627.191 148.077 627.202 148.391 625.617 148.391 624.032 148.391 622.447 148.391 622.43 148.61 622.448 148.819 622.499 149.018 622.623 150.003 623.145 150.674 624.067 151.029 625.341 151.246 626.125 150.733 626.418 149.488 626.644 149.488 626.871 149.488 627.097 149.488 627.097 149.558 627.097 149.628 627.097 149.697 626.929 150.473 626.494 151.03 625.791 151.369 625.11 151.635 624.413 151.687 623.701 151.526 622.783 151.261 622.182 150.669 621.898 149.749 621.676 148.866 621.658 147.977 621.846 147.084 622.112 146.156 622.678 145.486 623.544 145.073 623.629 145.047 623.716 145.038 623.805 145.047 624.256 145.001 624.709 144.983 625.164 144.994Z" fill="#060606" fill-rule="evenodd"/><path d="M625.164 144.994C625.434 144.95 625.661 145.021 625.843 145.203 625.625 145.096 625.398 145.026 625.164 144.994Z" fill="#A9A9A9" fill-rule="evenodd"/><path d="M567.478 144.994C567.298 145.083 567.107 145.153 566.903 145.203 567.066 145.073 567.258 145.004 567.478 144.994Z" fill="#595959" fill-rule="evenodd"/><path d="M595.276 144.994C595.171 145.069 595.049 145.104 594.91 145.099 595.015 145.025 595.137 144.99 595.276 144.994Z" fill="#686868" fill-rule="evenodd"/><path d="M638.384 145.047C639.536 144.856 640.372 145.274 640.892 146.301 641.662 145.084 642.742 144.71 644.131 145.177 644.875 145.609 645.249 146.263 645.255 147.137 645.281 148.582 645.29 150.028 645.281 151.474 645.037 151.474 644.793 151.474 644.549 151.474 644.558 150.011 644.549 148.547 644.523 147.084 644.513 146.986 644.487 146.899 644.445 146.823 644.232 146.01 643.7 145.627 642.851 145.674 642.044 145.655 641.495 146.021 641.205 146.771 641.131 146.876 641.096 146.998 641.101 147.137 641.049 148.578 641.032 150.024 641.048 151.474 640.804 151.474 640.561 151.474 640.317 151.474 640.326 150.08 640.317 148.686 640.291 147.293 640.271 146.237 639.74 145.698 638.697 145.674 637.812 145.695 637.229 146.13 636.947 146.98 636.905 147.135 636.87 147.292 636.842 147.45 636.816 148.791 636.807 150.132 636.816 151.474 636.572 151.474 636.328 151.474 636.084 151.474 636.084 149.54 636.084 147.607 636.084 145.674 636.084 145.482 636.084 145.291 636.084 145.099 636.311 145.099 636.537 145.099 636.764 145.099 636.799 145.439 636.833 145.788 636.868 146.144 637.127 145.666 637.51 145.336 638.018 145.151 638.156 145.156 638.279 145.121 638.384 145.047Z" fill="#040404" fill-rule="evenodd"/><path d="M654.686 145.099C654.38 145.082 654.084 145.099 653.798 145.151 653.77 145.148 653.752 145.131 653.746 145.099 654.067 145.03 654.38 145.03 654.686 145.099Z" fill="#757575" fill-rule="evenodd"/><path d="M658.971 145.099C659.222 145.047 659.483 145.03 659.755 145.047 659.767 145.114 659.749 145.166 659.702 145.203 659.482 145.102 659.238 145.068 658.971 145.099Z" fill="#727272" fill-rule="evenodd"/><path d="M638.384 145.047C638.279 145.121 638.156 145.156 638.018 145.151 638.123 145.077 638.245 145.042 638.384 145.047Z" fill="#6E6E6E" fill-rule="evenodd"/><path d="M653.798 145.151C654.084 145.099 654.38 145.082 654.686 145.099 655.377 146.866 656.101 148.625 656.854 150.376 657.583 148.626 658.289 146.868 658.971 145.099 659.238 145.068 659.482 145.102 659.702 145.203 658.512 148.093 657.363 151.002 656.254 153.929 655.992 153.929 655.731 153.929 655.47 153.929 655.785 153.107 656.116 152.289 656.463 151.474 655.605 149.353 654.716 147.245 653.798 145.151Z" fill="#080808" fill-rule="evenodd"/><path d="M610.272 145.569C609.974 145.567 609.679 145.584 609.384 145.621 609.552 145.546 609.735 145.511 609.932 145.517 610.056 145.517 610.169 145.535 610.272 145.569Z" fill="#A2A2A2" fill-rule="evenodd"/><path d="M625.164 145.621C624.946 145.603 624.729 145.585 624.511 145.569 624.232 145.584 623.962 145.636 623.701 145.726 623.824 145.641 623.963 145.58 624.119 145.543 624.397 145.508 624.676 145.508 624.955 145.543 625.036 145.554 625.106 145.58 625.164 145.621Z" fill="#BDBDBD" fill-rule="evenodd"/><path d="M625.164 145.621C625.859 145.912 626.268 146.435 626.392 147.189 626.418 147.397 626.427 147.606 626.418 147.816 625.129 147.816 623.84 147.816 622.551 147.816 622.551 147.676 622.551 147.537 622.551 147.398 622.651 147.203 622.721 146.994 622.76 146.771 622.945 146.308 623.258 145.959 623.701 145.726 623.962 145.636 624.232 145.584 624.511 145.569 624.729 145.585 624.946 145.603 625.164 145.621Z" fill="#FCFCFC" fill-rule="evenodd"/><path d="M636.764 145.099C636.537 145.099 636.311 145.099 636.084 145.099 636.084 145.291 636.084 145.482 636.084 145.674 636.033 145.475 636.015 145.266 636.032 145.047 636.286 145.03 636.53 145.047 636.764 145.099Z" fill="#646464" fill-rule="evenodd"/><path d="M610.272 145.569C611.086 145.712 611.617 146.182 611.866 146.98 612.09 147.811 612.108 148.647 611.918 149.488 611.571 150.688 610.778 151.184 609.541 150.977 608.698 150.642 608.21 150.024 608.078 149.122 608.033 148.741 608.016 148.358 608.025 147.973 608.012 147.107 608.326 146.384 608.966 145.804 609.1 145.729 609.24 145.667 609.384 145.621 609.679 145.584 609.974 145.567 610.272 145.569Z" fill="#FCFCFC" fill-rule="evenodd"/><path d="M566.067 145.987C566.08 146.113 566.045 146.217 565.963 146.301 565.95 146.175 565.985 146.071 566.067 145.987Z" fill="#5A5A5A" fill-rule="evenodd"/><path d="M594.597 146.248C594.609 146.374 594.574 146.478 594.492 146.562 594.479 146.437 594.515 146.332 594.597 146.248Z" fill="#939393" fill-rule="evenodd"/><path d="M597.418 146.301C597.5 146.384 597.535 146.489 597.523 146.614 597.441 146.531 597.406 146.426 597.418 146.301Z" fill="#787878" fill-rule="evenodd"/><path d="M565.963 146.301C565.963 146.422 565.963 146.545 565.963 146.666 566.223 146.693 566.467 146.659 566.694 146.562 566.694 146.614 566.694 146.666 566.694 146.719 566.433 146.719 566.172 146.719 565.91 146.719 565.894 146.568 565.912 146.429 565.963 146.301Z" fill="#858585" fill-rule="evenodd"/><path d="M593.761 146.405C593.761 146.492 593.761 146.579 593.761 146.666 594.005 146.666 594.248 146.666 594.492 146.666 594.24 146.713 593.978 146.748 593.708 146.771 593.693 146.637 593.71 146.515 593.761 146.405Z" fill="#B4B4B4" fill-rule="evenodd"/><path d="M626.94 146.562C627.015 146.667 627.05 146.789 627.045 146.928 626.971 146.823 626.936 146.7 626.94 146.562Z" fill="#5A5A5A" fill-rule="evenodd"/><path d="M622.76 146.771C622.721 146.994 622.651 147.203 622.551 147.398 622.57 147.167 622.64 146.958 622.76 146.771Z" fill="#9C9C9C" fill-rule="evenodd"/><path d="M607.398 146.823C607.403 146.962 607.368 147.084 607.294 147.189 607.289 147.05 607.324 146.928 607.398 146.823Z" fill="#545454" fill-rule="evenodd"/><path d="M641.205 146.771C641.21 146.909 641.175 147.032 641.101 147.137 641.096 146.998 641.131 146.876 641.205 146.771Z" fill="#606060" fill-rule="evenodd"/><path d="M627.045 146.928C627.119 147.033 627.154 147.155 627.149 147.293 627.075 147.188 627.04 147.066 627.045 146.928Z" fill="#909090" fill-rule="evenodd"/><path d="M580.384 147.189C580.389 147.327 580.354 147.45 580.28 147.555 580.275 147.416 580.31 147.294 580.384 147.189Z" fill="#707070" fill-rule="evenodd"/><path d="M644.445 146.823C644.487 146.899 644.513 146.986 644.523 147.084 644.549 148.547 644.558 150.011 644.549 151.474 644.511 149.932 644.476 148.381 644.445 146.823Z" fill="#5C5C5C" fill-rule="evenodd"/><path d="M567.478 147.711C567.373 147.786 567.251 147.821 567.112 147.816 567.217 147.742 567.339 147.707 567.478 147.711Z" fill="#606060" fill-rule="evenodd"/><path d="M622.551 147.398C622.551 147.537 622.551 147.676 622.551 147.816 623.84 147.816 625.129 147.816 626.418 147.816 625.12 147.868 623.814 147.885 622.499 147.868 622.483 147.701 622.5 147.544 622.551 147.398Z" fill="#8E8E8E" fill-rule="evenodd"/><path d="M607.294 147.189C607.253 147.728 607.236 148.268 607.241 148.809 607.206 148.6 607.189 148.383 607.189 148.156 607.18 147.821 607.215 147.499 607.294 147.189Z" fill="#2F2F2F" fill-rule="evenodd"/><path d="M627.149 147.45C627.254 147.76 627.271 148.074 627.202 148.391 627.191 148.077 627.174 147.763 627.149 147.45Z" fill="#B3B3B3" fill-rule="evenodd"/><path d="M569.725 148.182C569.045 148.173 568.365 148.191 567.687 148.234 567.763 148.192 567.85 148.166 567.948 148.156 568.549 148.112 569.142 148.121 569.725 148.182Z" fill="#929292" fill-rule="evenodd"/><path d="M569.725 148.182C569.822 148.956 569.691 149.688 569.333 150.376 569.102 150.693 568.797 150.911 568.418 151.029 567.575 151.254 566.887 151.036 566.354 150.376 566.284 150.245 566.241 150.105 566.224 149.958 566.214 149.656 566.249 149.36 566.328 149.07 566.492 148.766 566.736 148.557 567.06 148.443 567.283 148.403 567.492 148.334 567.687 148.234 568.365 148.191 569.045 148.173 569.725 148.182Z" fill="#FBFBFB" fill-rule="evenodd"/><path d="M597.523 149.279C597.523 148.913 597.523 148.547 597.523 148.182 596.842 148.173 596.163 148.191 595.485 148.234 595.578 148.192 595.683 148.166 595.798 148.156 596.39 148.129 596.982 148.121 597.575 148.129 597.592 148.522 597.574 148.905 597.523 149.279Z" fill="#888888" fill-rule="evenodd"/><path d="M597.523 149.279C597.487 149.952 597.191 150.483 596.634 150.873 596.508 150.962 596.369 151.005 596.216 151.003 595.739 151.028 595.269 150.993 594.806 150.899 594.289 150.661 594.028 150.251 594.022 149.671 594.012 149.442 594.056 149.224 594.152 149.018 594.371 148.738 594.641 148.529 594.962 148.391 595.154 148.379 595.328 148.327 595.485 148.234 596.163 148.191 596.842 148.173 597.523 148.182 597.523 148.547 597.523 148.913 597.523 149.279Z" fill="#FCFCFC" fill-rule="evenodd"/><path d="M595.485 148.234C595.328 148.327 595.154 148.379 594.962 148.391 595.119 148.298 595.294 148.245 595.485 148.234Z" fill="#9B9B9B" fill-rule="evenodd"/><path d="M567.687 148.234C567.492 148.334 567.283 148.403 567.06 148.443 567.247 148.322 567.456 148.253 567.687 148.234Z" fill="#B5B5B5" fill-rule="evenodd"/><path d="M627.202 148.391C625.643 148.443 624.075 148.46 622.499 148.443 622.499 148.635 622.499 148.826 622.499 149.018 622.448 148.819 622.43 148.61 622.447 148.391 624.032 148.391 625.617 148.391 627.202 148.391Z" fill="#A8A8A8" fill-rule="evenodd"/><path d="M608.025 147.973C608.016 148.358 608.033 148.741 608.078 149.122 608.037 149.083 608.011 149.03 607.999 148.966 607.956 148.625 607.965 148.294 608.025 147.973Z" fill="#555555" fill-rule="evenodd"/><path d="M626.418 149.488C626.651 149.436 626.895 149.419 627.149 149.436 627.164 149.536 627.147 149.623 627.097 149.697 627.097 149.628 627.097 149.558 627.097 149.488 626.871 149.488 626.644 149.488 626.418 149.488Z" fill="#7D7D7D" fill-rule="evenodd"/><path d="M566.328 149.07C566.249 149.36 566.214 149.656 566.224 149.958 566.14 149.65 566.174 149.354 566.328 149.07Z" fill="#6E6E6E" fill-rule="evenodd"/><path d="M594.806 150.899C595.269 150.993 595.739 151.028 596.216 151.003 596.177 151.044 596.124 151.07 596.06 151.082 595.798 151.117 595.537 151.117 595.276 151.082 595.1 151.055 594.944 150.994 594.806 150.899Z" fill="#B2B2B2" fill-rule="evenodd"/><path d="M597.575 150.638C597.578 150.609 597.595 150.592 597.627 150.585 597.709 150.804 597.744 151.03 597.732 151.265 597.67 151.058 597.618 150.849 597.575 150.638Z" fill="#626262" fill-rule="evenodd"/><path d="M583.676 151.369C583.482 151.521 583.255 151.591 582.997 151.578 583.218 151.51 583.444 151.441 583.676 151.369Z" fill="#AAAAAA" fill-rule="evenodd"/><path d="M612.101 151.265C612.149 151.32 612.167 151.39 612.153 151.474 612.397 151.474 612.641 151.474 612.885 151.474 612.633 151.525 612.372 151.543 612.101 151.526 612.101 151.439 612.101 151.352 612.101 151.265Z" fill="#A9A9A9" fill-rule="evenodd"/><path d="M596.53 151.474C596.45 151.521 596.363 151.565 596.269 151.604 595.859 151.647 595.458 151.639 595.067 151.578 595.559 151.596 596.047 151.561 596.53 151.474Z" fill="#999999" fill-rule="evenodd"/><path d="M625.791 151.369C625.527 151.541 625.231 151.637 624.903 151.656 624.641 151.691 624.38 151.691 624.119 151.656 623.961 151.651 623.821 151.608 623.701 151.526 624.413 151.687 625.11 151.635 625.791 151.369Z" fill="#BFBFBF" fill-rule="evenodd"/></g></g></svg>